<svg width="67" height="67" viewBox="0 0 67 67" fill="none" xmlns="http://www.w3.org/2000/svg">
<defs>
<filter id="filter0_d_994_997" x="5.40124" y="5.25525" width="56.4905" height="56.49" filterUnits="userSpaceOnUse" color-interpolation-filters="sRGB">
<feFlood flood-opacity="0" result="BackgroundImageFix"/>
<feColorMatrix in="SourceAlpha" type="matrix" values="0 0 0 0 0 0 0 0 0 0 0 0 0 0 0 0 0 0 127 0" result="hardAlpha"/>
<feOffset/>
<feGaussianBlur stdDeviation="1.64215"/>
<feComposite in2="hardAlpha" operator="out"/>
<feColorMatrix type="matrix" values="0 0 0 0 0 0 0 0 0 0 0 0 0 0 0 0 0 0 0.25 0"/>
<feBlend mode="normal" in2="BackgroundImageFix" result="effect1_dropShadow_994_997"/>
<feBlend mode="normal" in="SourceGraphic" in2="effect1_dropShadow_994_997" result="shape"/>
</filter>
<filter id="filter1_d_994_997" x="19.6245" y="27.0762" width="27.8409" height="6.84432" filterUnits="userSpaceOnUse" color-interpolation-filters="sRGB">
<feFlood flood-opacity="0" result="BackgroundImageFix"/>
<feColorMatrix in="SourceAlpha" type="matrix" values="0 0 0 0 0 0 0 0 0 0 0 0 0 0 0 0 0 0 127 0" result="hardAlpha"/>
<feOffset dy="0.936078"/>
<feGaussianBlur stdDeviation="0.468039"/>
<feComposite in2="hardAlpha" operator="out"/>
<feColorMatrix type="matrix" values="0 0 0 0 0 0 0 0 0 0 0 0 0 0 0 0 0 0 0.1 0"/>
<feBlend mode="normal" in2="BackgroundImageFix" result="effect1_dropShadow_994_997"/>
<feBlend mode="normal" in="SourceGraphic" in2="effect1_dropShadow_994_997" result="shape"/>
</filter>
<linearGradient id="paint0_linear_994_997" x1="47" y1="29.4807" x2="20" y2="29.4807" gradientUnits="userSpaceOnUse">
<stop stop-color="#FF2252"/>
<stop offset="1" stop-color="#FC7B04"/>
</linearGradient>
<linearGradient id="paint1_linear_994_997" x1="58.607" y1="33.3623" x2="8.68555" y2="33.3623" gradientUnits="userSpaceOnUse">
<stop stop-color="#FF2252"/>
<stop offset="1" stop-color="#FC7B04"/>
</linearGradient>
</defs>
<path d="M66.3072 33.5003C66.3072 51.639 51.6028 66.3433 33.4641 66.3433C15.3254 66.3433 0.621094 51.639 0.621094 33.5003C0.621094 15.3616 15.3254 0.657227 33.4641 0.657227C51.6028 0.657227 66.3072 15.3616 66.3072 33.5003ZM4.53752 33.5003C4.53752 49.476 17.4884 62.4269 33.4641 62.4269C49.4398 62.4269 62.3907 49.476 62.3907 33.5003C62.3907 17.5245 49.4398 4.57366 33.4641 4.57366C17.4884 4.57366 4.53752 17.5245 4.53752 33.5003Z" fill="#EFEFEF"/>
<g filter="url(#filter0_d_994_997)">
<circle cx="33.6463" cy="33.5003" r="24.9607" fill="white"/>
</g>
<g filter="url(#filter1_d_994_997)">
<path d="M24.9031 32H23.7206L21.7427 29.0055V32H20.5601V27.1452H21.7427L23.7206 30.1535V27.1452H24.9031V32ZM28.0563 32.0484C27.5999 32.0484 27.1804 31.9424 26.7977 31.7303C26.4197 31.5182 26.1177 31.2231 25.8918 30.8451C25.6705 30.4624 25.5598 30.0337 25.5598 29.5588C25.5598 29.0839 25.6705 28.6574 25.8918 28.2794C26.1177 27.9013 26.4197 27.6063 26.7977 27.3942C27.1804 27.1821 27.5999 27.0761 28.0563 27.0761C28.5128 27.0761 28.93 27.1821 29.3081 27.3942C29.6907 27.6063 29.9904 27.9013 30.2071 28.2794C30.4284 28.6574 30.5391 29.0839 30.5391 29.5588C30.5391 30.0337 30.4284 30.4624 30.2071 30.8451C29.9858 31.2231 29.6861 31.5182 29.3081 31.7303C28.93 31.9424 28.5128 32.0484 28.0563 32.0484ZM28.0563 30.9696C28.4436 30.9696 28.7525 30.8405 28.983 30.5823C29.2182 30.3241 29.3357 29.9829 29.3357 29.5588C29.3357 29.13 29.2182 28.7888 28.983 28.5353C28.7525 28.2771 28.4436 28.148 28.0563 28.148C27.6645 28.148 27.351 28.2748 27.1158 28.5284C26.8853 28.7819 26.77 29.1254 26.77 29.5588C26.77 29.9876 26.8853 30.331 27.1158 30.5892C27.351 30.8428 27.6645 30.9696 28.0563 30.9696ZM35.7544 27.1452L34.0324 32H32.5524L30.8304 27.1452H32.0891L33.2924 30.8105L34.5026 27.1452H35.7544ZM37.4312 27.1452V32H36.2486V27.1452H37.4312ZM38.0876 29.5657C38.0876 29.0862 38.1914 28.6598 38.3988 28.2863C38.6063 27.9083 38.8945 27.6155 39.2633 27.408C39.6367 27.1959 40.0586 27.0899 40.5288 27.0899C41.1051 27.0899 41.5985 27.242 42.0088 27.5463C42.4191 27.8506 42.6934 28.2656 42.8317 28.7911H41.5316C41.4348 28.5883 41.2965 28.4338 41.1167 28.3278C40.9415 28.2218 40.7409 28.1687 40.515 28.1687C40.1508 28.1687 39.8557 28.2955 39.6298 28.5491C39.4039 28.8027 39.2909 29.1415 39.2909 29.5657C39.2909 29.9899 39.4039 30.3287 39.6298 30.5823C39.8557 30.8359 40.1508 30.9627 40.515 30.9627C40.7409 30.9627 40.9415 30.9096 41.1167 30.8036C41.2965 30.6976 41.4348 30.5431 41.5316 30.3402H42.8317C42.6934 30.8658 42.4191 31.2808 42.0088 31.5851C41.5985 31.8847 41.1051 32.0346 40.5288 32.0346C40.0586 32.0346 39.6367 31.9308 39.2633 31.7234C38.8945 31.5113 38.6063 31.2185 38.3988 30.8451C38.1914 30.4716 38.0876 30.0452 38.0876 29.5657ZM44.7385 28.0927V29.0747H46.3222V29.9876H44.7385V31.0526H46.5297V32H43.5559V27.1452H46.5297V28.0927H44.7385Z" fill="url(#paint0_linear_994_997)"/>
</g>
<mask id="mask0_994_997" style="mask-type:alpha" maskUnits="userSpaceOnUse" x="8" y="43" width="50" height="22">
<rect x="8.68555" y="43.3518" width="49.2646" height="21.0195" fill="#D9D9D9"/>
</mask>
<g mask="url(#mask0_994_997)">
<path d="M58.607 33.5003C58.607 40.1202 55.9772 46.4691 51.2961 51.1501C46.6151 55.8312 40.2662 58.461 33.6463 58.461C27.0263 58.461 20.6774 55.8312 15.9964 51.1501C11.3153 46.4691 8.68555 40.1203 8.68555 33.5003L33.6463 33.5003H58.607Z" fill="url(#paint1_linear_994_997)"/>
</g>
<path d="M20.8371 47.0057C21.0269 46.6596 21.5241 46.6596 21.7139 47.0057L22.1188 47.744C22.1954 47.8839 22.3342 47.9787 22.4923 47.9994L23.3039 48.1055C23.7303 48.1613 23.892 48.6936 23.5688 48.9771L23.0522 49.4303C22.9191 49.5471 22.8577 49.7257 22.8908 49.8998L23.0218 50.5873C23.0984 50.989 22.6865 51.3077 22.3169 51.1328L21.4893 50.7413C21.354 50.6772 21.197 50.6772 21.0617 50.7413L20.2341 51.1328C19.8645 51.3077 19.4526 50.989 19.5292 50.5873L19.6602 49.8998C19.6934 49.7257 19.632 49.5471 19.4988 49.4303L18.9822 48.9771C18.659 48.6936 18.8207 48.1613 19.2471 48.1055L20.0587 47.9994C20.2168 47.9787 20.3556 47.8839 20.4323 47.744L20.8371 47.0057Z" fill="white"/>
<path d="M27.0661 47.1147C27.2495 46.7431 27.7794 46.7431 27.9628 47.1147L28.2668 47.7308C28.3397 47.8784 28.4804 47.9806 28.6433 48.0043L29.3231 48.1031C29.7332 48.1627 29.897 48.6666 29.6002 48.9559L29.1083 49.4354C28.9905 49.5503 28.9367 49.7158 28.9645 49.8779L29.0806 50.5551C29.1507 50.9635 28.722 51.2749 28.3552 51.0821L27.7471 50.7624C27.6015 50.6858 27.4275 50.6858 27.2818 50.7624L26.6737 51.0821C26.3069 51.2749 25.8782 50.9635 25.9483 50.5551L26.0644 49.8779C26.0922 49.7158 26.0385 49.5503 25.9206 49.4354L25.4287 48.9559C25.132 48.6666 25.2957 48.1627 25.7058 48.1031L26.3856 48.0043C26.5485 47.9806 26.6893 47.8784 26.7621 47.7308L27.0661 47.1147Z" fill="#FE856A"/>
<path opacity="0.3" d="M32.9782 47.1147C33.1616 46.7431 33.6915 46.7431 33.8749 47.1147L34.179 47.7308C34.2518 47.8784 34.3926 47.9806 34.5554 48.0043L35.2353 48.1031C35.6453 48.1627 35.8091 48.6666 35.5123 48.9559L35.0204 49.4354C34.9026 49.5503 34.8488 49.7158 34.8766 49.8779L34.9927 50.5551C35.0628 50.9635 34.6341 51.2749 34.2673 51.0821L33.6592 50.7624C33.5136 50.6858 33.3396 50.6858 33.1939 50.7624L32.5858 51.0821C32.219 51.2749 31.7904 50.9635 31.8604 50.5551L31.9765 49.8779C32.0044 49.7158 31.9506 49.5503 31.8328 49.4354L31.3408 48.9559C31.0441 48.6666 31.2078 48.1627 31.6179 48.1031L32.2977 48.0043C32.4606 47.9806 32.6014 47.8784 32.6742 47.7308L32.9782 47.1147Z" fill="white"/>
<path opacity="0.3" d="M39.2287 47.0057C39.4185 46.6596 39.9157 46.6596 40.1055 47.0057L40.5104 47.744C40.587 47.8839 40.7258 47.9787 40.8839 47.9994L41.6955 48.1055C42.1219 48.1613 42.2836 48.6936 41.9604 48.9771L41.4438 49.4303C41.3107 49.5471 41.2493 49.7257 41.2824 49.8998L41.4134 50.5873C41.49 50.989 41.0781 51.3077 40.7085 51.1328L39.881 50.7413C39.7456 50.6772 39.5886 50.6772 39.4533 50.7413L38.6258 51.1328C38.2561 51.3077 37.8442 50.989 37.9208 50.5873L38.0518 49.8998C38.085 49.7257 38.0236 49.5471 37.8904 49.4303L37.3738 48.9771C37.0506 48.6936 37.2123 48.1613 37.6387 48.1055L38.4503 47.9994C38.6084 47.9787 38.7472 47.8839 38.8239 47.744L39.2287 47.0057Z" fill="white"/>
<path opacity="0.3" d="M45.4597 47.1147C45.6431 46.7431 46.173 46.7431 46.3564 47.1147L46.6604 47.7308C46.7332 47.8784 46.874 47.9806 47.0368 48.0043L47.7167 48.1031C48.1268 48.1627 48.2905 48.6666 47.9938 48.9559L47.5018 49.4354C47.384 49.5503 47.3302 49.7158 47.3581 49.8779L47.4742 50.5551C47.5442 50.9635 47.1155 51.2749 46.7488 51.0821L46.1407 50.7624C45.995 50.6858 45.821 50.6858 45.6754 50.7624L45.0673 51.0821C44.7005 51.2749 44.2718 50.9635 44.3419 50.5551L44.458 49.8779C44.4858 49.7158 44.432 49.5503 44.3142 49.4354L43.8223 48.9559C43.5255 48.6666 43.6893 48.1627 44.0993 48.1031L44.7792 48.0043C44.942 47.9806 45.0828 47.8784 45.1556 47.7308L45.4597 47.1147Z" fill="white"/>

</svg>
