<svg width="67" height="67" viewBox="0 0 67 67" fill="none" xmlns="http://www.w3.org/2000/svg">
<defs>
<filter id="filter0_d_994_943" x="5.40027" y="5.25525" width="56.4905" height="56.49" filterUnits="userSpaceOnUse" color-interpolation-filters="sRGB">
<feFlood flood-opacity="0" result="BackgroundImageFix"/>
<feColorMatrix in="SourceAlpha" type="matrix" values="0 0 0 0 0 0 0 0 0 0 0 0 0 0 0 0 0 0 127 0" result="hardAlpha"/>
<feOffset/>
<feGaussianBlur stdDeviation="1.64215"/>
<feComposite in2="hardAlpha" operator="out"/>
<feColorMatrix type="matrix" values="0 0 0 0 0 0 0 0 0 0 0 0 0 0 0 0 0 0 0.25 0"/>
<feBlend mode="normal" in2="BackgroundImageFix" result="effect1_dropShadow_994_943"/>
<feBlend mode="normal" in="SourceGraphic" in2="effect1_dropShadow_994_943" result="shape"/>
</filter>
<linearGradient id="paint0_linear_994_943" x1="58.606" y1="33.3623" x2="8.68457" y2="33.3623" gradientUnits="userSpaceOnUse">
<stop stop-color="#FF2252"/>
<stop offset="1" stop-color="#FC7B04"/>
</linearGradient>
</defs>
<path d="M66.3062 33.5003C66.3062 51.639 51.6019 66.3433 33.4632 66.3433C15.3244 66.3433 0.620117 51.639 0.620117 33.5003C0.620117 15.3616 15.3244 0.657227 33.4632 0.657227C51.6019 0.657227 66.3062 15.3616 66.3062 33.5003ZM4.53655 33.5003C4.53655 49.476 17.4874 62.4269 33.4632 62.4269C49.4389 62.4269 62.3898 49.476 62.3898 33.5003C62.3898 17.5245 49.4389 4.57366 33.4632 4.57366C17.4874 4.57366 4.53655 17.5245 4.53655 33.5003Z" fill="#EFEFEF"/>
<g filter="url(#filter0_d_994_943)">
<circle cx="33.6453" cy="33.5003" r="24.9607" fill="white"/>
</g>
<path d="M32.9534 28H31.7708L29.7929 25.0055V28H28.6104V23.1452H29.7929L31.7708 26.1535V23.1452H32.9534V28ZM36.1066 28.0484C35.6501 28.0484 35.2306 27.9424 34.8479 27.7303C34.4699 27.5182 34.1679 27.2231 33.942 26.8451C33.7207 26.4624 33.61 26.0337 33.61 25.5588C33.61 25.0839 33.7207 24.6574 33.942 24.2794C34.1679 23.9013 34.4699 23.6063 34.8479 23.3942C35.2306 23.1821 35.6501 23.0761 36.1066 23.0761C36.563 23.0761 36.9802 23.1821 37.3583 23.3942C37.741 23.6063 38.0406 23.9013 38.2573 24.2794C38.4786 24.6574 38.5893 25.0839 38.5893 25.5588C38.5893 26.0337 38.4786 26.4624 38.2573 26.8451C38.036 27.2231 37.7364 27.5182 37.3583 27.7303C36.9802 27.9424 36.563 28.0484 36.1066 28.0484ZM36.1066 26.9696C36.4938 26.9696 36.8027 26.8405 37.0333 26.5823C37.2684 26.3241 37.386 25.9829 37.386 25.5588C37.386 25.13 37.2684 24.7888 37.0333 24.5353C36.8027 24.2771 36.4938 24.148 36.1066 24.148C35.7147 24.148 35.4012 24.2748 35.166 24.5284C34.9355 24.7819 34.8203 25.1254 34.8203 25.5588C34.8203 25.9876 34.9355 26.331 35.166 26.5892C35.4012 26.8428 35.7147 26.9696 36.1066 26.9696ZM19.4819 31.7082C19.4819 31.9894 19.4173 32.2476 19.2882 32.4827C19.1591 32.7132 18.9609 32.9 18.6935 33.0429C18.4261 33.1858 18.0941 33.2573 17.6976 33.2573H16.9646V35H15.782V30.1452H17.6976C18.0849 30.1452 18.4122 30.2121 18.6796 30.3458C18.9471 30.4795 19.1476 30.6639 19.2813 30.899C19.415 31.1342 19.4819 31.4039 19.4819 31.7082ZM17.6077 32.3167C17.8336 32.3167 18.0019 32.2637 18.1126 32.1577C18.2232 32.0516 18.2785 31.9018 18.2785 31.7082C18.2785 31.5145 18.2232 31.3647 18.1126 31.2586C18.0019 31.1526 17.8336 31.0996 17.6077 31.0996H16.9646V32.3167H17.6077ZM22.5733 35L21.5636 33.1674H21.2801V35H20.0975V30.1452H22.0823C22.465 30.1452 22.79 30.2121 23.0574 30.3458C23.3294 30.4795 23.5323 30.6639 23.666 30.899C23.7997 31.1296 23.8665 31.3877 23.8665 31.6736C23.8665 31.9963 23.7743 32.2845 23.5899 32.538C23.4101 32.7916 23.1427 32.9714 22.7877 33.0775L23.908 35H22.5733ZM21.2801 32.3306H22.0131C22.2298 32.3306 22.3912 32.2775 22.4972 32.1715C22.6079 32.0655 22.6632 31.9156 22.6632 31.722C22.6632 31.5376 22.6079 31.3923 22.4972 31.2863C22.3912 31.1803 22.2298 31.1272 22.0131 31.1272H21.2801V32.3306ZM26.9049 35.0484C26.4484 35.0484 26.0289 34.9424 25.6462 34.7303C25.2682 34.5182 24.9662 34.2231 24.7403 33.8451C24.519 33.4624 24.4083 33.0337 24.4083 32.5588C24.4083 32.0839 24.519 31.6574 24.7403 31.2794C24.9662 30.9013 25.2682 30.6063 25.6462 30.3942C26.0289 30.1821 26.4484 30.0761 26.9049 30.0761C27.3613 30.0761 27.7785 30.1821 28.1566 30.3942C28.5393 30.6063 28.8389 30.9013 29.0556 31.2794C29.2769 31.6574 29.3876 32.0839 29.3876 32.5588C29.3876 33.0337 29.2769 33.4624 29.0556 33.8451C28.8343 34.2231 28.5347 34.5182 28.1566 34.7303C27.7785 34.9424 27.3613 35.0484 26.9049 35.0484ZM26.9049 33.9696C27.2921 33.9696 27.601 33.8405 27.8316 33.5823C28.0667 33.3241 28.1843 32.9829 28.1843 32.5588C28.1843 32.13 28.0667 31.7888 27.8316 31.5353C27.601 31.2771 27.2921 31.148 26.9049 31.148C26.513 31.148 26.1995 31.2748 25.9643 31.5284C25.7338 31.7819 25.6186 32.1254 25.6186 32.5588C25.6186 32.9876 25.7338 33.331 25.9643 33.5892C26.1995 33.8428 26.513 33.9696 26.9049 33.9696ZM33.2682 31.6805C33.1806 31.5191 33.0538 31.397 32.8878 31.314C32.7264 31.2264 32.5351 31.1826 32.3138 31.1826C31.9311 31.1826 31.6246 31.3094 31.394 31.5629C31.1635 31.8119 31.0482 32.1462 31.0482 32.5657C31.0482 33.0129 31.1681 33.3633 31.4079 33.6169C31.6522 33.8658 31.9865 33.9903 32.4106 33.9903C32.7011 33.9903 32.9454 33.9166 33.1437 33.769C33.3465 33.6215 33.4941 33.4094 33.5863 33.1328H32.0856V32.2614H34.6582V33.361C34.5706 33.6561 34.4208 33.9304 34.2087 34.184C34.0012 34.4375 33.7361 34.6427 33.4134 34.7994C33.0907 34.9562 32.7264 35.0346 32.3207 35.0346C31.8412 35.0346 31.4125 34.9308 31.0344 34.7234C30.661 34.5113 30.3682 34.2185 30.1561 33.8451C29.9487 33.4716 29.8449 33.0452 29.8449 32.5657C29.8449 32.0862 29.9487 31.6598 30.1561 31.2863C30.3682 30.9083 30.661 30.6155 31.0344 30.408C31.4079 30.1959 31.8343 30.0899 32.3138 30.0899C32.8947 30.0899 33.3834 30.2305 33.7799 30.5118C34.181 30.793 34.4461 31.1826 34.5752 31.6805H33.2682ZM37.789 35L36.7794 33.1674H36.4958V35H35.3132V30.1452H37.298C37.6807 30.1452 38.0057 30.2121 38.2731 30.3458C38.5451 30.4795 38.748 30.6639 38.8817 30.899C39.0154 31.1296 39.0823 31.3877 39.0823 31.6736C39.0823 31.9963 38.9901 32.2845 38.8056 32.538C38.6258 32.7916 38.3584 32.9714 38.0034 33.0775L39.1238 35H37.789ZM36.4958 32.3306H37.2289C37.4456 32.3306 37.6069 32.2775 37.713 32.1715C37.8236 32.0655 37.8789 31.9156 37.8789 31.722C37.8789 31.5376 37.8236 31.3923 37.713 31.2863C37.6069 31.1803 37.4456 31.1272 37.2289 31.1272H36.4958V32.3306ZM41.0072 31.0927V32.0747H42.5909V32.9876H41.0072V34.0526H42.7983V35H39.8246V30.1452H42.7983V31.0927H41.0072ZM45.3226 35.0484C44.9676 35.0484 44.6495 34.9908 44.3683 34.8755C44.0871 34.7603 43.8611 34.5897 43.6906 34.3638C43.5246 34.1379 43.437 33.8658 43.4278 33.5477H44.6864C44.7048 33.7275 44.7671 33.8658 44.8731 33.9627C44.9792 34.0549 45.1175 34.101 45.2881 34.101C45.4633 34.101 45.6016 34.0618 45.703 33.9834C45.8044 33.9004 45.8551 33.7875 45.8551 33.6445C45.8551 33.5247 45.8137 33.4255 45.7307 33.3472C45.6523 33.2688 45.5532 33.2042 45.4333 33.1535C45.318 33.1028 45.1521 33.0452 44.9354 32.9806C44.6219 32.8838 44.366 32.787 44.1677 32.6902C43.9695 32.5934 43.7989 32.4504 43.656 32.2614C43.5131 32.0724 43.4416 31.8257 43.4416 31.5214C43.4416 31.0696 43.6053 30.7169 43.9326 30.4633C44.2599 30.2052 44.6864 30.0761 45.212 30.0761C45.7468 30.0761 46.1779 30.2052 46.5052 30.4633C46.8326 30.7169 47.0078 31.0719 47.0308 31.5284H45.7514C45.7422 31.3716 45.6846 31.2494 45.5785 31.1618C45.4725 31.0696 45.3365 31.0235 45.1705 31.0235C45.0276 31.0235 44.9123 31.0627 44.8247 31.1411C44.7371 31.2148 44.6933 31.3232 44.6933 31.4661C44.6933 31.6229 44.7671 31.745 44.9146 31.8326C45.0622 31.9202 45.2927 32.0148 45.6062 32.1162C45.9197 32.2222 46.1733 32.3237 46.3669 32.4205C46.5652 32.5173 46.7357 32.6579 46.8787 32.8423C47.0216 33.0267 47.093 33.2642 47.093 33.5546C47.093 33.8313 47.0216 34.0825 46.8787 34.3084C46.7403 34.5343 46.5375 34.7142 46.2701 34.8479C46.0027 34.9816 45.6869 35.0484 45.3226 35.0484ZM49.5774 35.0484C49.2224 35.0484 48.9043 34.9908 48.623 34.8755C48.3418 34.7603 48.1159 34.5897 47.9453 34.3638C47.7793 34.1379 47.6917 33.8658 47.6825 33.5477H48.9411C48.9596 33.7275 49.0218 33.8658 49.1279 33.9627C49.2339 34.0549 49.3722 34.101 49.5428 34.101C49.718 34.101 49.8563 34.0618 49.9577 33.9834C50.0592 33.9004 50.1099 33.7875 50.1099 33.6445C50.1099 33.5247 50.0684 33.4255 49.9854 33.3472C49.907 33.2688 49.8079 33.2042 49.688 33.1535C49.5728 33.1028 49.4068 33.0452 49.1901 32.9806C48.8766 32.8838 48.6207 32.787 48.4225 32.6902C48.2242 32.5934 48.0536 32.4504 47.9107 32.2614C47.7678 32.0724 47.6963 31.8257 47.6963 31.5214C47.6963 31.0696 47.86 30.7169 48.1873 30.4633C48.5147 30.2052 48.9411 30.0761 49.4667 30.0761C50.0015 30.0761 50.4326 30.2052 50.7599 30.4633C51.0873 30.7169 51.2625 31.0719 51.2855 31.5284H50.0061C49.9969 31.3716 49.9393 31.2494 49.8333 31.1618C49.7272 31.0696 49.5912 31.0235 49.4252 31.0235C49.2823 31.0235 49.167 31.0627 49.0794 31.1411C48.9919 31.2148 48.9481 31.3232 48.9481 31.4661C48.9481 31.6229 49.0218 31.745 49.1694 31.8326C49.3169 31.9202 49.5474 32.0148 49.8609 32.1162C50.1744 32.2222 50.428 32.3237 50.6216 32.4205C50.8199 32.5173 50.9905 32.6579 51.1334 32.8423C51.2763 33.0267 51.3478 33.2642 51.3478 33.5546C51.3478 33.8313 51.2763 34.0825 51.1334 34.3084C50.9951 34.5343 50.7922 34.7142 50.5248 34.8479C50.2574 34.9816 49.9416 35.0484 49.5774 35.0484Z" fill="#CACED1"/>
<mask id="mask0_994_943" style="mask-type:alpha" maskUnits="userSpaceOnUse" x="8" y="43" width="50" height="22">
<rect x="8.68457" y="43.3518" width="49.2646" height="21.0195" fill="#D9D9D9"/>
</mask>
<g mask="url(#mask0_994_943)">
<path d="M58.606 33.5003C58.606 40.1202 55.9762 46.4691 51.2952 51.1501C46.6141 55.8312 40.2653 58.461 33.6453 58.461C27.0253 58.461 20.6764 55.8312 15.9954 51.1501C11.3144 46.4691 8.68457 40.1203 8.68457 33.5003L33.6453 33.5003H58.606Z" fill="url(#paint0_linear_994_943)"/>
</g>
<path d="M20.8362 47.0057C21.0259 46.6596 21.5231 46.6596 21.7129 47.0057L22.1178 47.744C22.1945 47.8839 22.3332 47.9787 22.4913 47.9994L23.303 48.1055C23.7293 48.1613 23.8911 48.6936 23.5678 48.9771L23.0513 49.4303C22.9181 49.5471 22.8567 49.7257 22.8898 49.8998L23.0209 50.5873C23.0974 50.989 22.6856 51.3077 22.3159 51.1328L21.4884 50.7413C21.353 50.6772 21.1961 50.6772 21.0607 50.7413L20.2332 51.1328C19.8635 51.3077 19.4516 50.989 19.5282 50.5873L19.6592 49.8998C19.6924 49.7257 19.631 49.5471 19.4978 49.4303L18.9812 48.9771C18.658 48.6936 18.8198 48.1613 19.2461 48.1055L20.0577 47.9994C20.2159 47.9787 20.3546 47.8839 20.4313 47.744L20.8362 47.0057Z" fill="#FE856A"/>
<path d="M27.0651 47.1147C27.2485 46.7431 27.7784 46.7431 27.9618 47.1147L28.2659 47.7308C28.3387 47.8784 28.4795 47.9806 28.6423 48.0043L29.3222 48.1031C29.7323 48.1627 29.896 48.6666 29.5993 48.9559L29.1073 49.4354C28.9895 49.5503 28.9357 49.7158 28.9635 49.8779L29.0797 50.5551C29.1497 50.9635 28.721 51.2749 28.3542 51.0821L27.7461 50.7624C27.6005 50.6858 27.4265 50.6858 27.2808 50.7624L26.6728 51.0821C26.306 51.2749 25.8773 50.9635 25.9473 50.5551L26.0635 49.8779C26.0913 49.7158 26.0375 49.5503 25.9197 49.4354L25.4277 48.9559C25.131 48.6666 25.2947 48.1627 25.7048 48.1031L26.3847 48.0043C26.5475 47.9806 26.6883 47.8784 26.7611 47.7308L27.0651 47.1147Z" fill="#FE856A"/>
<path opacity="0.3" d="M32.9773 47.1147C33.1607 46.7431 33.6905 46.7431 33.8739 47.1147L34.178 47.7308C34.2508 47.8784 34.3916 47.9806 34.5544 48.0043L35.2343 48.1031C35.6444 48.1627 35.8081 48.6666 35.5114 48.9559L35.0194 49.4354C34.9016 49.5503 34.8478 49.7158 34.8756 49.8779L34.9918 50.5551C35.0618 50.9635 34.6331 51.2749 34.2663 51.0821L33.6583 50.7624C33.5126 50.6858 33.3386 50.6858 33.1929 50.7624L32.5849 51.0821C32.2181 51.2749 31.7894 50.9635 31.8594 50.5551L31.9756 49.8779C32.0034 49.7158 31.9496 49.5503 31.8318 49.4354L31.3398 48.9559C31.0431 48.6666 31.2068 48.1627 31.6169 48.1031L32.2968 48.0043C32.4596 47.9806 32.6004 47.8784 32.6732 47.7308L32.9773 47.1147Z" fill="white"/>
<path opacity="0.3" d="M39.2278 47.0057C39.4175 46.6596 39.9147 46.6596 40.1045 47.0057L40.5094 47.744C40.5861 47.8839 40.7248 47.9787 40.8829 47.9994L41.6946 48.1055C42.1209 48.1613 42.2827 48.6936 41.9594 48.9771L41.4429 49.4303C41.3097 49.5471 41.2483 49.7257 41.2814 49.8998L41.4125 50.5873C41.489 50.989 41.0772 51.3077 40.7075 51.1328L39.88 50.7413C39.7446 50.6772 39.5877 50.6772 39.4523 50.7413L38.6248 51.1328C38.2551 51.3077 37.8432 50.989 37.9198 50.5873L38.0508 49.8998C38.084 49.7257 38.0226 49.5471 37.8894 49.4303L37.3728 48.9771C37.0496 48.6936 37.2114 48.1613 37.6377 48.1055L38.4493 47.9994C38.6075 47.9787 38.7462 47.8839 38.8229 47.744L39.2278 47.0057Z" fill="white"/>
<path opacity="0.3" d="M45.4587 47.1147C45.6421 46.7431 46.172 46.7431 46.3554 47.1147L46.6594 47.7308C46.7323 47.8784 46.873 47.9806 47.0359 48.0043L47.7157 48.1031C48.1258 48.1627 48.2896 48.6666 47.9928 48.9559L47.5009 49.4354C47.383 49.5503 47.3293 49.7158 47.3571 49.8779L47.4732 50.5551C47.5433 50.9635 47.1146 51.2749 46.7478 51.0821L46.1397 50.7624C45.994 50.6858 45.82 50.6858 45.6744 50.7624L45.0663 51.0821C44.6995 51.2749 44.2708 50.9635 44.3409 50.5551L44.457 49.8779C44.4848 49.7158 44.4311 49.5503 44.3132 49.4354L43.8213 48.9559C43.5245 48.6666 43.6883 48.1627 44.0984 48.1031L44.7782 48.0043C44.9411 47.9806 45.0818 47.8784 45.1547 47.7308L45.4587 47.1147Z" fill="white"/>

</svg>
