<svg width="66" height="66" viewBox="0 0 66 66" fill="none" xmlns="http://www.w3.org/2000/svg">
<defs>
<filter id="filter0_d_994_1031" x="5.32038" y="5.17683" width="55.6473" height="55.6468" filterUnits="userSpaceOnUse" color-interpolation-filters="sRGB">
<feFlood flood-opacity="0" result="BackgroundImageFix"/>
<feColorMatrix in="SourceAlpha" type="matrix" values="0 0 0 0 0 0 0 0 0 0 0 0 0 0 0 0 0 0 127 0" result="hardAlpha"/>
<feOffset/>
<feGaussianBlur stdDeviation="1.61764"/>
<feComposite in2="hardAlpha" operator="out"/>
<feColorMatrix type="matrix" values="0 0 0 0 0 0 0 0 0 0 0 0 0 0 0 0 0 0 0.25 0"/>
<feBlend mode="normal" in2="BackgroundImageFix" result="effect1_dropShadow_994_1031"/>
<feBlend mode="normal" in="SourceGraphic" in2="effect1_dropShadow_994_1031" result="shape"/>
</filter>
<filter id="filter1_d_994_1031" x="17.3972" y="27.2178" width="30.8052" height="6.62644" filterUnits="userSpaceOnUse" color-interpolation-filters="sRGB">
<feFlood flood-opacity="0" result="BackgroundImageFix"/>
<feColorMatrix in="SourceAlpha" type="matrix" values="0 0 0 0 0 0 0 0 0 0 0 0 0 0 0 0 0 0 127 0" result="hardAlpha"/>
<feOffset dy="0.922107"/>
<feGaussianBlur stdDeviation="0.461053"/>
<feComposite in2="hardAlpha" operator="out"/>
<feColorMatrix type="matrix" values="0 0 0 0 0 0 0 0 0 0 0 0 0 0 0 0 0 0 0.1 0"/>
<feBlend mode="normal" in2="BackgroundImageFix" result="effect1_dropShadow_994_1031"/>
<feBlend mode="normal" in="SourceGraphic" in2="effect1_dropShadow_994_1031" result="shape"/>
</filter>
<linearGradient id="paint0_linear_994_1031" x1="0.578232" y1="33.7542" x2="65.4281" y2="32.6041" gradientUnits="userSpaceOnUse">
<stop stop-color="#FF2252"/>
<stop offset="1" stop-color="#FC7B04"/>
</linearGradient>
<linearGradient id="paint1_linear_994_1031" x1="47.7227" y1="29.4807" x2="17.7227" y2="29.4807" gradientUnits="userSpaceOnUse">
<stop stop-color="#FF2252"/>
<stop offset="1" stop-color="#FC7B04"/>
</linearGradient>
<linearGradient id="paint2_linear_994_1031" x1="57.732" y1="32.8646" x2="8.55566" y2="32.8646" gradientUnits="userSpaceOnUse">
<stop stop-color="#FF2252"/>
<stop offset="1" stop-color="#FC7B04"/>
</linearGradient>
</defs>
<path d="M65.317 33.0003C65.317 50.8683 50.8321 65.3531 32.9642 65.3531C15.0962 65.3531 0.611328 50.8683 0.611328 33.0003C0.611328 15.1323 15.0962 0.647461 32.9642 0.647461C50.8321 0.647461 65.317 15.1323 65.317 33.0003ZM4.4693 33.0003C4.4693 48.7376 17.2269 61.4952 32.9642 61.4952C48.7014 61.4952 61.459 48.7376 61.459 33.0003C61.459 17.263 48.7014 4.50544 32.9642 4.50544C17.2269 4.50544 4.4693 17.263 4.4693 33.0003Z" fill="#EFEFEF"/>
<path d="M31.7647 2.56295C31.7207 1.47697 32.5659 0.554618 33.6525 0.576474C39.9069 0.702261 46.0071 2.63544 51.207 6.16316C56.9509 10.06 61.293 15.697 63.5949 22.2453C65.8967 28.7936 66.0368 35.9077 63.9946 42.5415C62.1459 48.547 58.597 53.872 53.797 57.8836C52.963 58.5806 51.7266 58.3899 51.0815 57.5152V57.5152C50.4363 56.6405 50.6275 55.4135 51.4556 54.7095C55.5804 51.2031 58.6321 46.5836 60.2329 41.3835C62.0272 35.5548 61.9041 29.3041 59.8816 23.5506C57.8592 17.797 54.0441 12.8442 48.9972 9.42027C44.4947 6.36562 39.2238 4.67167 33.8122 4.51743C32.7258 4.48646 31.8088 3.64894 31.7647 2.56295V2.56295Z" fill="url(#paint0_linear_994_1031)"/>
<g filter="url(#filter0_d_994_1031)">
<circle cx="33.1438" cy="33.0003" r="24.5882" fill="white"/>
</g>
<g filter="url(#filter1_d_994_1031)">
<path d="M19.4843 31.1008H21.0103V32H18.3194V27.2177H19.4843V31.1008ZM22.7308 28.151V29.1184H24.2909V30.0176H22.7308V31.0667H24.4953V32H21.5659V27.2177H24.4953V28.151H22.7308ZM28.2286 31.1553H26.4437L26.1576 32H24.9382L26.6685 27.2177H28.0174L29.7477 32H28.5147L28.2286 31.1553ZM27.9288 30.256L27.3361 28.5052L26.7503 30.256H27.9288ZM32.7132 32L31.7186 30.1947H31.4393V32H30.2744V27.2177H32.2295C32.6065 27.2177 32.9267 27.2835 33.1901 27.4152C33.458 27.547 33.6579 27.7286 33.7896 27.9602C33.9213 28.1873 33.9871 28.4417 33.9871 28.7232C33.9871 29.0411 33.8963 29.325 33.7146 29.5748C33.5375 29.8246 33.2741 30.0017 32.9244 30.1062L34.028 32H32.7132ZM31.4393 29.3704H32.1614C32.3749 29.3704 32.5338 29.3182 32.6383 29.2137C32.7473 29.1093 32.8018 28.9617 32.8018 28.7709C32.8018 28.5893 32.7473 28.4462 32.6383 28.3417C32.5338 28.2373 32.3749 28.1851 32.1614 28.1851H31.4393V29.3704ZM38.9966 32H37.8317L35.8833 29.0502V32H34.7184V27.2177H35.8833L37.8317 30.1811V27.2177H38.9966V32ZM41.0059 28.151V29.1184H42.566V30.0176H41.0059V31.0667H42.7703V32H39.841V27.2177H42.7703V28.151H41.0059ZM45.9655 32L44.9709 30.1947H44.6916V32H43.5266V27.2177H45.4818C45.8587 27.2177 46.1789 27.2835 46.4423 27.4152C46.7103 27.547 46.9101 27.7286 47.0418 27.9602C47.1735 28.1873 47.2394 28.4417 47.2394 28.7232C47.2394 29.0411 47.1486 29.325 46.9669 29.5748C46.7898 29.8246 46.5264 30.0017 46.1767 30.1062L47.2803 32H45.9655ZM44.6916 29.3704H45.4137C45.6271 29.3704 45.7861 29.3182 45.8905 29.2137C45.9995 29.1093 46.054 28.9617 46.054 28.7709C46.054 28.5893 45.9995 28.4462 45.8905 28.3417C45.7861 28.2373 45.6271 28.1851 45.4137 28.1851H44.6916V29.3704Z" fill="url(#paint1_linear_994_1031)"/>
</g>
<mask id="mask0_994_1031" style="mask-type:alpha" maskUnits="userSpaceOnUse" x="8" y="42" width="50" height="22">
<rect x="8.55566" y="42.7048" width="48.5293" height="20.7058" fill="#D9D9D9"/>
</mask>
<g mask="url(#mask0_994_1031)">
<path d="M57.732 33.0005C57.732 39.5217 55.1414 45.7758 50.5303 50.387C45.9191 54.9981 39.665 57.5887 33.1438 57.5887C26.6226 57.5887 20.3685 54.9981 15.7574 50.387C11.1462 45.7758 8.55567 39.5217 8.55566 33.0005L33.1438 33.0005H57.732Z" fill="url(#paint2_linear_994_1031)"/>
</g>
<path d="M20.5251 46.3046C20.7121 45.9637 21.2018 45.9637 21.3888 46.3046L21.7876 47.0319C21.8632 47.1696 21.9998 47.2631 22.1556 47.2834L22.9551 47.388C23.3751 47.4429 23.5344 47.9672 23.216 48.2466L22.7072 48.693C22.576 48.8081 22.5155 48.984 22.5482 49.1554L22.6772 49.8327C22.7526 50.2284 22.3469 50.5424 21.9828 50.3701L21.1676 49.9844C21.0343 49.9213 20.8797 49.9213 20.7463 49.9844L19.9311 50.3701C19.567 50.5424 19.1613 50.2284 19.2367 49.8327L19.3658 49.1554C19.3984 48.984 19.3379 48.8081 19.2068 48.693L18.6979 48.2466C18.3795 47.9672 18.5388 47.4429 18.9588 47.388L19.7583 47.2834C19.9141 47.2631 20.0508 47.1696 20.1263 47.0319L20.5251 46.3046Z" fill="white"/>
<path d="M26.6625 46.412C26.8431 46.0459 27.3651 46.0459 27.5458 46.412L27.8453 47.0188C27.917 47.1642 28.0557 47.2649 28.2161 47.2882L28.8858 47.3856C29.2898 47.4443 29.4511 47.9407 29.1588 48.2256L28.6742 48.698C28.5581 48.8111 28.5051 48.9742 28.5325 49.1339L28.6469 49.8009C28.7159 50.2033 28.2936 50.5101 27.9323 50.3201L27.3333 50.0052C27.1898 49.9298 27.0184 49.9298 26.875 50.0052L26.276 50.3201C25.9146 50.5101 25.4923 50.2033 25.5613 49.8009L25.6757 49.1339C25.7031 48.9742 25.6502 48.8111 25.5341 48.698L25.0495 48.2256C24.7572 47.9407 24.9185 47.4443 25.3225 47.3856L25.9922 47.2882C26.1526 47.2649 26.2912 47.1642 26.363 47.0188L26.6625 46.412Z" fill="white"/>
<path opacity="0.3" d="M32.4857 46.412C32.6664 46.0459 33.1884 46.0459 33.369 46.412L33.6685 47.0188C33.7403 47.1642 33.8789 47.2649 34.0394 47.2882L34.7091 47.3856C35.113 47.4443 35.2743 47.9407 34.982 48.2256L34.4974 48.698C34.3813 48.8111 34.3284 48.9742 34.3558 49.1339L34.4702 49.8009C34.5392 50.2033 34.1169 50.5101 33.7556 50.3201L33.1566 50.0052C33.0131 49.9298 32.8417 49.9298 32.6982 50.0052L32.0992 50.3201C31.7379 50.5101 31.3156 50.2033 31.3846 49.8009L31.499 49.1339C31.5264 48.9742 31.4734 48.8111 31.3573 48.698L30.8727 48.2256C30.5804 47.9407 30.7417 47.4443 31.1457 47.3856L31.8154 47.2882C31.9758 47.2649 32.1145 47.1642 32.1862 47.0188L32.4857 46.412Z" fill="white"/>
<path opacity="0.3" d="M38.6433 46.3046C38.8302 45.9637 39.32 45.9637 39.507 46.3046L39.9058 47.0319C39.9813 47.1696 40.118 47.2631 40.2738 47.2834L41.0733 47.388C41.4933 47.4429 41.6526 47.9672 41.3342 48.2466L40.8253 48.693C40.6941 48.8081 40.6337 48.984 40.6663 49.1554L40.7954 49.8327C40.8708 50.2284 40.4651 50.5424 40.1009 50.3701L39.2858 49.9844C39.1524 49.9213 38.9978 49.9213 38.8645 49.9844L38.0493 50.3701C37.6852 50.5424 37.2794 50.2284 37.3549 49.8327L37.4839 49.1554C37.5166 48.984 37.4561 48.8081 37.3249 48.693L36.8161 48.2466C36.4977 47.9672 36.657 47.4429 37.077 47.388L37.8765 47.2834C38.0322 47.2631 38.1689 47.1696 38.2445 47.0319L38.6433 46.3046Z" fill="white"/>
<path opacity="0.3" d="M44.7807 46.412C44.9613 46.0459 45.4833 46.0459 45.664 46.412L45.9635 47.0188C46.0352 47.1642 46.1739 47.2649 46.3343 47.2882L47.004 47.3856C47.408 47.4443 47.5693 47.9407 47.2769 48.2256L46.7923 48.698C46.6763 48.8111 46.6233 48.9742 46.6507 49.1339L46.7651 49.8009C46.8341 50.2033 46.4118 50.5101 46.0505 50.3201L45.4515 50.0052C45.308 49.9298 45.1366 49.9298 44.9931 50.0052L44.3941 50.3201C44.0328 50.5101 43.6105 50.2033 43.6795 49.8009L43.7939 49.1339C43.8213 48.9742 43.7683 48.8111 43.6523 48.698L43.1677 48.2256C42.8754 47.9407 43.0367 47.4443 43.4406 47.3856L44.1103 47.2882C44.2707 47.2649 44.4094 47.1642 44.4812 47.0188L44.7807 46.412Z" fill="white"/>
</svg>
