<svg width="24" height="24" viewBox="0 0 24 24" fill="none" xmlns="http://www.w3.org/2000/svg">
<path fill-rule="evenodd" clip-rule="evenodd" d="M12.1814 2.04077C11.9159 2.12876 11.7879 2.21218 11.6029 2.418C11.3745 2.67202 11.294 2.91028 11.3054 3.29854L11.314 3.59544L11.0799 3.85719C9.40562 5.72878 7.4387 8.08674 7.4387 8.08674L7.86057 8.337C7.86057 8.337 9.96197 6.24662 10.0941 6.12196C10.1456 6.07337 10.5292 5.65048 10.9466 5.18224C11.3639 4.714 11.7184 4.34478 11.7344 4.36175C11.7767 4.40674 16.5454 12.6735 16.5531 12.7153C16.5586 12.7449 8.21118 14.5141 8.19297 14.4872C8.08625 14.3296 6.05192 10.7587 6.04872 10.7234C6.04618 10.6951 6.43987 10.2291 6.92362 9.68789C7.40738 9.14671 10.0941 6.12196 10.0941 6.12196L7.86057 8.337L7.4387 8.08674C7.4387 8.08674 7.30324 8.08142 6.07217 9.46143L5.28174 10.3474L4.24128 10.9469C3.46125 11.3963 3.13382 11.6081 2.9332 11.793C1.69693 12.9323 1.68778 14.8196 2.91291 15.9719C3.39444 16.4248 3.88211 16.6535 4.54436 16.7371C4.95763 16.7893 5.41575 16.7363 5.82003 16.5895C5.96319 16.5376 6.08445 16.4992 6.08949 16.5042C6.09453 16.5093 6.21544 16.7152 6.35817 16.9618C6.6589 17.4814 6.7906 17.6331 7.06045 17.771C7.29625 17.8916 7.6795 17.909 7.91026 17.8096L8.05638 17.7467L8.2106 18.0084C8.29542 18.1523 8.80666 19.0353 9.34671 19.9705C9.88676 20.9058 10.3747 21.7191 10.431 21.7778C10.4873 21.8366 10.6095 21.9138 10.7026 21.9493C11.0007 22.0632 11.142 22.0153 12.0576 21.4905C12.5127 21.2295 12.927 20.9787 12.9782 20.9331C13.11 20.8157 13.2155 20.5662 13.2165 20.3697C13.2181 20.0677 13.0399 19.8248 12.6238 19.5615C12.452 19.4529 12.3853 19.3495 11.5519 17.9001C11.0632 17.0501 10.6558 16.3404 10.6467 16.3231C10.6375 16.3058 10.7169 16.1998 10.8231 16.0875C11.1463 15.7458 11.2333 15.2723 11.0451 14.8794C11.0066 14.799 10.9827 14.7272 10.9919 14.7198C11.0011 14.7124 12.3625 14.4249 14.0171 14.0808L17.0256 13.4553L17.1959 13.5852C17.789 14.038 18.6884 13.8255 19.0316 13.1516C19.153 12.9132 19.1952 12.479 19.1198 12.2456C19.0307 11.9702 13.5638 2.53258 13.3933 2.35995C13.3073 2.27285 13.149 2.16 13.0414 2.10918C12.8051 1.99741 12.4077 1.96583 12.1814 2.04077ZM17.9103 2.56506C17.8463 2.62417 17.5206 3.14901 17.1865 3.73132C16.6753 4.62265 16.5792 4.81525 16.5792 4.94945C16.5792 5.27129 16.963 5.42883 17.1988 5.20374C17.2607 5.1446 17.5864 4.61741 17.9226 4.03213C18.6038 2.84613 18.6267 2.77897 18.4195 2.57183C18.266 2.41824 18.0723 2.41569 17.9103 2.56506ZM12.7452 2.83331C12.877 2.91122 12.5667 2.38794 15.7122 7.83609C17.7281 11.3278 18.3774 12.4829 18.3774 12.5779C18.3774 12.9469 17.9998 13.1681 17.6933 12.9786C17.6028 12.9226 17.0379 11.9735 15.211 8.80759C11.8194 2.93022 12.0837 3.40166 12.0837 3.22829C12.0837 3.03678 12.1355 2.94163 12.2914 2.84652C12.4432 2.75399 12.603 2.74934 12.7452 2.83331ZM21.364 3.95868C21.2178 4.10492 21.1961 4.23091 21.2868 4.40647C21.4214 4.66662 21.8227 4.66662 21.9572 4.40647C22.0303 4.26527 22.0276 4.15581 21.9479 4.02083C21.8118 3.79054 21.5591 3.76365 21.364 3.95868ZM18.9618 5.30413C17.7723 5.98843 17.607 6.09522 17.5451 6.21938C17.4607 6.3888 17.4851 6.51913 17.6276 6.6617C17.8184 6.85243 17.9087 6.81685 19.3597 5.97947C20.6898 5.21183 20.8011 5.13005 20.8011 4.92033C20.8011 4.72135 20.6025 4.52941 20.3966 4.52941C20.3482 4.52941 19.7025 4.87803 18.9618 5.30413ZM18.663 7.63379C18.5732 7.71107 18.5534 7.75986 18.5534 7.90332C18.5534 8.11281 18.6394 8.22528 18.8426 8.28177C19.0455 8.33814 20.7862 8.32864 20.9575 8.27024C21.149 8.20491 21.2561 7.98753 21.1921 7.79391C21.1087 7.54102 21.1006 7.53946 19.8759 7.53946H18.7727L18.663 7.63379ZM6.44245 13.0134C7.35258 14.5898 7.45898 14.7917 7.40019 14.8313C7.21689 14.9545 5.90248 15.6951 5.69291 15.7932C4.94329 16.144 4.01025 15.9679 3.40164 15.3609C2.9649 14.9253 2.74236 14.3338 2.7929 13.7429C2.84145 13.1748 3.1138 12.6433 3.52493 12.3143C3.76937 12.1186 5.32076 11.21 5.37951 11.2281C5.40101 11.2347 5.87933 12.0381 6.44245 13.0134ZM10.2653 15.0828C10.3815 15.3122 10.3876 15.3983 10.2953 15.5101C10.2576 15.5556 9.64635 15.9294 8.93684 16.3406C7.60249 17.114 7.46915 17.1709 7.32709 17.0289C7.22451 16.9263 6.7716 16.1228 6.8001 16.0939C6.81429 16.0795 7.12115 15.8973 7.48205 15.6888L8.1382 15.3099L9.10435 15.1035C9.63572 14.99 10.0922 14.8952 10.1187 14.8929C10.1452 14.8906 10.2112 14.976 10.2653 15.0828ZM10.8858 18.3103C11.3988 19.202 11.8671 19.9725 11.9264 20.0224C11.9858 20.0724 12.1158 20.1647 12.2153 20.2276C12.3149 20.2905 12.3918 20.3555 12.3863 20.372C12.3773 20.3993 10.9777 21.2215 10.9636 21.2078C10.9314 21.1765 8.76128 17.3858 8.76237 17.3628C8.76401 17.3284 9.85236 16.6933 9.91413 16.6907C9.93563 16.6898 10.3729 17.4186 10.8858 18.3103Z" fill="black"/>
</svg>
