<svg width="42" height="42" viewBox="0 0 42 42" fill="none" xmlns="http://www.w3.org/2000/svg">
<path d="M16 15.5L21 6.5L29 10L26.5 14L15.5 30.5L14 33.5L8 36L9 28L16 15.5Z" fill="white"/>
<path d="M23.7442 13.141L15.3172 27.6828" stroke="#FDB515" stroke-width="1.5" stroke-linecap="round"/>
<path fill-rule="evenodd" clip-rule="evenodd" d="M19.2681 10.0756C19.1534 10.1104 19.0052 10.1803 18.9386 10.2309C18.8028 10.3343 18.8919 10.1849 15.1864 16.5196C13.6961 19.0674 12.358 21.3372 12.2128 21.5637C12.0678 21.7902 11.8249 22.1917 11.6732 22.4559C11.5215 22.7201 11.0439 23.5385 10.6119 24.2745C8.94393 27.1157 8.77439 27.4134 8.52039 27.9474C7.98604 29.071 7.60358 30.2936 7.38309 31.5833C7.27812 32.1972 7.00063 36.0493 7 36.9019C6.99938 37.6337 7.33533 38 8.00703 38C8.37719 38 8.54965 37.9209 9.38124 37.3694C9.71657 37.1472 10.045 36.945 10.1111 36.9201C10.3869 36.8167 12.4383 35.4444 13.0824 34.9325C14.4241 33.8659 15.5421 32.5721 16.421 31.0686C16.5423 30.861 16.9953 30.089 17.4276 29.3529C17.8599 28.6169 18.3756 27.7368 18.5736 27.397C18.7717 27.0573 19.0311 26.6181 19.1501 26.4211C19.2691 26.224 19.4457 25.8997 19.5426 25.7005C19.7063 25.3638 21.1651 22.8845 24.6494 17.0205C26.0003 14.7471 26.0698 14.6126 26.0979 14.2206C26.1229 13.8717 26.1022 13.7722 25.9626 13.5686C25.6656 13.1356 24.9849 13.0381 24.5605 13.3677C24.4623 13.4439 24.2458 13.7442 24.0794 14.035C22.9385 16.0284 16.1005 27.6571 16.0002 27.7745C15.9518 27.8311 15.6375 28.3561 15.3018 28.9412C14.2412 30.7892 13.8062 31.4025 12.8751 32.3622C12.1652 33.0939 11.6862 33.4692 10.3058 34.3755C9.31186 35.028 9.18611 35.0929 9.16498 34.964C9.12306 34.7092 9.29115 32.5671 9.40591 31.8921C9.46695 31.5336 9.59374 30.9778 9.68765 30.657C10.0722 29.3443 10.381 28.7334 12.3967 25.2984C13.4913 23.4331 15.2537 20.4245 16.3131 18.6127C17.3726 16.801 18.5205 14.8399 18.8639 14.2549C20.4764 11.5082 20.5541 11.3582 20.5538 10.9928C20.5533 10.259 19.9895 9.85683 19.2681 10.0756ZM26.9613 32.4018C26.796 32.455 26.534 32.585 26.3793 32.6909C25.8587 33.047 25.6567 33.3985 25.2442 34.6661C25.0343 35.3108 24.8456 35.8836 24.8249 35.9391C24.8005 36.0041 24.6987 35.8851 24.5385 35.6044C24.2132 35.0346 23.8301 34.6761 23.3615 34.503C22.6916 34.2555 21.8764 34.3647 21.3825 34.768C21.1089 34.9916 19.8575 36.4353 19.7303 36.6744C19.5358 37.0398 19.7129 37.6396 20.0807 37.8609C20.3527 38.0247 20.8238 38.0433 21.102 37.9012C21.2084 37.8469 21.5721 37.4995 21.9103 37.1292C22.2485 36.7589 22.5482 36.4465 22.5763 36.435C22.6043 36.4235 22.7295 36.6033 22.8543 36.8345C23.2802 37.6234 23.9078 38 24.7964 38C25.3321 38 25.6183 37.9178 26.0192 37.6489C26.4586 37.354 26.6967 36.9139 27.0918 35.6664C27.289 35.0437 27.4822 34.4957 27.5211 34.4485C27.5601 34.4014 27.6647 34.3627 27.7536 34.3627C27.8847 34.3627 27.9736 34.4696 28.2245 34.9289C29.3393 36.9702 29.2047 36.7755 29.8185 37.2338C30.4891 37.7344 31.0408 37.8903 31.9939 37.8485C32.6513 37.8196 32.76 37.7947 33.221 37.5673C33.8433 37.2603 34.296 36.8456 34.3565 36.5272C34.4806 35.8741 34.0172 35.3235 33.3434 35.3235C33.0228 35.3235 32.8736 35.3881 32.4858 35.6949C32.2557 35.877 32.1612 35.9069 31.8145 35.9069C31.1997 35.9069 31.0243 35.7303 30.2964 34.3782C29.9657 33.764 29.6128 33.1603 29.5122 33.0368C29.4116 32.9133 29.1301 32.7071 28.8866 32.5787C28.4988 32.3743 28.3705 32.3428 27.853 32.3253C27.4804 32.3126 27.151 32.3409 26.9613 32.4018ZM15.4309 36.2129C14.8278 36.576 14.8529 37.5771 15.4731 37.8937C15.5876 37.9522 15.8252 38 16.001 38C16.1769 38 16.4144 37.9522 16.5289 37.8937C16.9668 37.6702 17.1326 37.0769 16.8951 36.5829C16.675 36.1249 15.9017 35.9295 15.4309 36.2129Z" fill="black"/>
<path d="M22.2621 3.88996C23.5115 1.74159 26.266 1.01289 28.4144 2.26235C30.5627 3.51182 31.2914 6.2663 30.042 8.41466L28.6846 10.7486C28.1848 11.608 27.083 11.8995 26.2236 11.3997L21.5557 8.68485C20.6963 8.18507 20.4049 7.08327 20.9046 6.22393L22.2621 3.88996Z" fill="#FDB515"/>
</svg>
