<svg width="28" height="28" viewBox="0 0 28 28" fill="none" xmlns="http://www.w3.org/2000/svg">
<defs>
<linearGradient id="paint0_linear_349_1637" x1="27.0089" y1="14.3628" x2="1.16699" y2="14.3628" gradientUnits="userSpaceOnUse">
<stop stop-color="#FF2252"/>
<stop offset="1" stop-color="#FC7B04"/>
</linearGradient>
</defs>
<path d="M8.68383 6.24121C9.42933 6.24121 10.1188 6.29954 10.7488 6.47221C11.3205 6.57726 11.8662 6.79285 12.3553 7.10688C12.815 7.39504 13.1592 7.79988 13.3878 8.31904C13.6177 8.83821 13.732 9.47404 13.732 10.1659C13.732 10.9744 13.5605 11.6662 13.1592 12.1854C12.815 12.7057 12.241 13.1665 11.5527 13.513C12.528 13.8024 13.2735 14.3215 13.732 15.0134C14.1917 15.7064 14.4787 16.572 14.4787 17.5532C14.4787 18.3617 14.306 19.0535 14.019 19.631C13.732 20.2085 13.2735 20.7277 12.7567 21.0742C12.1952 21.4456 11.5746 21.7186 10.9215 21.8815C10.2332 22.0554 9.54483 22.1709 8.85649 22.1709H1.16699V6.24121H8.68383ZM8.22416 12.7045C8.85533 12.7045 9.37216 12.5319 9.77349 12.2437C10.1748 11.9555 10.3475 11.4352 10.3475 10.8005C10.3475 10.454 10.2892 10.1075 10.1748 9.87771C10.0605 9.64671 9.88783 9.47288 9.65916 9.30021C9.42933 9.18471 9.19949 9.06921 8.91249 9.01204C8.62549 8.95371 8.33966 8.95371 7.99433 8.95371H4.66699V12.7057H8.22533L8.22416 12.7045ZM8.39683 19.5155C8.74099 19.5155 9.08516 19.4572 9.37216 19.4C9.66193 19.3449 9.93599 19.2266 10.1748 19.0535C10.4086 18.8846 10.6042 18.6684 10.7488 18.4189C10.8632 18.1307 10.9787 17.7842 10.9787 17.3805C10.9787 16.572 10.7488 15.9945 10.2903 15.5909C9.83066 15.2444 9.19949 15.0717 8.45399 15.0717H4.66699V19.5167H8.39683V19.5155ZM19.4708 19.4572C19.9293 19.9192 20.6177 20.1502 21.5358 20.1502C22.167 20.1502 22.741 19.9775 23.1995 19.6894C23.6592 19.3429 23.9462 18.9964 24.0605 18.6499H26.8722C26.4125 20.0347 25.7242 21.0159 24.8072 21.6505C23.8878 22.228 22.7982 22.5745 21.4787 22.5745C20.6344 22.5771 19.7973 22.4204 19.0112 22.1125C18.3038 21.8472 17.673 21.4111 17.1748 20.8432C16.642 20.3119 16.2481 19.6576 16.028 18.938C15.741 18.1879 15.6255 17.3805 15.6255 16.4565C15.6255 15.5909 15.741 14.7835 16.028 14.0322C16.3039 13.309 16.7122 12.6435 17.232 12.0699C17.7488 11.5507 18.38 11.0899 19.0683 10.8005C19.8345 10.4926 20.6529 10.3357 21.4787 10.3385C22.454 10.3385 23.315 10.5124 24.0605 10.916C24.8072 11.3197 25.38 11.7817 25.8397 12.4747C26.3086 13.1403 26.6579 13.8825 26.8722 14.668C26.9865 15.4754 27.0437 16.2839 26.9865 17.2067H18.667C18.667 18.1307 19.0112 18.9964 19.4708 19.4584V19.4572ZM23.0852 13.3975C22.6838 12.9939 22.0527 12.7629 21.306 12.7629C20.8682 12.7563 20.4352 12.8551 20.0437 13.051C19.6995 13.2249 19.4708 13.4559 19.241 13.6869C19.0298 13.91 18.89 14.1911 18.8397 14.4942C18.7813 14.7835 18.7242 15.0134 18.7242 15.2444H23.8878C23.7735 14.3787 23.4865 13.8024 23.0852 13.3975V13.3975ZM18.0358 7.33788H24.4618V8.89654H18.037V7.33788H18.0358Z" fill="url(#paint0_linear_349_1637)"/>
</svg>
