<svg width="27" height="34" viewBox="0 0 27 34" fill="none" xmlns="http://www.w3.org/2000/svg">
<path fill-rule="evenodd" clip-rule="evenodd" d="M3.10798 0.112462C1.53677 0.461307 0.302195 1.80872 0.0567136 3.44254C0.00841775 3.76402 -0.00876184 8.30084 0.00414005 17.3237L0.0233204 30.7273L0.209259 31.2479C0.64544 32.4692 1.57141 33.4071 2.74362 33.8147L3.19705 33.9723L13.2854 33.9913C24.4949 34.0125 23.9208 34.0348 24.8797 33.5402C25.7757 33.078 26.5085 32.1909 26.8344 31.1737L27 30.6567V17.0062V3.35577L26.8344 2.83882C26.3923 1.45889 25.2522 0.400568 23.8953 0.110557C23.1999 -0.0380811 3.77791 -0.0362469 3.10798 0.112462ZM23.627 2.22543C24.0664 2.3589 24.5055 2.74422 24.7432 3.20495L24.9302 3.56741V17.0062V30.4451L24.7432 30.8075C24.5055 31.2683 24.0664 31.6536 23.627 31.7871C23.1102 31.9439 3.91314 31.9439 3.3963 31.7871C2.95695 31.6536 2.5178 31.2683 2.28012 30.8075L2.09314 30.4451V17.0062V3.56741L2.28012 3.20495C2.51104 2.75734 2.95412 2.35982 3.36739 2.22959C3.8498 2.07757 23.127 2.07362 23.627 2.22543ZM12.3649 5.3249C10.8942 5.68983 9.61191 6.99964 9.2688 8.48764C9.00179 9.6455 9.26659 10.9533 9.98379 12.0192L10.1902 12.3259L9.76383 12.5769C8.13116 13.5376 6.92086 15.0423 6.37146 16.7946C6.11246 17.6207 6.09611 18.3553 6.32931 18.6897C6.64516 19.1425 6.32469 19.1226 13.3047 19.1226C20.3442 19.1226 19.973 19.1474 20.3007 18.6542C20.5211 18.3227 20.5308 18.0074 20.3435 17.2588C20.0395 16.0435 19.4078 14.8313 18.622 13.955C18.196 13.48 17.3641 12.8236 16.8194 12.5329L16.4361 12.3283L16.7266 11.8854C17.2134 11.143 17.4443 10.3601 17.4443 9.45178C17.4443 8.78732 17.337 8.32285 17.0241 7.63391C16.5255 6.53573 15.4124 5.61067 14.2536 5.33132C13.7371 5.2068 12.8529 5.20377 12.3649 5.3249ZM14.1512 7.64195C14.6185 7.84279 15.1347 8.43918 15.2782 8.94357C15.6692 10.3192 14.6905 11.6727 13.3047 11.6727C11.5286 11.6727 10.5814 9.5346 11.7625 8.19142C12.4047 7.461 13.2685 7.26235 14.1512 7.64195ZM14.7881 14.0428C16.1014 14.4658 17.1799 15.3536 17.8815 16.5892C17.9825 16.7672 18.0653 16.9339 18.0653 16.9595C18.0653 16.9852 15.923 17.0062 13.3047 17.0062C10.6864 17.0062 8.54409 16.9843 8.54409 16.9574C8.54409 16.773 9.21057 15.8235 9.64875 15.3837C10.4031 14.6265 11.2188 14.1672 12.226 13.9325C12.8526 13.7866 14.1683 13.8431 14.7881 14.0428ZM4.84269 22.3737C4.07665 22.6025 3.93915 23.8433 4.63206 24.2752C4.84801 24.4099 5.04526 24.413 13.5117 24.413C21.9781 24.413 22.1753 24.4099 22.3913 24.2752C22.6863 24.0913 22.8395 23.7667 22.8363 23.3327C22.8334 22.9493 22.7191 22.7326 22.3853 22.4779C22.1955 22.3329 22.1639 22.3323 13.6274 22.3205C8.57852 22.3136 4.97068 22.3354 4.84269 22.3737ZM4.63206 26.7386C4.33704 26.9225 4.1838 27.2471 4.18704 27.6812C4.18994 28.0645 4.30426 28.2812 4.63799 28.536C4.82807 28.6811 4.84939 28.6814 13.5117 28.6814C22.1739 28.6814 22.1953 28.6811 22.3853 28.536C22.7191 28.2812 22.8334 28.0645 22.8363 27.6812C22.8395 27.2471 22.6863 26.9225 22.3913 26.7386C22.1753 26.604 21.9781 26.6009 13.5117 26.6009C5.04526 26.6009 4.84801 26.604 4.63206 26.7386Z" fill="white"/>
</svg>
