<svg width="100" height="100" viewBox="0 0 100 100" fill="none" xmlns="http://www.w3.org/2000/svg">
<path d="M49.9997 8.3335C27.4122 8.3335 8.33301 27.4127 8.33301 50.0002C8.33301 72.5877 27.4122 91.6668 49.9997 91.6668C72.5872 91.6668 91.6663 72.5877 91.6663 50.0002C91.6663 27.4127 72.5872 8.3335 49.9997 8.3335ZM49.9997 29.1668C57.1955 29.1668 62.4997 34.4668 62.4997 41.6668C62.4997 48.8668 57.1955 54.1668 49.9997 54.1668C42.808 54.1668 37.4997 48.8668 37.4997 41.6668C37.4997 34.4668 42.808 29.1668 49.9997 29.1668ZM28.7247 69.8835C32.4622 64.3835 38.6955 60.7168 45.833 60.7168H54.1663C61.308 60.7168 67.5372 64.3835 71.2747 69.8835C65.9497 75.5835 58.3955 79.1668 49.9997 79.1668C41.6038 79.1668 34.0497 75.5835 28.7247 69.8835Z" fill="#BDBDBD"/>
</svg>
