<svg width="17" height="17" viewBox="0 0 17 17" fill="none" xmlns="http://www.w3.org/2000/svg">
<path d="M6.12391 6.72242e-08C5.84595 8.6409e-06 5.57346 0.0772488 5.33685 0.223102C5.10023 0.368955 4.9088 0.577684 4.78391 0.826L4.19391 2H2.50391C1.84087 2 1.20498 2.26339 0.736139 2.73223C0.267298 3.20107 0.00390625 3.83696 0.00390625 4.5V12.5C0.00390625 13.163 0.267298 13.7989 0.736139 14.2678C1.20498 14.7366 1.84087 15 2.50391 15H7.59991C7.43637 14.6804 7.30473 14.3454 7.20691 14H2.50491C2.10708 14 1.72555 13.842 1.44425 13.5607C1.16294 13.2794 1.00491 12.8978 1.00491 12.5V4.5C1.00491 4.10218 1.16294 3.72064 1.44425 3.43934C1.72555 3.15804 2.10708 3 2.50491 3H4.50291C4.59551 2.99981 4.68625 2.97391 4.765 2.92517C4.84375 2.87644 4.90742 2.8068 4.94891 2.724L5.67691 1.275C5.71861 1.19224 5.78249 1.1227 5.86143 1.07414C5.94036 1.02558 6.03123 0.99991 6.12391 1H9.88791C9.98085 0.999817 10.072 1.02555 10.1511 1.0743C10.2303 1.12305 10.2943 1.1929 10.3359 1.276L11.0589 2.723C11.1005 2.80595 11.1643 2.87569 11.2432 2.92444C11.3222 2.97318 11.4131 2.999 11.5059 2.999H13.5049C13.9027 2.999 14.2843 3.15704 14.5656 3.43834C14.8469 3.71964 15.0049 4.10118 15.0049 4.499V7.602C15.3613 7.78454 15.6966 8.00552 16.0049 8.261V4.499C16.0049 3.83596 15.7415 3.20007 15.2727 2.73123C14.8038 2.26239 14.1679 1.999 13.5049 1.999H11.8149L11.2299 0.829C11.1053 0.57982 10.9137 0.370276 10.6767 0.223853C10.4396 0.0774303 10.1665 -8.33297e-05 9.88791 6.72242e-08H6.12391ZM7.99991 4C8.89285 4.00004 9.76013 4.29871 10.4638 4.84849C11.1674 5.39827 11.6669 6.16757 11.8829 7.034C11.5504 7.0712 11.222 7.13881 10.9019 7.236C10.7675 6.72547 10.5009 6.25942 10.1288 5.88489C9.75678 5.51035 9.29252 5.24059 8.78289 5.10282C8.27327 4.96506 7.73632 4.96416 7.22624 5.10023C6.71617 5.2363 6.25101 5.50452 5.87772 5.87781C5.50442 6.2511 5.23621 6.71626 5.10014 7.22634C4.96407 7.73642 4.96496 8.27336 5.10273 8.78299C5.2405 9.29261 5.51026 9.75687 5.88479 10.1289C6.25933 10.501 6.72538 10.7676 7.23591 10.902C7.13879 11.2218 7.07118 11.5499 7.03391 11.882C6.08902 11.6432 5.26374 11.0679 4.71292 10.2639C4.16209 9.45986 3.92358 8.48249 4.04214 7.51514C4.16069 6.54779 4.62817 5.65695 5.35685 5.00976C6.08553 4.36258 7.02533 4.00353 7.99991 4ZM16.9999 12.5C16.9999 13.6935 16.5258 14.8381 15.6819 15.682C14.838 16.5259 13.6934 17 12.4999 17C11.3064 17 10.1618 16.5259 9.31793 15.682C8.47401 14.8381 7.99991 13.6935 7.99991 12.5C7.99991 11.3065 8.47401 10.1619 9.31793 9.31802C10.1618 8.47411 11.3064 8 12.4999 8C13.6934 8 14.838 8.47411 15.6819 9.31802C16.5258 10.1619 16.9999 11.3065 16.9999 12.5ZM12.9999 10.5C12.9999 10.3674 12.9472 10.2402 12.8535 10.1464C12.7597 10.0527 12.6325 10 12.4999 10C12.3673 10 12.2401 10.0527 12.1464 10.1464C12.0526 10.2402 11.9999 10.3674 11.9999 10.5V12H10.4999C10.3673 12 10.2401 12.0527 10.1464 12.1464C10.0526 12.2402 9.99991 12.3674 9.99991 12.5C9.99991 12.6326 10.0526 12.7598 10.1464 12.8536C10.2401 12.9473 10.3673 13 10.4999 13H11.9999V14.5C11.9999 14.6326 12.0526 14.7598 12.1464 14.8536C12.2401 14.9473 12.3673 15 12.4999 15C12.6325 15 12.7597 14.9473 12.8535 14.8536C12.9472 14.7598 12.9999 14.6326 12.9999 14.5V13H14.4999C14.6325 13 14.7597 12.9473 14.8535 12.8536C14.9472 12.7598 14.9999 12.6326 14.9999 12.5C14.9999 12.3674 14.9472 12.2402 14.8535 12.1464C14.7597 12.0527 14.6325 12 14.4999 12H12.9999V10.5Z" fill="black"/>
</svg>
