<svg width="24" height="24" viewBox="0 0 24 24" fill="none" xmlns="http://www.w3.org/2000/svg">
<path fill-rule="evenodd" clip-rule="evenodd" d="M17.0625 6.09375H20.25C21.2859 6.09375 22.125 6.93281 22.125 7.96875V18.6563C22.125 19.6922 21.2859 20.5313 20.25 20.5313H3.75C2.71406 20.5313 1.875 19.6922 1.875 18.6563V7.96875C1.875 6.93281 2.71406 6.09375 3.75 6.09375H6.9375L7.69922 3.96563C7.80469 3.66797 8.08828 3.46875 8.40469 3.46875H15.5953C15.7501 3.46861 15.9011 3.51627 16.0278 3.6052C16.1545 3.69413 16.2507 3.82 16.3031 3.96563L17.0625 6.09375ZM8.25 13.0313C8.25 15.1031 9.92813 16.7813 12 16.7813C14.0719 16.7813 15.75 15.1031 15.75 13.0313C15.75 10.9594 14.0719 9.28125 12 9.28125C9.92813 9.28125 8.25 10.9594 8.25 13.0313ZM10.409 14.6222C9.98705 14.2003 9.75 13.628 9.75 13.0313C9.75 12.4345 9.98705 11.8622 10.409 11.4403C10.831 11.0183 11.4033 10.7813 12 10.7813C12.5967 10.7813 13.169 11.0183 13.591 11.4403C14.0129 11.8622 14.25 12.4345 14.25 13.0313C14.25 13.628 14.0129 14.2003 13.591 14.6222C13.169 15.0442 12.5967 15.2813 12 15.2813C11.4033 15.2813 10.831 15.0442 10.409 14.6222Z" fill="#FDB515"/>
</svg>
