<svg width="32" height="32" viewBox="0 0 32 32" fill="none" xmlns="http://www.w3.org/2000/svg">
<path fill-rule="evenodd" clip-rule="evenodd" d="M16.0007 1.3335C7.90065 1.3335 1.33398 7.90016 1.33398 16.0002C1.33398 24.1002 7.90065 30.6668 16.0007 30.6668C24.1007 30.6668 30.6673 24.1002 30.6673 16.0002C30.6673 7.90016 24.1007 1.3335 16.0007 1.3335ZM17.334 9.3335C17.334 8.97987 17.1935 8.64074 16.9435 8.39069C16.6934 8.14064 16.3543 8.00016 16.0007 8.00016C15.647 8.00016 15.3079 8.14064 15.0578 8.39069C14.8078 8.64074 14.6673 8.97987 14.6673 9.3335V17.3335C14.6673 17.6871 14.8078 18.0263 15.0578 18.2763C15.3079 18.5264 15.647 18.6668 16.0007 18.6668C16.3543 18.6668 16.6934 18.5264 16.9435 18.2763C17.1935 18.0263 17.334 17.6871 17.334 17.3335V9.3335ZM17.334 22.0002C17.334 21.6465 17.1935 21.3074 16.9435 21.0574C16.6934 20.8073 16.3543 20.6668 16.0007 20.6668C15.647 20.6668 15.3079 20.8073 15.0578 21.0574C14.8078 21.3074 14.6673 21.6465 14.6673 22.0002V22.6668C14.6673 23.0205 14.8078 23.3596 15.0578 23.6096C15.3079 23.8597 15.647 24.0002 16.0007 24.0002C16.3543 24.0002 16.6934 23.8597 16.9435 23.6096C17.1935 23.3596 17.334 23.0205 17.334 22.6668V22.0002Z" fill="#FDB515"/>
</svg>
