<svg width="16" height="13" viewBox="0 0 16 13" fill="none" xmlns="http://www.w3.org/2000/svg">
<defs>
<linearGradient id="paint0_linear_994_4402" x1="15.3337" y1="6.63383" x2="0.666992" y2="6.63383" gradientUnits="userSpaceOnUse">
<stop stop-color="#FF2252"/>
<stop offset="1" stop-color="#FC7B04"/>
</linearGradient>
</defs>
<path d="M1.33366 1.51366L2.18699 0.666992L13.3337 11.8137L12.487 12.667L10.4337 10.6137C9.66699 10.867 8.85366 11.0003 8.00033 11.0003C4.66699 11.0003 1.82033 8.92699 0.666992 6.00033C1.12699 4.82699 1.86033 3.79366 2.79366 2.97366L1.33366 1.51366ZM8.00033 4.00033C8.53076 4.00033 9.03947 4.21104 9.41454 4.58611C9.78961 4.96118 10.0003 5.46989 10.0003 6.00033C10.0007 6.22737 9.96234 6.45281 9.88699 6.66699L7.33366 4.11366C7.54784 4.03831 7.77328 3.99999 8.00033 4.00033ZM8.00033 1.00033C11.3337 1.00033 14.1803 3.07366 15.3337 6.00033C14.7896 7.38246 13.865 8.58213 12.667 9.46033L11.7203 8.50699C12.6423 7.86925 13.3858 7.00636 13.8803 6.00033C13.3414 4.90028 12.5046 3.97351 11.4652 3.32533C10.4257 2.67715 9.2253 2.33358 8.00033 2.33366C7.27366 2.33366 6.56033 2.45366 5.89366 2.66699L4.86699 1.64699C5.82699 1.23366 6.88699 1.00033 8.00033 1.00033ZM2.12033 6.00033C2.65929 7.10037 3.49604 8.02715 4.53548 8.67532C5.57492 9.3235 6.77535 9.66707 8.00033 9.66699C8.46033 9.66699 8.91366 9.62033 9.33366 9.52699L7.81366 8.00033C7.34977 7.9506 6.91688 7.74358 6.58698 7.41368C6.25708 7.08378 6.05005 6.65088 6.00033 6.18699L3.73366 3.91366C3.07366 4.48033 2.52033 5.18699 2.12033 6.00033Z" fill="url(#paint0_linear_994_4402)"/>

</svg>
