<svg width="53" height="53" viewBox="0 0 53 53" fill="none" xmlns="http://www.w3.org/2000/svg">
<defs>
<clipPath id="clip0_1950_2438">
<rect width="53" height="53" fill="white"/>
</clipPath>
</defs>
<g clip-path="url(#clip0_1950_2438)">
<path d="M26.5 53C41.1355 53 53 41.1355 53 26.5C53 11.8645 41.1355 0 26.5 0C11.8645 0 0 11.8645 0 26.5C0 41.1355 11.8645 53 26.5 53Z" fill="#FABE2C"/>
<path d="M26.5 53C33.5282 53 40.2686 50.208 45.2383 45.2383C50.208 40.2686 53 33.5282 53 26.5C53 19.4718 50.208 12.7314 45.2383 7.7617C40.2686 2.79196 33.5282 0 26.5 0V26.5V53Z" fill="#FF9100"/>
<path d="M26.5 46C37.2696 46 46 37.2696 46 26.5C46 15.7304 37.2696 7 26.5 7C15.7304 7 7 15.7304 7 26.5C7 37.2696 15.7304 46 26.5 46Z" fill="#FED843"/>
<path d="M26.5 46C31.6717 46 36.6316 43.9455 40.2886 40.2886C43.9455 36.6316 46 31.6717 46 26.5C46 21.3283 43.9455 16.3684 40.2886 12.7114C36.6316 9.0545 31.6717 7 26.5 7V26.5V46Z" fill="#FABE2C"/>
<path d="M25.4499 13.9372C25.8283 12.9949 27.1623 12.9949 27.5408 13.9372L30.1069 20.3274C30.268 20.7287 30.6446 21.0023 31.0761 21.0315L37.9464 21.4974C38.9596 21.5661 39.3718 22.8348 38.5925 23.4859L33.3081 27.9011C32.9763 28.1784 32.8324 28.6211 32.9379 29.0405L34.6179 35.7185C34.8657 36.7033 33.7864 37.4875 32.9264 36.9475L27.0943 33.2861C26.7281 33.0562 26.2626 33.0562 25.8963 33.2861L20.0643 36.9475C19.2042 37.4875 18.125 36.7033 18.3727 35.7185L20.0527 29.0405C20.1582 28.6211 20.0144 28.1784 19.6825 27.9011L14.3981 23.4859C13.6188 22.8348 14.0311 21.5661 15.0442 21.4974L21.9146 21.0315C22.346 21.0023 22.7226 20.7287 22.8838 20.3274L25.4499 13.9372Z" fill="#FABE2C"/>
<mask id="mask0_1950_2438" style="mask-type:alpha" maskUnits="userSpaceOnUse" x="26" y="12" width="13" height="26">
<path d="M26.3828 12.0098H37.2719C38.2265 12.0098 39.0004 13.0185 39.0004 14.2629V37.245H26.3828V12.0098Z" fill="#FF9100"/>
</mask>
<g mask="url(#mask0_1950_2438)">
<path d="M25.4499 13.9377C25.8283 12.9954 27.1623 12.9954 27.5408 13.9377L30.1069 20.3279C30.268 20.7291 30.6446 21.0028 31.0761 21.032L37.9464 21.4979C38.9596 21.5666 39.3718 22.8353 38.5925 23.4864L33.3081 27.9016C32.9763 28.1788 32.8324 28.6216 32.9379 29.041L34.6179 35.719C34.8657 36.7038 33.7864 37.4879 32.9264 36.948L27.0943 33.2866C26.7281 33.0567 26.2626 33.0567 25.8963 33.2866L20.0643 36.948C19.2042 37.4879 18.125 36.7038 18.3727 35.719L20.0527 29.041C20.1582 28.6216 20.0144 28.1788 19.6825 27.9016L14.3981 23.4864C13.6188 22.8353 14.0311 21.5666 15.0442 21.4979L21.9146 21.032C22.346 21.0028 22.7226 20.7291 22.8838 20.3279L25.4499 13.9377Z" fill="#FF9100"/>
</g>
</g>
</svg>
