<svg width="65" height="65" viewBox="0 0 65 65" fill="none" xmlns="http://www.w3.org/2000/svg">
<circle cx="32.5" cy="32.5" r="26.5" fill="#FABE2C"/>
<path d="M32.5 59C39.5282 59 46.2686 56.208 51.2383 51.2383C56.208 46.2686 59 39.5282 59 32.5C59 25.4718 56.208 18.7314 51.2383 13.7617C46.2686 8.79196 39.5282 6 32.5 6L32.5 32.5L32.5 59Z" fill="#FF9100"/>
<circle cx="32.5" cy="32.5" r="19.5" fill="#FED843"/>
<path d="M32.5 52C37.6717 52 42.6316 49.9455 46.2886 46.2886C49.9455 42.6316 52 37.6717 52 32.5C52 27.3283 49.9455 22.3684 46.2886 18.7114C42.6316 15.0545 37.6717 13 32.5 13L32.5 32.5L32.5 52Z" fill="#FABE2C"/>
<path d="M31.4496 19.9372C31.828 18.9949 33.162 18.9949 33.5405 19.9372L36.1066 26.3274C36.2677 26.7287 36.6443 27.0023 37.0758 27.0315L43.9461 27.4974C44s.9593 27.5661 45.3715 28.8348 44.5922 29.4859L39.3078 33.9011C38.976 34.1784 38.8321 34.6211 38.9376 35.0405L40.6176 41.7185C40.8654 42.7033 39.7861 43.4875 38.9261 42.9475L33.094 39.2861C32.7278 39.0562 32.2623 39.0562 31.896 39.2861L26.064 42.9475C25.2039 43.4875 24.1247 42.7033 24.3724 41.7185L26.0524 35.0405C26.1579 34.6211 26.0141 34.1784 25.6822 33.9011L20.3978 29.4859C19.6185 28.8348 20.0308 27.5661 21.0439 27.4974L27.9143 27.0315C28.3457 27.0023 28.7223 26.7287 28.8835 26.3274L31.4496 19.9372Z" fill="#FABE2C"/>
<mask id="mask0_492_1557" style="mask-type:alpha" maskUnits="userSpaceOnUse" x="32" y="18" width="13" height="26">
<path d="M32.3824 18.0098H43.2715C44.2261 18.0098 45 19.0185 45 20.2629V43.245H32.3824V18.0098Z" fill="#FF9100"/>
</mask>
<g mask="url(#mask0_492_1557)">
<path d="M31.4496 19.9377C31.828 18.9954 33.162 18.9954 33.5405 19.9377L36.1066 26.3279C36.2677 26.7291 36.6443 27.0028 37.0758 27.032L43.9461 27.4979C44.9593 27.5666 45.3715 28.8353 44.5922 29.4864L39.3078 33.9016C38.976 34.1788 38.8321 34.6216 38.9376 35.041L40.6176 41.719C40.8654 42.7038 39.7861 43.4879 38.9261 42.948L33.094 39.2866C32.7278 39.0567 32.2623 39.0567 31.896 39.2866L26.064 42.948C25.2039 43.4879 24.1247 42.7038 24.3724 41.719L26.0524 35.041C26.1579 34.6216 26.0141 34.1788 25.6822 33.9016L20.3978 29.4864C19.6185 28.8353 20.0308 27.5666 21.0439 27.4979L27.9143 27.032C28.3457 27.0028 28.7223 26.7291 28.8835 26.3279L31.4496 19.9377Z" fill="#FF9100"/>
</g>
</svg>
