<svg width="17" height="16" viewBox="0 0 17 16" fill="none" xmlns="http://www.w3.org/2000/svg">
<path d="M2.77176 1.46808C2.3711 1.46808 1.98684 1.62724 1.70353 1.91056C1.42021 2.19387 1.26105 2.57813 1.26105 2.97879V10.0288C1.26105 10.4295 1.42021 10.8137 1.70353 11.097C1.98684 11.3803 2.3711 11.5395 2.77176 11.5395H4.61819V14.7597C4.61819 14.896 4.77262 14.9759 4.88408 14.8953L9.53573 11.5395H13.8503C14.251 11.5395 14.6353 11.3803 14.9186 11.097C15.2019 10.8137 15.361 10.4295 15.361 10.0288V2.97879C15.361 2.57813 15.2019 2.19387 14.9186 1.91056C14.6353 1.62724 14.251 1.46808 13.8503 1.46808H2.77176ZM0.253906 2.97879C0.253906 2.31102 0.51918 1.67059 0.991369 1.1984C1.46356 0.726211 2.10399 0.460938 2.77176 0.460938H13.8503C14.5181 0.460938 15.1585 0.726211 15.6307 1.1984C16.1029 1.67059 16.3682 2.31102 16.3682 2.97879V10.0288C16.3682 10.6966 16.1029 11.337 15.6307 11.8092C15.1585 12.2814 14.5181 12.5467 13.8503 12.5467H9.86138L5.47359 15.7124C4.69608 16.2731 3.61105 15.7178 3.61105 14.759V12.5467H2.77176C2.10399 12.5467 1.46356 12.2814 0.991369 11.8092C0.51918 11.337 0.253906 10.6966 0.253906 10.0288V2.97879Z" fill="black"/>
</svg>
