<svg width="20" height="20" viewBox="0 0 20 20" fill="none" xmlns="http://www.w3.org/2000/svg">
<path fill-rule="evenodd" clip-rule="evenodd" d="M0 10C0 7.34784 1.04328 4.8043 2.90033 2.92893C4.75737 1.05357 7.27607 0 9.90233 0C12.5286 0 15.0473 1.05357 16.9043 2.92893C18.7614 4.8043 19.8047 7.34784 19.8047 10C19.8047 12.6522 18.7614 15.1957 16.9043 17.0711C15.0473 18.9464 12.5286 20 9.90233 20C7.27607 20 4.75737 18.9464 2.90033 17.0711C1.04328 15.1957 0 12.6522 0 10H0ZM9.33724 14.28L15.0383 7.08267L14.0085 6.25067L9.14711 12.3853L5.70374 9.488L4.85874 10.512L9.33724 14.2813V14.28Z" fill="#219653"/>
</svg>
