<svg width="42" height="42" viewBox="0 0 42 42" fill="none" xmlns="http://www.w3.org/2000/svg">
<path d="M29.0003 18.0098C26.5 15.0098 27.5 11.5098 29.0003 10.5098H9.5L7.5 14.0098L10 18.0098H29.0003Z" fill="white"/>
<path d="M29 23.5098C26.4416 21.5098 27.4648 19.1764 29 18.5098H9.04648L7 20.8431L9.55811 23.5098H29Z" fill="white"/>
<path d="M35 32.5098C31.395 28.9098 32.8368 24.7098 35 23.5098H6.88368L4 27.7098L7.6046 32.5098H35Z" fill="white"/>
<path d="M12.5003 18.0098C10 15.0098 11 11.5098 12.5003 10.5098H6.5L4.5 14.0098L7 18.0098H12.5003Z" fill="#FDB515"/>
<path d="M12.0003 32.0098C9.5 29.0098 10.5 25.5098 12.0003 24.5098H6L4 28.0098L6.5 32.0098H12.0003Z" fill="#FDB515"/>
<path d="M16 23.5098C13.1873 21.5098 14.3122 19.1764 16 18.5098H9.24992L7 20.8431L9.8124 23.5098H16Z" fill="#FDB515"/>
<path fill-rule="evenodd" clip-rule="evenodd" d="M7.93037 9.10644C6.9083 9.32262 5.62703 10.1447 5.01176 10.9791C4.3033 11.9399 4.0409 12.6658 3.98795 13.8115C3.94167 14.8128 4.0696 15.4482 4.49099 16.3088C5.00161 17.352 5.82709 18.1569 6.92532 18.6826L7.4144 18.9167L7.25526 19.1912C6.68669 20.1719 6.64861 21.6553 7.16625 22.6574L7.29279 22.9023L6.83908 22.9874C6.29122 23.09 5.40772 23.498 4.83303 23.9138C4.10602 24.4398 3.5052 25.2371 3.16692 26.1247C2.99062 26.5872 2.98756 26.6256 3.00938 28.0752L3.03169 29.5539L3.256 30.0237C3.89226 31.3564 4.95672 32.3038 6.36683 32.7926L6.92275 32.9853L22.3497 33.0027C37.6421 33.02 37.7786 33.0189 38.0025 32.8836L38.2283 32.7471V32.1275V31.5078L38.0025 31.3718C37.7792 31.2374 37.6055 31.2358 22.6276 31.2339C12.6664 31.2326 7.37423 31.2082 7.17375 31.1625C6.64944 31.0431 6.12882 30.755 5.66768 30.329C4.08677 28.8685 4.32408 26.3501 6.15266 25.1829C6.97946 24.6552 6.54889 24.6868 13.4362 24.6477L19.6022 24.6127L19.8293 24.3884C20.0304 24.1898 20.0565 24.121 20.0565 23.7892C20.0565 23.4574 20.0304 23.3886 19.8293 23.19L19.6022 22.9657L14.7565 22.9314L9.91085 22.8971L9.57431 22.7273C8.73347 22.3032 8.33522 21.3129 8.63514 20.3922C8.81477 19.8407 9.39064 19.3044 9.96818 19.1508C10.1644 19.0987 13.9203 19.0822 22.632 19.0952C34.3643 19.1127 35.0266 19.1074 35.2038 18.9927C35.4104 18.859 35.5877 18.5048 35.5877 18.2258C35.5877 17.9541 35.4016 17.621 35.1763 17.4896C34.989 17.3804 34.095 17.3725 21.815 17.3725C7.40724 17.3725 8.27414 17.3966 7.48841 16.9757C7.29696 16.8731 6.97404 16.6393 6.77078 16.4562C6.10019 15.8519 5.62717 14.6018 5.74412 13.7431C5.9291 12.3853 6.75208 11.3789 8.0214 10.9581L8.54557 10.7843L21.7365 10.7833C32.1488 10.7825 34.9636 10.7642 35.0991 10.6965C35.3457 10.5734 35.5877 10.1851 35.5877 9.91288C35.5877 9.62355 35.4395 9.33133 35.1975 9.14329L35.013 9L21.6975 9.00542C10.5988 9.01002 8.30687 9.02683 7.93037 9.10644ZM22.4606 21.0966C22.3687 21.1432 22.228 21.2685 22.1479 21.375C22.0061 21.5636 22.0017 21.6471 21.9822 24.4976C21.9712 26.1085 21.9798 27.4967 22.0013 27.5826C22.0639 27.8322 22.2908 28.0098 22.5471 28.0098C22.7272 28.0098 22.9788 27.8715 23.667 27.3943C24.6109 26.7397 24.7411 26.6729 24.9476 26.7377C25.0197 26.7603 25.4781 27.0557 25.9663 27.3943C26.9593 28.0829 27.1666 28.1436 27.4625 27.8328L27.631 27.6558L27.6525 24.8647C27.6643 23.3295 27.6537 21.9364 27.6289 21.7688C27.5968 21.5522 27.5173 21.3985 27.3537 21.237L27.1237 21.0098L24.8757 21.0108C23.2298 21.0116 22.5829 21.0345 22.4606 21.0966ZM31.1055 22.9284C30.2811 22.9529 29.8016 22.9956 29.699 23.0535C29.3594 23.2451 29.2293 23.8373 29.4389 24.2376C29.6606 24.6609 29.561 24.6522 33.9471 24.6315C38.6343 24.6095 38.2283 24.6875 38.2283 23.8084C38.2283 23.1774 38.1729 23.0422 37.872 22.9386C37.6434 22.8599 33.6015 22.8538 31.1055 22.9284Z" fill="black"/>
</svg>
