<svg width="24" height="24" viewBox="0 0 24 24" fill="none" xmlns="http://www.w3.org/2000/svg">
<path d="M5.34677 0.875C2.87389 0.875 0.875 2.93407 0.875 5.46685V17.5332C0.875 20.0659 2.87389 22.125 5.34677 22.125H14.0403C14.4555 22.125 14.7863 21.7801 14.7863 21.3619C14.7863 20.9437 14.4555 20.5988 14.0403 20.5988H5.34677C3.70424 20.5988 2.36694 19.2295 2.36694 17.5332V5.46685C2.36694 3.77053 3.70424 2.40124 5.34677 2.40124H17.6532C19.2958 2.40124 20.6331 3.77053 20.6331 5.46685V13.2403C20.6331 13.6586 20.9639 14.0035 21.379 14.0035C21.7942 14.0035 22.125 13.6586 22.125 13.2403V5.46685C22.125 2.93407 20.1261 0.875 17.6532 0.875H5.34677Z" fill="white" stroke="white" stroke-width="0.25" stroke-linecap="round"/>
<path fill-rule="evenodd" clip-rule="evenodd" d="M18.5497 20.7562L21.4702 18.9474C22.1501 18.5264 22.1501 17.4736 21.4702 17.0526L18.5497 15.2438C17.8698 14.8228 17.0199 15.3491 17.0199 16.1913L17.0199 19.8087C17.0199 20.6509 17.8698 21.1772 18.5497 20.7562ZM21.9801 19.8949C23.34 19.0527 23.34 16.9473 21.9801 16.1051L19.0596 14.2964C17.6998 13.4542 16 14.5069 16 16.1913L16 19.8087C16 21.4931 17.6998 22.5458 19.0596 21.7036L21.9801 19.8949Z" fill="white"/>
<path d="M6.5 5.75C6.5 6.16421 6.16421 6.5 5.75 6.5C5.33579 6.5 5 6.16421 5 5.75C5 5.33579 5.33579 5 5.75 5C6.16421 5 6.5 5.33579 6.5 5.75Z" fill="white"/>
<path d="M6.5 16.75C6.5 17.1642 6.16421 17.5 5.75 17.5C5.33579 17.5 5 17.1642 5 16.75C5 16.3358 5.33579 16 5.75 16C6.16421 16 6.5 16.3358 6.5 16.75Z" fill="white"/>
<path d="M9.5 5.75C9.5 6.16421 9.16421 6.5 8.75 6.5C8.33579 6.5 8 6.16421 8 5.75C8 5.33579 8.33579 5 8.75 5C9.16421 5 9.5 5.33579 9.5 5.75Z" fill="white"/>
<path d="M9.5 16.75C9.5 17.1642 9.16421 17.5 8.75 17.5C8.33579 17.5 8 17.1642 8 16.75C8 16.3358 8.33579 16 8.75 16C9.16421 16 9.5 16.3358 9.5 16.75Z" fill="white"/>
<path d="M12.5 5.75C12.5 6.16421 12.1642 6.5 11.75 6.5C11.3358 6.5 11 6.16421 11 5.75C11 5.33579 11.3358 5 11.75 5C12.1642 5 12.5 5.33579 12.5 5.75Z" fill="white"/>
<path d="M12.5 16.75C12.5 17.1642 12.1642 17.5 11.75 17.5C11.3358 17.5 11 17.1642 11 16.75C11 16.3358 11.3358 16 11.75 16C12.1642 16 12.5 16.3358 12.5 16.75Z" fill="white"/>
<path d="M15.5 5.75C15.5 6.16421 15.1642 6.5 14.75 6.5C14.3358 6.5 14 6.16421 14 5.75C14 5.33579 14.3358 5 14.75 5C15.1642 5 15.5 5.33579 15.5 5.75Z" fill="white"/>
<path d="M18.5 5.75C18.5 6.16421 18.1642 6.5 17.75 6.5C17.3358 6.5 17 6.16421 17 5.75C17 5.33579 17.3358 5 17.75 5C18.1642 5 18.5 5.33579 18.5 5.75Z" fill="white"/>
</svg>
