<svg width="19" height="20" viewBox="0 0 19 20" fill="none" xmlns="http://www.w3.org/2000/svg">
<defs>
<linearGradient id="paint0_linear_807_89" x1="18.932" y1="9.49114" x2="2.31846e-07" y2="9.49114" gradientUnits="userSpaceOnUse">
<stop stop-color="#FF2252"/>
<stop offset="1" stop-color="#FC7B04"/>
</linearGradient>
</defs>
<path fill-rule="evenodd" clip-rule="evenodd" d="M6.93201 0.335187C4.06747 1.24345 1.97841 3.05332 0.745607 5.69465C0.110941 7.05385 -0.00105916 7.63572 7.50473e-06 9.56132C0.00107417 11.4829 0.115741 12.076 0.753074 13.4573C4.22294 20.9784 14.6667 20.9605 18.1848 13.428C18.8192 12.0696 18.932 11.4859 18.932 9.56132C18.932 7.63679 18.8192 7.05305 18.1848 5.69465C17.3773 3.96559 16.0299 2.40079 14.5061 1.42212C12.4203 0.0823867 9.19067 -0.38108 6.93201 0.335187ZM14.7987 4.33065C14.7987 4.54479 11.2656 10.7757 10.9725 11.0787C10.5131 11.5533 4.36081 14.9456 4.21814 14.8029C4.15041 14.7352 4.97334 13.1528 6.04667 11.2867L7.99867 7.89359L11.1987 6.08532C14.2408 4.36639 14.7987 4.09439 14.7987 4.33065ZM8.76908 9.14265C8.50348 9.83465 8.87547 10.4064 9.53094 10.3133C10.3853 10.192 10.3853 8.93065 9.53094 8.80932C9.17014 8.75812 8.86534 8.89145 8.76908 9.14265Z" fill="url(#paint0_linear_807_89)"/>
</svg>
