<svg width="24" height="24" viewBox="0 0 24 24" fill="none" xmlns="http://www.w3.org/2000/svg">
<path d="M20.2824 11.9072H16.0812C15.8316 11.9071 15.5884 11.9862 15.3867 12.1331C15.1849 12.28 15.0349 12.4871 14.9583 12.7247C14.7577 13.3515 14.3628 13.8983 13.8309 14.2858C13.2989 14.6734 12.6575 14.8817 11.9993 14.8806C11.3411 14.8818 10.6997 14.6735 10.1677 14.2859C9.63574 13.8983 9.24092 13.3515 9.04036 12.7247C8.96367 12.4871 8.81359 12.2799 8.61172 12.133C8.40984 11.9862 8.16658 11.9071 7.91692 11.9072H3.71572C3.56067 11.9072 3.40714 11.9377 3.2639 11.997C3.12065 12.0563 2.9905 12.1433 2.88086 12.2529C2.77123 12.3626 2.68427 12.4927 2.62496 12.636C2.56564 12.7792 2.53512 12.9327 2.53516 13.0878V19.8207C2.53535 20.1337 2.6598 20.4339 2.88117 20.6551C3.10254 20.8764 3.40271 21.0008 3.71572 21.0008H20.2824C20.4374 21.0009 20.5909 20.9704 20.7341 20.9111C20.8774 20.8518 21.0075 20.7649 21.1171 20.6553C21.2267 20.5457 21.3137 20.4156 21.3731 20.2724C21.4324 20.1292 21.463 19.9757 21.463 19.8207V13.0878C21.463 12.4352 20.935 11.9072 20.2824 11.9072Z" fill="#FDB515"/>
<path d="M11.7514 12.5371C11.8107 12.6201 11.9076 12.6698 12.0096 12.6698H12.0103C12.1131 12.6698 12.2086 12.6201 12.2686 12.5359L15.5335 7.94398C15.5671 7.89636 15.587 7.84045 15.5911 7.78232C15.5951 7.72419 15.5832 7.66606 15.5566 7.61422C15.5299 7.56233 15.4894 7.51882 15.4396 7.48849C15.3897 7.45817 15.3324 7.44221 15.2741 7.44238H13.7383V3.31726C13.7383 3.14086 13.596 2.99902 13.4208 2.99902H10.5778C10.4021 2.99902 10.2603 3.14086 10.2603 3.31726V7.44238H8.7233C8.66505 7.44247 8.60794 7.45858 8.55823 7.48895C8.50853 7.51932 8.46813 7.56277 8.44147 7.61456C8.4148 7.66635 8.4029 7.72448 8.40706 7.78258C8.41122 7.84068 8.43129 7.89652 8.46506 7.94398L11.7514 12.5371Z" fill="#FDB515"/>
</svg>
