<svg width="28" height="28" viewBox="0 0 28 28" fill="none" xmlns="http://www.w3.org/2000/svg">
<defs>
<linearGradient id="paint0_linear_349_1639" x1="26.8337" y1="13.9294" x2="1.16699" y2="13.9294" gradientUnits="userSpaceOnUse">
<stop stop-color="#FF2252"/>
<stop offset="1" stop-color="#FC7B04"/>
</linearGradient>
<linearGradient id="paint1_linear_349_1639" x1="26.8336" y1="18.0422" x2="4.58691" y2="18.0422" gradientUnits="userSpaceOnUse">
<stop stop-color="#FF2252"/>
<stop offset="1" stop-color="#FC7B04"/>
</linearGradient>
<linearGradient id="paint2_linear_349_1639" x1="20.4526" y1="13.7285" x2="8.45898" y2="13.7285" gradientUnits="userSpaceOnUse">
<stop stop-color="#FF2252"/>
<stop offset="1" stop-color="#FC7B04"/>
</linearGradient>
<linearGradient id="paint3_linear_349_1639" x1="23.409" y1="14.9484" x2="1.25684" y2="14.9484" gradientUnits="userSpaceOnUse">
<stop stop-color="#FF2252"/>
<stop offset="1" stop-color="#FC7B04"/>
</linearGradient>
<linearGradient id="paint4_linear_349_1639" x1="26.8337" y1="13.9294" x2="1.16699" y2="13.9294" gradientUnits="userSpaceOnUse">
<stop stop-color="#FF2252"/>
<stop offset="1" stop-color="#FC7B04"/>
</linearGradient>
</defs>
<path fill-rule="evenodd" clip-rule="evenodd" d="M18.009 4.29244C16.7383 3.76772 15.3766 3.49855 14.0018 3.50033H13.9989C12.5749 3.49858 11.1655 3.78743 9.85699 4.34919C8.54847 4.91095 7.36834 5.73381 6.38882 6.76742L6.38674 6.76961C4.53045 8.71828 3.49667 11.3074 3.50034 13.9987L3.50034 14.0003C3.50034 19.7995 8.20117 24.5003 14.0003 24.5003H14.0018C15.3766 24.5021 16.7383 24.233 18.009 23.7082C19.2797 23.1835 20.4345 22.4135 21.4075 21.4422L21.4097 21.4401C22.3907 20.4659 23.1689 19.307 23.6994 18.0303C24.2299 16.7535 24.5021 15.3844 24.5003 14.0018L25.667 14.0003L24.5003 13.9988C24.5021 12.6163 24.2299 11.2471 23.6994 9.97041C23.1689 8.6937 22.3907 7.53477 21.4097 6.56059L21.4075 6.55843C20.4345 5.58717 19.2797 4.81717 18.009 4.29244ZM26.8337 14.0003C26.8356 15.6907 26.5027 17.3646 25.8541 18.9256C25.2055 20.4866 24.2541 21.9036 23.0548 23.0948C21.8651 24.2821 20.4531 25.2234 18.8996 25.8649C17.3455 26.5067 15.6802 26.8358 13.9988 26.8337C6.91196 26.8328 1.16745 21.0881 1.167 14.0012C1.16271 10.7103 2.42669 7.54436 4.69622 5.16132C5.8939 3.89781 7.33674 2.89189 8.9365 2.20509C10.5363 1.51829 12.2593 1.16506 14.0003 1.167C15.6812 1.16502 17.346 1.4942 18.8996 2.13576C20.4532 2.7773 21.8652 3.71864 23.0549 4.90599C24.2542 6.09718 25.2056 7.51416 25.8541 9.0751C26.5027 10.636 26.8356 12.31 26.8337 14.0003Z" fill="url(#paint0_linear_349_1639)"/>
<path fill-rule="evenodd" clip-rule="evenodd" d="M24.7177 12.7972C25.112 12.8175 25.4338 12.834 25.6669 12.834C26.3112 12.834 26.8336 13.3563 26.8336 14.0007C26.8336 14.645 26.3112 15.1673 25.6669 15.1673C25.3251 15.1673 24.9077 15.148 24.4303 15.1258C22.2272 15.0235 18.7476 14.862 15.535 16.2724C11.1626 18.1924 8.01487 21.1704 6.68928 22.95C6.30438 23.4668 5.57346 23.5736 5.05673 23.1887C4.53999 22.8038 4.43312 22.0729 4.81802 21.5562C6.37409 19.4671 9.83785 16.2257 14.5969 14.1359L14.597 14.1358C18.3883 12.4715 22.5994 12.6882 24.7177 12.7972Z" fill="url(#paint1_linear_349_1639)"/>
<path fill-rule="evenodd" clip-rule="evenodd" d="M8.76835 2.391C9.20537 1.91753 9.94347 1.88798 10.4169 2.325C12.2745 4.03948 16.4392 8.49183 18.0192 13.0342C18.79 15.2501 19.3102 17.6945 19.6785 19.743C19.8543 20.7208 19.9972 21.6186 20.1156 22.3626L20.1334 22.4746C20.2584 23.2601 20.3494 23.8202 20.4234 24.1463C20.566 24.7746 20.1723 25.3996 19.5439 25.5423C18.9156 25.6849 18.2906 25.2912 18.1479 24.6628C18.0528 24.2436 17.9483 23.5903 17.8291 22.8415L17.8119 22.7334C17.6931 21.9872 17.5535 21.11 17.382 20.1558C17.0211 18.1482 16.5263 15.8444 15.8154 13.8008C14.4321 9.8241 10.6285 5.69562 8.83436 4.0396C8.36089 3.60258 8.33134 2.86448 8.76835 2.391Z" fill="url(#paint2_linear_349_1639)"/>
<path fill-rule="evenodd" clip-rule="evenodd" d="M23.1337 4.9902C23.5494 5.4825 23.4873 6.21858 22.995 6.63427C22.8962 6.71767 22.7772 6.82021 22.6394 6.93897C21.3065 8.08747 18.2143 10.752 14.6528 12.2729C12.6065 13.1467 10.0605 13.5266 7.81631 13.6824C5.55107 13.8396 3.48877 13.7747 2.35326 13.7062C1.7101 13.6673 1.22018 13.1145 1.25899 12.4713C1.29781 11.8282 1.85066 11.3383 2.49382 11.3771C3.56214 11.4415 5.51872 11.5029 7.65473 11.3546C9.81178 11.2049 12.0494 10.8474 13.7364 10.127C16.9375 8.76005 19.7532 6.34143 21.1115 5.17469C21.254 5.05228 21.3804 4.94365 21.4896 4.85146C21.9819 4.43577 22.718 4.49789 23.1337 4.9902ZM2.76325 17.3626C3.35877 17.1166 4.04097 17.3999 4.28698 17.9954C5.21259 20.2359 6.88194 22.0891 9.01397 23.2429C9.58065 23.5496 9.79143 24.2575 9.48476 24.8242C9.1781 25.3909 8.47012 25.6017 7.90344 25.295C5.29962 23.8859 3.26086 21.6227 2.13043 18.8863C1.88441 18.2908 2.16774 17.6086 2.76325 17.3626Z" fill="url(#paint3_linear_349_1639)"/>
<path fill-rule="evenodd" clip-rule="evenodd" d="M8.9365 2.20509C10.5367 1.5181 12.2603 1.16486 14.0018 1.167C14.6461 1.16779 15.1678 1.69077 15.167 2.3351C15.1662 2.97943 14.6432 3.50112 13.9989 3.50033C12.5749 3.49858 11.1655 3.78743 9.85699 4.34919C8.54858 4.9109 7.36855 5.73367 6.38908 6.76715M17.5982 2.83668C17.8564 2.24638 18.5444 1.97722 19.1347 2.2355C20.5956 2.8747 21.9248 3.78015 23.0545 4.90561C24.254 6.09688 25.2055 7.514 25.8541 9.0751C26.5029 10.6365 26.8358 12.311 26.8337 14.0018C26.8335 15.579 26.5482 17.0929 26.0247 18.4924C25.799 19.0959 25.1268 19.4021 24.5233 19.1764C23.9198 18.9507 23.6135 18.2785 23.8393 17.675C24.2665 16.5327 24.5003 15.295 24.5003 14.0003V13.9988C24.5021 12.6163 24.2299 11.2471 23.6994 9.97041C23.1689 8.6937 22.3907 7.53477 21.4097 6.56058L21.4083 6.55919C20.4835 5.63775 19.3953 4.89646 18.1994 4.37317C17.609 4.11489 17.3399 3.42698 17.5982 2.83668ZM8.9365 2.20509C7.33674 2.89189 5.8939 3.89781 4.69622 5.16132L8.9365 2.20509ZM4.69622 5.16132C2.42652 7.54454 1.16252 10.7108 1.167 14.0019C1.16788 14.6463 1.69093 15.1679 2.33526 15.167C2.97959 15.1661 3.50121 14.6431 3.50034 13.9987C3.49667 11.3074 4.53045 8.71828 6.38674 6.76961C6.38744 6.76888 6.38813 6.76815 6.38882 6.76742M23.0574 21.4437C23.5126 21.8997 23.512 22.6384 23.056 23.0936C21.866 24.2815 20.4537 25.2232 18.8996 25.8649C17.3455 26.5067 15.6802 26.8358 13.9988 26.8337C13.3545 26.8328 12.8328 26.3098 12.8337 25.6655C12.8345 25.0212 13.3575 24.4995 14.0018 24.5003C15.3766 24.5021 16.7383 24.233 18.009 23.7082C19.2797 23.1835 20.4345 22.4135 21.4075 21.4422C21.8635 20.987 22.6022 20.9877 23.0574 21.4437Z" fill="url(#paint4_linear_349_1639)"/>
</svg>
