<svg width="18" height="18" viewBox="0 0 18 18" fill="none" xmlns="http://www.w3.org/2000/svg">
<path d="M14.2492 15.0006H3.74925C3.55033 15.0006 3.35957 15.0796 3.21892 15.2203C3.07826 15.3609 2.99925 15.5517 2.99925 15.7506C2.99925 15.9495 3.07826 16.1403 3.21892 16.281C3.35957 16.4216 3.55033 16.5006 3.74925 16.5006H14.2492C14.4482 16.5006 14.6389 16.4216 14.7796 16.281C14.9202 16.1403 14.9992 15.9495 14.9992 15.7506C14.9992 15.5517 14.9202 15.3609 14.7796 15.2203C14.6389 15.0796 14.4482 15.0006 14.2492 15.0006ZM3.74925 13.5006H3.81675L6.94425 13.2156C7.28684 13.1815 7.60727 13.0306 7.85175 12.7881L14.6017 6.03813C14.8637 5.76135 15.0053 5.39201 14.9955 5.01103C14.9856 4.63005 14.8252 4.26851 14.5492 4.00563L12.4942 1.95063C12.226 1.6987 11.8746 1.55414 11.5067 1.54446C11.1389 1.53478 10.7803 1.66065 10.4992 1.89813L3.74925 8.64813C3.50682 8.8926 3.35587 9.21303 3.32175 9.55563L2.99925 12.6831C2.98914 12.793 3.0034 12.9037 3.04099 13.0074C3.07859 13.1111 3.1386 13.2053 3.21675 13.2831C3.28683 13.3526 3.36994 13.4076 3.46132 13.445C3.55269 13.4823 3.65054 13.5012 3.74925 13.5006ZM11.4517 3.00063L13.4992 5.04813L11.9992 6.51063L9.98925 4.50063L11.4517 3.00063ZM4.77675 9.68313L8.99925 5.49063L11.0242 7.51563L6.82425 11.7156L4.57425 11.9256L4.77675 9.68313Z" fill="#0E1638"/>
</svg>
