<svg width="18" height="26" viewBox="0 0 18 26" fill="none" xmlns="http://www.w3.org/2000/svg">
<circle cx="8.56686" cy="7.72555" r="1.72791" stroke="#FABE2C" stroke-width="1.46208"/>
<g style="mix-blend-mode:overlay" opacity="0.3">
<mask id="path-2-inside-1_528_1234" fill="white">
<path d="M8.56686 10.1845C8.88978 10.1845 9.20953 10.1209 9.50786 9.99733C9.8062 9.87376 10.0773 9.69263 10.3056 9.4643C10.5339 9.23596 10.7151 8.96489 10.8386 8.66655C10.9622 8.36822 11.0258 8.04847 11.0258 7.72555C11.0258 7.40264 10.9622 7.08289 10.8386 6.78455C10.7151 6.48622 10.5339 6.21515 10.3056 5.98681C10.0773 5.75848 9.8062 5.57735 9.50786 5.45378C9.20953 5.3302 8.88978 5.2666 8.56686 5.2666V6.72776C8.6979 6.72776 8.82765 6.75357 8.9487 6.80371C9.06976 6.85385 9.17976 6.92735 9.27241 7.02001C9.36507 7.11266 9.43856 7.22266 9.48871 7.34371C9.53885 7.46477 9.56466 7.59452 9.56466 7.72555C9.56466 7.85659 9.53885 7.98634 9.48871 8.10739C9.43856 8.22845 9.36507 8.33845 9.27241 8.4311C9.17976 8.52376 9.06976 8.59725 8.9487 8.6474C8.82765 8.69754 8.6979 8.72335 8.56686 8.72335V10.1845Z"/>
</mask>
<path d="M8.56686 10.1845C8.88978 10.1845 9.20953 10.1209 9.50786 9.99733C9.8062 9.87376 10.0773 9.69263 10.3056 9.4643C10.5339 9.23596 10.7151 8.96489 10.8386 8.66655C10.9622 8.36822 11.0258 8.04847 11.0258 7.72555C11.0258 7.40264 10.9622 7.08289 10.8386 6.78455C10.7151 6.48622 10.5339 6.21515 10.3056 5.98681C10.0773 5.75848 9.8062 5.57735 9.50786 5.45378C9.20953 5.3302 8.88978 5.2666 8.56686 5.2666V6.72776C8.6979 6.72776 8.82765 6.75357 8.9487 6.80371C9.06976 6.85385 9.17976 6.92735 9.27241 7.02001C9.36507 7.11266 9.43856 7.22266 9.48871 7.34371C9.53885 7.46477 9.56466 7.59452 9.56466 7.72555C9.56466 7.85659 9.53885 7.98634 9.48871 8.10739C9.43856 8.22845 9.36507 8.33845 9.27241 8.4311C9.17976 8.52376 9.06976 8.59725 8.9487 8.6474C8.82765 8.69754 8.6979 8.72335 8.56686 8.72335V10.1845Z" stroke="white" stroke-width="2.92416" mask="url(#path-2-inside-1_528_1234)"/>
</g>
<rect x="1.85458" y="0.481445" width="13.4246" height="6.11415" rx="0.664582" fill="#FF9900"/>
<g style="mix-blend-mode:overlay" opacity="0.3">
<path d="M8.5004 0.481445H14.6145C14.9816 0.481445 15.2791 0.778989 15.2791 1.14603V5.93102C15.2791 6.29806 14.9816 6.5956 14.6146 6.5956H8.5004V0.481445Z" fill="white"/>
</g>
<rect x="4.38" y="0.481445" width="1.72791" height="6.11415" fill="#F0F7FF"/>
<rect x="11.1587" y="0.481445" width="1.72791" height="6.11415" fill="#F0F7FF"/>
<path d="M8.20967 9.01575C8.42241 8.73517 8.84421 8.73517 9.05696 9.01575L10.6885 11.1675C10.8046 11.3206 10.9943 11.3991 11.1846 11.373L13.8598 11.0051C14.2086 10.9572 14.5069 11.2554 14.4589 11.6043L14.0911 14.2795C14.0649 14.4698 14.1435 14.6595 14.2966 14.7755L16.4483 16.4071C16.7289 16.6199 16.7289 17.0417 16.4483 17.2544L14.2966 18.886C14.1435 19.0021 14.0649 19.1917 14.0911 19.382L14.4589 22.0572C14.5069 22.4061 14.2086 22.7043 13.8598 22.6564L11.1846 22.2886C10.9943 22.2624 10.8046 22.3409 10.6885 22.494L9.05696 24.6458C8.84421 24.9264 8.42241 24.9264 8.20967 24.6458L6.5781 22.494C6.46202 22.3409 6.27237 22.2624 6.08203 22.2886L3.40683 22.6564C3.05799 22.7043 2.75974 22.4061 2.8077 22.0572L3.17552 19.382C3.20169 19.1917 3.12314 19.0021 2.97005 18.886L0.8183 17.2544C0.537722 17.0417 0.537722 16.6199 0.8183 16.4071L2.97005 14.7755C3.12314 14.6595 3.20169 14.4698 3.17552 14.2795L2.8077 11.6043C2.75974 11.2554 3.058 10.9572 3.40683 11.0051L6.08203 11.373C6.27237 11.3991 6.46202 11.3206 6.5781 11.1675L8.20967 9.01575Z" fill="#FF9900"/>
<path d="M8.24034 14.03C8.44542 13.6779 8.95409 13.6779 9.15917 14.03L9.7635 15.0675C9.83863 15.1965 9.96451 15.288 10.1104 15.3196L11.2839 15.5737C11.6822 15.6599 11.8394 16.1437 11.5679 16.4476L10.7678 17.3429C10.6684 17.4542 10.6203 17.6022 10.6353 17.7507L10.7563 18.9454C10.7973 19.3508 10.3858 19.6498 10.0129 19.4854L8.91415 19.0012C8.77756 18.9411 8.62195 18.9411 8.48536 19.0012L7.38659 19.4854C7.01371 19.6498 6.60219 19.3508 6.64323 18.9454L6.76419 17.7507C6.77923 17.6022 6.73114 17.4542 6.63169 17.3429L5.83165 16.4476C5.56016 16.1437 5.71734 15.6599 6.11559 15.5737L7.28912 15.3196C7.435 15.288 7.56089 15.1965 7.63601 15.0675L8.24034 14.03Z" fill="#FEE457"/>
<g style="mix-blend-mode:overlay" opacity="0.3">
<path d="M10.6885 11.1669L9.05698 9.01512C8.95061 8.87483 8.79197 8.80469 8.63333 8.80469V24.8556C8.79197 24.8556 8.95061 24.7854 9.05698 24.6451L10.6885 22.4934C10.8046 22.3403 10.9943 22.2618 11.1846 22.2879L13.8598 22.6557C14.2087 22.7037 14.5069 22.4055 14.4589 22.0566L14.0911 19.3814C14.065 19.1911 14.1435 19.0014 14.2966 18.8853L16.4483 17.2538C16.7289 17.041 16.7289 16.6192 16.4483 16.4065L14.2966 14.7749C14.1435 14.6588 14.065 14.4692 14.0911 14.2789L14.4589 11.6037C14.5069 11.2548 14.2087 10.9566 13.8598 11.0045L11.1846 11.3723C10.9943 11.3985 10.8046 11.32 10.6885 11.1669Z" fill="white"/>
</g>
</svg>
