<svg width="47" height="47" viewBox="0 0 47 47" fill="none" xmlns="http://www.w3.org/2000/svg">
<defs>
<clipPath id="clip0_994_4182">
<rect width="46.875" height="46.875" fill="white" transform="translate(0.0625 0.0625)"/>
</clipPath>
</defs>
<mask id="mask0_994_4182" style="mask-type:alpha" maskUnits="userSpaceOnUse" x="19" y="19" width="9" height="9">
<rect x="19.8379" y="19.8379" width="7.32422" height="7.32422" rx="3.66211" fill="#EEEEEE"/>
</mask>
<g mask="url(#mask0_994_4182)">
</g>
<g clip-path="url(#clip0_994_4182)">
<path d="M46.9371 18.2815C46.667 18.7759 46.2559 18.9416 45.692 18.9324C43.9534 18.905 42.2139 18.9242 40.4753 18.9214C39.6587 18.9205 39.341 18.601 39.3382 17.7834C39.3355 16.8835 39.3428 15.9835 39.3364 15.0836C39.3291 13.9694 38.5509 13.1545 37.5053 13.1555C36.4616 13.1555 35.6834 13.973 35.677 15.0854C35.6715 16.0156 35.6807 16.9467 35.6743 17.8768C35.6688 18.5662 35.3191 18.9178 34.6278 18.9196C32.7977 18.9251 30.9666 18.9242 29.1365 18.9196C28.4215 18.9178 28.0809 18.5681 28.0791 17.8411C28.0754 16.3012 28.0781 14.7622 28.0781 13.1527C27.4574 13.1527 26.8541 13.1591 26.2508 13.1518C24.4371 13.1271 22.9805 11.8975 22.6472 10.1177C22.2462 7.97449 23.8951 5.91455 26.0869 5.83765C26.7259 5.81476 27.3668 5.83398 28.0781 5.83398V5.33319C28.0781 3.99103 28.0992 2.64795 28.0681 1.3067C28.0553 0.742737 28.2219 0.330749 28.719 0.0625H46.938V18.2815H46.9371Z" fill="#D3D3D3"/>
<path d="M0.0625 11.6891C0.330749 11.192 0.743652 11.0272 1.3067 11.0382C2.79718 11.0675 4.28857 11.0483 5.83215 11.0483C5.83215 10.39 5.82117 9.76927 5.83398 9.14854C5.87152 7.29918 7.27228 5.77666 9.11523 5.57066C10.873 5.37382 12.6043 6.52647 13.0053 8.27513C13.1765 9.01945 13.1124 9.81779 13.1527 10.5923C13.16 10.7269 13.1536 10.8615 13.1536 11.0492C13.7927 11.0492 14.3969 11.0492 15.0021 11.0492C15.9478 11.0492 16.8936 11.0455 17.8393 11.0501C18.5681 11.0538 18.9187 11.3916 18.9205 12.1048C18.9251 13.9349 18.9251 15.7651 18.9205 17.5961C18.9187 18.2901 18.569 18.6416 17.8814 18.6462C16.9512 18.6536 16.0201 18.6444 15.09 18.649C13.9758 18.6545 13.1591 19.429 13.1564 20.4727C13.1536 21.5182 13.9694 22.301 15.0799 22.3083C15.9954 22.3147 16.91 22.3065 17.8256 22.3102C18.5809 22.3129 18.9196 22.6471 18.9214 23.396C18.9251 24.935 18.9224 26.474 18.9224 28.045H22.861C22.861 27.4234 22.8509 26.8027 22.8628 26.1828C22.8994 24.3307 24.2938 22.811 26.1395 22.6004C27.8945 22.3999 29.6295 23.5507 30.0332 25.2994C30.2053 26.0437 30.1421 26.842 30.1824 27.6156C30.1898 27.7502 30.1833 27.8857 30.1833 28.0771C30.3756 28.0771 30.5377 28.0771 30.6997 28.0771C32.0876 28.0771 33.4756 28.0743 34.8635 28.078C35.6124 28.0798 35.9503 28.4186 35.9503 29.1739C35.9521 34.7256 35.9466 40.2783 35.9585 45.8301C35.9594 46.3556 35.7314 46.6888 35.3103 46.9369H0.0625V11.6891ZM17.0913 45.0857C17.0913 43.4936 17.0876 41.94 17.0931 40.3863C17.0959 39.6933 17.4447 39.3445 18.135 39.3399C19.0652 39.3335 19.9963 39.3426 20.9265 39.3371C22.0406 39.3307 22.8564 38.5525 22.8564 37.5079C22.8564 36.4624 22.0406 35.6842 20.9274 35.6778C20.0118 35.6723 19.0963 35.6796 18.1817 35.676C17.4291 35.6723 17.0941 35.3372 17.0913 34.5837C17.0876 33.1958 17.0904 31.8069 17.0904 30.419C17.0904 30.2579 17.0904 30.0967 17.0904 29.9457H1.91827V45.0876H17.0913V45.0857ZM17.0803 12.8793C16.8881 12.8793 16.7388 12.8793 16.5896 12.8793C15.2172 12.8793 13.8439 12.8811 12.4716 12.8793C11.6522 12.8784 11.3271 12.558 11.3244 11.7523C11.3217 10.9595 11.3262 10.1657 11.3235 9.37285C11.3189 8.21471 10.5636 7.39348 9.50342 7.38798C8.44232 7.38249 7.6687 8.20647 7.66321 9.35271C7.65954 10.1153 7.66321 10.878 7.66321 11.6406C7.66321 12.5854 7.37298 12.8793 6.44372 12.8802C5.086 12.8802 3.72919 12.8802 2.37146 12.8811C2.22406 12.8811 2.07666 12.894 1.92651 12.9013V28.0432H17.0913V24.1376C16.3168 24.1376 15.588 24.155 14.8602 24.1339C13.0886 24.0845 11.6531 22.7826 11.3583 20.979C11.0909 19.3429 12.0916 17.6364 13.7084 17.0715C14.1863 16.9049 14.7173 16.86 15.2282 16.8262C15.8425 16.7859 16.4623 16.817 17.0803 16.817V12.8802V12.8793ZM34.1 29.9081C33.8986 29.9081 33.7338 29.9081 33.569 29.9081C32.181 29.9081 30.7931 29.9118 29.4051 29.9063C28.7112 29.9036 28.3596 29.5557 28.3541 28.8681C28.3468 28.0295 28.3569 27.1899 28.3514 26.3513C28.3441 25.2334 27.5732 24.4195 26.5276 24.4159C25.483 24.4122 24.6993 25.2289 24.6911 26.3385C24.6856 27.1625 24.6929 27.9855 24.6893 28.8095C24.6856 29.5648 24.3524 29.9054 23.6044 29.9072C22.2164 29.9118 20.8285 29.9081 19.4405 29.9081C19.2785 29.9081 19.1165 29.9081 18.9553 29.9081V33.8495C19.7198 33.8495 20.4504 33.8293 21.181 33.8531C23.3746 33.9264 25.0262 35.9817 24.6279 38.1259C24.2965 39.9103 22.8436 41.1426 21.0317 41.1673C20.3369 41.1764 19.6411 41.1691 18.9599 41.1691V45.0821H34.1009V29.909L34.1 29.9081Z" fill="#D3D3D3"/>
</g>
</svg>
