<svg width="14" height="14" viewBox="0 0 14 14" fill="none" xmlns="http://www.w3.org/2000/svg">
<path d="M6.52076 3.16625L1.27076 10.7496C1.21021 10.8371 1.17475 10.9395 1.16822 11.0457C1.1617 11.152 1.18435 11.2579 1.23374 11.3522C1.28313 11.4465 1.35737 11.5254 1.44841 11.5805C1.53946 11.6357 1.64384 11.6648 1.75026 11.6648L12.2503 11.6648C12.3567 11.6649 12.4612 11.6358 12.5523 11.5808C12.6435 11.5257 12.7178 11.4468 12.7672 11.3525C12.8167 11.2582 12.8394 11.1522 12.8329 11.0459C12.8264 10.9396 12.7909 10.8371 12.7303 10.7496L7.48035 3.16625C7.42643 3.08899 7.35465 3.0259 7.27112 2.98233C7.18759 2.93877 7.09477 2.91602 7.00056 2.91602C6.90634 2.91602 6.81353 2.93877 6.72999 2.98233C6.64646 3.0259 6.57468 3.08899 6.52076 3.16625Z" fill="black"/>
</svg>
