<svg width="14" height="14" viewBox="0 0 14 14" fill="none" xmlns="http://www.w3.org/2000/svg">
<path d="M7.48021 11.4148L12.7302 3.83147C12.7908 3.74395 12.8262 3.64154 12.8328 3.53532C12.8393 3.4291 12.8166 3.32311 12.7672 3.22884C12.7178 3.13457 12.6436 3.05561 12.5526 3.00051C12.4615 2.9454 12.3571 2.91625 12.2507 2.91622L1.75071 2.91622C1.64424 2.91615 1.53978 2.94522 1.44865 3.00028C1.35752 3.05534 1.2832 3.1343 1.23375 3.22859C1.18429 3.32287 1.16158 3.4289 1.16808 3.53517C1.17458 3.64145 1.21005 3.74391 1.27063 3.83147L6.52063 11.4148C6.57455 11.4921 6.64632 11.5552 6.72986 11.5987C6.81339 11.6423 6.90621 11.665 7.00042 11.665C7.09463 11.665 7.18745 11.6423 7.27098 11.5987C7.35452 11.5552 7.42629 11.4921 7.48021 11.4148Z" fill="black"/>
</svg>
