<svg width="32" height="32" viewBox="0 0 32 32" fill="none" xmlns="http://www.w3.org/2000/svg">
<path d="M26 18C26 19.9778 25.4135 21.9112 24.3147 23.5557C23.2159 25.2002 21.6541 26.4819 19.8268 27.2388C17.9996 27.9957 15.9889 28.1937 14.0491 27.8079C12.1093 27.422 10.3275 26.4696 8.92894 25.0711C7.53041 23.6725 6.578 21.8907 6.19215 19.9509C5.8063 18.0111 6.00433 16.0004 6.76121 14.1732C7.51809 12.3459 8.79981 10.7841 10.4443 9.6853C12.0888 8.58649 14.0222 8 16 8H20V13L26 7L20 1V6H16C13.6266 6 11.3066 6.70379 9.33316 8.02236C7.35977 9.34094 5.8217 11.2151 4.91345 13.4078C4.0052 15.6005 3.76756 18.0133 4.23058 20.3411C4.6936 22.6689 5.83649 24.8071 7.51472 26.4853C9.19295 28.1635 11.3312 29.3064 13.6589 29.7694C15.9867 30.2324 18.3995 29.9948 20.5922 29.0866C22.7849 28.1783 24.6591 26.6402 25.9776 24.6668C27.2962 22.6935 28 20.3734 28 18H26Z" fill="white"/>
<path d="M19.6302 22.1301C19.1883 22.141 18.7501 22.0485 18.3502 21.8601C17.9952 21.6799 17.6896 21.4156 17.4602 21.0901C17.2087 20.7105 17.0322 20.2862 16.9402 19.8401C16.8221 19.2881 16.765 18.7247 16.7702 18.1601C16.7662 17.5956 16.8232 17.0324 16.9402 16.4801C17.0341 16.0347 17.2104 15.6107 17.4602 15.2301C17.6896 14.9047 17.9952 14.6403 18.3502 14.4601C18.7501 14.2718 19.1883 14.1793 19.6302 14.1901C20.0457 14.1585 20.4623 14.2338 20.8404 14.4089C21.2185 14.5839 21.5455 14.8529 21.7902 15.1901C22.3059 16.077 22.5493 17.096 22.4902 18.1201C22.5493 19.1443 22.3059 20.1633 21.7902 21.0501C21.5548 21.4021 21.2319 21.6867 20.8532 21.8761C20.4745 22.0655 20.053 22.153 19.6302 22.1301ZM19.6302 20.9101C19.8318 20.9222 20.0327 20.8769 20.2097 20.7796C20.3866 20.6823 20.5324 20.5368 20.6302 20.3601C20.8692 19.8924 20.9959 19.3754 21.0002 18.8501V17.4701C21.0218 16.9544 20.9225 16.4407 20.7102 15.9701C20.5984 15.7989 20.4457 15.6582 20.2659 15.5608C20.086 15.4634 19.8847 15.4124 19.6802 15.4124C19.4757 15.4124 19.2744 15.4634 19.0946 15.5608C18.9147 15.6582 18.762 15.7989 18.6502 15.9701C18.4379 16.4407 18.3386 16.9544 18.3602 17.4701V18.8501C18.3396 19.3691 18.4388 19.8858 18.6502 20.3601C18.7456 20.5345 18.8881 20.6784 19.0613 20.7757C19.2346 20.8729 19.4317 20.9195 19.6302 20.9101ZM10.6302 22.0001V20.8201H12.6302V15.6301L10.7702 16.6301L10.2202 15.5701L12.5402 14.2701H14.0002V20.7701H15.7802V22.0001H10.6302Z" fill="white"/>
</svg>
