<svg width="24" height="24" viewBox="0 0 24 24" fill="none" xmlns="http://www.w3.org/2000/svg">
<path d="M11.5 22C11.355 21.9995 11.2142 21.9509 11.0996 21.8618C7.45029 19.018 4.93644 16.5692 3.17741 14.1534C0.932675 11.066 0.420717 8.21571 1.65467 5.68135C2.53418 3.87109 5.06115 2.38997 8.01475 3.25232C9.42299 3.66027 10.6517 4.53515 11.5 5.73401C12.3483 4.53515 13.577 3.66027 14.9852 3.25232C17.9323 2.40314 20.4658 3.87109 21.3453 5.68135C22.5793 8.21571 22.0673 11.066 19.8226 14.1534C18.0636 16.5692 15.5497 19.018 11.9004 21.8618C11.7858 21.9509 11.645 21.9995 11.5 22ZM6.33448 4.3253C5.63169 4.29787 4.93472 4.46292 4.31838 4.80272C3.70205 5.14252 3.18962 5.64425 2.83611 6.25405C1.81876 8.34737 2.2782 10.6777 4.24071 13.37C6.32632 16.068 8.76852 18.4686 11.5 20.5057C14.231 18.4706 16.6732 16.0723 18.7593 13.3766C20.7284 10.6777 21.1812 8.34737 20.1639 6.26063C19.5075 4.94408 17.5385 3.89743 15.3462 4.5162C14.6433 4.72455 13.9917 5.07819 13.4332 5.55435C12.8748 6.03052 12.422 6.61868 12.1038 7.28096C12.0544 7.4017 11.9703 7.50496 11.8622 7.57764C11.7541 7.65031 11.6269 7.68911 11.4967 7.68911C11.3666 7.68911 11.2394 7.65031 11.1313 7.57764C11.0232 7.50496 10.939 7.4017 10.8896 7.28096C10.5739 6.61702 10.1218 6.02749 9.56302 5.55103C9.00424 5.07456 8.35137 4.72191 7.64719 4.5162C7.22055 4.39192 6.77875 4.32768 6.33448 4.3253Z" fill="black"/>
</svg>
