<svg width="24" height="24" viewBox="0 0 24 24" fill="none" xmlns="http://www.w3.org/2000/svg">
<path d="M12 21C11.8619 20.9996 11.7278 20.9535 11.6187 20.869C8.14313 18.175 5.74899 15.8551 4.07372 13.5663C1.93588 10.6415 1.4483 7.9412 2.62349 5.54023C3.46113 3.82525 5.86776 2.42208 8.68072 3.23904C10.0219 3.62552 11.192 4.45436 12 5.59012C12.808 4.45436 13.9781 3.62552 15.3193 3.23904C18.126 2.43455 20.5389 3.82525 21.3765 5.54023C22.5517 7.9412 22.0641 10.6415 19.9263 13.5663C18.251 15.8551 15.8569 18.175 12.3813 20.869C12.2722 20.9535 12.1381 20.9996 12 21Z" fill="#FDB515"/>
</svg>
