<svg width="24" height="24" viewBox="0 0 24 24" fill="none" xmlns="http://www.w3.org/2000/svg">
<path fill-rule="evenodd" clip-rule="evenodd" d="M21.7913 12.7506V19.3209C21.7913 20.0315 21.509 20.7129 21.0066 21.2154C20.5041 21.7178 19.8227 22.0001 19.1121 22.0001H5.67913C4.96858 22.0001 4.28713 21.7178 3.7847 21.2154C3.28226 20.7129 3 20.0315 3 19.3209V12.7506C2.99995 12.1574 3.121 11.5703 3.35574 11.0255C3.59047 10.4808 3.93394 9.98966 4.36511 9.58227M4.36511 9.58227L10.5551 3.73232C11.0525 3.26212 11.7112 3 12.3956 3C13.0801 3 13.7386 3.26199 14.2361 3.73219L20.426 9.58216C20.8573 9.98957 21.2008 10.4807 21.4355 11.0255C21.6703 11.5703 21.7913 12.1574 21.7913 12.7506" fill="#FDB515"/>
</svg>
