<svg width="24" height="24" viewBox="0 0 24 24" fill="none" xmlns="http://www.w3.org/2000/svg">
<path fill-rule="evenodd" clip-rule="evenodd" d="M21.7913 12.7506V19.3209C21.7913 20.0315 21.509 20.7129 21.0066 21.2154C20.5041 21.7178 19.8227 22.0001 19.1121 22.0001H5.67913C4.96858 22.0001 4.28713 21.7178 3.7847 21.2154C3.28226 20.7129 3 20.0315 3 19.3209V12.7506C3 12.7506 3 12.7505 3 12.7505C2.99995 12.1573 3.121 11.5703 3.35574 11.0255C3.59047 10.4808 3.93394 9.98966 4.36511 9.58227M5.05197 10.3091L11.2421 4.45898C11.5538 4.16423 11.9666 4 12.3956 4C12.8247 4 13.2374 4.16423 13.5492 4.45898L19.7393 10.3091C20.0716 10.623 20.3363 11.0014 20.5172 11.4213C20.698 11.8411 20.7913 12.2934 20.7913 12.7505V19.3209C20.7913 19.7663 20.6144 20.1934 20.2995 20.5083C19.9846 20.8232 19.5575 21.0001 19.1121 21.0001H5.67913C5.2338 21.0001 4.8067 20.8232 4.4918 20.5083C4.17691 20.1934 4 19.7663 4 19.3209V12.7505C3.99995 12.2934 4.09323 11.8411 4.27412 11.4213C4.455 11.0014 4.71969 10.623 5.05197 10.3091ZM4.36522 9.58216L10.5551 3.73232C10.5551 3.73228 10.5552 3.73223 10.5552 3.73219C11.0526 3.26199 11.7112 3 12.3956 3C13.0801 3 13.7386 3.26199 14.2361 3.73219C14.2361 3.73223 14.2361 3.73228 14.2362 3.73232L20.426 9.58216C20.8573 9.98957 21.2008 10.4807 21.4355 11.0255C21.6703 11.5703 21.7913 12.1573 21.7913 12.7505C21.7913 12.7505 21.7913 12.7506 21.7913 12.7506" fill="black"/>
</svg>
