<svg width="19" height="19" viewBox="0 0 19 19" fill="none" xmlns="http://www.w3.org/2000/svg">
<defs>
<linearGradient id="paint0_linear_744_5851" x1="17" y1="8.45302" x2="2.08186e-07" y2="8.45303" gradientUnits="userSpaceOnUse">
<stop stop-color="#FF2252"/>
<stop offset="1" stop-color="#FC7B04"/>
</linearGradient>
<linearGradient id="paint1_linear_744_5851" x1="15.5193" y1="19" x2="15.5193" y2="11" gradientUnits="userSpaceOnUse">
<stop stop-color="#FF2252"/>
<stop offset="1" stop-color="#FC7B04"/>
</linearGradient>
<linearGradient id="paint2_linear_744_5851" x1="3.5" y1="2.74586" x2="2" y2="2.74586" gradientUnits="userSpaceOnUse">
<stop stop-color="#FF2252"/>
<stop offset="1" stop-color="#FC7B04"/>
</linearGradient>
<linearGradient id="paint3_linear_744_5851" x1="3.5" y1="13.7459" x2="2" y2="13.7459" gradientUnits="userSpaceOnUse">
<stop stop-color="#FF2252"/>
<stop offset="1" stop-color="#FC7B04"/>
</linearGradient>
<linearGradient id="paint4_linear_744_5851" x1="6.5" y1="2.74586" x2="5" y2="2.74586" gradientUnits="userSpaceOnUse">
<stop stop-color="#FF2252"/>
<stop offset="1" stop-color="#FC7B04"/>
</linearGradient>
<linearGradient id="paint5_linear_744_5851" x1="6.5" y1="13.7459" x2="5" y2="13.7459" gradientUnits="userSpaceOnUse">
<stop stop-color="#FF2252"/>
<stop offset="1" stop-color="#FC7B04"/>
</linearGradient>
<linearGradient id="paint6_linear_744_5851" x1="9.5" y1="2.74586" x2="8" y2="2.74586" gradientUnits="userSpaceOnUse">
<stop stop-color="#FF2252"/>
<stop offset="1" stop-color="#FC7B04"/>
</linearGradient>
<linearGradient id="paint7_linear_744_5851" x1="9.5" y1="13.7459" x2="8" y2="13.7459" gradientUnits="userSpaceOnUse">
<stop stop-color="#FF2252"/>
<stop offset="1" stop-color="#FC7B04"/>
</linearGradient>
<linearGradient id="paint8_linear_744_5851" x1="12.5" y1="2.74586" x2="11" y2="2.74586" gradientUnits="userSpaceOnUse">
<stop stop-color="#FF2252"/>
<stop offset="1" stop-color="#FC7B04"/>
</linearGradient>
<linearGradient id="paint9_linear_744_5851" x1="15.5" y1="2.74586" x2="14" y2="2.74586" gradientUnits="userSpaceOnUse">
<stop stop-color="#FF2252"/>
<stop offset="1" stop-color="#FC7B04"/>
</linearGradient>
</defs>
<path fill-rule="evenodd" clip-rule="evenodd" d="M0 3.61602C0 1.61895 1.57543 0 3.51882 0H13.4812C15.4246 0 17 1.61895 17 3.61602V9.90884C17 10.1941 16.7749 10.4254 16.4973 10.4254C16.2197 10.4254 15.9946 10.1941 15.9946 9.90884V3.61602C15.9946 2.18954 14.8693 1.03315 13.4812 1.03315H3.51882C2.13068 1.03315 1.00538 2.18954 1.00538 3.61602V13.384C1.00538 14.8105 2.13068 15.9669 3.51882 15.9669H10.5565C10.8341 15.9669 11.0591 16.1981 11.0591 16.4834C11.0591 16.7687 10.8341 17 10.5565 17H3.51882C1.57543 17 0 15.3811 0 13.384V3.61602Z" fill="url(#paint0_linear_744_5851)"/>
<path fill-rule="evenodd" clip-rule="evenodd" d="M14.5497 17.7562L17.4702 15.9474C18.1501 15.5264 18.1501 14.4736 17.4702 14.0526L14.5497 12.2438C13.8698 11.8228 13.0199 12.3491 13.0199 13.1913L13.0199 16.8087C13.0199 17.6509 13.8698 18.1772 14.5497 17.7562ZM17.9801 16.8949C19.34 16.0527 19.34 13.9473 17.9801 13.1051L15.0596 11.2964C13.6998 10.4542 12 11.5069 12 13.1913L12 16.8087C12 18.4931 13.6998 19.5458 15.0596 18.7036L17.9801 16.8949Z" fill="url(#paint1_linear_744_5851)"/>
<path d="M3.5 2.75C3.5 3.16421 3.16421 3.5 2.75 3.5C2.33579 3.5 2 3.16421 2 2.75C2 2.33579 2.33579 2 2.75 2C3.16421 2 3.5 2.33579 3.5 2.75Z" fill="url(#paint2_linear_744_5851)"/>
<path d="M3.5 13.75C3.5 14.1642 3.16421 14.5 2.75 14.5C2.33579 14.5 2 14.1642 2 13.75C2 13.3358 2.33579 13 2.75 13C3.16421 13 3.5 13.3358 3.5 13.75Z" fill="url(#paint3_linear_744_5851)"/>
<path d="M6.5 2.75C6.5 3.16421 6.16421 3.5 5.75 3.5C5.33579 3.5 5 3.16421 5 2.75C5 2.33579 5.33579 2 5.75 2C6.16421 2 6.5 2.33579 6.5 2.75Z" fill="url(#paint4_linear_744_5851)"/>
<path d="M6.5 13.75C6.5 14.1642 6.16421 14.5 5.75 14.5C5.33579 14.5 5 14.1642 5 13.75C5 13.3358 5.33579 13 5.75 13C6.16421 13 6.5 13.3358 6.5 13.75Z" fill="url(#paint5_linear_744_5851)"/>
<path d="M9.5 2.75C9.5 3.16421 9.16421 3.5 8.75 3.5C8.33579 3.5 8 3.16421 8 2.75C8 2.33579 8.33579 2 8.75 2C9.16421 2 9.5 2.33579 9.5 2.75Z" fill="url(#paint6_linear_744_5851)"/>
<path d="M9.5 13.75C9.5 14.1642 9.16421 14.5 8.75 14.5C8.33579 14.5 8 14.1642 8 13.75C8 13.3358 8.33579 13 8.75 13C9.16421 13 9.5 13.3358 9.5 13.75Z" fill="url(#paint7_linear_744_5851)"/>
<path d="M12.5 2.75C12.5 3.16421 12.1642 3.5 11.75 3.5C11.3358 3.5 11 3.16421 11 2.75C11 2.33579 11.3358 2 11.75 2C12.1642 2 12.5 2.33579 12.5 2.75Z" fill="url(#paint8_linear_744_5851)"/>
<path d="M15.5 2.75C15.5 3.16421 15.1642 3.5 14.75 3.5C14.3358 3.5 14 3.16421 14 2.75C14 2.33579 14.3358 2 14.75 2C15.1642 2 15.5 2.33579 15.5 2.75Z" fill="url(#paint9_linear_744_5851)"/>
</svg>
