<svg width="40" height="40" viewBox="0 0 40 40" fill="none" xmlns="http://www.w3.org/2000/svg">
<path fill-rule="evenodd" clip-rule="evenodd" d="M20 40C31.0457 40 40 31.0457 40 20C40 8.9543 31.0457 0 20 0C8.9543 0 0 8.9543 0 20C0 31.0457 8.9543 40 20 40ZM26.2487 11.4569C26.971 11.7579 27.6267 12.1987 28.1781 12.754C30.5351 15.121 30.5341 18.817 28.1801 21.17L19.9731 29.377L11.7661 21.17C9.41212 18.817 9.41113 15.121 11.7641 12.758C12.3158 12.2017 12.972 11.76 13.6951 11.4583C14.4181 11.1566 15.1937 11.0008 15.9771 11C17.4573 11 18.8835 11.5561 19.9731 12.558C21.0628 11.5563 22.489 11.0002 23.9691 11C24.7517 11.0006 25.5264 11.1559 26.2487 11.4569Z" fill="white"/>
</svg>
