<svg width="16" height="13" viewBox="0 0 16 13" fill="none" xmlns="http://www.w3.org/2000/svg">
<defs>
<linearGradient id="paint0_linear_994_413" x1="16" y1="6.46408" x2="1.9594e-07" y2="6.46408" gradientUnits="userSpaceOnUse">
<stop stop-color="#FF2252"/>
<stop offset="1" stop-color="#FC7B04"/>
</linearGradient>
</defs>
<path d="M2 13C3.1 13 4 12.1 4 11C4 10.5 3.8 10 3.5 9.7L4.8 7H5C5.5 7 6 6.8 6.3 6.5L9 7.9V8C9 9.1 9.9 10 11 10C12.1 10 13 9.1 13 8C13 7.5 12.8 7.1 12.5 6.7L13.8 4H14C15.1 4 16 3.1 16 2C16 0.9 15.1 0 14 0C12.9 0 12 0.9 12 2C12 2.5 12.2 3 12.5 3.3L11.2 6H11C10.5 6 10 6.2 9.7 6.5L7 5.2V5C7 3.9 6.1 3 5 3C3.9 3 3 3.9 3 5C3 5.5 3.2 6 3.5 6.3L2.2 9H2C0.9 9 0 9.9 0 11C0 12.1 0.9 13 2 13Z" fill="url(#paint0_linear_994_413)"/>
</svg>
