<svg width="377" height="196" viewBox="0 0 377 196" fill="none" xmlns="http://www.w3.org/2000/svg">
<mask id="mask0_1614_3010" style="mask-type:alpha" maskUnits="userSpaceOnUse" x="0" y="0" width="377" height="196">
<rect width="377" height="196" fill="#C4C4C4"/>
</mask>
<g mask="url(#mask0_1614_3010)">
<mask id="mask1_1614_3010" style="mask-type:alpha" maskUnits="userSpaceOnUse" x="-234" y="-135" width="637" height="345">
<path d="M402.134 155.61C353.47 180.613 290.397 190.521 241.443 189.556C168.803 188.126 85.1833 166.833 -2.73361 179.777C-122.088 197.35 -175.444 210 -234 210L-234 -135L402.134 -127.514L402.134 155.61Z" fill="white"/>
</mask>
<g mask="url(#mask1_1614_3010)">
<path d="M378 0H-1V155H378V0Z" fill="#DFF8FF"/>
<path d="M378 0H-1V155H378V0Z" fill="url(#paint0_linear_1614_3010)" fill-opacity="0.2"/>
<path d="M-54 170.224C-7.947 134.502 44.6708 119.404 91.0278 118.466C192.07 116.423 241.528 157.715 324.727 139.22C413.622 119.464 492.58 50 548 50V284H-54V170.224Z" fill="#91E4F9"/>
<path d="M-73 167.658C-33.2641 144.478 18.2368 135.292 58.209 136.187C117.522 137.513 185.8 157.253 257.587 145.253C334.291 132.428 398.611 86 446.424 86V321.985H-73V167.658Z" fill="#FFCD76"/>
<path d="M-20 196.484C-20 196.484 37.2343 155.546 111.007 153.03C135.785 152.186 237.242 169.118 322.678 182.414C326.268 182.974 334.034 188.448 337.67 189.011C378.115 195.272 415.81 196.596 428 197L-20 196.484Z" fill="#F5B86D"/>
<path d="M299.386 187.384C299.51 187.882 299.999 188.314 300.708 188.686H323.754C324.501 185.078 324.945 180.938 323.302 180.12C321.979 179.462 321.519 181.68 320.627 181.123C319.071 180.153 324.056 174.048 322.008 172.873C320.006 171.726 319.624 178.612 318.143 177.83C317.227 177.346 322.456 170.333 320.682 168.815C318.907 167.298 316.886 173.883 315.58 174.515C314.273 175.147 318.956 161.706 315.694 161.01C313.033 160.443 312.371 171.201 311.018 172.065C309.665 172.928 309.974 164.17 307.665 159.706C305.277 155.088 302.268 155.238 303.09 160.384C303.913 165.53 306.053 174.573 304.19 173.518C302.326 172.464 298.41 164.494 296.91 167.546C294.27 172.918 297.719 177.68 302.812 183.667C303.346 184.302 298.476 183.758 299.386 187.384Z" fill="#9FDBEB"/>
<path d="M346.806 180.798C346.881 180.188 346.918 179.573 346.918 178.958C346.918 171.99 342.206 166.336 336.395 166.336C330.583 166.336 325.872 171.987 325.872 178.958C325.872 179.573 325.909 180.188 325.983 180.798H346.806Z" fill="#3190C1"/>
<path d="M358.715 177.696C358.789 176.849 358.827 175.983 358.827 175.101C358.827 165.272 354.115 157.301 348.304 157.301C342.492 157.301 337.78 165.27 337.78 175.101C337.78 175.983 337.818 176.849 337.892 177.696H358.715Z" fill="#9FDBEB"/>
<path d="M354.862 188.605C354.788 187.994 354.751 187.38 354.751 186.765C354.751 179.794 359.462 174.143 365.274 174.143C371.085 174.143 375.795 179.791 375.795 186.765C375.795 187.38 375.758 187.994 375.683 188.605H354.862Z" fill="#3C8F7C"/>
<path d="M338.021 188.604C337.927 187.743 337.88 186.876 337.88 186.009C337.88 176.18 343.853 168.209 351.22 168.209C358.587 168.209 364.559 176.178 364.559 186.009C364.559 186.876 364.512 187.743 364.418 188.604H338.021Z" fill="#3190C1"/>
<path d="M348.264 168.209C344.582 168.209 341.292 170.737 339.122 174.702C337.993 174.33 336.812 174.141 335.624 174.142C329.087 174.142 323.787 179.793 323.787 186.764C323.787 187.38 323.828 187.994 323.912 188.604H359.975C360.058 187.757 360.099 186.892 360.099 186.009C360.101 176.178 354.801 168.209 348.264 168.209Z" fill="#9FDBEB"/>
<path d="M345.353 141.882C345.361 141.587 345.769 141.357 345.985 141.62C346.202 141.882 346.192 141.704 346.402 142.269C347.021 143.902 347.87 145.439 348.923 146.832C350.899 149.459 352.855 150.785 355.077 152.098C354.161 150.036 353.548 147.835 353.47 145.614C353.441 144.806 353.457 143.966 353.804 143.224C353.9 143.016 354.271 143.059 354.309 143.289C354.496 144.435 354.221 145.299 354.592 147.35C355.477 152.243 358.98 157.433 362.358 161.067C361.711 154.915 361.397 147.922 362.556 141.719C362.745 140.701 363.048 139.733 363.328 138.739C363.395 138.505 363.727 138.605 363.686 138.838C363.628 139.169 363.076 143.441 363.043 143.733C362.507 148.461 362.614 153.695 363.031 158.469C365.652 154.923 367.406 150.77 368.227 146.435C368.469 145.153 368.533 143.831 368.874 142.573C368.92 142.4 369.207 142.381 369.242 142.573C369.592 144.457 368.892 147.79 368.383 149.603C367.387 153.19 365.709 156.551 363.439 159.501C363.351 159.616 367.067 188.331 366.967 188.694C366.798 189.308 365.73 189.738 365.564 188.65C365.497 188.207 363.455 170.747 362.535 162.659C362.186 162.467 361.963 162.126 361.067 161.12C358.995 158.791 356.946 155.894 355.576 153.157C354.754 153.11 348.819 150.222 345.876 143.648C345.791 143.461 345.409 142.568 345.354 142.369C345.308 142.198 345.347 142.05 345.353 141.882Z" fill="#013D5D"/>
<path d="M364.412 132.574C364.345 131.689 364.311 130.787 364.31 129.866C364.31 119.609 368.665 111.295 374.034 111.295C379.403 111.295 383.759 119.61 383.759 129.867C383.759 130.786 383.724 131.689 383.656 132.574L364.412 132.574Z" fill="#184655"/>
<path d="M353.407 128.009C353.34 126.765 353.306 125.492 353.305 124.191C353.305 109.726 357.66 98 363.029 98C368.397 98 372.753 109.726 372.753 124.191C372.753 125.488 372.719 126.76 372.65 128.009H353.407Z" fill="#48ACD3"/>
<path d="M356.968 144.058C357.035 143.174 357.07 142.272 357.071 141.351C357.071 131.094 352.716 122.779 347.347 122.779C341.978 122.779 337.623 131.094 337.623 141.351C337.623 142.27 337.657 143.173 337.726 144.058H356.968Z" fill="#48ACD3"/>
<path d="M372.53 144.058C372.616 142.812 372.659 141.539 372.661 140.24C372.661 125.776 367.141 114.049 360.334 114.049C353.526 114.049 348.006 125.775 348.006 140.24C348.006 141.537 348.049 142.809 348.137 144.058H372.53Z" fill="#013D5D"/>
<path d="M363.065 114.049C366.467 114.049 369.507 117.769 371.514 123.603C372.535 123.068 373.62 122.779 374.749 122.779C380.79 122.779 385.687 131.093 385.687 141.35C385.687 142.27 385.648 143.172 385.572 144.058H352.243C352.166 142.811 352.127 141.538 352.127 140.239C352.127 125.775 357.024 114.049 363.065 114.049Z" fill="#48ACD3"/>
<path d="M1.2598 181.282C0.292229 180.452 -0.293146 179.572 -0.143232 178.698C0.124195 177.137 2.33994 178.14 2.42451 177.013C2.57058 175.052 -5.8877 175.511 -5.60819 172.997C-5.33363 170.539 0.881998 174.56 1.14229 172.784C1.30263 171.685 -8.09685 171.779 -8.28795 169.285C-8.47905 166.792 -1.48641 169.204 -0.109186 168.472C1.26804 167.739 -13.3614 163.3 -11.8968 160.038C-10.7025 157.379 -0.949358 163.601 0.656853 162.977C2.26306 162.352 -5.53021 157.086 -7.93925 152.269C-10.4307 147.286 -8.39448 144.777 -4.45117 148.74C-0.507856 152.703 5.98233 160.267 6.24701 157.989C6.51169 155.711 2.0813 147.287 5.68196 147.917C12.0162 149.027 12.5395 159.506 14.5027 167.697C14.7108 168.565 16.8299 158.353 19.3987 161.431C20.7199 163.015 18.2692 174.674 16.742 181.283L1.2598 181.282Z" fill="#9FDBEB"/>
<path d="M21.8857 153.337L22.7643 151.212C23.4463 149.649 25.1925 148.902 26.6631 149.545C30.3708 151.164 31.9831 155.668 30.2638 159.607L29.0068 162.486C28.4577 163.749 28.6477 165.136 29.3912 166.114C30.0655 167.002 30.1759 168.238 29.708 169.309L29.0458 170.827C28.6976 171.627 28.1803 172.341 27.5295 172.922C26.8788 173.502 26.11 173.935 25.276 174.19C24.7706 174.348 24.3054 174.613 23.9126 174.968C23.5197 175.323 23.2085 175.759 23.0004 176.246L22.0619 178.396C21.0246 180.772 18.3701 181.907 16.1313 180.93L14.8551 180.373C12.618 179.397 11.6449 176.679 12.6828 174.302C14.3604 171.461 14.2264 169.34 13.6317 167.902C13.1946 166.834 12.9766 165.69 12.9906 164.536C13.0047 163.383 13.2505 162.244 13.7135 161.188L13.8464 160.884C14.331 159.771 15.0473 158.775 15.9474 157.96C16.8475 157.146 17.9108 156.533 19.0664 156.162C20.0818 155.837 21.1383 155.049 21.8857 153.337Z" fill="#7BE0FD"/>
<path d="M7.55901 181.343C8.861 179.655 21.0934 170.631 25.749 169.124C30.8883 167.461 26.045 174.066 26.045 174.066C26.045 174.066 35.1605 164.098 38.5069 164.997C41.5738 165.82 38.5069 171.999 38.5069 171.999C38.5069 171.999 41.961 168.577 46.1497 168.577C50.2265 168.577 43.3019 180.712 42.928 181.361L7.55901 181.343Z" fill="#9FDBEB"/>
<path d="M20.6354 164.831C21.7606 161.897 22.8627 158.962 23.6627 155.911C26.124 146.521 25.5298 139.674 25.4381 136.383C25.426 135.949 26.1223 135.829 26.1827 136.278C26.3919 137.823 26.4386 139.392 26.449 140.951C26.4657 143.592 26.3055 146.232 25.9696 148.852C27.7752 149.323 29.4841 148.617 30.8805 147.349C33.289 145.164 34.1489 142.252 34.5278 139.026C34.5663 138.696 34.5784 138.385 34.8463 138.194C34.9057 138.025 35.1522 137.974 35.2137 138.225C35.5954 138.618 35.4103 139.407 35.3515 139.915C34.557 146.786 30.3891 150.117 27.0333 150.088C26.6654 150.084 26.2179 150.066 25.8175 149.955C25.5759 151.598 25.2647 153.229 24.884 154.845C24.1592 157.92 23.1422 160.892 22.023 163.834C18.1962 173.893 16.9754 179.032 15.8882 181.944C15.7234 182.529 14.8596 182.284 15.0095 181.692C15.065 181.48 18.0506 171.57 20.6354 164.831Z" fill="#184655"/>
<path d="M5.30378 138.386C5.34002 138.166 5.46852 138.026 5.5141 137.823C5.5778 137.556 6.01325 137.529 6.05883 137.823C6.08464 137.991 6.17799 138.098 6.21424 138.267C6.33065 138.824 6.0495 141.953 6.78533 146.743C6.98082 148.016 7.19718 149.283 7.62001 150.498C8.30368 152.462 9.5502 154.58 11.0998 155.918C11.1409 153.112 11.3253 150.311 11.6523 147.524C11.8533 145.856 12.1075 144.197 12.415 142.546C12.5651 141.741 12.7273 140.939 12.9015 140.143C13.0844 139.305 13.2568 138.501 13.6571 137.743C13.7802 137.51 14.1294 137.618 14.1299 137.876C14.1299 138.62 13.9833 139.304 13.8285 140.028C13.6736 140.752 13.5303 141.469 13.3958 142.193C12.4002 147.557 12.0257 152.32 12.0295 157.69C13.6714 155.621 15.1047 153.143 16.17 150.708C17.4606 147.76 18.3026 144.635 18.668 141.438C18.7679 140.544 18.8279 139.647 18.8481 138.747C18.858 138.281 18.8675 137.815 18.8766 137.35C18.8816 137.11 18.9733 136.387 19.3763 136.599C19.747 136.794 19.7119 137.229 19.7426 137.608C19.7767 138.023 19.7794 138.435 19.7745 138.851C19.7646 139.646 19.7225 140.441 19.6482 141.233C19.1155 146.971 16.9574 152.643 13.6692 157.291C13.1684 158 12.6517 158.759 12.0433 159.377C12.1833 168.562 13.5446 180.163 13.5682 181.091C13.5737 181.295 13.5276 181.505 13.4974 181.707C13.4353 182.124 12.8889 182.027 12.7769 181.707C12.566 181.103 12.588 180.866 12.2728 177.516C11.7116 171.541 11.0828 157.853 11.085 157.298C9.13451 155.893 7.7529 153.733 6.85068 151.478C6.37184 150.281 6.09068 149.049 5.87982 147.773C5.16265 143.431 5.18517 139.095 5.30378 138.386Z" fill="#013D5D"/>
<path d="M18.7126 130.889C18.6384 130.216 18.6017 129.539 18.6028 128.862C18.6028 121.181 23.3654 114.955 29.2411 114.955C35.1168 114.955 39.8789 121.181 39.8789 128.862C39.8791 129.54 39.8415 130.216 39.7663 130.889H18.7126Z" fill="#184655"/>
<path d="M6.67304 127.472C6.59982 126.538 6.56321 125.585 6.56321 124.613C6.56321 113.781 11.3264 105 17.2015 105C23.0767 105 27.8398 113.781 27.8398 124.613C27.8398 125.584 27.8032 126.537 27.73 127.472H6.67304Z" fill="#48ACD3"/>
<path d="M17.2389 117.018C20.9614 117.018 24.287 119.803 26.4819 124.172C27.6161 123.763 28.8126 123.555 30.0183 123.555C36.6271 123.555 41.9844 129.781 41.9844 137.462C41.9847 138.14 41.9425 138.817 41.8581 139.489H5.39907C5.31634 138.556 5.27424 137.603 5.27277 136.63C5.27277 125.798 10.6301 117.018 17.2389 117.018Z" fill="#48ACD3"/>
<path d="M41.101 160.153C40.7089 160.39 40.3492 160.709 39.9912 160.994C38.044 162.545 36.0682 164.046 33.3819 167.202C29.79 171.421 27.1075 176.213 25.4711 181.446C25.4129 181.633 25.1174 181.553 25.1773 181.365C26.2442 177.996 27.7477 174.782 29.6494 171.804C34.7789 163.77 41.1702 160.109 41.101 160.153Z" fill="#355389"/>
<path d="M25.7836 169.747C23.0928 172.426 20.7475 175.463 18.9941 178.84C18.4999 179.788 18.0859 180.761 17.6564 181.74C17.6015 181.87 17.3786 181.777 17.4269 181.643L17.5702 181.241C17.5982 181.163 17.7404 181.167 17.7278 181.263L17.6729 181.677L17.4263 181.643C18.093 179.877 19.0188 178.176 20.0144 176.578C22.9995 171.788 26.09 169.44 25.7803 169.747H25.7836Z" fill="#013D5D"/>
<path d="M37.8706 160.295C37.9442 160.442 38.2468 160.84 38.288 161.316C38.367 161.773 38.1847 162.304 38.1781 162.286C38.1501 162.293 38.6301 161.985 38.8426 161.422C39.0914 160.888 39.0727 160.099 38.8904 159.813C38.5933 159.183 37.9464 159.037 37.7822 159.301C37.6065 159.562 37.7268 159.964 37.8706 160.295Z" fill="#355389"/>
<path d="M33.4131 164.782C33.468 164.937 33.7206 165.367 33.7052 165.842C33.7299 166.303 33.4856 166.809 33.4801 166.787C33.4515 166.791 33.9628 166.544 34.239 166.012C34.5481 165.513 34.6234 164.73 34.4762 164.426C34.2565 163.767 33.6344 163.548 33.4405 163.788C33.2467 164.029 33.3131 164.435 33.4131 164.782Z" fill="#355389"/>
<path d="M27.7395 166.991C27.8537 167.03 28.2178 167.083 28.4841 167.311C28.7587 167.51 28.9399 167.885 28.9234 167.879C28.9125 167.897 29.0064 167.487 28.8279 167.081C28.684 166.672 28.2678 166.267 28.0251 166.211C27.5451 166.034 27.13 166.292 27.1788 166.516C27.2277 166.74 27.4924 166.891 27.7395 166.991Z" fill="#355389"/>
<path d="M22.4442 171.201C22.5239 171.293 22.8133 171.52 22.9308 171.852C23.0719 172.162 23.0406 172.576 23.0302 172.565C23.012 172.576 23.297 172.267 23.3437 171.826C23.4222 171.399 23.263 170.838 23.0801 170.673C22.7507 170.28 22.2636 170.296 22.1955 170.515C22.1274 170.733 22.2811 170.992 22.4442 171.201Z" fill="#013D5D"/>
<path d="M24.2709 169.24C24.3505 169.331 24.6399 169.558 24.7574 169.889C24.8985 170.2 24.8672 170.614 24.8574 170.603C24.8387 170.614 25.1237 170.305 25.1709 169.865C25.2494 169.437 25.0896 168.876 24.9068 168.709C24.5773 168.315 24.0908 168.331 24.0221 168.55C23.9535 168.769 24.1078 169.03 24.2709 169.24Z" fill="#355389"/>
<path d="M26.2458 170.951C26.1425 170.888 25.8685 170.642 25.5226 170.584C25.1931 170.498 24.7917 170.602 24.8087 170.609C24.8016 170.63 25.0547 170.294 25.4797 170.17C25.8855 170.019 26.4621 170.078 26.6604 170.229C27.1041 170.485 27.1733 170.97 26.9706 171.076C26.768 171.182 26.4797 171.076 26.2458 170.951Z" fill="#355389"/>
<path d="M24.3073 173.078C24.2041 173.015 23.93 172.769 23.5841 172.711C23.2546 172.626 22.8532 172.728 22.8702 172.737C22.8631 172.756 23.1162 172.421 23.5413 172.297C23.9465 172.145 24.5237 172.206 24.7219 172.357C25.1656 172.612 25.2348 173.097 25.0322 173.202C24.8295 173.308 24.5418 173.202 24.3073 173.078Z" fill="#013D5D"/>
<path d="M22.8899 174.896C22.7867 174.834 22.5126 174.587 22.1672 174.529C21.8378 174.444 21.4364 174.547 21.4534 174.555C21.4462 174.575 21.6994 174.24 22.1239 174.115C22.5297 173.964 23.1068 174.024 23.305 174.175C23.7482 174.431 23.8179 174.915 23.6153 175.021C23.4127 175.127 23.1244 175.02 22.8899 174.896Z" fill="#013D5D"/>
<path d="M29.3815 176.713C29.2783 176.65 29.0043 176.404 28.6583 176.346C28.3288 176.261 27.9274 176.364 27.9445 176.371C27.9373 176.392 28.1905 176.056 28.6155 175.932C29.0207 175.78 29.5979 175.84 29.7961 175.991C30.2398 176.247 30.309 176.732 30.1064 176.837C29.9037 176.942 29.6155 176.837 29.3815 176.713Z" fill="#355389"/>
<path d="M27.176 168.376C27.2902 168.415 27.6543 168.468 27.9206 168.696C28.1952 168.895 28.3758 169.27 28.3599 169.263C28.3489 169.282 28.4428 168.872 28.2649 168.466C28.1205 168.057 27.7042 167.651 27.4615 167.596C26.9816 167.419 26.5664 167.677 26.6159 167.9C26.6653 168.124 26.9305 168.276 27.176 168.376Z" fill="#355389"/>
<path d="M39.7576 163.231C39.6631 163.113 39.4457 162.706 39.0646 162.49C38.7131 162.249 38.1981 162.198 38.2118 162.216C38.1948 162.236 38.6352 161.951 39.187 161.988C39.7285 161.983 40.3808 162.301 40.5494 162.563C40.9618 163.053 40.8372 163.652 40.5538 163.69C40.2705 163.727 39.98 163.478 39.7576 163.231Z" fill="#355389"/>
<path d="M37.03 165.757C36.9356 165.639 36.7187 165.232 36.337 165.015C35.9861 164.774 35.4705 164.723 35.4842 164.741C35.4678 164.762 35.9082 164.476 36.4595 164.513C37.0009 164.508 37.6533 164.826 37.8219 165.088C38.2343 165.579 38.1096 166.178 37.8263 166.215C37.5429 166.253 37.2524 166.003 37.03 165.757Z" fill="#355389"/>
<path d="M32.1895 163.493C32.039 163.501 31.5854 163.438 31.1846 163.621C30.7837 163.764 30.44 164.153 30.4608 164.15C30.4674 164.176 30.4954 163.651 30.8491 163.225C31.1632 162.783 31.8023 162.439 32.112 162.456C32.7501 162.41 33.1609 162.863 33.0247 163.115C32.8885 163.368 32.519 163.457 32.1895 163.493Z" fill="#355389"/>
<path d="M31.3912 165.431C31.2402 165.438 30.7844 165.376 30.3863 165.559C29.9854 165.702 29.6416 166.091 29.662 166.088C29.6691 166.114 29.6971 165.589 30.0507 165.163C30.3643 164.721 31.004 164.377 31.3137 164.394C31.9518 164.347 32.362 164.8 32.2258 165.053C32.0897 165.305 31.7206 165.395 31.3912 165.431Z" fill="#355389"/>
<path d="M41.3646 161.133C41.2894 161.071 41.0999 160.845 40.8314 160.76C40.5794 160.654 40.2488 160.69 40.2598 160.699C40.2521 160.713 40.491 160.476 40.8424 160.424C41.1818 160.349 41.6331 160.463 41.7759 160.605C42.0994 160.858 42.0999 161.251 41.9269 161.312C41.754 161.373 41.5365 161.258 41.3646 161.133Z" fill="#355389"/>
<path d="M40.6401 159.543C40.644 159.64 40.7104 159.927 40.617 160.195C40.5614 160.382 40.4598 160.551 40.3216 160.689C40.3051 160.686 40.6379 160.637 40.8889 160.386C41.1524 160.159 41.3337 159.727 41.3046 159.531C41.2974 159.119 40.9844 158.882 40.8323 158.985C40.6802 159.087 40.6434 159.329 40.6401 159.543Z" fill="#355389"/>
<path d="M32.178 178.427C31.9107 178.618 31.6593 178.83 31.4262 179.061C30.8097 179.703 30.3541 180.482 30.0967 181.334C30.0792 181.389 30.0737 181.443 30.0204 181.477C30.0138 181.481 30.006 181.482 29.9986 181.48C29.9912 181.478 29.9849 181.474 29.9809 181.467C29.9485 181.406 29.9754 181.35 29.9935 181.287C30.1678 180.72 30.4361 180.185 30.787 179.707C31.4613 178.767 31.961 178.55 32.1774 178.422C32.1807 178.422 32.1834 178.425 32.1802 178.427H32.178Z" fill="#355389"/>
<path d="M32.7266 178.986C32.6388 178.946 32.3972 178.774 32.1165 178.76C31.9229 178.741 31.7274 178.77 31.5482 178.846C31.5444 178.863 31.7157 178.572 32.0424 178.435C32.3516 178.277 32.8172 178.27 32.9891 178.374C33.3658 178.538 33.4658 178.916 33.3137 179.019C33.1615 179.123 32.9249 179.065 32.7266 178.986Z" fill="#355389"/>
<path d="M31.6239 177.631C31.6519 177.724 31.7886 177.986 31.7661 178.267C31.76 178.462 31.7048 178.653 31.6057 178.821C31.5887 178.821 31.8984 178.691 32.078 178.382C32.2751 178.095 32.3421 177.633 32.2641 177.448C32.1543 177.052 31.7908 176.903 31.6689 177.04C31.547 177.177 31.5733 177.424 31.6239 177.631Z" fill="#355389"/>
<path d="M47.487 173.652C43.7046 174.812 40.4307 177.208 37.2831 179.535C35.1601 181.103 35.3386 181.401 34.8943 181.659C34.8777 181.669 34.8587 181.673 34.8397 181.671C34.8207 181.67 34.8025 181.663 34.7875 181.651C34.7724 181.639 34.7612 181.624 34.7551 181.606C34.749 181.588 34.7483 181.568 34.7532 181.55C34.8674 181.152 35.3023 180.814 35.595 180.542C35.9396 180.226 36.3007 179.93 36.6768 179.653C37.4769 179.056 38.3083 178.5 39.1331 177.935C40.8101 176.789 42.5262 175.688 44.3614 174.812C45.3661 174.329 46.4094 173.931 47.4804 173.622C47.4844 173.621 47.4887 173.621 47.4922 173.623C47.4958 173.625 47.4984 173.629 47.4995 173.633C47.5005 173.637 47.5 173.641 47.498 173.645C47.496 173.648 47.4926 173.651 47.4887 173.652H47.487Z" fill="#355389"/>
<path d="M43.7783 173.115C43.8332 173.268 44.0858 173.698 44.0705 174.174C44.0952 174.635 43.8508 175.141 43.8453 175.119C43.8168 175.123 44.328 174.876 44.6042 174.344C44.9134 173.845 44.9886 173.062 44.8414 172.758C44.6218 172.099 43.9996 171.88 43.8058 172.12C43.6119 172.36 43.6762 172.77 43.7783 173.115Z" fill="#355389"/>
<path d="M40.6064 174.986C40.6614 175.14 40.914 175.57 40.8986 176.045C40.9233 176.506 40.6789 177.012 40.6734 176.99C40.6449 176.994 41.1561 176.747 41.4323 176.215C41.7415 175.716 41.8167 174.933 41.6696 174.629C41.4499 173.97 40.8277 173.751 40.6339 173.991C40.4401 174.232 40.5065 174.641 40.6064 174.986Z" fill="#355389"/>
<path d="M44.333 176.966C44.2567 176.821 44.1101 176.344 43.7493 176.036C43.4264 175.706 42.8899 175.545 42.9015 175.565C42.8789 175.583 43.4056 175.371 43.9838 175.525C44.5598 175.635 45.1869 176.105 45.3116 176.419C45.6482 177.023 45.3923 177.635 45.0837 177.616C44.7751 177.598 44.5154 177.274 44.333 176.966Z" fill="#355389"/>
<path d="M31.4031 161.117C30.9742 163.952 29.4992 166.501 28.4822 169.146C25.7629 176.223 25.3165 181.61 25.0716 182.209C25.0696 182.223 25.062 182.237 25.0503 182.246C25.0386 182.254 25.0238 182.258 25.0093 182.256C24.9947 182.254 24.9815 182.247 24.9726 182.235C24.9637 182.223 24.9598 182.209 24.9618 182.194C24.8942 181.64 25.4933 177.759 26.6751 173.722C28.6398 167.011 30.6963 164.388 31.3108 161.093C31.3224 161.032 31.413 161.059 31.4036 161.119L31.4031 161.117Z" fill="#355389"/>
<path d="M31.0215 169.499C30.8359 169.195 30.63 168.907 30.4174 168.624C30.2049 168.342 29.9853 168.067 29.7585 167.797C29.5317 167.527 29.2983 167.263 29.0567 167.005C28.8151 166.748 28.5663 166.497 28.2978 166.262C28.4828 166.566 28.6882 166.855 28.9018 167.137C29.1154 167.419 29.334 167.695 29.5608 167.964C29.7876 168.234 30.0215 168.498 30.2631 168.756C30.5048 169.013 30.753 169.264 31.0215 169.499Z" fill="white"/>
</g>
</g>
<defs>
<linearGradient id="paint0_linear_1614_3010" x1="189" y1="-6.5" x2="188.5" y2="155" gradientUnits="userSpaceOnUse">
<stop stop-color="#268BA7"/>
<stop offset="1" stop-color="#9AE8FF"/>
</linearGradient>
</defs>
</svg>
