<svg width="113" height="116" viewBox="0 0 113 116" fill="none" xmlns="http://www.w3.org/2000/svg">
<path d="M13.7961 81.604C16.3325 83.6128 19.0435 85.3907 21.8967 86.9164H105.57C106.751 85.318 107.785 83.6161 108.659 81.8314C114.356 70.3193 111.467 56.6788 104.009 46.6801C93.8617 33.062 84.6351 17.3381 71.4551 6.57008C68.4423 4.11041 65.1627 1.83325 61.4086 0.8112C56.4332 -0.547794 47.9535 -0.404594 43.6013 2.83284C41.8998 4.09918 40.5408 5.76142 39.2014 7.40681C33.1702 14.8167 27.4731 24.5346 19.6083 30.0885C16.4327 32.3348 12.7488 33.7865 9.59559 36.058C2.24186 41.3648 -1.01523 50.4819 0.276372 59.3069C1.56798 68.132 6.85233 76.036 13.7961 81.604Z" fill="#FAE8E1"/>
<path fill-rule="evenodd" clip-rule="evenodd" d="M3.17139 77.5896C3.17139 77.5121 3.23424 77.4492 3.31178 77.4492H12.7686C12.8461 77.4492 12.909 77.5121 12.909 77.5896C12.909 77.6671 12.8461 77.73 12.7686 77.73H3.31178C3.23424 77.73 3.17139 77.6671 3.17139 77.5896Z" fill="#FAC4AF"/>
<path fill-rule="evenodd" clip-rule="evenodd" d="M5.77979 76.1716C5.77979 76.0941 5.84264 76.0312 5.92018 76.0312H15.377C15.4545 76.0312 15.5174 76.0941 15.5174 76.1716C15.5174 76.2492 15.4545 76.312 15.377 76.312H5.92018C5.84264 76.312 5.77979 76.2492 5.77979 76.1716Z" fill="#FAC4AF"/>
<path fill-rule="evenodd" clip-rule="evenodd" d="M69.7339 11.6013C69.7339 11.5238 69.7967 11.4609 69.8743 11.4609H79.3311C79.4086 11.4609 79.4715 11.5238 79.4715 11.6013C79.4715 11.6789 79.4086 11.7417 79.3311 11.7417H69.8743C69.7967 11.7417 69.7339 11.6789 69.7339 11.6013Z" fill="#FAC4AF"/>
<path fill-rule="evenodd" clip-rule="evenodd" d="M72.3394 10.1834C72.3394 10.1058 72.4022 10.043 72.4797 10.043H81.9365C82.0141 10.043 82.0769 10.1058 82.0769 10.1834C82.0769 10.2609 82.0141 10.3238 81.9365 10.3238H72.4797C72.4022 10.3238 72.3394 10.2609 72.3394 10.1834Z" fill="#FAC4AF"/>
<path fill-rule="evenodd" clip-rule="evenodd" d="M74.1284 78.9275C74.1284 78.85 74.1913 78.7871 74.2688 78.7871H79.7048C79.7823 78.7871 79.8452 78.85 79.8452 78.9275C79.8452 79.005 79.7823 79.0679 79.7048 79.0679H74.2688C74.1913 79.0679 74.1284 79.005 74.1284 78.9275Z" fill="#FAC4AF"/>
<path fill-rule="evenodd" clip-rule="evenodd" d="M75.6274 77.5095C75.6274 77.432 75.6903 77.3691 75.7678 77.3691H81.2038C81.2814 77.3691 81.3442 77.432 81.3442 77.5095C81.3442 77.5871 81.2814 77.6499 81.2038 77.6499H75.7678C75.6903 77.6499 75.6274 77.5871 75.6274 77.5095Z" fill="#FAC4AF"/>
<path fill-rule="evenodd" clip-rule="evenodd" d="M6.12256 23.8084C6.12256 23.7308 6.18541 23.668 6.26295 23.668H12.8979C12.9754 23.668 13.0383 23.7308 13.0383 23.8084C13.0383 23.8859 12.9754 23.9488 12.8979 23.9488H6.26295C6.18541 23.9488 6.12256 23.8859 6.12256 23.8084Z" fill="#FAC4AF"/>
<path fill-rule="evenodd" clip-rule="evenodd" d="M7.95312 22.0779C7.95312 22.0004 8.01598 21.9375 8.09352 21.9375H14.7284C14.806 21.9375 14.8688 22.0004 14.8688 22.0779C14.8688 22.1554 14.806 22.2183 14.7284 22.2183H8.09352C8.01598 22.2183 7.95312 22.1554 7.95312 22.0779Z" fill="#FAC4AF"/>
<path d="M58.4717 12.1293C59.1379 9.38196 57.4508 6.61474 54.7034 5.94856C51.956 5.28238 49.1888 6.96951 48.5226 9.71687C47.8565 12.4642 49.5436 15.2315 52.2909 15.8976C55.0383 16.5638 57.8055 14.8767 58.4717 12.1293Z" fill="#FBFCFC"/>
<path d="M54.5971 9.2121C54.3656 9.21281 54.1391 9.27913 53.9438 9.40338C53.7485 9.52762 53.5924 9.7047 53.4936 9.91406C53.4217 9.75927 53.3181 9.62132 53.1894 9.50914C53.0608 9.39696 52.91 9.31306 52.7469 9.26287C52.5837 9.21267 52.4119 9.19731 52.2424 9.21777C52.073 9.23824 51.9097 9.29407 51.7632 9.38165C51.6167 9.46923 51.4903 9.58661 51.392 9.72619C51.2938 9.86576 51.2259 10.0244 51.1929 10.1919C51.1599 10.3593 51.1625 10.5319 51.2004 10.6983C51.2383 10.8647 51.3107 11.0213 51.413 11.1579C52.0102 11.7735 52.7155 12.2742 53.4936 12.6349C54.2909 12.2992 55.0064 11.7954 55.5911 11.1579C55.7249 10.9763 55.8058 10.7611 55.8248 10.5362C55.8438 10.3114 55.8001 10.0857 55.6986 9.88413C55.5971 9.6826 55.4418 9.51312 55.2498 9.39449C55.0579 9.27587 54.8368 9.21274 54.6112 9.2121H54.5971Z" fill="#F59FB3"/>
<path d="M12.2999 44.387C14.0755 44.387 15.5149 42.9476 15.5149 41.172C15.5149 39.3964 14.0755 37.957 12.2999 37.957C10.5244 37.957 9.08496 39.3964 9.08496 41.172C9.08496 42.9476 10.5244 44.387 12.2999 44.387Z" fill="#FBFCFC"/>
<path d="M12.9903 40.1016C12.8454 40.1012 12.7034 40.1423 12.5811 40.2199C12.4587 40.2975 12.361 40.4084 12.2996 40.5396C12.2245 40.3836 12.0989 40.2576 11.9431 40.1821C11.7873 40.1066 11.6105 40.0861 11.4416 40.1238C11.2727 40.1616 11.1215 40.2554 11.0126 40.3901C10.9038 40.5247 10.8438 40.6922 10.8423 40.8653C10.8426 41.0297 10.8947 41.1898 10.9911 41.323C11.3689 41.7055 11.812 42.0174 12.2996 42.2439C12.7954 42.0335 13.2406 41.7195 13.6052 41.323C13.6903 41.2092 13.7421 41.074 13.7546 40.9325C13.7671 40.791 13.7398 40.6488 13.676 40.5219C13.6121 40.395 13.5141 40.2884 13.3929 40.2142C13.2718 40.1399 13.1324 40.1009 12.9903 40.1016Z" fill="#F59FB3"/>
<path d="M78.225 33.2138C79.2273 31.7041 79.7757 29.9386 79.8049 28.1267C79.8342 26.3148 79.3432 24.5325 78.3902 22.9912C77.4371 21.4499 76.062 20.2143 74.4279 19.4309C72.7938 18.6476 70.9694 18.3493 69.1709 18.5715C67.3724 18.7937 65.6754 19.527 64.2812 20.6846C62.8869 21.8421 61.8538 23.3752 61.3046 25.1021C60.7553 26.829 60.7128 28.6772 61.1822 30.4275C61.6516 32.1778 62.6131 33.7568 63.9528 34.9771L63.7731 37.8608L66.3591 36.5748C68.4126 37.5228 70.7374 37.705 72.9136 37.0886C75.0897 36.4723 76.9737 35.0979 78.225 33.2138Z" fill="#FBFCFC"/>
<path d="M67.2291 28.1573C67.2291 28.2683 67.1962 28.3769 67.1345 28.4693C67.0727 28.5616 66.985 28.6336 66.8824 28.6761C66.7798 28.7186 66.6669 28.7297 66.558 28.708C66.449 28.6864 66.349 28.6329 66.2704 28.5544C66.1919 28.4758 66.1384 28.3758 66.1167 28.2668C66.0951 28.1579 66.1062 28.045 66.1487 27.9424C66.1912 27.8398 66.2632 27.752 66.3555 27.6903C66.4479 27.6286 66.5565 27.5957 66.6675 27.5957C66.8165 27.5957 66.9593 27.6549 67.0646 27.7602C67.1699 27.8655 67.2291 28.0083 67.2291 28.1573Z" fill="#A1ACE0"/>
<path d="M70.731 28.1573C70.731 28.2683 70.6981 28.3769 70.6364 28.4693C70.5747 28.5616 70.487 28.6336 70.3844 28.6761C70.2818 28.7186 70.1689 28.7297 70.0599 28.708C69.951 28.6864 69.8509 28.6329 69.7724 28.5544C69.6939 28.4758 69.6404 28.3758 69.6187 28.2668C69.597 28.1579 69.6082 28.045 69.6507 27.9424C69.6932 27.8398 69.7651 27.752 69.8575 27.6903C69.9498 27.6286 70.0584 27.5957 70.1695 27.5957C70.3184 27.5957 70.4613 27.6549 70.5666 27.7602C70.6719 27.8655 70.731 28.0083 70.731 28.1573Z" fill="#A1ACE0"/>
<path d="M74.235 28.1573C74.235 28.2683 74.202 28.3769 74.1403 28.4693C74.0786 28.5616 73.9909 28.6336 73.8883 28.6761C73.7857 28.7186 73.6728 28.7297 73.5638 28.708C73.4549 28.6864 73.3548 28.6329 73.2763 28.5544C73.1978 28.4758 73.1443 28.3758 73.1226 28.2668C73.1009 28.1579 73.1121 28.045 73.1546 27.9424C73.1971 27.8398 73.269 27.752 73.3614 27.6903C73.4537 27.6286 73.5623 27.5957 73.6734 27.5957C73.8223 27.5957 73.9652 27.6549 74.0705 27.7602C74.1758 27.8655 74.235 28.0083 74.235 28.1573Z" fill="#A1ACE0"/>
<path d="M22.2008 19.5449C25.6902 18.0738 27.3264 14.0525 25.8553 10.563C24.3841 7.07359 20.3628 5.43742 16.8734 6.90855C13.3839 8.37968 11.7478 12.401 13.2189 15.8905C14.69 19.3799 18.7114 21.0161 22.2008 19.5449Z" fill="#FDF2EC"/>
<path d="M21.6779 12.0332H17.1235V16.0512H21.6779C21.9675 16.0512 22.2454 15.9361 22.4502 15.7313C22.655 15.5265 22.7701 15.2487 22.7701 14.959V13.1255C22.7701 12.8358 22.655 12.558 22.4502 12.3531C22.2454 12.1483 21.9675 12.0332 21.6779 12.0332Z" fill="#A1ACE0"/>
<path d="M18.2271 12.6346L20.0241 10.5288C20.0642 10.4817 20.1156 10.4455 20.1734 10.4238C20.2313 10.402 20.2938 10.3953 20.355 10.4043C20.4162 10.4132 20.4741 10.4376 20.5233 10.4751C20.5725 10.5126 20.6113 10.562 20.6362 10.6186C20.7362 10.8431 20.7738 11.0904 20.7452 11.3345C20.7165 11.5786 20.6226 11.8105 20.4733 12.0057L19.9314 12.7217L18.2271 12.6346Z" fill="#A1ACE0"/>
<path d="M17.1264 12.0332H16.3037V16.0512H17.1264V12.0332Z" fill="#6476C0"/>
<path d="M35.3435 28.9779C35.2452 28.9471 35.1806 28.8404 35.1132 28.7674C34.1642 27.7256 33.0466 26.858 31.595 26.7654C31.1617 26.7464 30.7289 26.8112 30.3202 26.9563C26.7655 28.1552 24.289 32.0104 23.1097 35.3574C22.3884 37.4931 21.9587 39.7163 21.8321 41.967C21.6749 44.4941 21.8321 46.9453 20.7539 49.3235C19.2377 52.707 15.9806 54.9785 14.4896 58.3872C12.0945 63.8878 13.0576 70.7165 18.5666 73.9062C21.6805 75.7144 25.8165 75.7565 29.155 74.5492C31.8533 73.572 33.0523 70.8176 35.6692 69.759C38.1681 68.7482 40.479 69.7225 42.7533 70.7586C45.0277 71.7947 47.361 72.6567 49.874 72.5107C56.1524 72.1625 59.241 65.6652 56.3798 60.2966C53.0609 54.0828 46.5074 47.7568 47.9563 40.0801C48.1416 39.0918 48.4505 38.1343 48.6133 37.1431C49.1496 33.8692 46.9426 30.862 45.2664 28.2563C43.1521 24.9627 38.7438 23.6655 35.8011 26.8805C35.4423 27.2212 35.2047 27.6698 35.1244 28.1581C35.0563 28.5065 35.0308 28.862 35.0486 29.2166C35.0683 29.2363 35.0936 29.2447 35.3435 28.9779Z" fill="#464785"/>
<path d="M74.5581 71.8641L77.7984 71.1593H84.7562C85.607 71.1593 86.4449 70.9511 87.1967 70.5526C87.9485 70.1542 88.5913 69.5778 89.069 68.8737L89.4986 68.2363L75.9059 68.753L74.5581 71.8641Z" fill="#FCCDBB"/>
<path d="M74.965 68.9743C75.0492 69.2775 75.9141 72.3015 75.9141 72.3015C75.9141 72.3015 59.067 82.786 54.2937 81.7499C49.5204 80.7138 38.5501 74.4776 36.7812 68.9855C35.0123 63.4934 37.6236 59.0794 41.4787 59.7926C45.4855 60.5339 56.335 72.8631 56.335 72.8631L74.965 68.9743Z" fill="#D6DBEF"/>
<path d="M38.5836 47.0234H32.7798V58.9792H38.5836V47.0234Z" fill="#FAC8D4"/>
<path opacity="0.21" d="M38.5836 52.4202V46.959H32.7798V54.5486L38.5836 52.4202Z" fill="#F59FB3"/>
<path d="M46.4064 29.4589C46.4064 29.4589 48.108 39.6766 47.3807 44.7728C46.5945 50.2762 35.7535 54.926 30.6825 47.3617L28.4362 44.4022C28.4362 44.4022 24.0335 43.6132 23.9437 40.2129C23.8538 36.8126 27.1671 39.0898 27.1671 39.0898L27.5125 37.5567C28.1256 34.8362 29.7174 32.4361 31.9851 30.813C34.2527 29.1899 37.038 28.4572 39.8108 28.7541L46.4064 29.4589Z" fill="#FAC8D4"/>
<path fill-rule="evenodd" clip-rule="evenodd" d="M32.8623 42.8841L31.7195 44.0269L31.521 43.8283L32.6638 42.6855L32.8623 42.8841Z" fill="#F59FB3"/>
<path fill-rule="evenodd" clip-rule="evenodd" d="M34.0108 42.8841L32.868 44.0269L32.6694 43.8283L33.8122 42.6855L34.0108 42.8841Z" fill="#F59FB3"/>
<path fill-rule="evenodd" clip-rule="evenodd" d="M35.1621 42.8841L34.0193 44.0269L33.8208 43.8283L34.9636 42.6855L35.1621 42.8841Z" fill="#F59FB3"/>
<path fill-rule="evenodd" clip-rule="evenodd" d="M43.4283 42.8841L42.2855 44.0269L42.0869 43.8283L43.2297 42.6855L43.4283 42.8841Z" fill="#F59FB3"/>
<path fill-rule="evenodd" clip-rule="evenodd" d="M44.5796 42.8841L43.4368 44.0269L43.2383 43.8283L44.3811 42.6855L44.5796 42.8841Z" fill="#F59FB3"/>
<path fill-rule="evenodd" clip-rule="evenodd" d="M45.7305 42.8841L44.5877 44.0269L44.3892 43.8283L45.5319 42.6855L45.7305 42.8841Z" fill="#F59FB3"/>
<path d="M38.9237 37.4881L40.2575 42.9269C40.2649 42.9564 40.2653 42.9871 40.2588 43.0168C40.2523 43.0465 40.239 43.0743 40.22 43.0979C40.2009 43.1216 40.1766 43.1405 40.149 43.1532C40.1214 43.166 40.0913 43.1721 40.0609 43.1712L37.4496 43.1122C37.4201 43.1113 37.3912 43.1039 37.365 43.0905C37.3387 43.077 37.3158 43.058 37.2978 43.0346C37.2798 43.0112 37.2672 42.9842 37.2609 42.9553C37.2546 42.9265 37.2548 42.8967 37.2615 42.8679L38.5391 37.4881C38.5484 37.444 38.5725 37.4044 38.6076 37.376C38.6426 37.3475 38.6863 37.332 38.7314 37.332C38.7765 37.332 38.8202 37.3475 38.8553 37.376C38.8903 37.4044 38.9145 37.444 38.9237 37.4881Z" fill="#F59FB3"/>
<path d="M35.0264 39.1912C35.0264 39.6405 34.8215 40.0027 34.5716 40.0027C34.3217 40.0027 34.1167 39.6405 34.1167 39.1912C34.1167 38.742 34.3189 38.377 34.5716 38.377C34.8243 38.377 35.0264 38.7476 35.0264 39.1912Z" fill="#1B1321"/>
<path fill-rule="evenodd" clip-rule="evenodd" d="M30.1476 38.7622C29.6749 40.7777 30.9256 42.7948 32.9411 43.2675C34.9566 43.7403 36.9737 42.4896 37.4465 40.4741C37.9192 38.4586 36.6685 36.4414 34.653 35.9687C32.6375 35.496 30.6204 36.7466 30.1476 38.7622ZM32.8129 43.8143C30.4954 43.2707 29.0573 40.9514 29.6009 38.6339C30.1445 36.3164 32.4638 34.8784 34.7813 35.422C37.0987 35.9655 38.5368 38.2848 37.9932 40.6023C37.4497 42.9198 35.1303 44.3578 32.8129 43.8143Z" fill="#6476C0"/>
<path d="M42.436 39.1912C42.436 39.6405 42.641 40.0027 42.8909 40.0027C43.1408 40.0027 43.3458 39.6405 43.3458 39.1912C43.3458 38.742 43.1436 38.377 42.8909 38.377C42.6382 38.377 42.436 38.7476 42.436 39.1912Z" fill="#1B1321"/>
<path fill-rule="evenodd" clip-rule="evenodd" d="M40.23 38.1233C39.4009 40.0202 40.2665 42.2302 42.1634 43.0593C44.0604 43.8884 46.2703 43.0228 47.0994 41.1259C47.9286 39.229 47.0629 37.0191 45.166 36.1899C43.2691 35.3608 41.0592 36.2264 40.23 38.1233ZM41.9385 43.5739C39.7574 42.6205 38.7621 40.0795 39.7155 37.8984C40.6688 35.7173 43.2098 34.722 45.3909 35.6754C47.572 36.6287 48.5673 39.1697 47.614 41.3508C46.6606 43.5319 44.1196 44.5272 41.9385 43.5739Z" fill="#6476C0"/>
<path fill-rule="evenodd" clip-rule="evenodd" d="M27.3569 37.6309L29.9822 37.7769L29.951 38.3376L27.3257 38.1916L27.3569 37.6309Z" fill="#6476C0"/>
<path fill-rule="evenodd" clip-rule="evenodd" d="M39.6341 39.8995H37.8286V39.3379H39.6341V39.8995Z" fill="#6476C0"/>
<path d="M35.9979 44.7617C35.872 44.7615 35.7478 44.7914 35.6358 44.849C35.5238 44.9066 35.4272 44.9901 35.3541 45.0926C35.281 45.1951 35.2335 45.3137 35.2156 45.4383C35.1976 45.5629 35.2098 45.6901 35.251 45.809C35.5012 46.5411 35.9741 47.1767 36.6035 47.6266C37.2328 48.0766 37.9871 48.3186 38.7608 48.3186C39.5345 48.3186 40.2888 48.0766 40.9181 47.6266C41.5475 47.1767 42.0204 46.5411 42.2706 45.809C42.3112 45.6901 42.3228 45.5631 42.3046 45.4388C42.2864 45.3144 42.2388 45.1961 42.1658 45.0938C42.0928 44.9914 41.9965 44.9079 41.8849 44.8502C41.7732 44.7925 41.6494 44.7621 41.5237 44.7617H35.9979Z" fill="#F59FB3"/>
<path d="M34.8774 29.3271C34.8774 29.3271 42.248 27.1819 44.6684 34.7827L46.954 30.7451L42.9865 25.3652C42.9865 25.3652 36.3909 25.8903 34.8774 29.3271Z" fill="#2F3676"/>
<path d="M34.8776 29.3281C34.8776 29.3281 33.3557 21.4297 42.1134 21.4297C49.5149 21.4297 48.4058 28.6936 49.5907 29.2916C50.7756 29.8897 56.6861 33.1356 54.5493 40.0878C52.8787 45.5125 56.731 47.551 58.5982 48.6292C64.7025 52.1587 62.1558 63.011 53.7575 63.5782C46.0444 64.092 46.4712 54.3937 47.1675 50.2606C47.8639 46.1274 43.7082 42.3649 43.7082 36.1456C43.7082 29.9262 41.4901 22.3226 34.8776 29.3281Z" fill="#4B4D8F"/>
<path d="M34.8773 29.3282C34.8773 29.3282 30.7188 38.5464 27.1641 39.0967L26.3892 36.9571C26.3892 36.9571 28.9471 28.1798 34.8773 29.3282Z" fill="#464785"/>
<path d="M38.5841 57.0938C38.5841 57.0938 38.6543 58.4725 36.6186 58.3293C34.6532 58.1889 32.7972 55.9707 32.7972 55.9707C32.7972 55.9707 23.7587 59.3907 22.7535 64.018C21.7483 68.6453 25.3676 86.3487 25.3676 86.3487H43.2058L42.7706 74.1767C42.7706 74.1767 46.7943 71.1583 44.0791 66.9353L45.0197 61.8054C45.0197 61.8054 42.7088 57.998 38.5841 57.0938Z" fill="#FBFCFC"/>
<path d="M92.8451 44.7617H66.0864V70.0491H92.8451V44.7617Z" fill="#F0B96D"/>
<path d="M78.2191 61.8953C78.0843 60.9463 72.011 62.1508 72.011 62.1508C72.011 62.1508 77.9608 60.0899 77.6267 59.489C77.2925 58.8881 69.8153 60.8677 69.8153 60.8677L66.8052 61.5865C67.3949 59.8512 67.8498 58.0907 67.2657 58.0879C66.4767 58.0879 64.9015 60.8592 63.9862 62.6029L61.271 64.8492L63.5032 68.5836L65.8562 67.4998H70.944C70.944 67.4998 76.4923 67.1207 76.4923 66.6181C76.4923 66.1155 72.5613 65.6747 72.5613 65.6747C72.5613 65.6747 77.7839 65.2254 77.7671 64.428C77.7502 63.5154 72.2918 64.0854 72.2918 64.0854C72.2918 64.0854 78.3539 62.8472 78.2191 61.8953Z" fill="#FCCDBB"/>
<path d="M62.5008 63.5929L64.7106 68.0854C64.7106 68.0854 49.6297 80.6364 44.7553 80.4708C39.8809 80.3051 27.9644 76.1214 25.2408 71.0392C22.5172 65.9571 24.3255 61.5572 28.2171 61.1557C32.1088 60.7541 45.1709 71.3565 45.1709 71.3565L62.5008 63.5929Z" fill="#E2E6F3"/>
<path d="M82.8269 44.7617H76.105V57.4054H82.8269V44.7617Z" fill="#F0D1A6"/>
<path opacity="0.44" fill-rule="evenodd" clip-rule="evenodd" d="M42.9672 24.0003C41.1742 23.1641 39.0483 23.1955 37.4315 24.5959C37.3729 24.6466 37.2843 24.6403 37.2335 24.5817C37.1827 24.5231 37.1891 24.4344 37.2477 24.3836C38.9666 22.8948 41.2167 22.8741 43.0859 23.7458C44.953 24.6166 46.4646 26.3879 46.7112 28.5196C46.8453 29.6738 46.8967 30.8687 46.9482 32.0688C46.9698 32.5708 46.9914 33.0737 47.0191 33.5748C47.1133 35.2797 47.2784 36.9738 47.7483 38.5879C48.2095 40.17 49.0123 41.6017 49.8243 43.0498C49.8532 43.1014 49.8821 43.1529 49.911 43.2045C50.7493 44.7005 51.5841 46.2193 52.0175 47.9202C52.4483 49.6112 52.6597 51.3214 52.8388 53.0252C52.8691 53.3135 52.8985 53.6016 52.9279 53.8894C53.0722 55.3048 53.2158 56.7127 53.4656 58.1085C53.4661 58.1109 53.4664 58.1132 53.4667 58.1155C53.5438 58.7189 53.7551 59.2974 54.0851 59.8084C54.2451 60.0494 54.4662 60.2436 54.7258 60.3711C54.9857 60.4988 55.2749 60.5551 55.5637 60.5343C55.641 60.5288 55.7082 60.587 55.7138 60.6643C55.7193 60.7416 55.6611 60.8088 55.5838 60.8144C55.2454 60.8388 54.9066 60.7728 54.602 60.6231C54.2975 60.4735 54.0382 60.2457 53.8506 59.963L53.8497 59.9616C53.4973 59.4161 53.2714 58.7987 53.1886 58.1546C52.9371 56.7484 52.7924 55.3292 52.6482 53.9148C52.6189 53.6278 52.5897 53.341 52.5596 53.0545C52.3807 51.3524 52.1709 49.6595 51.7454 47.9895C51.3224 46.3294 50.5061 44.841 49.666 43.3418C49.6354 43.287 49.6046 43.2322 49.5739 43.1774C48.7661 41.7369 47.9491 40.28 47.4787 38.6665L47.4787 38.6665C46.9996 37.0207 46.8333 35.3005 46.7387 33.5903C46.7106 33.0813 46.6888 32.5739 46.6671 32.0696C46.6158 30.8741 46.5652 29.6955 46.4323 28.552L46.4323 28.552C46.1988 26.5337 44.7622 24.8374 42.9672 24.0003Z" fill="#6476C0"/>
<path fill-rule="evenodd" clip-rule="evenodd" d="M26.5248 40.5643C26.1296 40.2086 25.6254 39.9976 25.0947 39.9658L25.1115 39.6855C25.7057 39.7211 26.2702 39.9574 26.7126 40.3556C27.155 40.7538 27.4492 41.2905 27.5468 41.8776L27.2699 41.9237C27.1826 41.3993 26.9199 40.92 26.5248 40.5643Z" fill="#F59FB3"/>
<path fill-rule="evenodd" clip-rule="evenodd" d="M26.5034 42.4291C26.5033 42.429 26.5033 42.4289 26.3891 42.5106C26.2749 42.5923 26.2748 42.5922 26.2748 42.5921L26.2746 42.5919L26.2743 42.5915L26.2735 42.5904L26.2715 42.5873C26.2698 42.585 26.2678 42.5818 26.2653 42.578C26.2603 42.5703 26.2538 42.5596 26.2461 42.5461C26.2306 42.519 26.2105 42.4802 26.1893 42.4299C26.1469 42.3292 26.1004 42.1828 26.0783 41.9926C26.0341 41.6103 26.09 41.061 26.4616 40.3613L26.7096 40.493C26.3624 41.1468 26.3201 41.6392 26.3573 41.9603C26.3759 42.1217 26.415 42.2424 26.4481 42.3209C26.4646 42.3602 26.4797 42.389 26.49 42.4071C26.4952 42.4161 26.4991 42.4225 26.5015 42.4262L26.5037 42.4296C26.5039 42.4298 26.5039 42.4299 26.5039 42.4298L26.5037 42.4295L26.5035 42.4292L26.5034 42.4291Z" fill="#F59FB3"/>
<path opacity="0.44" fill-rule="evenodd" clip-rule="evenodd" d="M50.3802 32.7737C50.3545 32.8023 50.3172 32.8203 50.2756 32.8203C50.1981 32.8203 50.1353 32.7575 50.1353 32.6799V32.6322C50.1353 32.5764 50.1683 32.5259 50.2194 32.5036C50.3529 32.4452 50.477 32.5006 50.5534 32.5504C50.6252 32.5972 50.6883 32.6607 50.727 32.6996C50.7306 32.7032 50.734 32.7067 50.7371 32.7098L50.7389 32.7116L50.7389 32.7116C51.0362 33.0198 51.2957 33.3625 51.5116 33.7323L51.5137 33.7361C51.9201 34.4846 52.1639 35.3103 52.2293 36.1594C52.2845 36.6344 52.3084 37.1111 52.3274 37.5842C52.331 37.6743 52.3344 37.7642 52.3378 37.854C52.3524 38.2378 52.3669 38.6186 52.3952 38.9984L52.3952 38.999C52.4343 39.5572 52.4957 40.1381 52.5739 40.7052C52.5742 40.7071 52.5744 40.709 52.5746 40.7109C52.6131 41.1082 52.6795 41.5023 52.7735 41.8903C52.7917 41.9657 52.7454 42.0415 52.6701 42.0598C52.5947 42.078 52.5188 42.0318 52.5006 41.9564C52.4037 41.5565 52.3352 41.1503 52.2954 40.7408C52.2166 40.1689 52.1546 39.5828 52.1151 39.0189C52.0865 38.6337 52.0718 38.2467 52.0571 37.8626C52.0537 37.7734 52.0504 37.6843 52.0468 37.5954C52.0279 37.1224 52.0042 36.6538 51.9501 36.1891C51.95 36.1882 51.9499 36.1873 51.9498 36.1864C51.9497 36.1855 51.9496 36.1845 51.9495 36.1836C51.8875 35.3737 51.6553 34.586 51.268 33.872C51.0638 33.5226 50.8186 33.1988 50.5377 32.9075C50.5353 32.9051 50.5329 32.9027 50.5305 32.9003C50.4887 32.8584 50.4457 32.8154 50.4001 32.7856C50.3927 32.7808 50.3861 32.7769 50.3802 32.7737Z" fill="#6476C0"/>
<path opacity="0.44" fill-rule="evenodd" clip-rule="evenodd" d="M22.9875 43.4375C23.0646 43.4382 23.1266 43.5009 23.1266 43.5779V43.7042C23.1266 43.7143 23.1255 43.7242 23.1235 43.7337C23.0435 47.5195 22.6606 50.7842 20.4206 54.0629C19.8936 54.8342 19.245 55.4737 18.6034 56.1012L18.5626 56.1411C17.9321 56.7578 17.3109 57.3653 16.7971 58.0887C15.7375 59.5804 14.8829 61.2747 14.6316 63.0807C14.3732 64.9611 14.9417 66.8997 15.9375 68.5364C17.0302 70.3088 18.4802 71.834 20.1951 73.0149C20.5045 73.1978 20.8512 73.3085 21.2094 73.3387C21.2867 73.3452 21.344 73.4131 21.3375 73.4904C21.331 73.5676 21.2631 73.625 21.1858 73.6185C20.7838 73.5846 20.3946 73.4599 20.0477 73.2539C20.045 73.2523 20.0424 73.2506 20.0398 73.2489C18.291 72.0454 16.8124 70.4905 15.6983 68.6835L15.6979 68.6828C14.6778 67.0063 14.084 65.0029 14.3534 63.0424C14.6131 61.1757 15.4938 59.4387 16.5682 57.9261C17.0968 57.1818 17.7338 56.5589 18.3593 55.9472C18.3753 55.9316 18.3912 55.916 18.4071 55.9005C19.0508 55.2708 19.6797 54.6495 20.1888 53.9045C22.4112 50.6515 22.773 47.4121 22.8458 43.5752C22.8473 43.4982 22.9105 43.4368 22.9875 43.4375Z" fill="#6476C0"/>
<path opacity="0.44" fill-rule="evenodd" clip-rule="evenodd" d="M31.4848 29.4531C31.5621 29.4528 31.6252 29.515 31.6259 29.5922C31.6262 29.6323 31.6262 29.6723 31.6259 29.7123V29.7227C31.6259 29.7251 31.6258 29.7275 31.6257 29.7299C31.5897 32.8126 29.4136 35.6701 27.438 37.7648C27.4379 37.7649 27.4377 37.765 27.4376 37.7652L27.3355 37.6689L27.4384 37.7644C27.4382 37.7645 27.4381 37.7646 27.438 37.7648C27.4316 37.7717 27.4238 37.7804 27.4149 37.7904C27.3827 37.8262 27.336 37.8784 27.2875 37.9214C27.2282 37.9739 27.1324 38.0451 27.0154 38.0451C26.9379 38.0451 26.875 37.9823 26.875 37.9047C26.875 37.8272 26.9379 37.7643 27.0154 37.7643C27.022 37.7643 27.0497 37.7569 27.1013 37.7112C27.1364 37.68 27.1666 37.6465 27.197 37.6125C27.2087 37.5995 27.2205 37.5864 27.2326 37.5733L27.2334 37.5725L27.2334 37.5725C29.2121 35.4746 31.3177 32.6815 31.3451 29.711V29.5935C31.3451 29.5162 31.4075 29.4535 31.4848 29.4531Z" fill="#6476C0"/>
<path opacity="0.44" fill-rule="evenodd" clip-rule="evenodd" d="M45.5754 50.4922C45.6529 50.4922 45.7158 50.555 45.7158 50.6326C45.7158 51.234 45.7028 51.8452 45.6898 52.4622C45.6688 53.4522 45.6475 54.4572 45.6789 55.4615C45.7295 57.0858 45.9182 58.6822 46.465 60.147C46.4663 60.1503 46.4674 60.1537 46.4684 60.1571C46.5702 60.5097 46.7175 60.8476 46.9066 61.162C46.9352 61.2042 46.9614 61.2529 46.9855 61.3009C47.0112 61.2692 47.0505 61.249 47.0944 61.249C47.172 61.249 47.2348 61.3119 47.2348 61.3894V61.7404C47.2348 61.7944 47.2039 61.8435 47.1553 61.8669C47.1066 61.8903 47.0489 61.8837 47.0067 61.85C46.91 61.7726 46.848 61.6591 46.802 61.5662C46.7879 61.5378 46.7752 61.5113 46.7632 61.4863C46.7313 61.4196 46.705 61.3644 46.6726 61.3171C46.671 61.3149 46.6695 61.3126 46.6681 61.3103C46.4663 60.9754 46.309 60.6157 46.2001 60.2402C45.6393 58.7356 45.4493 57.1062 45.3982 55.4703C45.3667 54.4613 45.3883 53.4399 45.4093 52.4426C45.4222 51.8272 45.435 51.221 45.435 50.6326C45.435 50.555 45.4979 50.4922 45.5754 50.4922Z" fill="#6476C0"/>
<path d="M90.0179 61.6855H83.2959V66.2399H90.0179V61.6855Z" fill="#FBFCFC"/>
<path d="M88.5437 63.1797H84.77V64.4348H88.5437V63.1797Z" fill="#A1ACE0"/>
<path opacity="0.44" fill-rule="evenodd" clip-rule="evenodd" d="M27.8494 48.9766C27.9269 48.9766 27.9897 49.0396 27.9896 49.1171C27.9894 49.3495 28.0147 49.5813 28.0649 49.8082L28.0652 49.8096L28.0652 49.8096C28.2419 50.6482 28.3692 51.4964 28.4465 52.3499C28.5406 53.0461 28.551 53.751 28.4774 54.4497C28.4772 54.4513 28.477 54.453 28.4768 54.4546C28.4167 54.8819 28.2727 55.2931 28.0532 55.6646C27.8342 56.0353 27.5443 56.3593 27.2 56.6178C26.8965 56.8646 26.5904 57.1074 26.285 57.3497C25.1933 58.2157 24.1092 59.0757 23.1712 60.092C22.5639 60.7657 22.076 61.5381 21.7287 62.376L21.7275 62.3787L21.7275 62.3787C21.6975 62.447 21.6564 62.5237 21.6158 62.5993L21.6127 62.6051C21.57 62.6848 21.5267 62.7659 21.4889 62.8478C21.41 63.0187 21.3718 63.1604 21.3938 63.2647C21.4098 63.3406 21.3613 63.4151 21.2854 63.4311C21.2095 63.4471 21.1351 63.3986 21.1191 63.3227C21.0765 63.1211 21.1534 62.9047 21.2339 62.7302C21.2758 62.6395 21.3231 62.5511 21.3653 62.4725C21.4082 62.3923 21.4445 62.3245 21.4699 62.267C21.8295 61.3999 22.3346 60.6005 22.9632 59.9033L22.9643 59.9021L22.9643 59.9021C23.9187 58.868 25.0257 57.99 26.1203 57.1217C26.424 56.8809 26.7268 56.6407 27.025 56.3983C27.0264 56.3971 27.0279 56.396 27.0294 56.3949C27.345 56.1582 27.6108 55.8615 27.8115 55.5218C28.0118 55.1828 28.1433 54.8077 28.1984 54.4178C28.2695 53.7413 28.2592 53.0586 28.1678 52.3845C28.1675 52.3824 28.1673 52.3803 28.1671 52.3783C28.0909 51.5349 27.9652 50.6968 27.7906 49.8682C27.736 49.6215 27.7086 49.3695 27.7088 49.1168C27.7089 49.0393 27.7718 48.9765 27.8494 48.9766Z" fill="#6476C0"/>
<path d="M112.169 86.043H10.7637V87.3205H112.169V86.043Z" fill="#8A95D4"/>
<path d="M112.169 87.3203H10.7637V95.6905H112.169V87.3203Z" fill="#E2E6F3"/>
<path d="M57.6518 86.043H10.7637V87.3205H57.6518V86.043Z" fill="#6476C0"/>
<path d="M57.6517 87.8659C58.3309 87.8659 58.8815 87.3153 58.8815 86.6361C58.8815 85.9569 58.3309 85.4062 57.6517 85.4062C56.9725 85.4062 56.4219 85.9569 56.4219 86.6361C56.4219 87.3153 56.9725 87.8659 57.6517 87.8659Z" fill="#6476C0"/>
<path d="M19.4204 89.7578H18.4854V92.897H19.4204V89.7578Z" fill="#6476C0"/>
<path d="M20.9985 89.7578H20.0635V92.897H20.9985V89.7578Z" fill="#6476C0"/>
<path d="M23.0899 89.7832H21.9331V92.8718H23.0899L23.9828 91.3275L23.0899 89.7832Z" fill="#6476C0"/>
<path d="M16.1943 89.7832H17.3539V92.8718H16.1943L15.3042 91.3275L16.1943 89.7832Z" fill="#6476C0"/>
<path d="M105.394 90.9128C105.601 90.9465 105.759 91.024 105.869 91.1453C105.979 91.2644 106.034 91.4126 106.034 91.5901C106.034 91.7271 105.999 91.854 105.927 91.9708C105.855 92.0854 105.745 92.1775 105.596 92.2471C105.45 92.3167 105.271 92.3516 105.057 92.3516C104.891 92.3516 104.727 92.3302 104.565 92.2875C104.406 92.2426 104.27 92.1797 104.158 92.0989L104.37 91.681C104.46 91.7484 104.563 91.8012 104.68 91.8394C104.799 91.8754 104.92 91.8933 105.044 91.8933C105.181 91.8933 105.289 91.8675 105.367 91.8158C105.446 91.7619 105.485 91.6867 105.485 91.5901C105.485 91.3969 105.338 91.3003 105.044 91.3003H104.795V90.9398L105.28 90.3906H104.276V89.9525H105.927V90.3063L105.394 90.9128Z" fill="#A1ACE0"/>
<path d="M106.596 91.1285C106.504 91.1285 106.427 91.097 106.364 91.0341C106.301 90.9712 106.27 90.8926 106.27 90.7983C106.27 90.7017 106.301 90.6242 106.364 90.5658C106.427 90.5051 106.504 90.4748 106.596 90.4748C106.689 90.4748 106.766 90.5051 106.829 90.5658C106.892 90.6242 106.923 90.7017 106.923 90.7983C106.923 90.8926 106.892 90.9712 106.829 91.0341C106.766 91.097 106.689 91.1285 106.596 91.1285ZM106.596 92.3381C106.504 92.3381 106.427 92.3066 106.364 92.2437C106.301 92.1808 106.27 92.1022 106.27 92.0079C106.27 91.9113 106.301 91.8338 106.364 91.7754C106.427 91.7147 106.504 91.6844 106.596 91.6844C106.689 91.6844 106.766 91.7147 106.829 91.7754C106.892 91.8338 106.923 91.9113 106.923 92.0079C106.923 92.1022 106.892 92.1808 106.829 92.2437C106.766 92.3066 106.689 92.3381 106.596 92.3381Z" fill="#A1ACE0"/>
<path d="M107.977 90.8387C108.309 90.8387 108.554 90.905 108.712 91.0375C108.871 91.17 108.951 91.3475 108.951 91.5699C108.951 91.7136 108.915 91.845 108.843 91.9641C108.771 92.0809 108.661 92.1752 108.513 92.2471C108.367 92.3167 108.186 92.3516 107.97 92.3516C107.804 92.3516 107.64 92.3302 107.478 92.2875C107.319 92.2426 107.183 92.1797 107.071 92.0989L107.286 91.681C107.376 91.7484 107.479 91.8012 107.596 91.8394C107.713 91.8754 107.833 91.8933 107.957 91.8933C108.094 91.8933 108.202 91.8664 108.28 91.8125C108.359 91.7585 108.398 91.6833 108.398 91.5867C108.398 91.4856 108.357 91.4092 108.273 91.3576C108.193 91.3059 108.051 91.2801 107.849 91.2801H107.246L107.367 89.9525H108.806V90.3906H107.822L107.785 90.8387H107.977Z" fill="#A1ACE0"/>
<path d="M110.001 89.9121C110.331 89.9121 110.59 90.0132 110.776 90.2154C110.962 90.4153 111.056 90.7039 111.056 91.0813C111.056 91.3486 111.005 91.5777 110.904 91.7687C110.805 91.9596 110.665 92.1045 110.483 92.2033C110.301 92.3021 110.091 92.3516 109.853 92.3516C109.727 92.3516 109.607 92.3381 109.492 92.3111C109.378 92.2819 109.28 92.2415 109.199 92.1898L109.401 91.7889C109.516 91.8675 109.663 91.9068 109.843 91.9068C110.043 91.9068 110.201 91.8484 110.318 91.7316C110.435 91.6125 110.498 91.4418 110.506 91.2194C110.365 91.361 110.17 91.4317 109.92 91.4317C109.77 91.4317 109.633 91.4014 109.509 91.3407C109.386 91.2801 109.288 91.1947 109.216 91.0847C109.144 90.9723 109.108 90.8432 109.108 90.6972C109.108 90.5399 109.148 90.4018 109.226 90.2827C109.305 90.1637 109.411 90.0727 109.546 90.0098C109.683 89.9447 109.835 89.9121 110.001 89.9121ZM110.042 91.024C110.161 91.024 110.257 90.9914 110.331 90.9263C110.408 90.8589 110.446 90.7736 110.446 90.6702C110.446 90.5669 110.409 90.4827 110.335 90.4175C110.263 90.3524 110.163 90.3198 110.035 90.3198C109.918 90.3198 109.823 90.3513 109.748 90.4142C109.676 90.477 109.641 90.5624 109.641 90.6702C109.641 90.778 109.676 90.8645 109.748 90.9297C109.823 90.9926 109.92 91.024 110.042 91.024Z" fill="#A1ACE0"/>
<path d="M94.8054 32.2402H93.6514V34.3967H94.8054V32.2402Z" fill="#705F7D"/>
<path d="M96.1276 51.791H91.6182V56.3004H96.1276V51.791Z" fill="#705F7D"/>
<path d="M86.6593 36.7832H103.324C104.1 36.7832 104.844 37.0915 105.393 37.6401C105.941 38.1888 106.25 38.933 106.25 39.709V49.587C106.25 50.004 106.084 50.4039 105.789 50.6988C105.494 50.9937 105.094 51.1593 104.677 51.1593H85.3087C84.8917 51.1593 84.4918 50.9937 84.1969 50.6988C83.902 50.4039 83.7363 50.004 83.7363 49.587V39.7146C83.7356 39.3301 83.8106 38.9493 83.9572 38.5939C84.1037 38.2384 84.3188 37.9154 84.5903 37.6431C84.8618 37.3709 85.1842 37.1548 85.5392 37.0073C85.8942 36.8597 86.2748 36.7836 86.6593 36.7832Z" fill="#7D7484"/>
<path d="M96.7654 40.4102H86.4718C86.3741 40.4102 86.2949 40.4894 86.2949 40.5871V48.2974C86.2949 48.3951 86.3741 48.4743 86.4718 48.4743H96.7654C96.8631 48.4743 96.9422 48.3951 96.9422 48.2974V40.5871C96.9422 40.4894 96.8631 40.4102 96.7654 40.4102Z" fill="#E1D0ED"/>
<path d="M100.249 40.4102H98.8174V41.1711H100.249V40.4102Z" fill="#E1D0ED"/>
<path d="M102.476 40.4102H101.044V41.1711H102.476V40.4102Z" fill="#E1D0ED"/>
<path d="M104.703 40.4102H103.271V41.1711H104.703V40.4102Z" fill="#E1D0ED"/>
<path d="M100.249 41.752H98.8174V42.5129H100.249V41.752Z" fill="#E1D0ED"/>
<path d="M102.476 41.752H101.044V42.5129H102.476V41.752Z" fill="#E1D0ED"/>
<path d="M104.703 41.752H103.271V42.5129H104.703V41.752Z" fill="#E1D0ED"/>
<path d="M101.443 48.5172C102.812 48.5172 103.922 47.4072 103.922 46.0379C103.922 44.6686 102.812 43.5586 101.443 43.5586C100.073 43.5586 98.9634 44.6686 98.9634 46.0379C98.9634 47.4072 100.073 48.5172 101.443 48.5172Z" fill="#67606D"/>
<g style="mix-blend-mode:multiply" opacity="0.35">
<path d="M101.443 43.5605C101.301 43.5607 101.159 43.5739 101.019 43.5999C101.595 43.6979 102.117 43.9965 102.494 44.4428C102.871 44.8892 103.078 45.4544 103.078 46.0385C103.078 46.6225 102.871 47.1878 102.494 47.6341C102.117 48.0804 101.595 48.379 101.019 48.4771C101.159 48.5031 101.301 48.5162 101.443 48.5164C102.086 48.4947 102.695 48.2242 103.142 47.7619C103.589 47.2995 103.839 46.6816 103.839 46.0385C103.839 45.3954 103.589 44.7774 103.142 44.3151C102.695 43.8527 102.086 43.5822 101.443 43.5605Z" fill="#67606D"/>
</g>
<path d="M97.2454 37.2606H91.1748L91.947 34.4331C91.9663 34.3536 92.0116 34.2829 92.0757 34.232C92.1398 34.1812 92.2189 34.1531 92.3007 34.1523H96.1166C96.1984 34.1531 96.2776 34.1812 96.3417 34.232C96.4057 34.2829 96.451 34.3536 96.4704 34.4331L97.2454 37.2606Z" fill="#7D7484"/>
<path d="M96.0237 36.6386H92.3735L92.8368 34.9539C92.8501 34.9074 92.8781 34.8664 92.9165 34.8371C92.955 34.8077 93.0019 34.7916 93.0502 34.791H95.3386C95.3872 34.7906 95.4346 34.8064 95.4732 34.8359C95.5118 34.8654 95.5396 34.9069 95.552 34.9539L96.0237 36.6386Z" fill="#67606D"/>
<path d="M98.1663 51.1582H89.8467V52.4189H98.1663V51.1582Z" fill="#E1D0ED"/>
<path d="M94.2296 33.3167C96.0176 33.3167 97.4671 31.8672 97.4671 30.0792C97.4671 28.2912 96.0176 26.8418 94.2296 26.8418C92.4416 26.8418 90.9922 28.2912 90.9922 30.0792C90.9922 31.8672 92.4416 33.3167 94.2296 33.3167Z" fill="#B7AAC1"/>
<path d="M94.2296 31.9778C95.2779 31.9778 96.1277 31.128 96.1277 30.0797C96.1277 29.0314 95.2779 28.1816 94.2296 28.1816C93.1813 28.1816 92.3315 29.0314 92.3315 30.0797C92.3315 31.128 93.1813 31.9778 94.2296 31.9778Z" fill="#D2C3DD"/>
<path fill-rule="evenodd" clip-rule="evenodd" d="M78.9399 114.585L91.9655 56.6426L92.7874 56.8273L79.7618 114.77L78.9399 114.585Z" fill="#705F7D"/>
<path fill-rule="evenodd" clip-rule="evenodd" d="M108.251 114.77L95.2251 56.8273L96.0469 56.6426L109.073 114.585L108.251 114.77Z" fill="#705F7D"/>
<path fill-rule="evenodd" clip-rule="evenodd" d="M93.4941 115.999V56.7344H94.3365V115.999H93.4941Z" fill="#705F7D"/>
<path d="M98.1663 55.1367H89.8467V58.332H98.1663V55.1367Z" fill="#E1D0ED"/>
</svg>
