<svg width="26" height="26" viewBox="0 0 26 26" fill="none" xmlns="http://www.w3.org/2000/svg">
<path d="M10.7222 22C10.3287 22 9.99907 21.856 9.73333 21.568C9.46667 21.281 9.33333 20.925 9.33333 20.5C9.33333 20.075 9.46667 19.719 9.73333 19.432C9.99907 19.144 10.3287 19 10.7222 19H24.6111C25.0046 19 25.3343 19.144 25.6 19.432C25.8667 19.719 26 20.075 26 20.5C26 20.925 25.8667 21.281 25.6 21.568C25.3343 21.856 25.0046 22 24.6111 22H10.7222ZM7.25 14.5C6.85648 14.5 6.52685 14.356 6.26111 14.068C5.99444 13.781 5.86111 13.425 5.86111 13C5.86111 12.575 5.99444 12.2185 6.26111 11.9305C6.52685 11.6435 6.85648 11.5 7.25 11.5H24.6111C25.0046 11.5 25.3343 11.6435 25.6 11.9305C25.8667 12.2185 26 12.575 26 13C26 13.425 25.8667 13.781 25.6 14.068C25.3343 14.356 25.0046 14.5 24.6111 14.5H7.25ZM2.38889 7C1.99537 7 1.66574 6.8565 1.4 6.5695C1.13333 6.2815 1 5.925 1 5.5C1 5.075 1.13333 4.7185 1.4 4.4305C1.66574 4.1435 1.99537 4 2.38889 4H24.6111C25.0046 4 25.3343 4.1435 25.6 4.4305C25.8667 4.7185 26 5.075 26 5.5C26 5.925 25.8667 6.2815 25.6 6.5695C25.3343 6.8565 25.0046 7 24.6111 7H2.38889Z" fill="white"/>
</svg>
