<svg width="26" height="24" viewBox="0 0 26 24" fill="none" xmlns="http://www.w3.org/2000/svg">
<path d="M2 5.57143C2 4.88944 2.27656 4.23539 2.76884 3.75315C3.26113 3.27092 3.92881 3 4.625 3H20.375C21.0712 3 21.7389 3.27092 22.2312 3.75315C22.7234 4.23539 23 4.88944 23 5.57143V18.4286C23 19.1106 22.7234 19.7646 22.2312 20.2468C21.7389 20.7291 21.0712 21 20.375 21H4.625C3.92881 21 3.26113 20.7291 2.76884 20.2468C2.27656 19.7646 2 19.1106 2 18.4286V5.57143V5.57143ZM3.3125 17.1429V18.4286C3.3125 18.7696 3.45078 19.0966 3.69692 19.3377C3.94306 19.5788 4.2769 19.7143 4.625 19.7143H20.375C20.7231 19.7143 21.0569 19.5788 21.3031 19.3377C21.5492 19.0966 21.6875 18.7696 21.6875 18.4286V13.9286L16.7302 11.4253C16.6071 11.3649 16.4677 11.3439 16.3318 11.3654C16.1959 11.3869 16.0704 11.4496 15.9729 11.5449L11.1035 16.3149L7.61225 14.0366C7.4862 13.9544 7.335 13.9174 7.18429 13.9319C7.03359 13.9464 6.89265 14.0116 6.78537 14.1163L3.3125 17.1429ZM9.875 8.78571C9.875 8.27423 9.66758 7.78369 9.29837 7.42201C8.92915 7.06033 8.42839 6.85714 7.90625 6.85714C7.3841 6.85714 6.88335 7.06033 6.51413 7.42201C6.14492 7.78369 5.9375 8.27423 5.9375 8.78571C5.9375 9.2972 6.14492 9.78774 6.51413 10.1494C6.88335 10.5111 7.3841 10.7143 7.90625 10.7143C8.42839 10.7143 8.92915 10.5111 9.29837 10.1494C9.66758 9.78774 9.875 9.2972 9.875 8.78571Z" fill="#FDB515"/>
</svg>
