<svg width="3" height="8" viewBox="0 0 3 8" fill="none" xmlns="http://www.w3.org/2000/svg">
<path d="M2.1659 2.71652L0.124744 2.96899L0.0516548 3.30328L0.452755 3.37629C0.714808 3.43787 0.766505 3.53112 0.70946 3.78887L0.0516548 6.83967C-0.121264 7.62877 0.145245 8 0.771853 8C1.25763 8 1.82185 7.77832 2.07766 7.47394L2.1561 7.10798C1.97783 7.26281 1.71756 7.32439 1.54464 7.32439C1.29952 7.32439 1.21039 7.15461 1.27367 6.85551L2.1659 2.71652ZM2.22829 0.879701C2.22829 1.11301 2.13439 1.33677 1.96723 1.50174C1.80007 1.66672 1.57336 1.7594 1.33696 1.7594C1.10056 1.7594 0.873848 1.66672 0.706691 1.50174C0.539533 1.33677 0.445625 1.11301 0.445625 0.879701C0.445625 0.64639 0.539533 0.422634 0.706691 0.257658C0.873848 0.0926825 1.10056 0 1.33696 0C1.57336 0 1.80007 0.0926825 1.96723 0.257658C2.13439 0.422634 2.22829 0.64639 2.22829 0.879701Z" fill="#828282"/>
</svg>
