<svg width="24" height="24" viewBox="0 0 24 24" fill="none" xmlns="http://www.w3.org/2000/svg">
<defs>
<linearGradient id="paint0_linear_458_1453" x1="21.9999" y1="11.9442" x2="1.99994" y2="11.9442" gradientUnits="userSpaceOnUse">
<stop stop-color="#FF2252"/>
<stop offset="1" stop-color="#FC7B04"/>
</linearGradient>
</defs>
<path d="M7.79994 1.99951H16.1999C19.3999 1.99951 21.9999 4.59951 21.9999 7.79951V16.1995C21.9999 17.7378 21.3889 19.213 20.3012 20.3007C19.2134 21.3884 17.7382 21.9995 16.1999 21.9995H7.79994C4.59994 21.9995 1.99994 19.3995 1.99994 16.1995V7.79951C1.99994 6.26126 2.61101 4.786 3.69872 3.69829C4.78643 2.61058 6.26168 1.99951 7.79994 1.99951ZM7.59994 3.99951C6.64516 3.99951 5.72949 4.3788 5.05435 5.05393C4.37922 5.72906 3.99994 6.64473 3.99994 7.59951V16.3995C3.99994 18.3895 5.60994 19.9995 7.59994 19.9995H16.3999C17.3547 19.9995 18.2704 19.6202 18.9455 18.9451C19.6207 18.27 19.9999 17.3543 19.9999 16.3995V7.59951C19.9999 5.60951 18.3899 3.99951 16.3999 3.99951H7.59994ZM17.2499 5.49951C17.5815 5.49951 17.8994 5.63121 18.1338 5.86563C18.3682 6.10005 18.4999 6.41799 18.4999 6.74951C18.4999 7.08103 18.3682 7.39897 18.1338 7.6334C17.8994 7.86782 17.5815 7.99951 17.2499 7.99951C16.9184 7.99951 16.6005 7.86782 16.3661 7.6334C16.1316 7.39897 15.9999 7.08103 15.9999 6.74951C15.9999 6.41799 16.1316 6.10005 16.3661 5.86563C16.6005 5.63121 16.9184 5.49951 17.2499 5.49951ZM11.9999 6.99951C13.326 6.99951 14.5978 7.5263 15.5355 8.46398C16.4732 9.40166 16.9999 10.6734 16.9999 11.9995C16.9999 13.3256 16.4732 14.5974 15.5355 15.535C14.5978 16.4727 13.326 16.9995 11.9999 16.9995C10.6739 16.9995 9.40209 16.4727 8.46441 15.535C7.52672 14.5974 6.99994 13.3256 6.99994 11.9995C6.99994 10.6734 7.52672 9.40166 8.46441 8.46398C9.40209 7.5263 10.6739 6.99951 11.9999 6.99951ZM11.9999 8.99951C11.2043 8.99951 10.4412 9.31558 9.87862 9.87819C9.31601 10.4408 8.99994 11.2039 8.99994 11.9995C8.99994 12.7952 9.31601 13.5582 9.87862 14.1208C10.4412 14.6834 11.2043 14.9995 11.9999 14.9995C12.7956 14.9995 13.5587 14.6834 14.1213 14.1208C14.6839 13.5582 14.9999 12.7952 14.9999 11.9995C14.9999 11.2039 14.6839 10.4408 14.1213 9.87819C13.5587 9.31558 12.7956 8.99951 11.9999 8.99951Z" fill="url(#paint0_linear_458_1453)"/>
</svg>
