<svg width="28" height="28" viewBox="0 0 28 28" fill="none" xmlns="http://www.w3.org/2000/svg">
<defs>
<linearGradient id="paint0_linear_349_1675" x1="25.6663" y1="13.9352" x2="2.33301" y2="13.9352" gradientUnits="userSpaceOnUse">
<stop stop-color="#FF2252"/>
<stop offset="1" stop-color="#FC7B04"/>
</linearGradient>
</defs>
<path d="M9.09968 2.33301H18.8997C22.633 2.33301 25.6663 5.36634 25.6663 9.09968V18.8997C25.6663 20.6943 24.9534 22.4154 23.6844 23.6844C22.4154 24.9534 20.6943 25.6663 18.8997 25.6663H9.09968C5.36634 25.6663 2.33301 22.633 2.33301 18.8997V9.09968C2.33301 7.30504 3.04592 5.58391 4.31492 4.31492C5.58391 3.04592 7.30504 2.33301 9.09968 2.33301ZM8.86634 4.66634C7.75243 4.66634 6.68415 5.10884 5.89649 5.89649C5.10884 6.68415 4.66634 7.75243 4.66634 8.86634V19.133C4.66634 21.4547 6.54467 23.333 8.86634 23.333H19.133C20.2469 23.333 21.3152 22.8905 22.1029 22.1029C22.8905 21.3152 23.333 20.2469 23.333 19.133V8.86634C23.333 6.54467 21.4547 4.66634 19.133 4.66634H8.86634ZM20.1247 6.41634C20.5114 6.41634 20.8824 6.56999 21.1559 6.84348C21.4294 7.11697 21.583 7.4879 21.583 7.87467C21.583 8.26145 21.4294 8.63238 21.1559 8.90587C20.8824 9.17936 20.5114 9.33301 20.1247 9.33301C19.7379 9.33301 19.367 9.17936 19.0935 8.90587C18.82 8.63238 18.6663 8.26145 18.6663 7.87467C18.6663 7.4879 18.82 7.11697 19.0935 6.84348C19.367 6.56999 19.7379 6.41634 20.1247 6.41634ZM13.9997 8.16634C15.5468 8.16634 17.0305 8.78092 18.1245 9.87489C19.2184 10.9688 19.833 12.4526 19.833 13.9997C19.833 15.5468 19.2184 17.0305 18.1245 18.1245C17.0305 19.2184 15.5468 19.833 13.9997 19.833C12.4526 19.833 10.9688 19.2184 9.87489 18.1245C8.78092 17.0305 8.16634 15.5468 8.16634 13.9997C8.16634 12.4526 8.78092 10.9688 9.87489 9.87489C10.9688 8.78092 12.4526 8.16634 13.9997 8.16634ZM13.9997 10.4997C13.0714 10.4997 12.1812 10.8684 11.5248 11.5248C10.8684 12.1812 10.4997 13.0714 10.4997 13.9997C10.4997 14.9279 10.8684 15.8182 11.5248 16.4745C12.1812 17.1309 13.0714 17.4997 13.9997 17.4997C14.9279 17.4997 15.8182 17.1309 16.4745 16.4745C17.1309 15.8182 17.4997 14.9279 17.4997 13.9997C17.4997 13.0714 17.1309 12.1812 16.4745 11.5248C15.8182 10.8684 14.9279 10.4997 13.9997 10.4997Z" fill="url(#paint0_linear_349_1675)"/>
</svg>
