<svg width="48" height="48" viewBox="0 0 48 48" fill="none" xmlns="http://www.w3.org/2000/svg">
<path fill-rule="evenodd" clip-rule="evenodd" d="M1.14948 0.117171C0.754257 0.261007 0.289052 0.70494 0.127885 1.09192C-0.0505421 1.52042 -0.0398477 3.00725 0.144865 3.45081C0.44412 4.16933 1.00013 4.51019 1.87304 4.51019H2.43966V16.9358V29.3614H1.8252C0.557443 29.3614 0.000584579 30.0365 0.000584579 31.5735C0.000584579 32.703 0.271603 33.2818 0.985594 33.677C1.2432 33.8196 2.41592 33.8349 14.8461 33.8582L28.4251 33.8835V36.5609C28.4251 39.0372 28.4397 39.2774 28.6191 39.7586L28.8131 40.2789L28.5179 40.8805C28.246 41.435 28.2014 41.6694 27.9499 43.8703C27.6226 46.7342 27.6163 46.9886 27.8638 47.3904C28.2562 48.0275 27.8772 47.9998 36.2114 47.9998C44.5456 47.9998 44.1666 48.0275 44.559 47.3904C44.8027 46.9949 44.7984 46.7069 44.5128 44.2392C44.3843 43.1286 44.2795 42.112 44.2799 41.98C44.2806 41.77 44.349 41.7186 44.8269 41.5691C46.2921 41.111 47.5312 39.7322 47.8966 38.1532C48.0344 37.5578 48.0344 37.0391 47.8969 31.903C47.8144 28.8225 47.7019 26.0479 47.6467 25.7373C47.3469 24.0475 46.0118 22.6355 44.31 22.2081L43.9187 22.1099L43.8878 20.8902C43.8598 19.7823 43.8381 19.6515 43.6511 19.464C43.3982 19.2107 42.9443 19.1943 42.6855 19.4292C42.5175 19.5818 42.4967 19.718 42.4967 20.6631C42.4967 21.2474 42.465 21.7433 42.4263 21.7651C42.2868 21.8436 39.57 21.1999 39.4873 21.0687C39.4414 20.996 39.4032 20.7442 39.4024 20.5093C39.401 20.1199 39.4427 20.041 39.8746 19.615C40.4616 19.0362 40.8411 18.4524 41.1014 17.7283C41.2625 17.2799 41.3106 16.8841 41.3472 15.7006L41.3927 14.23L41.9213 14.4351L42.4498 14.6404L42.4967 16.0783C42.5385 17.3619 42.5631 17.5306 42.7257 17.6496C42.9974 17.8486 43.4696 17.8163 43.6782 17.5845C43.8453 17.3989 43.8569 17.2099 43.8558 14.6899C43.8548 12.4179 43.8278 11.8781 43.684 11.2584C43.3345 9.75323 42.2793 8.10816 41.1065 7.24006L40.5342 6.81646L40.5304 5.66332L40.5267 4.51019H41.1068C42.3554 4.51019 42.969 3.87065 43.0405 2.49498C43.106 1.2335 42.7892 0.535406 41.9846 0.168756C41.6205 0.00270476 40.8125 -0.00388458 21.5301 0.00101035C6.35117 0.00486982 1.38025 0.033204 1.14948 0.117171ZM41.5553 1.58584C41.689 1.83652 41.6778 2.84676 41.5398 2.98523C41.453 3.0724 36.8683 3.09819 21.4744 3.09819C3.36659 3.09819 1.51637 3.08444 1.46468 2.94927C1.36299 2.68344 1.4038 1.63366 1.52031 1.51675C1.60718 1.42958 6.18297 1.40379 21.5455 1.40379C41.1365 1.40379 41.4597 1.4067 41.5553 1.58584ZM39.1195 5.31032C39.1195 5.7504 39.0944 6.11046 39.0636 6.11046C39.0328 6.11046 38.769 6.03628 38.4773 5.94572C37.7062 5.70625 34.7395 5.71199 33.8661 5.95476C31.39 6.64278 29.4685 8.58023 28.7764 11.0867C28.5878 11.7696 28.5761 12.0631 28.5414 16.9576L28.5049 22.1097L28.1132 22.2053C27.3943 22.3808 26.5198 22.8867 25.9697 23.4453C25.0761 24.353 24.7656 25.2206 24.6164 27.2266C24.5721 27.8223 24.5353 27.9528 24.4236 27.9097C24.3476 27.8805 23.4809 27.2998 22.4974 26.6194C21.514 25.9389 20.4694 25.229 20.1758 25.042C19.8823 24.8549 19.3781 24.5242 19.0554 24.3071C18.0695 23.6438 17.1432 23.5705 16.2649 24.086L15.9717 24.2581L13.6019 22.6208C12.0533 21.551 11.1492 20.9835 10.993 20.9835C10.4067 20.9835 10.0964 21.7845 10.5308 22.1769C10.6468 22.2817 11.7399 23.0557 12.9597 23.8969L15.1776 25.4263L15.0866 25.7572C14.8578 26.5888 15.3529 27.7424 16.1867 28.3199C16.4468 28.5001 16.7735 28.8081 16.9128 29.0045L17.1661 29.3614H12.6208H8.0756L7.88432 29.5675C7.53112 29.9479 7.67493 30.4948 8.1741 30.6694C8.37813 30.7407 10.1917 30.7734 13.9487 30.7734H19.4258L20.6408 31.55C21.3091 31.9771 21.8564 32.3583 21.8571 32.3972C21.8578 32.4361 17.3284 32.4678 11.7917 32.4678C3.79362 32.4678 1.69152 32.4432 1.56187 32.3481C1.42707 32.2492 1.40352 32.1058 1.42669 31.5244L1.45465 30.8205L3.61229 30.7716C4.79899 30.7447 5.84497 30.6867 5.93672 30.6428C6.28297 30.4771 6.39639 29.9259 6.15305 29.5912C6.03907 29.4345 5.86889 29.4018 4.95696 29.3614L3.89372 29.3143L3.86961 17.0299C3.85629 10.2735 3.86557 4.69262 3.89006 4.62786C3.92561 4.53429 7.53956 4.51019 21.5272 4.51019H39.1195V5.31032ZM38.4643 7.41289C40.1943 7.97232 41.6324 9.40484 42.158 11.0922C42.4223 11.9404 42.5646 13.0763 42.4066 13.0763C42.2046 13.0763 41.6028 12.7137 41.2884 12.4025C41.1139 12.2299 40.8455 11.8651 40.6919 11.5919C40.4095 11.0898 40.2037 10.9113 39.9074 10.9113C39.818 10.9113 39.2981 11.2028 38.7521 11.559C36.941 12.7407 35.2288 13.4836 33.6105 13.79C32.6116 13.9792 31.0527 13.9279 30.3606 13.6832L29.9039 13.5217L29.9708 12.6638C30.0918 11.1114 30.5975 9.9286 31.5706 8.92203C32.3872 8.07728 33.3374 7.53648 34.4486 7.28402C35.3478 7.07965 37.6638 7.15402 38.4643 7.41289ZM7.08327 7.34794C6.62557 7.60106 6.53945 8.00075 6.85559 8.40402L7.04997 8.65206H16.1688C26.3647 8.65206 25.7046 8.69705 25.7046 8.00235C25.7046 7.75939 25.6417 7.58863 25.5072 7.46645C25.3163 7.29305 25.012 7.28637 16.2903 7.26566C9.85893 7.25041 7.21704 7.27404 7.08327 7.34794ZM7.13871 12.2368C6.65109 12.4341 6.53091 12.8849 6.85559 13.299L7.04997 13.547H16.2221C24.9887 13.547 25.401 13.5394 25.5494 13.3748C25.7722 13.1278 25.7494 12.5814 25.5072 12.3614C25.3163 12.188 25.0151 12.1815 16.3372 12.1638C10.7068 12.1523 7.28055 12.1795 7.13871 12.2368ZM39.9482 15.0065L39.9169 16.9876L39.6083 17.6163C39.035 18.7841 37.1048 20.3246 36.2149 20.3246C35.7216 20.3246 35.0319 19.9437 34.2571 19.2436C33.0564 18.1583 32.6696 17.5762 32.5945 16.7411C32.5716 16.4857 32.5337 16.0651 32.5103 15.8062C32.4706 15.3668 32.482 15.3355 32.6814 15.3355C33.1534 15.3355 34.7125 15.0154 35.5061 14.7555C36.5283 14.4208 37.7679 13.8381 38.8354 13.1904C39.5886 12.7335 39.6392 12.7166 39.8047 12.8669C39.9665 13.0138 39.977 13.1713 39.9482 15.0065ZM30.6904 15.2049C31.0856 15.2712 31.1456 15.4315 31.1456 16.4199C31.1456 17.5394 31.6073 18.5615 32.588 19.6132C32.9735 20.0268 33.0217 20.1264 33.0204 20.5075C33.0196 20.7435 32.9814 20.996 32.9355 21.0687C32.8528 21.1999 30.136 21.8436 29.9965 21.7651C29.9577 21.7433 29.9261 20.2193 29.9261 18.3783V15.0312L30.1372 15.0893C30.2533 15.1212 30.5022 15.1732 30.6904 15.2049ZM6.85559 17.3721C6.63214 17.657 6.61853 17.7745 6.77041 18.1089C6.83955 18.2611 7.00316 18.3857 7.21601 18.448C7.43553 18.5123 9.09485 18.5364 11.993 18.5177L16.4337 18.489L16.6601 18.2249C16.9374 17.9013 16.9452 17.695 16.692 17.3721L16.4976 17.1241H11.7738H7.04997L6.85559 17.3721ZM36.0576 21.7113C36.4966 21.7459 36.7674 21.7086 37.1964 21.5541C37.506 21.4425 37.8226 21.3315 37.9 21.3072C37.9941 21.2776 38.0989 21.3907 38.2162 21.6487C38.5107 22.2957 38.9324 22.5206 40.4252 22.8276C41.9395 23.1389 41.882 23.0551 41.3497 24.1756C40.9374 25.0434 40.1017 25.8495 39.1085 26.3375C38.0476 26.8587 37.4021 27.0081 36.2114 27.0081C35.0207 27.0081 34.3752 26.8587 33.3143 26.3375C32.3249 25.8514 31.4875 25.0447 31.0699 24.1756C30.5543 23.1023 30.5231 23.1474 31.9899 22.8401C33.458 22.5327 33.8719 22.3076 34.2209 21.627L34.4452 21.1897L34.9634 21.4277C35.2602 21.5641 35.728 21.6853 36.0576 21.7113ZM29.4032 23.7567C29.5055 24.3035 30.1699 25.5184 30.6803 26.092C32.0294 27.6077 33.9575 28.4188 36.2114 28.4188C38.4653 28.4188 40.3934 27.6077 41.7425 26.092C42.2529 25.5184 42.9173 24.3035 43.0196 23.7567C43.09 23.38 43.1521 23.3679 43.9545 23.576C45.0616 23.8632 45.9059 24.6752 46.1998 25.7354C46.3909 26.4245 46.6846 37.2595 46.528 37.8429C46.212 39.0208 45.321 39.9811 44.2611 40.2861L43.9977 40.3618V35.6085C43.9977 32.438 43.9645 30.793 43.8981 30.6685C43.6569 30.2163 42.8581 30.2677 42.6764 30.7471C42.6285 30.8736 42.5905 33.0764 42.5905 35.7249V40.476L36.8446 40.449C31.6975 40.4249 31.0694 40.4058 30.8173 40.2657C30.4454 40.0592 30.0557 39.6385 29.9321 39.3099C29.8672 39.1377 29.8323 37.6318 29.8323 35.0094C29.8323 32.7899 29.7936 30.8719 29.7464 30.7471C29.5792 30.3058 28.803 30.2121 28.5515 30.6028C28.5078 30.6708 28.4509 31.1076 28.4251 31.5735L28.3782 32.4207L26.8882 32.4467C24.6056 32.4865 24.7969 32.5566 21.6365 30.5246C20.1333 29.5581 18.8651 28.7334 18.8184 28.6919C18.7703 28.6494 18.8747 28.4597 19.0587 28.2552C19.2377 28.0565 19.5458 27.631 19.7434 27.3098C19.941 26.9885 20.119 26.7257 20.1389 26.7257C20.1588 26.7257 20.9653 27.2705 21.9314 27.9365C22.8974 28.6024 23.7888 29.2003 23.9125 29.265C24.2187 29.4254 25.0023 29.3383 25.3072 29.1099C25.8345 28.7148 25.9227 28.4907 26.0141 27.3146C26.0614 26.7059 26.1572 25.9953 26.2271 25.7354C26.5051 24.7003 27.3535 23.869 28.4251 23.5817C29.2381 23.3638 29.3329 23.3807 29.4032 23.7567ZM18.2931 25.4657C18.909 25.8747 18.9008 26.1237 18.2414 27.0316C17.8536 27.5653 17.6095 27.6045 17.0676 27.2199C16.699 26.9583 16.4171 26.5131 16.4178 26.1937C16.4183 25.8995 16.7803 25.4043 17.0994 25.2613C17.4819 25.0898 17.8122 25.1464 18.2931 25.4657ZM30.497 41.6667C30.8711 41.8154 31.4869 41.8361 36.8681 41.8798L42.825 41.9282L43.0758 44.0462C43.2138 45.2111 43.3298 46.2595 43.3338 46.376L43.341 46.5878H36.2114C29.4829 46.5878 29.0819 46.5786 29.0842 46.4231C29.0856 46.3325 29.2051 45.2417 29.3497 43.9992C29.6147 41.7238 29.7356 41.2128 29.9642 41.4031C30.0296 41.4576 30.2694 41.5762 30.497 41.6667Z" fill="#ADADAD"/>
</svg>
