<svg width="132" height="100" viewBox="0 0 132 100" fill="none" xmlns="http://www.w3.org/2000/svg">
<g clip-path="url(#clip0_1_2039)">
<path d="M115.186 12.6319C114.115 11.7226 112.97 10.9023 111.763 10.1794C87.243 -4.46854 62.3339 19.1649 47.3557 36.1508C42.2839 41.902 37.7372 48.3419 35.6975 55.7038C31.8003 69.7562 39.3574 80.6817 51.9573 86.6849C67.87 94.2644 87.7204 93.0689 102.589 83.6353C117.457 74.2017 126.838 56.8478 126.52 39.3722C126.339 29.4203 122.692 19.0088 115.186 12.6319Z" fill="url(#paint0_linear_1_2039)"/>
<path d="M101.813 34.0883C108.935 46.328 95.9777 69.6021 79.2115 70.8835C70.5738 71.5464 60.4418 66.4094 56.8875 57.5384C52.2062 45.8556 60.6486 31.9779 72.1636 27.1759C82.8164 22.739 96.9426 25.717 101.813 34.0883Z" fill="#F4A321"/>
<path d="M22.596 82.442L22.5164 82.5022C21.947 82.9393 21.2259 83.1358 20.5106 83.0486C19.7954 82.9614 19.144 82.5977 18.6988 82.0369C17.6703 80.7253 16.757 79.329 15.969 77.8634C13.7991 73.8388 13.7008 70.8479 13.397 68.3653L18.6322 66.9766C19.0243 69.3919 19.1675 71.9718 20.97 75.6113C21.6513 76.9872 22.2618 77.7803 22.8607 78.3917C23.1323 78.6648 23.3425 78.9916 23.4776 79.3507C23.6127 79.7098 23.6697 80.0931 23.6447 80.4755C23.6197 80.8579 23.5133 81.2308 23.3326 81.5697C23.1519 81.9086 22.9008 82.2058 22.596 82.442V82.442Z" fill="#EAEEF0"/>
<g style="mix-blend-mode:multiply" opacity="0.15">
<g style="mix-blend-mode:multiply" opacity="0.15">
<path d="M14.3966 74.1111L19.7765 72.6794C19.0662 70.4802 18.9085 68.6806 18.6322 66.9668L13.397 68.3556C13.5981 70.0106 13.7167 71.8719 14.3966 74.1111Z" fill="#8C5213"/>
</g>
</g>
<path d="M12.3228 69.5723L19.7383 67.6057L20.4302 70.1614C20.4638 70.2854 20.4462 70.4175 20.3814 70.5286C20.3165 70.6397 20.2097 70.7209 20.0845 70.7541L13.6121 72.4705C13.4872 72.5036 13.3542 72.4863 13.2422 72.4223C13.1302 72.3583 13.0485 72.2529 13.015 72.1293L12.3228 69.5723Z" fill="url(#paint1_linear_1_2039)"/>
<g style="mix-blend-mode:multiply" opacity="0.47">
<g style="mix-blend-mode:multiply" opacity="0.47">
<path d="M19.1183 71.0121L14.5788 72.2161C14.1975 72.3171 13.7912 72.2641 13.4494 72.0686C13.1076 71.8731 12.8582 71.5513 12.7561 71.1739L12.3728 69.7579C12.3662 69.7338 12.3646 69.7087 12.3679 69.684C12.3712 69.6593 12.3794 69.6355 12.392 69.6139C12.4046 69.5923 12.4215 69.5735 12.4415 69.5584C12.4615 69.5433 12.4844 69.5323 12.5088 69.5259L19.5537 67.6647C19.578 67.6582 19.6034 67.6566 19.6284 67.6598C19.6534 67.6631 19.6774 67.6712 19.6992 67.6837C19.721 67.6962 19.74 67.7129 19.7553 67.7327C19.7706 67.7526 19.7817 67.7752 19.7881 67.7993L20.1714 69.2138C20.2713 69.5905 20.2167 69.9909 20.0194 70.3278C19.8221 70.6647 19.4982 70.9107 19.1183 71.0121V71.0121Z" fill="#8C5213"/>
</g>
</g>
<path d="M16.6039 45.7609L7.03174 48.3008C5.82866 48.6196 4.70083 49.1699 3.71266 49.9202C2.7245 50.6705 1.89535 51.6061 1.27257 52.6735C0.649795 53.741 0.245595 54.9195 0.0830536 56.1416C-0.0794874 57.3637 0.00281565 58.6055 0.325262 59.7961L1.37695 63.6818C2.02822 66.0864 3.61788 68.1365 5.79629 69.3813C7.9747 70.626 10.5635 70.9634 12.9932 70.3193L22.5669 67.7794C24.8847 67.1651 27.3056 67.0306 29.6784 67.3842L45.0804 69.675L35.1437 32.9785L22.9632 42.5868C21.0864 44.0661 18.9216 45.1466 16.6039 45.7609V45.7609Z" fill="#EAEEF0"/>
<path d="M44.0374 50.2882C46.7859 60.4219 47.149 69.1282 44.8605 69.7352C42.572 70.3423 38.4954 62.6196 35.7469 52.4859C32.9983 42.3521 32.6338 33.6444 34.9223 33.0374C37.2109 32.4303 41.2932 40.1545 44.0374 50.2882Z" fill="url(#paint2_linear_1_2039)"/>
<path d="M17.8638 57.229C16.7456 53.097 16.0223 49.2042 15.7127 46L7.03308 48.3022C5.82988 48.6209 4.7019 49.171 3.71357 49.9213C2.72524 50.6715 1.89593 51.6071 1.27301 52.6745C0.650094 53.742 0.24577 54.9205 0.0831358 56.1427C-0.0794984 57.3649 0.00274398 58.6068 0.325165 59.7975L1.37685 63.6832C2.02812 66.0878 3.61778 68.1379 5.79619 69.3827C7.97461 70.6274 10.5634 70.9648 12.9931 70.3206L21.6728 68.0184C20.3231 65.0891 18.9821 61.3595 17.8638 57.229Z" fill="url(#paint3_linear_1_2039)"/>
<g style="mix-blend-mode:multiply" opacity="0.47">
<g style="mix-blend-mode:multiply" opacity="0.47">
<path d="M44.852 66.9673C44.8429 67.0216 44.8182 67.0721 44.7808 67.1129C44.7434 67.1536 44.695 67.1828 44.6413 67.197C44.5875 67.2112 44.5308 67.2098 44.4779 67.1929C44.425 67.1761 44.3781 67.1444 44.3428 67.1019C42.821 65.2406 40.1708 60.1838 37.93 51.907C35.6892 43.6302 35.4303 37.9406 35.8078 35.5739C35.8172 35.52 35.842 35.4698 35.8792 35.4293C35.9165 35.3889 35.9647 35.3598 36.0182 35.3457C36.0716 35.3315 36.128 35.3328 36.1807 35.3494C36.2335 35.366 36.2803 35.3972 36.3156 35.4394C37.8389 37.3006 40.4876 42.3574 42.7284 50.6342C44.9692 58.911 45.2282 64.5992 44.852 66.9673Z" fill="#8C5213"/>
</g>
</g>
<path style="mix-blend-mode:multiply" opacity="0.2" d="M38.6243 61.125H32.4488C27.8948 61.125 23.8111 61.4872 19.0083 62.9461C17.0279 63.5475 14.4993 64.4981 10.6079 65.4015C9.39066 65.6998 8.14597 65.8749 6.89299 65.9241C5.26193 65.979 3.63095 65.8129 2.04541 65.4302C3.02054 67.3697 4.64324 68.9159 6.63851 69.8067C8.63377 70.6975 10.8789 70.8782 12.9933 70.3181L22.567 67.7811C24.8848 67.1668 27.3058 67.0323 29.6785 67.3859L43.7497 69.4791C42.2654 68.5585 40.395 65.466 38.6243 61.125Z" fill="url(#paint4_linear_1_2039)"/>
<g style="mix-blend-mode:multiply" opacity="0.31">
<g style="mix-blend-mode:multiply" opacity="0.31">
<path d="M45.0283 69.6693L45.0795 69.6766L45.0722 69.6504C45.059 69.6577 45.043 69.662 45.0283 69.6693Z" fill="#8C5213"/>
</g>
</g>
<path style="mix-blend-mode:hard-light" d="M11.0202 50.9444L20.617 48.4002L31.3436 41.3848C31.2129 42.7484 31.4241 44.1229 31.9584 45.3864L22.4223 51.623L9.33054 55.0949C9.04579 54.7082 8.87161 54.2526 8.8263 53.7762C8.78098 53.2998 8.86622 52.8201 9.07304 52.3875C9.64735 51.2107 10.8914 50.9687 11.0202 50.9444Z" fill="url(#paint5_linear_1_2039)"/>
<path d="M47.2689 90.3922C45.8223 90.7301 44.4755 92.1189 44.6925 93.6852C44.8661 94.9465 45.9945 95.9487 47.117 96.0848C49.2667 96.3425 51.4655 93.4275 50.7538 91.7352C50.2981 90.6571 48.6447 90.0715 47.2689 90.3922Z" fill="url(#paint6_linear_1_2039)"/>
<path d="M43.0956 86.2097C42.1466 86.4316 41.2627 87.3436 41.4059 88.3759C41.4708 88.7704 41.6593 89.1348 41.9449 89.4174C42.2305 89.7 42.5986 89.8866 42.9972 89.9508C44.4062 90.1197 45.8499 88.207 45.3827 87.0959C45.0847 86.3844 43.9983 85.9992 43.0956 86.2097Z" fill="url(#paint7_linear_1_2039)"/>
<path d="M81.5539 82.1624C84.7553 82.1624 87.7888 83.6356 88.6105 85.5899C89.2875 87.2035 88.6727 89.8106 87.0409 92.2317C84.9607 95.3156 81.8881 97.3085 79.2119 97.3085C79.0015 97.3092 78.7913 97.2968 78.5826 97.2713C75.9512 96.9549 72.8265 94.395 72.3708 91.0891C71.8067 87.0059 75.5534 83.3006 79.4144 82.4C80.1159 82.2396 80.8339 82.1599 81.5539 82.1624V82.1624ZM81.5539 79.4707C80.6235 79.4684 79.6959 79.5722 78.7894 79.78C73.6699 80.9755 68.9091 85.8906 69.6758 91.4542C70.2921 95.9198 74.2862 99.4719 78.2542 99.9429C78.5719 99.9813 78.8918 100 79.2119 100C86.4926 100 93.5333 90.2917 91.1203 84.5562C89.8054 81.4265 85.6724 79.4707 81.5539 79.4707V79.4707Z" fill="#FDC014"/>
<path d="M106.981 88.7194C106.748 88.718 106.521 88.642 106.335 88.5029C106.149 88.3637 106.014 88.1689 105.949 87.9473C105.884 87.7257 105.893 87.4892 105.974 87.2731C106.056 87.057 106.206 86.8728 106.402 86.748C119.092 78.6917 127.735 64.877 129.51 49.7938C129.76 47.6732 129.867 45.5386 129.83 43.404C129.827 43.2634 129.853 43.1237 129.905 42.9928C129.957 42.862 130.034 42.7425 130.133 42.6413C130.231 42.5401 130.349 42.4592 130.479 42.4031C130.61 42.347 130.75 42.3169 130.892 42.3145C131.177 42.3132 131.452 42.4224 131.657 42.6187C131.863 42.815 131.983 43.0829 131.991 43.3654C132.03 45.5956 131.919 47.826 131.657 50.0415C129.807 65.7546 120.799 80.1506 107.562 88.5548C107.389 88.6638 107.187 88.7209 106.981 88.7194V88.7194Z" fill="#FDC014"/>
<path d="M103.51 2.86298C103.43 2.86304 103.35 2.85392 103.272 2.83578C99.8456 2.07254 96.3073 1.93619 92.8316 2.43346C92.5477 2.47352 92.2593 2.40032 92.0299 2.22996C91.8006 2.05959 91.649 1.80603 91.6085 1.52504C91.568 1.24405 91.642 0.958652 91.8141 0.731635C91.9862 0.504619 92.2424 0.354577 92.5264 0.314517C96.2625 -0.217742 100.066 -0.0692639 103.748 0.752623C104.002 0.814926 104.226 0.966729 104.376 1.17977C104.526 1.39282 104.593 1.65258 104.564 1.9107C104.535 2.16883 104.412 2.40772 104.218 2.5829C104.024 2.75808 103.773 2.85762 103.51 2.86298V2.86298Z" fill="#FDC014"/>
<path d="M64.8641 14.3761C64.6344 14.376 64.4107 14.3035 64.2254 14.1691C64.0401 14.0348 63.9028 13.8456 63.8333 13.6289C63.7639 13.4122 63.7659 13.1793 63.8392 12.9638C63.9124 12.7484 64.053 12.5615 64.2406 12.4304C71.6183 7.28336 78.6676 3.6611 85.1759 1.66528C85.4496 1.58117 85.7459 1.60814 85.9996 1.74024C86.2532 1.87234 86.4435 2.09876 86.5285 2.36969C86.6135 2.64062 86.5862 2.93386 86.4527 3.18491C86.3193 3.43595 86.0905 3.62424 85.8167 3.70835C79.524 5.63831 72.6844 9.16177 65.4861 14.18C65.3045 14.3079 65.087 14.3765 64.8641 14.3761V14.3761Z" fill="#FDC014"/>
<path d="M65.1374 38.9699C64.741 39.6227 64.0052 40.1954 62.9298 40.6879L65.2574 45.8751H61.625L59.8327 41.2334H58.8432L58.1835 45.8765H54.8477L56.6255 33.2773H60.9871C62.5301 33.2773 63.7057 33.5828 64.5139 34.1936C65.3221 34.8045 65.7285 35.6354 65.7334 36.6863C65.7515 37.4873 65.5452 38.2777 65.1374 38.9699V38.9699ZM59.1542 38.9513H60.2912C60.9875 38.9513 61.4943 38.7489 61.8116 38.3442C62.134 37.9254 62.302 37.4101 62.2876 36.8838C62.2876 36.4486 62.1472 36.1284 61.8666 35.9232C61.586 35.718 61.1582 35.6149 60.5835 35.6139H59.6301L59.1542 38.9513Z" fill="white"/>
<path d="M75.776 33.2734L75.0787 35.6487H70.8098L70.425 38.316H74.163L73.852 40.6368H70.1125L69.7104 43.5002H74.273L73.9432 45.8754H66.0259L67.8038 33.2763L75.776 33.2734Z" fill="white"/>
<path d="M84.9389 33.2734L84.2605 35.6487H80.2288L79.8078 38.6782H83.3448L83.0149 41.0548H79.478L78.7807 45.8783H75.4463L77.2242 33.2792L84.9389 33.2734Z" fill="white"/>
<path d="M93.9367 33.2734L93.2409 35.6487H88.9662L88.5814 38.316H92.3194L92.0084 40.6368H88.2747L87.8711 43.5002H92.438L92.1082 45.8754H84.1924L85.9688 33.2763L93.9367 33.2734Z" fill="white"/>
<path d="M103.897 38.9699C103.5 39.6227 102.765 40.1954 101.689 40.6879L104.011 45.8794H100.395L98.592 41.2334H97.6026L96.9415 45.8765H93.6143L95.3921 33.2773H99.7537C101.297 33.2773 102.472 33.5828 103.281 34.1936C104.089 34.8045 104.495 35.6354 104.5 36.6863C104.516 37.488 104.307 38.2785 103.897 38.9699ZM97.9136 38.9513H99.0492C99.7464 38.9513 100.254 38.7489 100.571 38.3442C100.893 37.9251 101.061 37.41 101.047 36.8838C101.047 36.4486 100.907 36.1284 100.626 35.9232C100.337 35.717 99.9171 35.6139 99.3428 35.6139H98.3895L97.9136 38.9513Z" fill="white"/>
<path d="M117.742 45.8795L117.137 42.4878H111.877L110.301 45.8795H109.165L115.096 33.4551H116.472L118.872 45.8795H117.742ZM112.317 41.5629H116.972L115.67 34.3628L112.317 41.5629Z" fill="#2D3B3F"/>
<path d="M63.9006 50.4395L63.6503 51.3472H58.6407L57.9449 56.1892H62.2847L62.1574 57.097H57.8176L56.9959 62.8639H55.8965L57.6744 50.4395H63.9006Z" fill="#2D3B3F"/>
<path d="M72.6613 55.6936C72.1231 56.3951 71.286 56.8724 70.15 57.1253L72.7886 62.8522H71.5604L69.0693 57.2842H66.5436L65.7566 62.8522H64.6558L66.4336 50.4277H69.5091C72.1477 50.4277 73.467 51.4013 73.467 53.3484C73.4722 54.1975 73.1884 55.0237 72.6613 55.6936V55.6936ZM68.8495 56.4095C70.0704 56.4095 70.9528 56.1074 71.4968 55.5032C72.0335 54.9182 72.3252 54.1529 72.3126 53.3628C72.3126 52.6612 72.0836 52.1472 71.6255 51.8208C71.1674 51.4944 70.4378 51.3302 69.4368 51.3283H67.4014L66.668 56.4095H68.8495Z" fill="#2D3B3F"/>
<path d="M78.2874 50.4395L76.5096 62.8639H75.4102L77.1866 50.4395H78.2874Z" fill="#2D3B3F"/>
<path d="M88.677 50.4395L88.4209 51.3472H83.3086L82.6489 55.9716H87.0857L86.9584 56.8793H82.5202L81.7868 61.939H87.1754L87.0466 62.8639H80.5586L82.3365 50.4395H88.677Z" fill="#2D3B3F"/>
<path d="M98.1519 62.8639H96.74L92.4161 51.4188C92.34 52.9438 92.1807 54.4636 91.9387 55.9716L90.9492 62.8639H89.9048L91.6827 50.4395H93.1119L97.4373 61.8503C97.4818 60.5443 97.604 59.242 97.8033 57.9503L98.8665 50.4409H99.911L98.1519 62.8639Z" fill="#2D3B3F"/>
<path d="M110.11 51.4474C111.044 52.1155 111.511 53.3277 111.511 55.084C111.525 56.3948 111.299 57.6973 110.843 58.9281C110.425 60.0646 109.679 61.0546 108.698 61.7758C107.716 62.5022 106.455 62.8649 104.915 62.8639H102.184L103.961 50.4395H106.421C107.945 50.4395 109.175 50.7754 110.11 51.4474ZM104.932 51.3472L103.432 61.9577H105.064C106.334 61.9577 107.366 61.6236 108.161 60.9555C108.963 60.2792 109.557 59.393 109.874 58.3984C110.228 57.321 110.404 56.1941 110.396 55.0611C110.396 53.5978 110.039 52.6123 109.324 52.1045C108.609 51.5968 107.666 51.3429 106.493 51.3429L104.932 51.3472Z" fill="#2D3B3F"/>
</g>
<defs>
<linearGradient id="paint0_linear_1_2039" x1="76.6987" y1="38.4444" x2="128.563" y2="194.312" gradientUnits="userSpaceOnUse">
<stop stop-color="#FEC200"/>
<stop offset="1" stop-color="#FD5025"/>
</linearGradient>
<linearGradient id="paint1_linear_1_2039" x1="-2.69269" y1="87.8266" x2="38.0846" y2="49.0005" gradientUnits="userSpaceOnUse">
<stop stop-color="#97DF4D"/>
<stop offset="1" stop-color="#1F9133"/>
</linearGradient>
<linearGradient id="paint2_linear_1_2039" x1="-1778.96" y1="3435.41" x2="9601.28" y2="-3524.28" gradientUnits="userSpaceOnUse">
<stop stop-color="#97DF4D"/>
<stop offset="1" stop-color="#1F9133"/>
</linearGradient>
<linearGradient id="paint3_linear_1_2039" x1="-4986.25" y1="-473.359" x2="1654.84" y2="-8908.29" gradientUnits="userSpaceOnUse">
<stop stop-color="#97DF4D"/>
<stop offset="1" stop-color="#1F9133"/>
</linearGradient>
<linearGradient id="paint4_linear_1_2039" x1="20.5926" y1="52.9825" x2="23.5573" y2="71.9878" gradientUnits="userSpaceOnUse">
<stop offset="0.28" stop-color="#603813"/>
<stop offset="1" stop-color="#603813"/>
</linearGradient>
<linearGradient id="paint5_linear_1_2039" x1="33.4943" y1="44.5604" x2="12.455" y2="50.8849" gradientUnits="userSpaceOnUse">
<stop stop-color="white"/>
<stop offset="1" stop-color="white"/>
</linearGradient>
<linearGradient id="paint6_linear_1_2039" x1="2215.82" y1="3099.74" x2="1674.82" y2="7122.56" gradientUnits="userSpaceOnUse">
<stop stop-color="#FEC200"/>
<stop offset="1" stop-color="#FD5025"/>
</linearGradient>
<linearGradient id="paint7_linear_1_2039" x1="1316.95" y1="2099.45" x2="1083.34" y2="3834.15" gradientUnits="userSpaceOnUse">
<stop stop-color="#FEC200"/>
<stop offset="1" stop-color="#FD5025"/>
</linearGradient>
<clipPath id="clip0_1_2039">
<rect width="132" height="100" fill="white"/>
</clipPath>
</defs>
</svg>
