<svg width="20" height="16" viewBox="0 0 20 16" fill="none" xmlns="http://www.w3.org/2000/svg">
<path fill-rule="evenodd" clip-rule="evenodd" d="M19.2001 4.05598V3.57233H19.1998C19.0944 3.21889 18.9511 2.88963 18.653 2.6452C17.9757 2.08974 17.0063 2.18833 16.4562 2.87438C15.9233 3.53922 16.0467 4.50169 16.745 5.01511C16.877 5.11221 16.8777 5.17472 16.8151 5.312C16.4408 6.13161 15.9829 6.89318 15.3237 7.52156C14.9213 7.90476 14.4709 8.21356 13.917 8.33187C13.1786 8.48961 12.5493 8.24928 12.0074 7.7593C11.3594 7.17296 10.9548 6.42478 10.6533 5.62489C10.4959 5.2077 10.3643 4.78078 10.2309 4.34805C10.1708 4.15292 10.1103 3.95661 10.0469 3.75947C10.7099 3.55484 11.1678 3.17164 11.4003 2.55703C11.5496 2.16303 11.5604 1.75825 11.4382 1.35347C11.1806 0.499259 10.366 -0.0480159 9.4315 0.00332597C8.60386 0.0490872 7.83434 0.747411 7.70271 1.6046C7.58158 2.39444 7.93371 3.35803 9.121 3.755C9.09745 3.84515 9.07453 3.93568 9.05158 4.02635C8.99961 4.23167 8.94746 4.4377 8.88736 4.64158C8.61061 5.57913 8.25172 6.47984 7.64833 7.26522C7.31382 7.70126 6.91669 8.0666 6.3883 8.25634C5.64765 8.52236 4.97413 8.34229 4.35462 7.90886C3.5791 7.36642 3.05183 6.61899 2.6217 5.79603C2.57323 5.7034 2.52873 5.6087 2.48424 5.514C2.44438 5.42918 2.40452 5.34436 2.36181 5.26103C2.31569 5.171 2.31456 5.11891 2.41056 5.04897C2.93708 4.66576 3.16884 4.14862 3.03571 3.50834C2.90858 2.89782 2.52119 2.50829 1.9148 2.33454C1.17791 2.1236 0.326634 2.57637 0.0855023 3.31004L0 3.57159V4.05524C0.106503 4.38785 0.221256 4.72566 0.521264 4.93289C0.73127 5.07799 0.974651 5.17992 1.21241 5.27926C1.31479 5.32205 1.37141 5.3559 1.39429 5.47421C1.60751 6.5849 1.82228 7.69535 2.03705 8.80582C2.29557 10.1425 2.55411 11.4793 2.80995 12.8165C2.83594 12.9537 2.90773 12.9529 2.99809 12.952C3.00551 12.952 3.01305 12.9519 3.02071 12.9519C4.46412 12.9515 5.90753 12.9515 7.35095 12.9515C7.86059 12.9515 8.37021 12.9515 8.87983 12.9514C11.3008 12.9512 13.7216 12.951 16.1427 12.9556C16.3111 12.956 16.3726 12.9169 16.4052 12.7439C16.6889 11.2462 16.9793 9.74988 17.2697 8.25349C17.3505 7.8374 17.4312 7.4213 17.5118 7.00517C17.5368 6.87629 17.5615 6.74735 17.5862 6.6184C17.6616 6.22503 17.7371 5.8315 17.8179 5.43924C17.8287 5.38641 17.888 5.31386 17.9367 5.30307C18.6084 5.15314 19.0149 4.74315 19.1791 4.08612C19.1809 4.07859 19.1866 4.07208 19.1923 4.06555C19.1951 4.0624 19.1978 4.05925 19.2001 4.05598ZM8.07601 16C8.58382 16 9.09164 15.9999 9.59948 15.9999L9.59986 15.9992H10.4808C10.9339 15.9992 11.387 15.9994 11.8401 15.9996C13.1428 16.0001 14.4454 16.0007 15.7478 15.9966C16.2379 15.9951 16.5994 15.7566 16.7952 15.3154C16.9906 14.8745 16.9159 14.4544 16.5942 14.0895C16.3264 13.7859 15.9694 13.707 15.5798 13.707C12.4796 13.7085 9.37975 13.7083 6.2799 13.7082C5.39374 13.7082 4.5076 13.7081 3.62145 13.7081C3.61207 13.7081 3.6027 13.7081 3.59332 13.708C3.5652 13.7079 3.53707 13.7078 3.50894 13.7089C2.6468 13.7453 2.11166 14.4582 2.36704 15.2302C2.52267 15.7004 2.95993 15.9988 3.50782 15.9992C5.03066 16.0003 6.55328 16.0001 8.07601 16Z" fill="#CACACA"/>
</svg>
