<svg width="25" height="21" viewBox="0 0 25 21" fill="none" xmlns="http://www.w3.org/2000/svg">
<defs>
<linearGradient id="paint0_linear_744_3614" x1="12.0015" y1="0" x2="12.0015" y2="20.0023" gradientUnits="userSpaceOnUse">
<stop stop-color="#F8D000"/>
<stop offset="1" stop-color="#EF9E00"/>
</linearGradient>
</defs>
<path fill-rule="evenodd" clip-rule="evenodd" d="M24.0029 5.07056V4.46593H24.0025C23.8707 4.02407 23.6916 3.61246 23.3189 3.30688C22.4723 2.61248 21.2604 2.73573 20.5726 3.59339C19.9064 4.42453 20.0607 5.62776 20.9336 6.26961C21.0986 6.391 21.0996 6.46914 21.0213 6.64076C20.5534 7.66539 19.981 8.61747 19.1568 9.40303C18.6537 9.88209 18.0907 10.2681 17.3983 10.416C16.4752 10.6132 15.6885 10.3128 15.011 9.70024C14.2009 8.96723 13.6951 8.0319 13.3181 7.03192C13.1214 6.51037 12.9569 5.97668 12.7902 5.4357C12.715 5.19176 12.6393 4.94633 12.5601 4.69987C13.3889 4.44407 13.9614 3.96501 14.252 3.19665C14.4386 2.7041 14.4522 2.19807 14.2994 1.69203C13.9773 0.624145 12.959 -0.0600268 11.7907 0.00415794C10.7561 0.0613661 9.79405 0.934371 9.62949 2.00598C9.47807 2.9934 9.91828 4.19802 11.4026 4.69429C11.3731 4.807 11.3445 4.92018 11.3158 5.03354C11.2508 5.29021 11.1856 5.54777 11.1105 5.80264C10.7645 6.97471 10.3158 8.10073 9.56151 9.08257C9.14333 9.62768 8.64685 10.0844 7.98629 10.3216C7.06038 10.6542 6.21838 10.4291 5.4439 9.88721C4.47439 9.20908 3.81523 8.27468 3.2775 7.24587C3.21691 7.13007 3.16128 7.01168 3.10565 6.8933C3.05582 6.78726 3.00599 6.68122 2.95261 6.57705C2.89494 6.46449 2.89354 6.39937 3.01355 6.31193C3.67177 5.83287 3.9615 5.18638 3.79507 4.38593C3.63614 3.62269 3.15185 3.13572 2.39378 2.91852C1.47255 2.6548 0.408339 3.22084 0.10689 4.13803L0 4.465V5.06963C0.133144 5.48544 0.276602 5.90776 0.651655 6.16682C0.914192 6.34821 1.21845 6.47565 1.51568 6.59983C1.64367 6.65332 1.71446 6.69565 1.74306 6.84355C2.00963 8.23211 2.27812 9.62037 2.54662 11.0087C2.86981 12.6797 3.19301 14.3508 3.51284 16.0224C3.54534 16.1939 3.63508 16.193 3.74805 16.1919C3.75732 16.1918 3.76675 16.1917 3.77632 16.1917C5.58079 16.1913 7.38527 16.1913 9.18974 16.1913C9.82674 16.1913 10.4637 16.1912 11.1007 16.1912C14.1274 16.1909 17.1539 16.1906 20.1807 16.1964C20.3912 16.1968 20.4681 16.148 20.5089 15.9317C20.8635 14.0595 21.2266 12.189 21.5896 10.3184C21.6906 9.79813 21.7915 9.27782 21.8923 8.75746C21.9235 8.59635 21.9544 8.43514 21.9853 8.27392C22.0796 7.78216 22.1739 7.29021 22.2749 6.79983C22.2885 6.73379 22.3626 6.64309 22.4235 6.6296C23.2631 6.44216 23.7713 5.92962 23.9767 5.10824C23.9789 5.09882 23.986 5.09068 23.9932 5.08252C23.9966 5.07859 24 5.07465 24.0029 5.07056ZM10.0967 20.0022C10.7314 20.0021 11.366 20.0021 12.0007 20.0021L12.0011 20.0011H13.1024C13.6689 20.0011 14.2353 20.0014 14.8018 20.0016C16.4303 20.0023 18.0587 20.0031 19.6869 19.9979C20.2997 19.996 20.7516 19.6979 20.9963 19.1463C21.2406 18.5951 21.1473 18.07 20.745 17.6137C20.4103 17.2342 19.964 17.1356 19.4769 17.1356C15.6001 17.1374 11.7235 17.1373 7.84702 17.1371C6.74044 17.1371 5.63385 17.137 4.52727 17.137C4.51554 17.137 4.50382 17.137 4.49209 17.1369C4.45694 17.1367 4.42178 17.1365 4.38663 17.1379C3.30882 17.1835 2.63981 18.0747 2.95908 19.0398C3.15364 19.6277 3.70028 20.0007 4.38522 20.0011C6.28919 20.0025 8.19289 20.0024 10.0967 20.0022Z" fill="url(#paint0_linear_744_3614)"/>
</svg>
