<svg width="65" height="65" viewBox="0 0 65 65" fill="none" xmlns="http://www.w3.org/2000/svg">
<path d="M31.4166 8.06967C31.8088 7.05751 33.1911 7.0575 33.5833 8.06967L36.2424 14.9333C36.4094 15.3643 36.7996 15.6582 37.2467 15.6896L44.3661 16.19C45.4159 16.2638 45.8431 17.6265 45.0356 18.3258L39.5597 23.0681C39.2158 23.3659 39.0667 23.8415 39.176 24.2919L40.9169 31.4647C41.1737 32.5225 40.0553 33.3647 39.1641 32.7848L33.1207 28.8521C32.7412 28.6051 32.2588 28.6051 31.8792 28.8521L25.8358 32.7848C24.9446 33.3647 23.8263 32.5225 24.083 31.4647L25.8239 24.2919C25.9332 23.8415 25.7841 23.3659 25.4403 23.0681L19.9643 18.3258C19.1568 17.6265 19.584 16.2638 20.6339 16.19L27.7532 15.6896C28.2003 15.6582 28.5906 15.3643 28.7575 14.9333L31.4166 8.06967Z" fill="#FED843"/>
<path d="M21.6431 38.9132C21.6431 37.5767 22.6885 36.4932 23.9779 36.4932H41.022C42.3115 36.4932 43.3568 37.5767 43.3568 38.9132V58.9999H21.6431V38.9132Z" fill="#FF6C6C"/>
<path d="M32.3832 36.4932H41.022C42.3115 36.4932 43.3568 37.5767 43.3568 38.9132V58.9999H32.3832V36.4932Z" fill="#E63950"/>
<path d="M8.33477 59C7.0453 59 5.99997 57.9165 5.99997 56.5799L5.99997 45.4475C5.99997 44.111 7.0453 43.0275 8.33477 43.0275L21.6431 43.0275L21.6431 59L8.33477 59Z" fill="#E63950"/>
<path d="M56.6652 46.6582C57.9547 46.6582 59 47.7417 59 49.0783L59 56.5805C59 57.9171 57.9547 59.0006 56.6652 59.0006L43.3568 59.0006L43.3568 46.6582L56.6652 46.6582Z" fill="#AE2538"/>
<path d="M27.8304 50.8419V36.4932H37.1696V50.7027C37.1696 51.2584 36.8501 51.7606 36.3573 51.9795C35.834 52.212 35.2401 52.2035 34.7231 51.9562L34.0176 51.6187L33.8732 51.5726C32.9784 51.2873 32.0215 51.2873 31.1267 51.5726L30.9823 51.6187L29.9896 52.0303C29.5072 52.2303 28.9654 52.2069 28.5007 51.9661C28.0899 51.7532 27.8304 51.318 27.8304 50.8419Z" fill="#FED843"/>
<path d="M37.1696 36.4932V50.7831C37.1696 51.29 36.8781 51.7481 36.4286 51.9478L35.9754 52.1492C35.6962 52.2732 35.3786 52.2635 35.1069 52.1227C34.3104 51.7099 33.4443 51.4613 32.5564 51.3905L32.3832 51.3767V36.4932H37.1696Z" fill="#FABE2C"/>
<mask id="mask0_492_1528" style="mask-type:alpha" maskUnits="userSpaceOnUse" x="32" y="6" width="18" height="28">
<path d="M32.3833 6H47.0925C48.382 6 49.4273 7.08351 49.4273 8.42008V33.1049H32.3833V6Z" fill="#E63950"/>
</mask>
<g mask="url(#mask0_492_1528)">
<path d="M31.4166 8.06967C31.8088 7.05751 33.1911 7.0575 33.5833 8.06967L36.2424 14.9333C36.4094 15.3643 36.7996 15.6582 37.2467 15.6896L44.3661 16.19C45.4159 16.2638 45.8431 17.6265 45.0356 18.3258L39.5597 23.0681C39.2158 23.3659 39.0667 23.8415 39.176 24.2919L40.9169 31.4647C41.1737 32.5225 40.0553 33.3647 39.1641 32.7848L33.1207 28.8521C32.7412 28.6051 32.2588 28.6051 31.8792 28.8521L25.8358 32.7848C24.9446 33.3647 23.8263 32.5225 24.083 31.4647L25.8239 24.2919C25.9332 23.8415 25.7841 23.3659 25.4403 23.0681L19.9643 18.3258C19.1568 17.6265 19.584 16.2638 20.6339 16.19L27.7532 15.6896C28.2003 15.6582 28.5906 15.3643 28.7575 14.9333L31.4166 8.06967Z" fill="#FABE2C"/>
</g>
</svg>
