<svg width="18" height="26" viewBox="0 0 18 26" fill="none" xmlns="http://www.w3.org/2000/svg">
<circle cx="8.56702" cy="7.72555" r="1.72791" stroke="#EDBAAC" stroke-width="1.46208"/>
<g style="mix-blend-mode:overlay" opacity="0.3">
<mask id="path-2-inside-1_528_1182" fill="white">
<path d="M8.56702 10.1845C8.88994 10.1845 9.20969 10.1209 9.50802 9.99733C9.80636 9.87376 10.0774 9.69263 10.3058 9.4643C10.5341 9.23596 10.7152 8.96489 10.8388 8.66655C10.9624 8.36822 11.026 8.04847 11.026 7.72555C11.026 7.40264 10.9624 7.08289 10.8388 6.78455C10.7152 6.48622 10.5341 6.21515 10.3058 5.98681C10.0774 5.75848 9.80636 5.57735 9.50802 5.45378C9.20969 5.3302 8.88994 5.2666 8.56702 5.2666V6.72776C8.69806 6.72776 8.82781 6.75357 8.94886 6.80371C9.06992 6.85385 9.17992 6.92735 9.27257 7.02001C9.36523 7.11266 9.43872 7.22266 9.48887 7.34371C9.53901 7.46477 9.56482 7.59452 9.56482 7.72555C9.56482 7.85659 9.53901 7.98634 9.48887 8.10739C9.43872 8.22845 9.36523 8.33845 9.27257 8.4311C9.17992 8.52376 9.06992 8.59725 8.94886 8.6474C8.82781 8.69754 8.69806 8.72335 8.56702 8.72335V10.1845Z"/>
</mask>
<path d="M8.56702 10.1845C8.88994 10.1845 9.20969 10.1209 9.50802 9.99733C9.80636 9.87376 10.0774 9.69263 10.3058 9.4643C10.5341 9.23596 10.7152 8.96489 10.8388 8.66655C10.9624 8.36822 11.026 8.04847 11.026 7.72555C11.026 7.40264 10.9624 7.08289 10.8388 6.78455C10.7152 6.48622 10.5341 6.21515 10.3058 5.98681C10.0774 5.75848 9.80636 5.57735 9.50802 5.45378C9.20969 5.3302 8.88994 5.2666 8.56702 5.2666V6.72776C8.69806 6.72776 8.82781 6.75357 8.94886 6.80371C9.06992 6.85385 9.17992 6.92735 9.27257 7.02001C9.36523 7.11266 9.43872 7.22266 9.48887 7.34371C9.53901 7.46477 9.56482 7.59452 9.56482 7.72555C9.56482 7.85659 9.53901 7.98634 9.48887 8.10739C9.43872 8.22845 9.36523 8.33845 9.27257 8.4311C9.17992 8.52376 9.06992 8.59725 8.94886 8.6474C8.82781 8.69754 8.69806 8.72335 8.56702 8.72335V10.1845Z" stroke="white" stroke-width="2.92416" mask="url(#path-2-inside-1_528_1182)"/>
</g>
<rect x="1.85476" y="0.481445" width="13.4246" height="6.11415" rx="0.664582" fill="#FFD0C2"/>
<g style="mix-blend-mode:overlay" opacity="0.3">
<path d="M8.50058 0.481445H14.6147C14.9818 0.481445 15.2793 0.778989 15.2793 1.14603V5.93102C15.2793 6.29806 14.9818 6.5956 14.6147 6.5956H8.50058V0.481445Z" fill="white"/>
</g>
<rect x="4.38019" y="0.481445" width="1.72791" height="6.11415" fill="#F0F7FF"/>
<rect x="11.1589" y="0.481445" width="1.72791" height="6.11415" fill="#F0F7FF"/>
<path d="M8.20985 9.01575C8.4226 8.73517 8.8444 8.73517 9.05715 9.01575L10.6887 11.1675C10.8048 11.3206 10.9944 11.3991 11.1848 11.373L13.86 11.0051C14.2088 10.9572 14.5071 11.2554 14.4591 11.6043L14.0913 14.2795C14.0651 14.4698 14.1437 14.6595 14.2968 14.7756L16.4485 16.4071C16.7291 16.6199 16.7291 17.0417 16.4485 17.2544L14.2968 18.886C14.1437 19.0021 14.0651 19.1917 14.0913 19.382L14.4591 22.0572C14.5071 22.4061 14.2088 22.7043 13.86 22.6564L11.1848 22.2886C10.9944 22.2624 10.8048 22.3409 10.6887 22.494L9.05715 24.6458C8.8444 24.9264 8.4226 24.9264 8.20985 24.6458L6.57829 22.494C6.4622 22.3409 6.27255 22.2624 6.08222 22.2886L3.40701 22.6564C3.05818 22.7043 2.75992 22.4061 2.80788 22.0572L3.17571 19.382C3.20188 19.1917 3.12332 19.0021 2.97023 18.886L0.818483 17.2544C0.537905 17.0417 0.537906 16.6199 0.818483 16.4071L2.97023 14.7756C3.12332 14.6595 3.20188 14.4698 3.17571 14.2795L2.80788 11.6043C2.75992 11.2554 3.05818 10.9572 3.40701 11.0051L6.08222 11.373C6.27255 11.3991 6.4622 11.3206 6.57829 11.1675L8.20985 9.01575Z" fill="#FFD0C2"/>
<path d="M8.24052 14.031C8.4456 13.6789 8.95428 13.6789 9.15936 14.031L9.76368 15.0685C9.83881 15.1975 9.96469 15.289 10.1106 15.3206L11.2841 15.5747C11.6824 15.6609 11.8395 16.1447 11.568 16.4485L10.768 17.3439C10.6686 17.4552 10.6205 17.6032 10.6355 17.7517L10.7565 18.9463C10.7975 19.3517 10.386 19.6507 10.0131 19.4864L8.91433 19.0022C8.77774 18.942 8.62214 18.942 8.48555 19.0022L7.38677 19.4864C7.0139 19.6507 6.60237 19.3517 6.64342 18.9463L6.76437 17.7517C6.77941 17.6032 6.73132 17.4552 6.63187 17.3439L5.83184 16.4485C5.56034 16.1447 5.71753 15.6609 6.11577 15.5747L7.2893 15.3206C7.43518 15.289 7.56107 15.1975 7.6362 15.0685L8.24052 14.031Z" fill="#FFB44E"/>
<g style="mix-blend-mode:overlay" opacity="0.3">
<path d="M10.6888 11.1669L9.05719 9.01512C8.95082 8.87483 8.79218 8.80469 8.63354 8.80469V24.8556C8.79218 24.8556 8.95082 24.7854 9.05719 24.6451L10.6888 22.4934C10.8048 22.3403 10.9945 22.2618 11.1848 22.2879L13.86 22.6557C14.2089 22.7037 14.5071 22.4055 14.4592 22.0566L14.0913 19.3814C14.0652 19.1911 14.1437 19.0014 14.2968 18.8853L16.4486 17.2538C16.7291 17.041 16.7291 16.6192 16.4486 16.4065L14.2968 14.7749C14.1437 14.6588 14.0652 14.4692 14.0913 14.2789L14.4592 11.6037C14.5071 11.2548 14.2089 10.9566 13.86 11.0045L11.1848 11.3723C10.9945 11.3985 10.8048 11.32 10.6888 11.1669Z" fill="white"/>
</g>
</svg>
