<svg width="18" height="19" viewBox="0 0 18 19" fill="none" xmlns="http://www.w3.org/2000/svg">
<path d="M1.27822 8.92532V15.6529H4.12642C3.5 14 3.72135 12.0994 3.72135 12.0994L3.56148 8.89712C3.56148 8.89712 3.4372 8.9254 3.37348 8.92532H1.27822ZM1.23874 16.9341C0.935119 16.9426 0.662519 16.8749 0.434099 16.7151C0.142699 16.5111 0.00545855 16.1896 0.00263855 15.8193L0.00545855 8.93566C-0.0265015 8.56906 0.0815986 8.23254 0.337279 7.9825C0.576979 7.7475 0.889999 7.63658 1.22088 7.6441H3.27478C4.1056 7.37937 4.89771 7.00576 5.63042 6.53302C6.61554 5.8957 7.34122 4.98202 7.61852 4.15858C7.71346 3.8747 7.76422 3.6397 7.8601 3.08698C7.98982 2.34532 8.07066 2.00034 8.25678 1.55666C8.64218 0.633577 9.1479 0.182377 9.84538 0.0310373C10.5316 -0.117483 11.5308 0.278257 12.1625 0.977617C12.8628 1.75218 13.172 2.72132 13.0574 3.91888C13.0085 4.434 12.8656 5.01022 12.6306 5.65224C13.4331 5.53528 14.247 5.5176 15.0539 5.5996C16.9405 5.7923 17.9999 7.02088 17.8457 8.57376C17.778 9.24304 17.5355 9.81174 17.1229 10.2582C17.4697 10.9266 17.6079 11.5874 17.5214 12.2322C17.4218 12.9748 17.0082 13.5934 16.3201 14.0737C16.2665 14.7251 16.1171 15.2449 15.852 15.6341C15.6431 15.9485 15.3706 16.2156 15.052 16.4181C14.9505 17.061 14.7371 17.5639 14.3884 17.9174C13.8103 18.5058 12.7772 18.8564 11.8335 18.7925C10.9377 18.7323 10.4075 18.6233 9.1573 18.2285C8.33292 17.9681 6.62588 17.5357 4.0531 16.9341H1.23874ZM2.83768 8.63298C2.83743 8.54888 2.85378 8.46556 2.88579 8.38779C2.91781 8.31002 2.96485 8.23933 3.02423 8.17978C3.08361 8.12022 3.15416 8.07297 3.23183 8.04073C3.30951 8.00849 3.39278 7.9919 3.47688 7.9919C3.56082 7.99214 3.64389 8.00892 3.72135 8.04127C3.7988 8.07362 3.86913 8.12091 3.92831 8.18044C3.98749 8.23997 4.03437 8.31057 4.06626 8.38822C4.09816 8.46587 4.11445 8.54903 4.1142 8.63298V15.8503C4.11432 15.9342 4.09791 16.0174 4.0659 16.095C4.03389 16.1726 3.98691 16.2431 3.92765 16.3026C3.86838 16.362 3.79798 16.4092 3.72048 16.4414C3.64297 16.4737 3.55988 16.4903 3.47594 16.4904C3.392 16.4903 3.3089 16.4737 3.2314 16.4414C3.15389 16.4092 3.0835 16.362 3.02423 16.3026C2.96496 16.2431 2.91798 16.1726 2.88597 16.095C2.85397 16.0174 2.83756 15.9342 2.83768 15.8503V8.63298Z" fill="#FDB515"/>
<path d="M1.27822 8.92532V15.6529H4.12642L4.27024 15.6698C6.91446 16.2865 8.66662 16.7311 9.53988 17.0065C10.6998 17.3722 11.1322 17.4615 11.919 17.5141C12.5075 17.5545 13.1758 17.328 13.4804 17.0178C13.6486 16.8467 13.7746 16.4951 13.8244 15.9499C13.8347 15.8356 13.8756 15.7262 13.9427 15.6331C14.0099 15.5399 14.1008 15.4666 14.206 15.4207C14.4401 15.3192 14.6347 15.1538 14.7973 14.9131C14.9477 14.6932 15.0455 14.2833 15.0633 13.6902C15.0665 13.5811 15.0974 13.4747 15.1531 13.3809C15.2089 13.2872 15.2877 13.2092 15.382 13.1544C15.9291 12.8376 16.1998 12.4804 16.2562 12.0612C16.3182 11.5977 16.1678 11.076 15.774 10.482C15.6815 10.3426 15.6471 10.1728 15.678 10.0084C15.7089 9.84413 15.8027 9.69836 15.9394 9.60212C16.3163 9.33704 16.5231 8.96856 16.5748 8.44592C16.6576 7.61308 16.1265 6.99738 14.9242 6.87424C13.8534 6.76833 12.7723 6.85848 11.7338 7.14026C11.616 7.17104 11.4919 7.16754 11.376 7.13017C11.2601 7.0928 11.1574 7.0231 11.0797 6.92929C11.0021 6.83549 10.9529 6.72146 10.9379 6.60063C10.9229 6.47981 10.9427 6.35721 10.995 6.24726C11.465 5.25274 11.7263 4.43212 11.7874 3.79668C11.8673 2.9535 11.6727 2.3425 11.2178 1.83866C10.8728 1.45702 10.321 1.23894 10.1142 1.28406C9.84162 1.34234 9.66396 1.50026 9.43272 2.05298C9.29642 2.3801 9.23062 2.65834 9.11782 3.30788C9.00972 3.92452 8.9505 4.20276 8.82736 4.56748C8.45606 5.67292 7.5452 6.81878 6.32226 7.60932C5.46516 8.16271 4.53626 8.59601 3.56148 8.89712C3.50058 8.91589 3.4372 8.9254 3.37348 8.92532H1.27822V8.92532ZM1.23874 16.9341C0.935119 16.9426 0.662519 16.8749 0.434099 16.7151C0.142699 16.5111 0.00545855 16.1896 0.00263855 15.8193L0.00545855 8.93566C-0.0265015 8.56906 0.0815985 8.23254 0.337279 7.9825C0.576979 7.7475 0.889999 7.63658 1.22088 7.6441H3.27478C4.1056 7.37937 4.89771 7.00576 5.63042 6.53302C6.61554 5.8957 7.34122 4.98202 7.61852 4.15858C7.71346 3.8747 7.76422 3.6397 7.8601 3.08698C7.98982 2.34532 8.07066 2.00034 8.25678 1.55666C8.64218 0.633577 9.1479 0.182377 9.84538 0.0310373C10.5316 -0.117483 11.5308 0.278257 12.1625 0.977617C12.8628 1.75218 13.172 2.72132 13.0574 3.91888C13.0085 4.434 12.8656 5.01022 12.6306 5.65224C13.4331 5.53528 14.247 5.5176 15.0539 5.5996C16.9405 5.7923 17.9999 7.02088 17.8457 8.57376C17.778 9.24304 17.5355 9.81174 17.1229 10.2582C17.4697 10.9266 17.6079 11.5874 17.5214 12.2322C17.4218 12.9748 17.0082 13.5934 16.3201 14.0737C16.2665 14.7251 16.1171 15.2449 15.852 15.6341C15.6431 15.9485 15.3706 16.2156 15.052 16.4181C14.9505 17.061 14.7371 17.5639 14.3884 17.9174C13.8103 18.5058 12.7772 18.8564 11.8335 18.7925C10.9377 18.7323 10.4075 18.6233 9.1573 18.2285C8.33292 17.9681 6.62588 17.5357 4.0531 16.9341H1.2378H1.23874ZM2.83768 8.63298C2.83743 8.54888 2.85378 8.46556 2.88579 8.38779C2.91781 8.31002 2.96485 8.23933 3.02423 8.17978C3.08361 8.12022 3.15416 8.07297 3.23183 8.04073C3.30951 8.00849 3.39278 7.9919 3.47688 7.9919C3.56082 7.99214 3.64389 8.00892 3.72135 8.04127C3.7988 8.07362 3.86913 8.12091 3.92831 8.18044C3.98749 8.23997 4.03437 8.31057 4.06626 8.38822C4.09816 8.46587 4.11445 8.54903 4.1142 8.63298V15.8503C4.11432 15.9342 4.09791 16.0174 4.0659 16.095C4.03389 16.1726 3.98691 16.2431 3.92765 16.3026C3.86838 16.362 3.79798 16.4092 3.72048 16.4414C3.64297 16.4737 3.55988 16.4903 3.47594 16.4904C3.392 16.4903 3.3089 16.4737 3.2314 16.4414C3.15389 16.4092 3.0835 16.362 3.02423 16.3026C2.96496 16.2431 2.91798 16.1726 2.88597 16.095C2.85397 16.0174 2.83756 15.9342 2.83768 15.8503V8.63298V8.63298Z" fill="black"/>
</svg>
