<svg width="18" height="20" viewBox="0 0 18 20" fill="none" xmlns="http://www.w3.org/2000/svg">
<path d="M1.27822 9.37063V16.0982H4.12642L4.27024 16.1151C6.91446 16.7318 8.66662 17.1764 9.53988 17.4518C10.6998 17.8175 11.1322 17.9068 11.919 17.9594C12.5075 17.9998 13.1758 17.7733 13.4804 17.4631C13.6486 17.292 13.7746 16.9404 13.8244 16.3952C13.8347 16.2809 13.8756 16.1715 13.9427 16.0784C14.0099 15.9853 14.1008 15.9119 14.206 15.866C14.4401 15.7645 14.6347 15.5991 14.7973 15.3584C14.9477 15.1385 15.0455 14.7286 15.0633 14.1355C15.0665 14.0264 15.0974 13.92 15.1531 13.8262C15.2089 13.7325 15.2877 13.6545 15.382 13.5997C15.9291 13.2829 16.1998 12.9257 16.2562 12.5065C16.3182 12.043 16.1678 11.5213 15.774 10.9273C15.6815 10.7879 15.6471 10.6181 15.678 10.4538C15.7089 10.2894 15.8027 10.1437 15.9394 10.0474C16.3163 9.78235 16.5231 9.41387 16.5748 8.89123C16.6576 8.05839 16.1265 7.44269 14.9242 7.31955C13.8534 7.21364 12.7723 7.30379 11.7338 7.58557C11.616 7.61635 11.4919 7.61285 11.376 7.57548C11.2601 7.53811 11.1574 7.46842 11.0797 7.37461C11.0021 7.2808 10.9529 7.16677 10.9379 7.04595C10.9229 6.92512 10.9427 6.80252 10.995 6.69257C11.465 5.69805 11.7263 4.87743 11.7874 4.24199C11.8673 3.39881 11.6727 2.78781 11.2178 2.28397C10.8728 1.90233 10.321 1.68425 10.1142 1.72937C9.84162 1.78765 9.66396 1.94557 9.43272 2.49829C9.29642 2.82541 9.23062 3.10365 9.11782 3.75319C9.00972 4.36983 8.9505 4.64807 8.82736 5.01279C8.45606 6.11823 7.5452 7.26409 6.32226 8.05463C5.46516 8.60802 4.53626 9.04132 3.56148 9.34243C3.50058 9.3612 3.4372 9.37071 3.37348 9.37063H1.27822ZM1.23874 17.3794C0.935119 17.3879 0.662519 17.3202 0.434099 17.1604C0.142699 16.9564 0.00545855 16.6349 0.00263855 16.2646L0.00545855 9.38097C-0.0265015 9.01437 0.0815985 8.67785 0.337279 8.42781C0.576979 8.19281 0.889999 8.08189 1.22088 8.08941H3.27478C4.1056 7.82468 4.89771 7.45107 5.63042 6.97833C6.61554 6.34101 7.34122 5.42733 7.61852 4.60389C7.71346 4.32001 7.76422 4.08501 7.8601 3.53229C7.98982 2.79063 8.07066 2.44565 8.25678 2.00197C8.64218 1.07889 9.1479 0.62769 9.84538 0.47635C10.5316 0.32783 11.5308 0.72357 12.1625 1.42293C12.8628 2.19749 13.172 3.16663 13.0574 4.36419C13.0085 4.87931 12.8656 5.45553 12.6306 6.09755C13.4331 5.98059 14.247 5.96291 15.0539 6.04491C16.9405 6.23761 17.9999 7.46619 17.8457 9.01907C17.778 9.68835 17.5355 10.257 17.1229 10.7035C17.4697 11.3719 17.6079 12.0327 17.5214 12.6775C17.4218 13.4201 17.0082 14.0387 16.3201 14.519C16.2665 15.1704 16.1171 15.6902 15.852 16.0794C15.6431 16.3938 15.3706 16.6609 15.052 16.8634C14.9505 17.5063 14.7371 18.0092 14.3884 18.3627C13.8103 18.9511 12.7772 19.3017 11.8335 19.2378C10.9377 19.1776 10.4075 19.0686 9.1573 18.6738C8.33292 18.4134 6.62588 17.981 4.0531 17.3794H1.2378H1.23874ZM2.83768 9.07829C2.83743 8.99419 2.85378 8.91087 2.88579 8.8331C2.91781 8.75533 2.96485 8.68464 3.02423 8.62509C3.08361 8.56554 3.15416 8.51828 3.23183 8.48604C3.30951 8.4538 3.39278 8.43721 3.47688 8.43721C3.56082 8.43745 3.64389 8.45423 3.72135 8.48658C3.7988 8.51893 3.86913 8.56622 3.92831 8.62575C3.98749 8.68528 4.03437 8.75589 4.06626 8.83353C4.09816 8.91118 4.11445 8.99435 4.1142 9.07829V16.2956C4.11432 16.3795 4.09791 16.4627 4.0659 16.5403C4.03389 16.6179 3.98691 16.6884 3.92765 16.7479C3.86838 16.8073 3.79798 16.8545 3.72048 16.8867C3.64297 16.919 3.55988 16.9356 3.47594 16.9357C3.392 16.9356 3.3089 16.919 3.2314 16.8867C3.15389 16.8545 3.0835 16.8073 3.02423 16.7479C2.96496 16.6884 2.91798 16.6179 2.88597 16.5403C2.85397 16.4627 2.83756 16.3795 2.83768 16.2956V9.07829Z" fill="black"/>
</svg>
