<svg width="28" height="28" viewBox="0 0 28 28" fill="none" xmlns="http://www.w3.org/2000/svg">
<defs>
<linearGradient id="paint0_linear_349_1646" x1="25.6664" y1="13.9414" x2="3.42969" y2="13.9414" gradientUnits="userSpaceOnUse">
<stop stop-color="#FF2252"/>
<stop offset="1" stop-color="#FC7B04"/>
</linearGradient>
</defs>
<path d="M8.09635 5.83334C8.09605 6.45218 7.84992 7.04555 7.41211 7.48291C6.97431 7.92028 6.38069 8.16582 5.76185 8.16551C5.14302 8.1652 4.54965 7.91907 4.11228 7.48126C3.67491 7.04346 3.42938 6.44985 3.42969 5.83101C3.43 5.21217 3.67613 4.6188 4.11393 4.18143C4.55173 3.74407 5.14535 3.49853 5.76419 3.49884C6.38303 3.49915 6.9764 3.74528 7.41376 4.18308C7.85113 4.62089 8.09666 5.2145 8.09635 5.83334ZM8.16636 9.89334H3.49969V24.5H8.16636V9.89334ZM15.5397 9.89334H10.8964V24.5H15.493V16.835C15.493 12.565 21.058 12.1683 21.058 16.835V24.5H25.6664V15.2483C25.6664 8.05001 17.4297 8.31834 15.493 11.8533L15.5397 9.89334Z" fill="url(#paint0_linear_349_1646)"/>
</svg>
