<svg width="14" height="15" viewBox="0 0 14 15" fill="none" xmlns="http://www.w3.org/2000/svg">
<defs>
<linearGradient id="paint0_linear_994_4304" x1="13.3337" y1="7.1685" x2="0.666992" y2="7.1685" gradientUnits="userSpaceOnUse">
<stop stop-color="#FF2252"/>
<stop offset="1" stop-color="#FC7B04"/>
</linearGradient>
</defs>
<path d="M10.667 5.33333C10.8559 5.33333 11.0141 5.26956 11.1417 5.142C11.2697 5.014 11.3337 4.85556 11.3337 4.66667V3.33333H12.667C12.8559 3.33333 13.0141 3.26933 13.1417 3.14133C13.2697 3.01378 13.3337 2.85556 13.3337 2.66667C13.3337 2.47778 13.2697 2.31933 13.1417 2.19133C13.0141 2.06378 12.8559 2 12.667 2H11.3337V0.666667C11.3337 0.477778 11.2697 0.319333 11.1417 0.191333C11.0141 0.0637778 10.8559 0 10.667 0C10.4781 0 10.3199 0.0637778 10.1923 0.191333C10.0643 0.319333 10.0003 0.477778 10.0003 0.666667V2H8.66699C8.4781 2 8.31988 2.06378 8.19233 2.19133C8.06433 2.31933 8.00033 2.47778 8.00033 2.66667C8.00033 2.85556 8.06433 3.01378 8.19233 3.14133C8.31988 3.26933 8.4781 3.33333 8.66699 3.33333H10.0003V4.66667C10.0003 4.85556 10.0643 5.014 10.1923 5.142C10.3199 5.26956 10.4781 5.33333 10.667 5.33333ZM6.00033 8C6.36699 8 6.68099 7.86933 6.94233 7.608C7.20321 7.34711 7.33366 7.03333 7.33366 6.66667C7.33366 6.3 7.20321 5.986 6.94233 5.72467C6.68099 5.46378 6.36699 5.33333 6.00033 5.33333C5.63366 5.33333 5.31988 5.46378 5.05899 5.72467C4.79766 5.986 4.66699 6.3 4.66699 6.66667C4.66699 7.03333 4.79766 7.34711 5.05899 7.608C5.31988 7.86933 5.63366 8 6.00033 8ZM6.00033 14.4167C5.91144 14.4167 5.82255 14.4 5.73366 14.3667C5.64477 14.3333 5.56699 14.2889 5.50033 14.2333C3.8781 12.8 2.66699 11.4696 1.86699 10.242C1.06699 9.014 0.666992 7.86667 0.666992 6.8C0.666992 5.13333 1.20321 3.80556 2.27566 2.81667C3.34766 1.82778 4.58921 1.33333 6.00033 1.33333C6.11144 1.33333 6.22255 1.336 6.33366 1.34133C6.44477 1.34711 6.55588 1.35556 6.66699 1.36667V2.71667C6.55588 2.69444 6.44744 2.68044 6.34166 2.67467C6.23633 2.66933 6.12255 2.66667 6.00033 2.66667C4.8781 2.66667 3.93077 3.05267 3.15833 3.82467C2.38633 4.59711 2.00033 5.58889 2.00033 6.8C2.00033 7.58889 2.3281 8.49156 2.98366 9.508C3.63921 10.5249 4.64477 11.6556 6.00033 12.9C7.35588 11.6556 8.36144 10.5249 9.01699 9.508C9.67255 8.49156 10.0003 7.58889 10.0003 6.8V6.66667H11.3337V6.8C11.3337 7.86667 10.9337 9.014 10.1337 10.242C9.33366 11.4696 8.12255 12.8 6.50033 14.2333C6.43366 14.2889 6.35588 14.3333 6.26699 14.3667C6.1781 14.4 6.08921 14.4167 6.00033 14.4167Z" fill="url(#paint0_linear_994_4304)"/>

</svg>
