<svg width="21" height="21" viewBox="0 0 21 21" fill="none" xmlns="http://www.w3.org/2000/svg">
<defs>
<linearGradient id="paint0_linear_6_834" x1="21" y1="10.442" x2="2.57171e-07" y2="10.442" gradientUnits="userSpaceOnUse">
<stop stop-color="#FF2252"/>
<stop offset="1" stop-color="#FC7B04"/>
</linearGradient>
</defs>
<circle cx="10.5" cy="10.5" r="10.5" fill="url(#paint0_linear_6_834)"/>
<path d="M7 16C6.725 16 6.48967 15.9022 6.294 15.7065C6.098 15.5105 6 15.275 6 15V10C6 9.725 6.098 9.4895 6.294 9.2935C6.48967 9.09783 6.725 9 7 9H7.5V8C7.5 7.30833 7.74383 6.71867 8.2315 6.231C8.71883 5.74367 9.30833 5.5 10 5.5C10.6917 5.5 11.2813 5.74367 11.769 6.231C12.2563 6.71867 12.5 7.30833 12.5 8V9H13C13.275 9 13.5105 9.09783 13.7065 9.2935C13.9022 9.4895 14 9.725 14 10V15C14 15.275 13.9022 15.5105 13.7065 15.7065C13.5105 15.9022 13.275 16 13 16H7ZM10 13.5C10.275 13.5 10.5105 13.4022 10.7065 13.2065C10.9022 13.0105 11 12.775 11 12.5C11 12.225 10.9022 11.9895 10.7065 11.7935C10.5105 11.5978 10.275 11.5 10 11.5C9.725 11.5 9.48967 11.5978 9.294 11.7935C9.098 11.9895 9 12.225 9 12.5C9 12.775 9.098 13.0105 9.294 13.2065C9.48967 13.4022 9.725 13.5 10 13.5ZM8.5 9H11.5V8C11.5 7.58333 11.3542 7.22917 11.0625 6.9375C10.7708 6.64583 10.4167 6.5 10 6.5C9.58333 6.5 9.22917 6.64583 8.9375 6.9375C8.64583 7.22917 8.5 7.58333 8.5 8V9Z" fill="white"/>
</svg>
