<svg width="475" height="651" viewBox="0 0 475 651" fill="none" xmlns="http://www.w3.org/2000/svg">
<path d="M467.033 305.21H16.2205V254.765C16.2205 123.907 115.516 17.4876 237.608 17.4876C269.92 17.7348 301.771 25.3495 330.842 39.7772C359.913 54.205 385.472 75.0825 405.658 100.89C406.315 101.75 407.139 102.461 408.078 102.98C409.016 103.499 410.05 103.814 411.113 103.906C412.177 103.997 413.247 103.862 414.257 103.511C415.267 103.159 416.195 102.597 416.983 101.861C418.638 100.339 419.654 98.2213 419.817 95.9509C419.981 93.6804 419.279 91.4333 417.86 89.6797C396.208 61.8894 368.748 39.4103 337.493 23.892C306.239 8.37375 271.984 0.210058 237.243 0C106.675 0.224199 0 114.416 0 254.765V372.32C0 491.22 78.6182 595.772 186.901 620.957C188.086 621.242 189.32 621.235 190.501 620.937C191.683 620.638 192.778 620.056 193.696 619.238C194.641 618.406 195.399 617.373 195.916 616.212C196.433 615.051 196.698 613.788 196.692 612.512V465.736H268.369L234.393 486.886C233.145 487.666 232.118 488.766 231.414 490.077C230.709 491.388 230.351 492.864 230.375 494.359V642.331C230.358 643.834 230.727 645.315 231.445 646.626C232.163 647.937 233.205 649.033 234.466 649.804C235.663 650.595 237.06 651.011 238.485 651C239.904 650.971 241.291 650.559 242.503 649.804L289.411 620.658C397.036 594.875 474.997 490.697 474.997 372.32V313.879C475.056 311.652 474.252 309.491 472.76 307.867C471.269 306.243 469.21 305.288 467.033 305.21ZM458.923 372.47C458.923 479.637 390.387 574.249 294.526 601.676V457.067C294.555 455.962 294.37 454.862 293.981 453.83C293.592 452.798 293.007 451.856 292.259 451.056C291.512 450.257 290.617 449.618 289.627 449.174C288.636 448.731 287.57 448.493 286.489 448.473H188.727C187.643 448.493 186.573 448.73 185.579 449.173C184.584 449.615 183.685 450.254 182.932 451.052C182.179 451.85 181.587 452.792 181.189 453.824C180.792 454.856 180.598 455.958 180.617 457.067V601.527C84.8287 574.249 16.2205 479.487 16.2205 372.32V322.473H458.923V372.47ZM277.648 494.882L249.445 512.221C249.161 512.38 248.84 512.459 248.516 512.45C248.193 512.441 247.877 512.344 247.602 512.169C247.327 511.994 247.102 511.748 246.951 511.455C246.8 511.162 246.727 510.833 246.741 510.502V500.637C246.74 500.301 246.828 499.971 246.995 499.681C247.162 499.392 247.403 499.154 247.691 498.993L275.821 481.655C276.096 481.472 276.414 481.372 276.742 481.366C277.069 481.359 277.391 481.446 277.673 481.617C277.954 481.788 278.183 482.036 278.333 482.334C278.484 482.631 278.55 482.965 278.525 483.299V493.164C278.531 493.502 278.455 493.837 278.301 494.138C278.148 494.438 277.923 494.694 277.648 494.882V494.882ZM277.648 523.281L249.445 540.619C249.166 540.775 248.853 540.854 248.535 540.848C248.218 540.842 247.907 540.752 247.634 540.586C247.361 540.42 247.135 540.184 246.979 539.902C246.822 539.619 246.74 539.3 246.741 538.975V529.11C246.749 528.766 246.84 528.429 247.006 528.129C247.171 527.829 247.407 527.576 247.691 527.391L275.821 510.053C276.105 509.894 276.426 509.815 276.749 509.824C277.073 509.833 277.389 509.93 277.664 510.105C277.939 510.279 278.164 510.526 278.315 510.819C278.466 511.112 278.539 511.441 278.525 511.772V521.637C278.486 521.914 278.388 522.179 278.236 522.411C278.084 522.644 277.883 522.839 277.648 522.982V523.281ZM277.648 551.754L249.445 569.092C249.161 569.252 248.84 569.331 248.516 569.322C248.193 569.313 247.877 569.216 247.602 569.041C247.327 568.866 247.102 568.619 246.951 568.326C246.8 568.033 246.727 567.705 246.741 567.373V557.509C246.748 557.174 246.839 556.847 247.005 556.559C247.171 556.271 247.408 556.032 247.691 555.865L275.821 538.526C276.105 538.367 276.426 538.288 276.749 538.297C277.073 538.306 277.389 538.403 277.664 538.578C277.939 538.753 278.164 538.999 278.315 539.292C278.466 539.585 278.539 539.914 278.525 540.245V550.035C278.492 550.324 278.396 550.602 278.244 550.847C278.092 551.093 277.889 551.301 277.648 551.455V551.754ZM277.648 580.153L249.445 597.566C249.161 597.725 248.84 597.804 248.516 597.795C248.193 597.786 247.877 597.689 247.602 597.514C247.327 597.339 247.102 597.093 246.951 596.8C246.8 596.507 246.727 596.178 246.741 595.847V585.982C246.74 585.646 246.828 585.316 246.995 585.026C247.162 584.737 247.403 584.499 247.691 584.338L275.821 567C276.096 566.817 276.414 566.717 276.742 566.711C277.069 566.704 277.391 566.791 277.673 566.962C277.954 567.133 278.183 567.382 278.333 567.679C278.484 567.976 278.55 568.31 278.525 568.644V578.509C278.492 578.788 278.395 579.054 278.243 579.288C278.091 579.522 277.887 579.716 277.648 579.854V580.153ZM277.648 608.626L249.445 625.964C249.166 626.12 248.853 626.199 248.535 626.193C248.218 626.187 247.907 626.097 247.634 625.931C247.361 625.765 247.135 625.529 246.979 625.247C246.822 624.964 246.74 624.645 246.741 624.32V614.455C246.749 614.111 246.84 613.774 247.006 613.474C247.171 613.174 247.407 612.921 247.691 612.736L275.821 595.398C276.105 595.239 276.426 595.16 276.749 595.169C277.073 595.178 277.389 595.275 277.664 595.45C277.939 595.625 278.164 595.871 278.315 596.164C278.466 596.457 278.539 596.786 278.525 597.117V606.982C278.486 607.259 278.388 607.524 278.236 607.757C278.084 607.989 277.883 608.184 277.648 608.327V608.626Z" fill="#231F20"/>
</svg>
