<svg width="175" height="81" viewBox="0 0 175 81" fill="none" xmlns="http://www.w3.org/2000/svg">
<path d="M37.0073 75.0435L33.2475 77.1848C33.0868 77.2769 32.8858 77.161 32.8858 76.978V75.7607C32.8858 75.6739 32.9323 75.5959 33.0068 75.5532L36.7673 73.412C36.9266 73.3198 37.1311 73.4357 37.1311 73.6214V74.8361C37.1311 74.9229 37.0832 75.0015 37.0073 75.0435ZM37.0073 71.5331L33.2475 73.6736C33.0868 73.7651 32.8858 73.6506 32.8858 73.4662V72.2502C32.8858 72.1641 32.9323 72.0862 33.0068 72.0414L36.7673 69.9015C36.9266 69.8093 37.1311 69.9266 37.1311 70.1117V71.3263C37.1311 71.4124 37.0832 71.4897 37.0073 71.5331ZM37.0073 68.0233L33.2475 70.1638C33.0868 70.2554 32.8858 70.1401 32.8858 69.9564V68.7384C32.8858 68.6543 32.9323 68.575 33.0068 68.531L36.7673 66.3911C36.9266 66.2989 37.1311 66.4155 37.1311 66.5998V67.8159C37.1311 67.9013 37.0832 67.9806 37.0073 68.0233ZM37.0073 64.5121L33.2475 66.6527C33.0868 66.7435 32.8858 66.629 32.8858 66.4453V65.23C32.8858 65.1439 32.9323 65.0646 33.0068 65.0205L36.7673 62.8813C36.9266 62.7891 37.1311 62.9037 37.1311 63.0901V64.3054C37.1311 64.3908 37.0832 64.4694 37.0073 64.5121M37.0073 61.0024L33.2475 63.1429C33.0868 63.2338 32.8858 63.1185 32.8858 62.9362V61.7202C32.8858 61.6334 32.9323 61.5541 33.0068 61.5114L36.7673 59.3695C36.9266 59.2786 37.1311 59.3939 37.1311 59.5776V60.7943C37.1311 60.8803 37.0832 60.9603 37.0073 61.0024ZM61.2153 45.9173C61.2153 59.1458 52.067 70.8356 39.2807 74.2071V57.2994V56.3796C39.2807 55.7905 38.8007 55.3134 38.2052 55.3134H25.1618C24.5683 55.3134 24.0863 55.7905 24.0863 56.3796V74.2071C11.2965 70.8356 2.15032 59.1458 2.15032 45.9173V39.7695H61.2153V45.9173ZM62.2908 37.635H2.15032V31.4092C2.15032 15.2661 15.3982 2.1325 31.6824 2.1325C40.335 2.1325 48.524 5.88291 54.1497 12.4205C54.5373 12.8693 55.2142 12.9215 55.6655 12.5419C56.1201 12.1582 56.1728 11.4838 55.7858 11.0371C49.7506 4.02228 40.964 6.32596e-05 31.6824 6.32596e-05C14.2119 6.32596e-05 0 14.0914 0 31.4092V45.9173C0 60.5889 10.4822 73.4947 24.9334 76.6039C25.25 76.6737 25.5843 76.5951 25.8366 76.3917C26.0903 76.1904 26.2373 75.8874 26.2373 75.5634V57.4472H35.8046L31.2695 60.0541C30.9365 60.2452 30.7334 60.5957 30.7334 60.9752V79.2393C30.7334 79.6195 30.9379 79.9733 31.2729 80.1652C31.4377 80.258 31.6236 80.3062 31.8089 80.3062C31.9956 80.3062 32.1829 80.2573 32.3477 80.1618L38.61 76.5632C52.9661 73.3869 63.3669 60.5285 63.3669 45.9173V38.7019C63.3669 38.1129 62.8849 37.635 62.2908 37.635" fill="#231F20"/>
<path d="M87.3548 5.39138V36.73H83.8076V14.1611L81.0679 36.73H78.5088L75.6351 14.0269V36.73H72.0879V5.39138H76.6237L79.7654 25.6455L82.5954 5.39138H87.3548Z" fill="#231F20"/>
<path d="M99.5725 24.4432C97.4619 25.868 94.2306 26.3581 94.2306 28.8064V31.4336C94.2306 33.4807 95.3512 34.1483 96.9238 34.1483C98.2707 34.1483 99.5725 33.4807 99.5725 31.254V24.4432ZM103.076 17.8114V36.7295H100.202L100.111 35.2166C99.3483 36.4631 97.8215 37.1748 95.7567 37.1748C92.3879 37.1748 90.5918 35.8388 90.5918 31.477V28.8064C90.5918 22.6639 99.483 24.088 99.483 20.0373V18.1225C99.483 16.0754 98.4498 15.6735 97.2827 15.6735C96.1607 15.6735 95.0374 16.0754 95.0374 18.1225V21.149H91.4006V18.0771C91.4006 14.1606 94.4548 12.87 97.0585 12.87C100.202 12.87 103.076 13.8942 103.076 17.8114" fill="#231F20"/>
<path d="M106.354 31.9223V28.4938H109.631V31.2105C109.631 33.4806 110.708 34.1035 112.011 34.1035C113.448 34.1035 114.526 33.4806 114.526 31.3881V29.3411C114.526 25.3338 106.309 26.7586 106.309 20.3924V17.8553C106.309 13.9382 109.317 12.8699 112.011 12.8699C114.615 12.8699 117.489 13.9382 117.489 17.8553V21.4166H114.256V18.0777C114.256 16.0306 113 15.6741 112.011 15.6741C110.933 15.6741 109.587 16.0306 109.587 18.0777V20.0373C109.587 24.0432 117.893 22.6184 117.893 28.7616V31.4335C117.893 35.7954 115.154 37.1313 112.011 37.1313C108.957 37.1313 106.354 35.7954 106.354 31.9223Z" fill="#231F20"/>
<path d="M126.968 16.5642V30.9429C126.968 33.5695 127.686 33.7471 130.874 32.99V36.2842L128.584 36.6861C125.217 37.4426 123.421 36.0619 123.421 32.5012V16.5642H120.771V13.4035H123.421V5.39092H126.968V13.4035H130.874V16.5642H126.968Z" fill="#231F20"/>
<path d="M137.025 19.236V23.9543H141.92V19.236C141.92 16.8758 140.618 15.9865 139.541 15.9865H139.495C138.148 15.9865 137.025 16.8758 137.025 19.236ZM137.025 26.5809V30.7204C137.025 33.0805 138.148 34.0146 139.495 34.0146H139.541C140.887 34.0146 141.92 33.0805 141.92 30.7204V30.1415L145.468 30.0974V31.0315C145.468 35.1276 143.042 37.1753 139.631 37.1753H139.405C136.038 37.1753 133.479 35.1716 133.479 31.0769V18.8354C133.479 14.7847 135.993 12.8698 139.405 12.8698H139.631C142.953 12.8698 145.468 14.7847 145.468 18.8354V26.5809H137.025Z" fill="#231F20"/>
<path d="M157.145 13.404V16.7436H155.664C154.271 16.7436 152.79 17.6777 152.79 19.8582V36.73H149.242V13.404H151.892L151.981 16.2529C152.655 14.4722 154.406 13.404 156.786 13.404H157.145Z" fill="#231F20"/>
<path d="M168.866 15.8529V11.4904C168.866 9.08687 167.565 8.15147 166.084 8.15147H166.038C164.645 8.15147 163.343 9.08687 163.343 11.4904V30.4092C163.343 32.8582 164.645 33.7035 165.993 33.7035H166.127C167.835 33.7035 169.137 32.8582 169.137 30.4092V23.3321H165.993V19.8148H172.503V30.1415C172.503 35.0828 169.81 37.1753 166.173 37.1753H165.948C162.401 37.1753 159.662 35.0828 159.662 30.1415V11.7575C159.662 6.86089 162.401 4.99144 165.948 4.99144H166.173C169.81 4.99144 172.503 6.86089 172.503 11.7575V15.8529H168.866Z" fill="#231F20"/>
<path d="M75.3984 60.5305H73.9708C73.0901 60.5305 71.9661 60.8918 71.9661 62.608L71.9962 66.2812C71.9962 67.6971 72.7865 68.4197 73.7588 68.4197C74.8514 68.4197 75.3984 67.6971 75.3984 66.2812V60.5305ZM79.5294 68.3296V70.4078L79.1349 70.4369C78.1319 70.4369 77.1904 69.9252 76.6434 69.2324C76.0971 70.0756 75.064 70.6782 73.7889 70.6782C71.0854 70.6782 69.5977 69.0521 69.5977 66.5225V62.5782C69.5977 60.7718 70.5692 59.9584 71.4198 59.5673C70.6301 59.1457 69.7788 58.1825 69.7788 56.736V53.0324C69.7788 50.4431 71.2379 48.9973 73.819 48.9973C76.0363 48.9973 77.7381 50.2621 77.7381 53.0324V56.736H75.3074V53.2432C75.3074 51.7079 74.6394 51.1358 73.7889 51.1358C72.9383 51.1358 72.1787 51.6171 72.1787 53.2432V56.3151C72.1787 58.0008 73.0901 58.4225 74.0015 58.4225L79.4679 58.3926V60.5305H77.6157V66.3117C77.6157 67.5467 78.2235 68.3296 79.1042 68.3296H79.5294Z" fill="#231F20"/>
<path d="M90.7077 68.1792C91.6492 68.1792 92.4998 67.7271 92.4998 66.1308V53.5442C92.4998 51.9486 91.6492 51.4667 90.7385 51.4667H89.0073V68.1792H90.7077ZM86.6074 49.238H90.7686C93.1684 49.238 94.9297 50.111 94.9297 53.183V66.4921C94.9297 69.8053 93.1684 70.437 90.7686 70.437H86.6074V49.238Z" fill="#231F20"/>
<path d="M102.98 62.1263C101.553 63.0895 99.366 63.4216 99.366 65.0776V66.8548C99.366 68.2396 100.125 68.6911 101.188 68.6911C102.1 68.6911 102.98 68.2396 102.98 66.7335V62.1263ZM105.35 57.6398V70.4371H103.406L103.345 69.4136C102.828 70.2575 101.796 70.7388 100.399 70.7388C98.1203 70.7388 96.9053 69.8352 96.9053 66.884V65.0776C96.9053 60.9225 102.919 61.8864 102.919 59.1459V57.8506C102.919 56.4658 102.221 56.1947 101.431 56.1947C100.672 56.1947 99.9123 56.4658 99.9123 57.8506V59.8976H97.4523V57.8201C97.4523 55.1705 99.5185 54.2974 101.28 54.2974C103.406 54.2974 105.35 54.9902 105.35 57.6398" fill="#231F20"/>
<path d="M116.042 54.6582V70.4366H114.371L114.219 68.7509C113.794 69.9554 112.7 70.7383 111.242 70.7383C108.63 70.7383 107.598 69.323 107.598 67.1553V54.6582H109.997V66.4321C109.997 67.907 110.726 68.6309 111.789 68.6309C112.7 68.6309 113.642 68.0283 113.642 66.4321V54.6582H116.042Z" fill="#231F20"/>
<path d="M124.245 65.1381V58.6031C124.245 57.0069 123.425 56.3751 122.515 56.3751C121.451 56.3751 120.783 57.0977 120.783 58.6031V65.1381C120.783 66.613 121.451 67.3661 122.515 67.3661C123.212 67.3661 124.245 66.7337 124.245 65.1381ZM126.645 54.6589V71.2209C126.645 73.9905 125.004 75.3149 122.515 75.3149C119.751 75.3149 118.384 73.7797 118.384 71.2209V70.8887H120.783C120.783 72.3345 121.147 73.3581 122.515 73.3581C123.82 73.3581 124.245 72.3345 124.245 70.9796V67.9687C123.79 68.902 122.788 69.4734 121.755 69.4734C119.476 69.4734 118.384 68.029 118.384 65.8606V57.8813C118.384 55.6824 119.476 54.2976 121.755 54.2976C123.031 54.2976 124.063 55.0507 124.458 56.1942L124.701 54.6589H126.645Z" fill="#231F20"/>
<path d="M137.733 57.881V70.437H135.333V58.573C135.333 57.0974 134.727 56.3748 133.693 56.3748C132.721 56.3748 131.659 57.0066 131.659 58.6029V70.437H129.259V49.238H131.659V55.8631C132.266 54.929 133.42 54.357 134.665 54.357C136.7 54.357 137.733 55.6821 137.733 57.881Z" fill="#231F20"/>
<path d="M143.87 56.7966V66.5227C143.87 68.2993 144.355 68.4193 146.512 67.9075V70.1362L144.963 70.408C142.686 70.9191 141.47 69.9857 141.47 67.5767V56.7966H139.679V54.6587H141.47V49.2381H143.87V54.6587H146.512V56.7966H143.87Z" fill="#231F20"/>
<path d="M150.675 58.6032V61.795H153.986V58.6032C153.986 57.0069 153.106 56.4057 152.377 56.4057H152.346C151.434 56.4057 150.675 57.0069 150.675 58.6032ZM150.675 63.5716V66.3717C150.675 67.968 151.434 68.6004 152.346 68.6004H152.377C153.288 68.6004 153.986 67.968 153.986 66.3717V65.9799L156.386 65.9508V66.5825C156.386 69.3535 154.745 70.7383 152.437 70.7383H152.285C150.006 70.7383 148.276 69.3826 148.276 66.613V58.3327C148.276 55.5923 149.977 54.2969 152.285 54.2969H152.437C154.685 54.2969 156.386 55.5923 156.386 58.3327V63.5716H150.675Z" fill="#231F20"/>
<path d="M164.284 54.6586V56.9178H163.281C162.339 56.9178 161.338 57.5495 161.338 59.0245V70.437H158.938V54.6586H160.731L160.791 56.5856C161.247 55.3811 162.431 54.6586 164.042 54.6586H164.284Z" fill="#231F20"/>
<path d="M166.047 67.185V64.8661H168.265V66.7037C168.265 68.239 168.994 68.6606 169.876 68.6606C170.847 68.6606 171.576 68.239 171.576 66.8237V65.4389C171.576 62.7283 166.017 63.6921 166.017 59.3859V57.669C166.017 55.02 168.053 54.2975 169.876 54.2975C171.636 54.2975 173.581 55.02 173.581 57.669V60.0786H171.393V57.8201C171.393 56.4353 170.543 56.194 169.876 56.194C169.145 56.194 168.235 56.4353 168.235 57.8201V59.146C168.235 61.8552 173.853 60.892 173.853 65.0471V66.8542C173.853 69.8054 172.001 70.709 169.876 70.709C167.809 70.709 166.047 69.8054 166.047 67.185Z" fill="#231F20"/>
<path d="M70.873 42.9067H174.001" stroke="#FDB514" stroke-width="1.80533" stroke-miterlimit="10" stroke-linecap="round"/>
</svg>
