<svg width="26" height="32" viewBox="0 0 26 32" fill="none" xmlns="http://www.w3.org/2000/svg">
<path d="M22.832 14.8789H0.792977V12.4197C0.792977 6.04045 5.64728 0.852513 11.616 0.852513C13.1957 0.864565 14.7528 1.23578 16.174 1.93913C17.5952 2.64247 18.8447 3.66025 19.8316 4.91834C19.8637 4.96026 19.9039 4.99496 19.9498 5.02026C19.9957 5.04557 20.0462 5.06092 20.0982 5.06537C20.1502 5.06981 20.2025 5.06326 20.2519 5.04611C20.3013 5.02895 20.3467 5.00158 20.3852 4.9657C20.4661 4.8915 20.5158 4.78826 20.5238 4.67757C20.5317 4.56689 20.4975 4.45734 20.4281 4.37186C19.3696 3.01709 18.0271 1.92124 16.4992 1.16473C14.9712 0.408218 13.2966 0.0102402 11.5982 0C5.21507 0.0109296 0 5.57776 0 12.4197V18.1505C0 23.9468 3.84343 29.0437 9.13709 30.2715C9.19501 30.2854 9.25533 30.285 9.3131 30.2705C9.37086 30.2559 9.42439 30.2275 9.46928 30.1877C9.51549 30.1471 9.55253 30.0967 9.57781 30.0401C9.6031 29.9835 9.61603 29.922 9.61573 29.8598V22.7045H13.1198L11.4589 23.7355C11.3979 23.7736 11.3477 23.8272 11.3132 23.8911C11.2787 23.955 11.2612 24.0269 11.2624 24.0999V31.3134C11.2616 31.3867 11.2797 31.4589 11.3148 31.5228C11.3498 31.5867 11.4008 31.6402 11.4624 31.6777C11.5209 31.7163 11.5892 31.7366 11.6589 31.736C11.7283 31.7346 11.7961 31.7145 11.8554 31.6777L14.1486 30.2569C19.4101 29 23.2213 23.9213 23.2213 18.1505V15.3015C23.2242 15.1929 23.1849 15.0876 23.112 15.0084C23.0391 14.9292 22.9384 14.8827 22.832 14.8789ZM22.4355 18.1578C22.4355 23.3821 19.085 27.9944 14.3986 29.3315V22.2819C14.4 22.228 14.391 22.1744 14.3719 22.1241C14.3529 22.0738 14.3243 22.0278 14.2878 21.9889C14.2512 21.9499 14.2075 21.9187 14.1591 21.8971C14.1107 21.8755 14.0585 21.8639 14.0057 21.8629H9.22639C9.17338 21.8639 9.12107 21.8755 9.07246 21.897C9.02384 21.9186 8.97987 21.9497 8.94305 21.9886C8.90623 22.0275 8.87728 22.0735 8.85787 22.1238C8.83846 22.1741 8.82895 22.2278 8.8299 22.2819V29.3242C4.14705 27.9945 0.792977 23.3749 0.792977 18.1505V15.7205H22.4355V18.1578ZM13.5735 24.1254L12.1947 24.9706C12.1808 24.9784 12.1651 24.9822 12.1493 24.9818C12.1335 24.9813 12.118 24.9766 12.1046 24.9681C12.0911 24.9596 12.0802 24.9475 12.0728 24.9332C12.0654 24.919 12.0618 24.9029 12.0625 24.8868V24.4059C12.0625 24.3895 12.0668 24.3734 12.0749 24.3593C12.0831 24.3452 12.0949 24.3336 12.109 24.3257L13.4842 23.4805C13.4976 23.4716 13.5132 23.4667 13.5292 23.4664C13.5452 23.4661 13.5609 23.4703 13.5747 23.4787C13.5884 23.487 13.5996 23.4991 13.607 23.5136C13.6143 23.5281 13.6176 23.5444 13.6163 23.5607V24.0416C13.6167 24.0581 13.6129 24.0744 13.6054 24.0891C13.5979 24.1037 13.5869 24.1162 13.5735 24.1254ZM13.5735 25.5098L12.1947 26.355C12.1811 26.3626 12.1657 26.3665 12.1502 26.3662C12.1347 26.3659 12.1195 26.3615 12.1062 26.3534C12.0928 26.3453 12.0818 26.3338 12.0741 26.32C12.0665 26.3063 12.0625 26.2907 12.0625 26.2749V25.794C12.0629 25.7772 12.0673 25.7607 12.0754 25.7461C12.0835 25.7315 12.0951 25.7191 12.109 25.7102L13.4842 24.8649C13.4981 24.8572 13.5137 24.8533 13.5295 24.8537C13.5454 24.8542 13.5608 24.8589 13.5743 24.8674C13.5877 24.876 13.5987 24.888 13.6061 24.9023C13.6135 24.9166 13.617 24.9326 13.6163 24.9487V25.4296C13.6145 25.4431 13.6096 25.456 13.6022 25.4674C13.5948 25.4787 13.585 25.4882 13.5735 25.4952V25.5098ZM13.5735 26.8978L12.1947 27.7431C12.1808 27.7508 12.1651 27.7547 12.1493 27.7543C12.1335 27.7538 12.118 27.7491 12.1046 27.7406C12.0911 27.732 12.0802 27.72 12.0728 27.7057C12.0654 27.6914 12.0618 27.6754 12.0625 27.6593V27.1784C12.0628 27.1621 12.0673 27.1461 12.0754 27.1321C12.0836 27.118 12.0951 27.1064 12.109 27.0982L13.4842 26.253C13.4981 26.2452 13.5137 26.2414 13.5295 26.2418C13.5454 26.2422 13.5608 26.247 13.5743 26.2555C13.5877 26.264 13.5987 26.276 13.6061 26.2903C13.6135 26.3046 13.617 26.3207 13.6163 26.3368V26.8141C13.6147 26.8281 13.61 26.8416 13.6026 26.8536C13.5952 26.8656 13.5852 26.8757 13.5735 26.8833V26.8978ZM13.5735 28.2823L12.1947 29.1311C12.1808 29.1389 12.1651 29.1428 12.1493 29.1423C12.1335 29.1419 12.118 29.1372 12.1046 29.1286C12.0911 29.1201 12.0802 29.1081 12.0728 29.0938C12.0654 29.0795 12.0618 29.0635 12.0625 29.0473V28.5664C12.0625 28.5501 12.0668 28.534 12.0749 28.5198C12.0831 28.5057 12.0949 28.4941 12.109 28.4863L13.4842 27.6411C13.4976 27.6322 13.5132 27.6273 13.5292 27.627C13.5452 27.6266 13.5609 27.6309 13.5747 27.6392C13.5884 27.6476 13.5996 27.6597 13.607 27.6742C13.6143 27.6886 13.6176 27.7049 13.6163 27.7212V28.2021C13.6147 28.2157 13.61 28.2287 13.6026 28.2401C13.5951 28.2515 13.5851 28.2609 13.5735 28.2677V28.2823ZM13.5735 29.6703L12.1947 30.5156C12.1811 30.5232 12.1657 30.527 12.1502 30.5267C12.1347 30.5264 12.1195 30.522 12.1062 30.5139C12.0928 30.5058 12.0818 30.4944 12.0741 30.4806C12.0665 30.4668 12.0625 30.4512 12.0625 30.4354V29.9545C12.0629 29.9377 12.0673 29.9213 12.0754 29.9067C12.0835 29.892 12.0951 29.8797 12.109 29.8707L13.4842 29.0255C13.4981 29.0177 13.5137 29.0138 13.5295 29.0143C13.5454 29.0147 13.5608 29.0195 13.5743 29.028C13.5877 29.0365 13.5987 29.0485 13.6061 29.0628C13.6135 29.0771 13.617 29.0931 13.6163 29.1093V29.5902C13.6145 29.6037 13.6096 29.6166 13.6022 29.6279C13.5948 29.6393 13.585 29.6488 13.5735 29.6558V29.6703Z" fill="#231F20"/>
<path d="M22.4876 2.04534H22.1888V0.485807H21.6582V0.23291H23.0169V0.485807H22.4876V2.04534Z" fill="black"/>
<path d="M24.0768 2.04534L23.5549 0.531675H23.5438C23.5462 0.56556 23.5491 0.611842 23.5524 0.67052C23.5558 0.729199 23.5586 0.79201 23.5611 0.858953C23.5636 0.925896 23.5648 0.989947 23.5648 1.05111V2.04534H23.2946V0.23291H23.7124L24.2144 1.67963H24.2219L24.7413 0.23291H25.1578V2.04534H24.874V1.03623C24.874 0.980856 24.8748 0.920938 24.8764 0.856474C24.8789 0.79201 24.8814 0.730852 24.8839 0.673C24.8872 0.615148 24.8897 0.568866 24.8913 0.534155H24.8814L24.3397 2.04534H24.0768Z" fill="black"/>
</svg>
