<svg width="18" height="26" viewBox="0 0 18 26" fill="none" xmlns="http://www.w3.org/2000/svg">
<circle cx="8.74274" cy="7.72555" r="1.72791" stroke="#FABE2C" stroke-width="1.46208"/>
<g style="mix-blend-mode:overlay" opacity="0.3">
<mask id="path-2-inside-1_528_1208" fill="white">
<path d="M8.74274 10.1845C9.06565 10.1845 9.3854 10.1209 9.68374 9.99733C9.98207 9.87376 10.2531 9.69263 10.4815 9.4643C10.7098 9.23596 10.8909 8.96489 11.0145 8.66655C11.1381 8.36822 11.2017 8.04847 11.2017 7.72555C11.2017 7.40264 11.1381 7.08289 11.0145 6.78455C10.8909 6.48622 10.7098 6.21515 10.4815 5.98681C10.2531 5.75848 9.98207 5.57735 9.68374 5.45378C9.3854 5.3302 9.06565 5.2666 8.74274 5.2666V6.72776C8.87377 6.72776 9.00352 6.75357 9.12458 6.80371C9.24563 6.85385 9.35563 6.92735 9.44828 7.02001C9.54094 7.11266 9.61444 7.22266 9.66458 7.34371C9.71472 7.46477 9.74053 7.59452 9.74053 7.72555C9.74053 7.85659 9.71472 7.98634 9.66458 8.10739C9.61444 8.22845 9.54094 8.33845 9.44828 8.4311C9.35563 8.52376 9.24563 8.59725 9.12458 8.6474C9.00352 8.69754 8.87377 8.72335 8.74274 8.72335V10.1845Z"/>
</mask>
<path d="M8.74274 10.1845C9.06565 10.1845 9.3854 10.1209 9.68374 9.99733C9.98207 9.87376 10.2531 9.69263 10.4815 9.4643C10.7098 9.23596 10.8909 8.96489 11.0145 8.66655C11.1381 8.36822 11.2017 8.04847 11.2017 7.72555C11.2017 7.40264 11.1381 7.08289 11.0145 6.78455C10.8909 6.48622 10.7098 6.21515 10.4815 5.98681C10.2531 5.75848 9.98207 5.57735 9.68374 5.45378C9.3854 5.3302 9.06565 5.2666 8.74274 5.2666V6.72776C8.87377 6.72776 9.00352 6.75357 9.12458 6.80371C9.24563 6.85385 9.35563 6.92735 9.44828 7.02001C9.54094 7.11266 9.61444 7.22266 9.66458 7.34371C9.71472 7.46477 9.74053 7.59452 9.74053 7.72555C9.74053 7.85659 9.71472 7.98634 9.66458 8.10739C9.61444 8.22845 9.54094 8.33845 9.44828 8.4311C9.35563 8.52376 9.24563 8.59725 9.12458 8.6474C9.00352 8.69754 8.87377 8.72335 8.74274 8.72335V10.1845Z" stroke="white" stroke-width="2.92416" mask="url(#path-2-inside-1_528_1208)"/>
</g>
<rect x="2.0305" y="0.481445" width="13.4246" height="6.11415" rx="0.664582" fill="#FED843"/>
<g style="mix-blend-mode:overlay" opacity="0.3">
<path d="M8.67628 0.481445H14.7904C15.1575 0.481445 15.455 0.778989 15.455 1.14603V5.93102C15.455 6.29806 15.1575 6.5956 14.7904 6.5956H8.67628V0.481445Z" fill="white"/>
</g>
<rect x="4.55591" y="0.481445" width="1.72791" height="6.11415" fill="#F0F7FF"/>
<rect x="11.3346" y="0.481445" width="1.72791" height="6.11415" fill="#F0F7FF"/>
<path d="M8.38557 9.01575C8.59832 8.73517 9.02012 8.73517 9.23287 9.01575L10.8644 11.1675C10.9805 11.3206 11.1702 11.3991 11.3605 11.373L14.0357 11.0051C14.3845 10.9572 14.6828 11.2554 14.6348 11.6043L14.267 14.2795C14.2408 14.4698 14.3194 14.6595 14.4725 14.7756L16.6242 16.4071C16.9048 16.6199 16.9048 17.0417 16.6242 17.2544L14.4725 18.886C14.3194 19.0021 14.2408 19.1917 14.267 19.382L14.6348 22.0572C14.6828 22.4061 14.3845 22.7043 14.0357 22.6564L11.3605 22.2886C11.1702 22.2624 10.9805 22.3409 10.8644 22.494L9.23287 24.6458C9.02012 24.9264 8.59832 24.9264 8.38557 24.6458L6.754 22.494C6.63792 22.3409 6.44827 22.2624 6.25794 22.2886L3.58273 22.6564C3.2339 22.7043 2.93564 22.4061 2.9836 22.0572L3.35143 19.382C3.3776 19.1917 3.29904 19.0021 3.14595 18.886L0.994203 17.2544C0.713626 17.0417 0.713626 16.6199 0.994204 16.4071L3.14595 14.7756C3.29904 14.6595 3.3776 14.4698 3.35143 14.2795L2.9836 11.6043C2.93564 11.2554 3.2339 10.9572 3.58273 11.0051L6.25794 11.373C6.44827 11.3991 6.63792 11.3206 6.75401 11.1675L8.38557 9.01575Z" fill="#FED843"/>
<path d="M8.41626 14.03C8.62134 13.6779 9.13001 13.6779 9.33509 14.03L9.93942 15.0675C10.0145 15.1965 10.1404 15.288 10.2863 15.3196L11.4598 15.5737C11.8581 15.6599 12.0153 16.1437 11.7438 16.4476L10.9437 17.3429C10.8443 17.4542 10.7962 17.6022 10.8112 17.7507L10.9322 18.9454C10.9732 19.3508 10.5617 19.6498 10.1888 19.4854L9.09007 19.0012C8.95348 18.9411 8.79787 18.9411 8.66128 19.0012L7.56251 19.4854C7.18963 19.6498 6.77811 19.3508 6.81915 18.9454L6.94011 17.7507C6.95514 17.6022 6.90706 17.4542 6.80761 17.3429L6.00757 16.4476C5.73607 16.1437 5.89326 15.6599 6.29151 15.5737L7.46503 15.3196C7.61092 15.288 7.73681 15.1965 7.81193 15.0675L8.41626 14.03Z" fill="#FFA852"/>
<g style="mix-blend-mode:overlay" opacity="0.3">
<path d="M10.8645 11.1669L9.23291 9.01512C9.12654 8.87483 8.9679 8.80469 8.80927 8.80469V24.8556C8.9679 24.8556 9.12654 24.7854 9.23291 24.6451L10.8645 22.4934C10.9806 22.3403 11.1702 22.2618 11.3605 22.2879L14.0357 22.6557C14.3846 22.7037 14.6828 22.4055 14.6349 22.0566L14.2671 19.3814C14.2409 19.1911 14.3194 19.0014 14.4725 18.8853L16.6243 17.2538C16.9049 17.041 16.9049 16.6192 16.6243 16.4065L14.4725 14.7749C14.3194 14.6588 14.2409 14.4692 14.2671 14.2789L14.6349 11.6037C14.6828 11.2548 14.3846 10.9566 14.0357 11.0045L11.3605 11.3723C11.1702 11.3985 10.9806 11.32 10.8645 11.1669Z" fill="white"/>
</g>
</svg>
