<svg width="174" height="75" viewBox="0 0 174 75" fill="none" xmlns="http://www.w3.org/2000/svg">
<path fill-rule="evenodd" clip-rule="evenodd" d="M102.767 36.8922C102.886 37.1585 103.014 37.4346 103.152 37.7008L106.938 45.106C107.074 45.3469 107.193 45.5973 107.293 45.8553C107.395 46.0988 107.402 46.3715 107.312 46.6198C107.223 46.868 107.044 47.0737 106.81 47.1964C106.599 47.3145 106.351 47.3506 106.115 47.2979C105.878 47.2451 105.669 47.1072 105.528 46.9104C105.369 46.6853 105.233 46.444 105.124 46.1906C103.697 43.4297 102.274 40.6622 100.854 37.8881C100.716 37.6219 100.559 37.3557 100.401 37.05H95.4705V45.6286C95.4705 45.8751 95.4705 46.1314 95.4705 46.3681C95.4453 46.6265 95.3249 46.8663 95.1326 47.0408C94.9403 47.2153 94.6899 47.3119 94.4303 47.3119C94.1706 47.3119 93.9203 47.2153 93.728 47.0408C93.5357 46.8663 93.4152 46.6265 93.39 46.3681C93.3752 46.1481 93.3752 45.9274 93.39 45.7074V26.0852C93.39 25.9274 93.39 25.7697 93.39 25.6119C93.4491 24.9118 93.7844 24.5075 94.4648 24.5075C96.989 24.5075 99.5133 24.4287 102.038 24.5667C103.271 24.6908 104.434 25.1993 105.363 26.0202C106.292 26.8411 106.94 27.9331 107.214 29.1419C107.518 30.3482 107.452 31.6177 107.027 32.7865C106.602 33.9553 105.836 34.9699 104.828 35.6991C104.162 36.1312 103.474 36.5294 102.767 36.8922ZM95.5198 34.8117C97.5708 34.8117 99.5232 34.8708 101.436 34.8117C102.27 34.7315 103.059 34.398 103.698 33.8561C104.336 33.3142 104.793 32.5898 105.008 31.7803C105.223 30.9707 105.185 30.1149 104.899 29.3277C104.613 28.5405 104.093 27.8598 103.408 27.3769C102.761 26.9402 102 26.7005 101.219 26.6867C99.3457 26.6867 97.4821 26.6867 95.6086 26.6867C95.5593 26.6867 95.51 26.7459 95.4311 26.805L95.5198 34.8117Z" fill="#231F20"/>
<path fill-rule="evenodd" clip-rule="evenodd" d="M37.4914 39.3573H27.7395V40.4025C27.7395 42.207 27.7395 44.0114 27.7395 45.8258C27.7395 46.8118 27.3549 47.3541 26.6844 47.3344C26.0139 47.3147 25.6984 46.8118 25.6984 45.8553C25.6984 40.9251 25.6984 35.9949 25.6984 31.0647C25.6711 29.5944 26.1441 28.1584 27.0398 26.9921C27.9356 25.8258 29.201 24.9984 30.6286 24.6456C32.1136 24.2987 33.6611 24.3224 35.1348 24.7146C36.4656 25.1107 37.6325 25.927 38.4607 27.0415C39.289 28.1559 39.7342 29.5086 39.7298 30.8971C39.7298 35.9062 39.7298 40.9251 39.7298 45.9441C39.7398 46.0984 39.7398 46.2532 39.7298 46.4075C39.6942 46.6344 39.587 46.8439 39.4237 47.0053C39.2605 47.1668 39.0498 47.2718 38.8226 47.3048C38.5951 47.3316 38.3653 47.2784 38.1728 47.1542C37.9803 47.0301 37.837 46.8428 37.7675 46.6244C37.6786 46.3272 37.6386 46.0175 37.6492 45.7074C37.6492 43.8734 37.6492 42.0295 37.6492 40.1955C37.5407 39.9391 37.5112 39.6729 37.4914 39.3573ZM37.4914 37.0598C37.4914 34.93 37.4914 32.9086 37.4914 30.8872C37.4965 29.903 37.1526 28.9489 36.5208 28.1943C35.8889 27.4397 35.0101 26.9335 34.0403 26.7656C33.219 26.6294 32.383 26.6062 31.5555 26.6965C30.5094 26.7927 29.5372 27.2774 28.8309 28.0549C28.1245 28.8325 27.7351 29.8466 27.7395 30.8971C27.6409 32.8692 27.7395 34.8412 27.7395 36.764C27.7548 36.8664 27.7847 36.966 27.8282 37.0598H37.4914Z" fill="#231F20"/>
<path fill-rule="evenodd" clip-rule="evenodd" d="M53.3468 24.7443C54.6423 25.141 55.7819 25.9316 56.6072 27.0061C57.4325 28.0805 57.9024 29.3855 57.9516 30.7394C57.9637 31.0148 57.9201 31.2898 57.8235 31.548C57.7448 31.741 57.607 31.9042 57.4299 32.014C57.2527 32.1239 57.0453 32.1747 56.8374 32.1593C56.6235 32.1447 56.4202 32.0607 56.2583 31.9202C56.0963 31.7796 55.9847 31.5901 55.9401 31.3803C55.902 31.1653 55.8789 30.9478 55.8711 30.7296C55.8125 29.7534 55.4183 28.8275 54.7552 28.1087C54.0921 27.3899 53.2009 26.9224 52.2326 26.7854C51.3245 26.6425 50.3996 26.6425 49.4914 26.7854C48.4176 27.0121 47.47 27.6381 46.8403 28.537C46.2106 29.4358 45.9458 30.5402 46.0994 31.6269C46.1267 32.1208 46.2968 32.5962 46.5891 32.9953C46.8814 33.3944 47.2834 33.7001 47.7461 33.875C48.7798 34.2589 49.8331 34.5881 50.9015 34.8611C51.7396 35.0879 52.5876 35.2358 53.4257 35.4428C53.8283 35.5524 54.2235 35.6875 54.609 35.8471C57.6263 37.0205 58.4545 39.6039 57.7643 42.4437C57.4552 43.8168 56.6966 45.0474 55.6088 45.9405C54.521 46.8336 53.1663 47.3381 51.7593 47.3739C50.8692 47.4138 49.9773 47.3643 49.097 47.226C47.7299 46.9413 46.4925 46.2199 45.5712 45.1706C44.6499 44.1212 44.0947 42.8008 43.9893 41.4084C43.9597 41.1595 43.9597 40.9079 43.9893 40.659C43.9893 40.3975 44.0932 40.1467 44.2781 39.9618C44.463 39.7768 44.7138 39.673 44.9753 39.673C45.1043 39.6549 45.2355 39.6626 45.3614 39.6955C45.4873 39.7285 45.6055 39.786 45.7091 39.8648C45.8127 39.9437 45.8996 40.0422 45.9649 40.1549C46.0302 40.2675 46.0726 40.3919 46.0896 40.521C46.1204 40.7366 46.1368 40.954 46.1389 41.1717C46.2257 42.2105 46.6863 43.1826 47.4351 43.9079C48.1839 44.6331 49.1702 45.0623 50.2112 45.1159C50.7766 45.1159 51.3386 45.1159 51.8974 45.1159C52.9507 45.0157 53.9314 44.5348 54.6557 43.7633C55.3799 42.9919 55.798 41.9828 55.8317 40.9252C55.9334 40.3071 55.8155 39.6729 55.4985 39.1325C55.1816 38.5922 54.6854 38.1799 54.0962 37.9671C53.056 37.6018 51.996 37.2956 50.9212 37.0501C50.1225 36.843 49.3041 36.6853 48.4955 36.488C48.1775 36.4007 47.8648 36.2953 47.5588 36.1725C43.7526 34.8414 43.4371 31.4395 44.2851 28.8462C44.6768 27.6397 45.424 26.5798 46.4288 25.8055C47.4336 25.0313 48.6489 24.5789 49.9154 24.5076C51.0647 24.4255 52.2197 24.5052 53.3468 24.7443Z" fill="#231F20"/>
<path fill-rule="evenodd" clip-rule="evenodd" d="M80.7194 26.6374V34.7525C80.9561 34.7525 81.2125 34.8117 81.459 34.8117H86.3892C86.6256 34.7969 86.8627 34.7969 87.0991 34.8117C87.3445 34.8518 87.5687 34.975 87.7341 35.1607C87.8995 35.3464 87.996 35.5833 88.0076 35.8317C88.0191 36.0801 87.945 36.3249 87.7975 36.5252C87.6501 36.7254 87.4384 36.8689 87.1977 36.9317C86.9345 36.9811 86.6666 37.0009 86.399 36.9908H80.7194V45.1158H88.7951C89.0605 45.0861 89.3284 45.0861 89.5938 45.1158C89.8383 45.1686 90.0574 45.3036 90.2145 45.4982C90.3716 45.6929 90.4573 45.9355 90.4573 46.1856C90.4573 46.4358 90.3716 46.6784 90.2145 46.8731C90.0574 47.0677 89.8383 47.2027 89.5938 47.2555C89.3872 47.2754 89.1792 47.2754 88.9726 47.2555C86.0145 47.2555 83.0564 47.2555 80.0982 47.2555C78.9643 47.2555 78.6487 46.9104 78.6389 45.6778V26.2824C78.6191 26.0001 78.6191 25.7167 78.6389 25.4344C78.6384 25.1828 78.7342 24.9406 78.9065 24.7573C79.0788 24.574 79.3146 24.4635 79.5658 24.4484C79.8022 24.4336 80.0393 24.4336 80.2757 24.4484H88.8346C89.1037 24.4287 89.374 24.4287 89.6431 24.4484C89.8856 24.4957 90.104 24.6258 90.2611 24.8165C90.4182 25.0072 90.504 25.2465 90.504 25.4936C90.504 25.7406 90.4182 25.98 90.2611 26.1706C90.104 26.3613 89.8856 26.4915 89.6431 26.5388C89.3742 26.5635 89.1035 26.5635 88.8346 26.5388H80.7194V26.6374Z" fill="#231F20"/>
<path fill-rule="evenodd" clip-rule="evenodd" d="M19.8807 25.3653C19.8542 25.1676 19.7684 24.9827 19.6346 24.8348C19.5008 24.6869 19.3253 24.5831 19.1313 24.537C18.943 24.4798 18.742 24.4802 18.5539 24.5382C18.3659 24.5962 18.1995 24.7091 18.0762 24.8624C17.8889 25.099 17.7311 25.3653 17.5635 25.6216C15.2167 29.2306 12.8896 32.8395 10.5429 36.4681L9.95123 37.3555L9.34975 36.4681L2.33899 25.6216C2.17957 25.3587 2.00508 25.1052 1.81639 24.8624C1.72723 24.7439 1.61069 24.6489 1.47673 24.5853C1.34278 24.5218 1.19542 24.4917 1.04728 24.4976H0.85007H0.761326H0.692304C0.637267 24.5145 0.584338 24.5377 0.534537 24.5666H0.485235C0.332141 24.6572 0.206402 24.7875 0.121343 24.9437C0.0362835 25.0999 -0.00492808 25.2763 0.00207465 25.454C0.00207465 25.5625 0.00207465 25.6709 0.00207465 25.7794V41.211V45.5594C-0.00849201 45.8709 0.0213376 46.1825 0.0908186 46.4863C0.140911 46.7087 0.26654 46.9069 0.446321 47.0471C0.626102 47.1874 0.848925 47.261 1.07686 47.2554C1.32293 47.2433 1.55682 47.1446 1.73723 46.9768C1.91764 46.8091 2.03298 46.5829 2.0629 46.3384C2.09034 46.0103 2.09034 45.6804 2.0629 45.3523V29.7926C2.0629 29.7039 2.0629 29.6151 2.0629 29.5362C2.34793 29.7167 2.58481 29.9637 2.75313 30.256C4.72521 33.3719 6.78604 36.4977 8.81729 39.6136C9.19198 40.1953 9.55682 40.4714 9.93152 40.4616C10.3062 40.4517 10.6612 40.1953 11.0457 39.6136L13.5207 35.7877C14.7237 33.9208 15.9299 32.0638 17.1395 30.2166C17.2972 29.9602 17.4747 29.7236 17.6424 29.4771L17.81 29.5461V45.52C17.81 45.8355 17.81 46.151 17.81 46.506C17.8399 46.7506 17.9552 46.9767 18.1357 47.1445C18.3161 47.3122 18.55 47.4109 18.796 47.423C19.024 47.4286 19.2468 47.355 19.4266 47.2148C19.6063 47.0745 19.732 46.8763 19.7821 46.6539C19.8516 46.3501 19.8814 46.0385 19.8708 45.727V26.1936C19.894 25.9181 19.8973 25.6412 19.8807 25.3653Z" fill="#231F20"/>
<path fill-rule="evenodd" clip-rule="evenodd" d="M73.9651 24.5074C73.7582 24.4926 73.5507 24.4926 73.3439 24.5074H62.4974C62.2906 24.4926 62.083 24.4926 61.8762 24.5074C61.6102 24.5294 61.3618 24.6497 61.1796 24.8447C60.9973 25.0397 60.8941 25.2956 60.8901 25.5625C60.8896 25.8307 60.9912 26.0892 61.1744 26.2851C61.3575 26.4811 61.6085 26.6 61.8762 26.6175C62.2638 26.6373 62.6521 26.6373 63.0397 26.6175H66.905V45.4411C66.905 45.7468 66.905 46.0623 66.905 46.368C66.9281 46.5964 67.025 46.811 67.1811 46.9793C67.2766 47.0852 67.3939 47.1692 67.525 47.2253C67.6561 47.2815 67.7978 47.3086 67.9403 47.3047C68.1972 47.2905 68.4399 47.1821 68.6218 47.0002C68.8038 46.8182 68.9122 46.5756 68.9264 46.3187C68.9461 46.01 68.9461 45.7004 68.9264 45.3918V26.6373H72.8015C73.1858 26.657 73.5709 26.657 73.9552 26.6373C74.2229 26.6197 74.4738 26.5009 74.657 26.3049C74.8402 26.1089 74.9418 25.8505 74.9412 25.5822C74.9424 25.3134 74.8428 25.054 74.6621 24.8551C74.4814 24.6561 74.2327 24.5321 73.9651 24.5074Z" fill="#231F20"/>
<path d="M172.86 35.1624H120.776V29.3508C120.776 14.2751 132.248 2.0147 146.354 2.0147C150.087 2.04318 153.767 2.92044 157.125 4.58263C160.484 6.24481 163.437 8.65006 165.769 11.6232C165.845 11.7223 165.94 11.8043 166.049 11.8641C166.157 11.9239 166.277 11.9602 166.399 11.9707C166.522 11.9812 166.646 11.9657 166.763 11.9252C166.879 11.8846 166.987 11.82 167.078 11.7352C167.269 11.5598 167.386 11.3158 167.405 11.0542C167.424 10.7927 167.343 10.5338 167.179 10.3318C164.677 7.13012 161.505 4.54036 157.894 2.75254C154.283 0.964718 150.325 0.0242002 146.312 0C131.227 0.0258294 118.902 13.1816 118.902 29.3508V42.894C118.902 56.5922 127.985 68.6373 140.496 71.5388C140.632 71.5717 140.775 71.5709 140.911 71.5365C141.048 71.502 141.174 71.435 141.281 71.3408C141.39 71.2449 141.477 71.1259 141.537 70.9921C141.597 70.8584 141.627 70.7129 141.627 70.5659V53.6563H149.908L145.982 56.0928C145.838 56.1827 145.72 56.3095 145.638 56.4605C145.557 56.6115 145.515 56.7815 145.518 56.9538V74.0012C145.516 74.1744 145.559 74.345 145.642 74.4961C145.725 74.6471 145.845 74.7734 145.991 74.8622C146.129 74.9533 146.291 75.0012 146.455 75C146.619 74.9967 146.779 74.9491 146.919 74.8622L152.339 71.5044C164.773 68.534 173.78 56.5319 173.78 42.894V36.1612C173.787 35.9046 173.694 35.6556 173.522 35.4685C173.349 35.2814 173.111 35.1714 172.86 35.1624ZM171.923 42.9112C171.923 55.2577 164.005 66.1577 152.93 69.3175V52.6575C152.933 52.5302 152.912 52.4034 152.867 52.2845C152.822 52.1657 152.754 52.0571 152.668 51.965C152.582 51.873 152.478 51.7993 152.364 51.7482C152.249 51.6971 152.126 51.6696 152.001 51.6674H140.707C140.581 51.6697 140.458 51.697 140.343 51.748C140.228 51.799 140.124 51.8726 140.037 51.9645C139.95 52.0564 139.882 52.165 139.836 52.2839C139.79 52.4028 139.767 52.5298 139.77 52.6575V69.3003C128.703 66.1577 120.776 55.2405 120.776 42.894V37.1513H171.923V42.9112ZM150.98 57.0141L147.721 59.0116C147.689 59.0299 147.652 59.0391 147.614 59.038C147.577 59.037 147.54 59.0258 147.508 59.0057C147.477 58.9855 147.451 58.9571 147.433 58.9233C147.416 58.8896 147.407 58.8517 147.409 58.8135V57.6771C147.409 57.6383 147.419 57.6003 147.438 57.567C147.458 57.5336 147.485 57.5062 147.519 57.4876L150.769 55.4902C150.8 55.4692 150.837 55.4576 150.875 55.4569C150.913 55.4561 150.95 55.4661 150.983 55.4858C151.015 55.5055 151.042 55.5341 151.059 55.5684C151.076 55.6026 151.084 55.6411 151.081 55.6796V56.8161C151.082 56.8551 151.073 56.8937 151.055 56.9283C151.038 56.9629 151.012 56.9924 150.98 57.0141ZM150.98 60.2858L147.721 62.2833C147.689 62.3013 147.653 62.3104 147.616 62.3097C147.58 62.309 147.544 62.2986 147.512 62.2795C147.481 62.2604 147.455 62.2332 147.436 62.2006C147.418 62.1681 147.409 62.1313 147.409 62.0939V60.9574C147.41 60.9177 147.42 60.8789 147.44 60.8443C147.459 60.8098 147.486 60.7806 147.519 60.7594L150.769 58.7619C150.802 58.7435 150.839 58.7344 150.876 58.7354C150.913 58.7365 150.95 58.7476 150.982 58.7678C151.013 58.788 151.039 58.8164 151.057 58.8501C151.074 58.8839 151.083 58.9218 151.081 58.9599V60.0964C151.077 60.1283 151.065 60.1588 151.048 60.1857C151.03 60.2125 151.007 60.2349 150.98 60.2514V60.2858ZM150.98 63.5662L147.721 65.5636C147.689 65.582 147.652 65.5911 147.614 65.5901C147.577 65.589 147.54 65.5779 147.508 65.5577C147.477 65.5376 147.451 65.5092 147.433 65.4754C147.416 65.4416 147.407 65.4037 147.409 65.3656V64.2291C147.41 64.1906 147.42 64.1529 147.44 64.1197C147.459 64.0865 147.486 64.059 147.519 64.0397L150.769 62.0422C150.802 62.0239 150.839 62.0147 150.876 62.0158C150.913 62.0168 150.95 62.028 150.982 62.0481C151.013 62.0683 151.039 62.0967 151.057 62.1305C151.074 62.1642 151.083 62.2021 151.081 62.2403V63.3681C151.077 63.4014 151.066 63.4333 151.049 63.4617C151.031 63.49 151.008 63.5139 150.98 63.5317V63.5662ZM150.98 66.8379L147.721 68.844C147.689 68.8623 147.652 68.8715 147.614 68.8704C147.577 68.8694 147.54 68.8582 147.508 68.8381C147.477 68.8179 147.451 68.7895 147.433 68.7557C147.416 68.722 147.407 68.6841 147.409 68.6459V67.5094C147.409 67.4707 147.419 67.4327 147.438 67.3994C147.458 67.366 147.485 67.3386 147.519 67.32L150.769 65.3225C150.8 65.3015 150.837 65.29 150.875 65.2892C150.913 65.2885 150.95 65.2985 150.983 65.3182C151.015 65.3379 151.042 65.3665 151.059 65.4008C151.076 65.435 151.084 65.4735 151.081 65.512V66.6485C151.077 66.6806 151.066 66.7113 151.049 66.7383C151.031 66.7652 151.007 66.7875 150.98 66.8034V66.8379ZM150.98 70.1182L147.721 72.1157C147.689 72.1336 147.653 72.1427 147.616 72.1421C147.58 72.1414 147.544 72.131 147.512 72.1119C147.481 72.0928 147.455 72.0656 147.436 72.033C147.418 72.0005 147.409 71.9637 147.409 71.9263V70.7898C147.41 70.7501 147.42 70.7113 147.44 70.6767C147.459 70.6422 147.486 70.613 147.519 70.5918L150.769 68.5943C150.802 68.5759 150.839 68.5668 150.876 68.5678C150.913 68.5689 150.95 68.58 150.982 68.6002C151.013 68.6203 151.039 68.6488 151.057 68.6825C151.074 68.7163 151.083 68.7542 151.081 68.7923V69.9288C151.077 69.9607 151.065 69.9912 151.048 70.018C151.03 70.0449 151.007 70.0673 150.98 70.0838V70.1182Z" fill="#231F20"/>
</svg>
