<svg width="32" height="31" viewBox="0 0 32 31" fill="none" xmlns="http://www.w3.org/2000/svg">
<path d="M20.8826 2.69043C21.3427 2.80806 21.6054 3.0999 21.6007 3.59842C21.9852 3.66172 22.3575 3.68973 22.7128 3.78775C24.4 4.25211 25.5892 5.80595 25.6227 7.64211C25.6541 9.34943 25.635 11.0584 25.6307 12.7663C25.6297 13.2559 25.3095 13.6032 24.8834 13.611C24.4499 13.6188 24.1143 13.266 24.1122 12.7635C24.1053 11.1391 24.1138 9.51523 24.1074 7.89081C24.1026 6.64281 23.4261 5.66592 22.3511 5.35728C22.1177 5.29006 21.8703 5.2783 21.6331 5.24133C21.4847 5.92974 21.2523 6.19133 20.8236 6.18797C20.3933 6.18461 20.1486 5.90566 20.0423 5.28222C18.5173 5.28222 16.9893 5.28222 15.4606 5.28222C15.2835 5.95551 15.0596 6.20141 14.6373 6.18797C14.2219 6.17453 14.0128 5.93143 13.8613 5.27606C12.3422 5.27606 10.8205 5.27606 9.29825 5.27606C9.06742 5.99864 8.87062 6.20982 8.45043 6.18629C8.03557 6.16333 7.81643 5.90286 7.70155 5.29622C6.9718 5.1517 6.0458 5.64967 5.57774 6.43724C5.32085 6.86911 5.21021 7.34355 5.21021 7.84824C5.20915 13.3461 5.20383 18.8444 5.21341 24.3423C5.21606 25.8563 6.25376 26.9251 7.6925 26.9318C9.52696 26.9402 11.362 26.9318 13.1969 26.9352C13.7703 26.9363 14.1432 27.3973 14.0118 27.9333C13.9144 28.3294 13.6251 28.4896 13.2767 28.5685H7.53241C7.44571 28.5529 7.35742 28.5439 7.27285 28.5204C6.81437 28.3915 6.32078 28.3338 5.90485 28.1143C4.42303 27.3323 3.68691 26.0333 3.68584 24.2846C3.68372 18.8265 3.68478 13.369 3.68531 7.91098C3.68531 7.79895 3.68691 7.68692 3.69169 7.57545C3.76616 5.79419 4.91768 4.26332 6.55641 3.79952C6.92766 3.69477 7.31753 3.6634 7.7191 3.59506C7.71378 3.09877 7.97706 2.8075 8.4366 2.69043H8.54298C9.01529 2.8075 9.27059 3.1167 9.26528 3.62755H13.89C13.8841 3.09709 14.1485 2.80806 14.6064 2.69043H14.7128C15.1851 2.8075 15.4404 3.1167 15.4351 3.62755H20.0646C20.0486 3.09261 20.3199 2.80974 20.7768 2.69043H20.8832H20.8826Z" fill="white"/>
<path d="M17.3284 28.5678C17.2707 28.5491 17.2139 28.5253 17.1551 28.5116C16.407 28.3419 15.8901 27.6119 15.9924 26.8025C16.1 25.9511 16.2278 25.1007 16.3927 24.2601C16.4457 23.9899 16.5984 23.7044 16.7818 23.5068C19.0266 21.0814 21.2788 18.665 23.5427 16.2599C24.6163 15.1195 26.3902 15.1224 27.4453 16.2332C28.5216 17.3668 28.5661 19.215 27.4872 20.3945C25.6332 22.4215 23.7463 24.4145 21.8731 26.4211C21.5174 26.8025 21.1532 27.1754 20.8075 27.5671C20.5085 27.9054 20.1511 28.0933 19.7243 28.1637C19.0531 28.2738 18.3835 28.3981 17.7134 28.519C17.672 28.5264 17.6338 28.5514 17.5941 28.5684H17.329L17.3284 28.5678ZM22.6472 19.4585C22.5958 19.5323 22.5412 19.6328 22.4669 19.7122C21.0577 21.225 19.6512 22.74 18.2308 24.2402C17.9742 24.511 17.8088 24.7891 17.7674 25.1808C17.7059 25.7677 17.5983 26.349 17.5045 26.9717C18.2191 26.8178 18.8919 26.6782 19.5621 26.5238C19.6469 26.5045 19.7259 26.4199 19.7922 26.349C21.1038 24.9458 22.4118 23.5392 23.724 22.1366C23.9668 21.8772 24.2218 21.6308 24.4535 21.397C23.8465 20.7453 23.2755 20.1317 22.6477 19.4579L22.6472 19.4585ZM25.5102 20.1266C25.8415 19.7957 26.1914 19.5005 26.4772 19.1463C26.8679 18.6627 26.8218 17.9316 26.4252 17.4565C26.0366 16.991 25.3596 16.8457 24.8872 17.2079C24.4858 17.5155 24.1487 17.9191 23.7844 18.2784C24.3899 18.9266 24.9572 19.5346 25.5096 20.126L25.5102 20.1266Z" fill="white"/>
<path d="M13.5438 11.3154C12.161 11.3154 10.7787 11.3154 9.39591 11.3154C8.86792 11.3154 8.51737 10.9571 8.51467 10.4192C8.51144 9.87929 8.85821 9.50409 9.38512 9.50283C12.1772 9.49906 14.9692 9.49906 17.7618 9.50283C18.2401 9.50346 18.5691 9.83027 18.6101 10.3117C18.65 10.7787 18.4046 11.1878 18.0125 11.2902C17.909 11.3173 17.7984 11.3148 17.6916 11.3148C16.3088 11.316 14.9266 11.316 13.5438 11.316V11.3154Z" fill="white"/>
<path d="M11.1499 15.8551C10.5439 15.8551 9.9385 15.8576 9.33254 15.8545C8.85832 15.852 8.52215 15.4851 8.51477 14.9702C8.5074 14.4522 8.83039 14.054 9.30515 14.049C10.5339 14.0371 11.7632 14.0371 12.992 14.049C13.4672 14.0534 13.7913 14.4516 13.7839 14.969C13.7765 15.4851 13.4409 15.852 12.9662 15.8545C12.3607 15.8576 11.7548 15.8551 11.1488 15.8551H11.1499Z" fill="white"/>
</svg>
