<svg width="24" height="24" viewBox="0 0 24 24" fill="none" xmlns="http://www.w3.org/2000/svg">
<mask id="path-1-outside-1_715_426" maskUnits="userSpaceOnUse" x="0" y="0" width="24" height="23" fill="black">
<rect fill="white" width="24" height="23"/>
<path fill-rule="evenodd" clip-rule="evenodd" d="M11.4746 1.0607C10.4486 1.30857 9.72467 2.21981 9.72304 3.26557C9.72179 4.05805 10.1342 4.79692 10.8197 5.2304C11.4889 5.65356 12.5111 5.65356 13.1803 5.2304C14.5359 4.37321 14.6575 2.47124 13.4187 1.50035C12.8604 1.06271 12.1403 0.899889 11.4746 1.0607ZM12.4297 1.98864C13.2739 2.24915 13.6275 3.26587 13.1364 4.02028C12.8798 4.41445 12.4729 4.63427 12 4.63427C11.5271 4.63427 11.1202 4.41445 10.8636 4.02028C10.5078 3.47379 10.5754 2.76644 11.0249 2.33176C11.4254 1.94449 11.9061 1.8271 12.4297 1.98864ZM2.91158 3.30891C2.52566 3.36706 2.00141 3.64248 1.69459 3.94825C1.26222 4.37916 1.05591 4.82737 1.01414 5.42654C0.968208 6.08545 1.1954 6.67114 1.6869 7.16097C2.17841 7.65081 2.76608 7.87723 3.42724 7.83145C4.02845 7.78982 4.47818 7.58422 4.91056 7.15331C5.66552 6.40091 5.79134 5.20034 5.20723 4.32156C5.03393 4.06075 4.60791 3.6719 4.35636 3.54488C3.92502 3.32702 3.38091 3.23816 2.91158 3.30891ZM20.4438 3.29375C20.2222 3.32304 19.8543 3.43845 19.6436 3.54488C19.3921 3.6719 18.9661 4.06075 18.7928 4.32156C18.2087 5.20034 18.3345 6.40091 19.0894 7.15331C19.5218 7.58422 19.9716 7.78982 20.5728 7.83145C21.2339 7.87723 21.8216 7.65081 22.3131 7.16097C22.8046 6.67114 23.0318 6.08545 22.9859 5.42654C22.9271 4.58404 22.4612 3.89476 21.6981 3.52154C21.2709 3.31259 20.8624 3.23842 20.4438 3.29375ZM3.89992 4.3449C4.15616 4.47689 4.39065 4.71268 4.52846 4.97687C4.67332 5.25468 4.67465 5.85094 4.53104 6.14151C4.4139 6.3786 4.13854 6.66514 3.92227 6.77512C3.55937 6.95961 3.04015 6.96106 2.6813 6.77863C1.9015 6.38215 1.68273 5.35948 2.23629 4.69851C2.38007 4.52686 2.63059 4.34674 2.8326 4.26978C3.09524 4.16979 3.63346 4.20764 3.89992 4.3449ZM21.2902 4.32713C21.5277 4.44293 21.8153 4.71718 21.9259 4.93319C22.111 5.29485 22.1125 5.81231 21.9295 6.16995C21.5868 6.83923 20.745 7.11434 20.0777 6.77512C19.8615 6.66514 19.5861 6.3786 19.469 6.14151C19.3253 5.85094 19.3267 5.25468 19.4715 4.97687C19.6517 4.63144 19.9684 4.3631 20.3364 4.24396C20.5464 4.176 21.0747 4.22208 21.2902 4.32713ZM10.0278 6.54197C9.87662 6.57469 9.58656 6.68326 9.38322 6.7833C8.66883 7.13472 8.10556 7.85954 7.93939 8.64119C7.86303 9.00033 7.84954 10.545 7.92095 10.7491C8.02477 11.0459 8.41886 11.122 8.65155 10.8901L8.77716 10.7649L8.77802 10.0015C8.77849 9.58155 8.79654 9.11647 8.81807 8.96795C8.93383 8.1702 9.57496 7.53124 10.3754 7.41587C10.5245 7.39441 11.2555 7.37681 12 7.37681C12.7445 7.37681 13.4755 7.39441 13.6246 7.41587C14.425 7.53124 15.0662 8.1702 15.1819 8.96795C15.2035 9.11647 15.2215 9.846 15.222 10.5892L15.2228 11.9403L14.9543 11.9944C14.6489 12.0559 14.3 12.2629 14.1321 12.4823C13.9429 12.7296 13.8754 12.9422 13.8502 13.3707L13.8263 13.7775H12H10.1737L10.1498 13.3707C10.1155 12.7879 9.96132 12.4813 9.56654 12.2105C9.23897 11.9859 9.04959 11.9585 7.82358 11.9579L6.71961 11.9574L6.27614 11.4114C6.03228 11.1111 5.62062 10.5956 5.36142 10.2658C4.4946 9.16319 4.11465 8.87031 3.43321 8.77943C2.22185 8.6179 1.2354 9.22049 1.04293 10.2395C1.01595 10.3825 0.99962 11.6695 1.00001 13.6227C1.00069 17.0989 0.99919 17.077 1.26901 17.585C1.52756 18.0719 2.11172 18.554 2.65375 18.7278C2.77597 18.7671 3.31392 18.7899 4.51548 18.8069L6.20533 18.8309L6.82927 20.287C7.24085 21.2474 7.49434 21.7851 7.57401 21.8666C7.83983 22.1388 8.31784 21.9442 8.31496 21.5651C8.3135 21.3728 6.97645 18.2265 6.81827 18.0431L6.7221 17.9316L4.85878 17.9102L2.99546 17.8888L2.71013 17.7487C2.38321 17.5882 2.19452 17.3945 2.03501 17.0556L1.92324 16.8181V13.5848V10.3515L2.03067 10.1606C2.08976 10.0557 2.22189 9.91118 2.32429 9.83945C2.49644 9.71894 2.5428 9.70798 2.93887 9.69431C3.17448 9.68618 3.41013 9.69025 3.46256 9.70335C3.7506 9.77538 3.98341 10.0164 5.05628 11.3531C5.65418 12.098 6.17813 12.7362 6.22058 12.7714C6.28401 12.824 6.53234 12.8392 7.61268 12.8568C8.79056 12.8759 8.93955 12.8863 9.0425 12.9559C9.18818 13.0545 9.24984 13.2307 9.24984 13.5483V13.7989H7.30458H5.35931L4.7055 12.9282C4.07786 12.0923 3.94444 11.9574 3.74535 11.9574C3.49548 11.9574 3.27404 12.2228 3.31152 12.4773C3.32454 12.5657 3.55456 12.9079 3.98088 13.4731L4.63043 14.3342L4.65192 15.2864L4.6734 16.2385L4.81379 16.3784L4.95422 16.5183L6.05996 16.5398C7.14038 16.5607 7.17003 16.5636 7.35257 16.6678C7.46314 16.7308 7.5826 16.8478 7.64521 16.9543C7.70339 17.0532 8.09705 18.1684 8.52002 19.4326C8.94303 20.6967 9.31872 21.7761 9.35499 21.8313C9.39126 21.8864 9.49138 21.9509 9.57754 21.9746C9.86476 22.0537 10.1522 21.8527 10.1522 21.5729C10.1522 21.5016 9.79218 20.3667 9.35207 19.051C8.45053 16.3554 8.42127 16.2919 7.92611 15.9542C7.51737 15.6754 7.33087 15.6331 6.403 15.6086L5.59728 15.5873V15.1428V14.6983H12H18.4027V15.1428V15.5873L17.597 15.6086C16.6691 15.6331 16.4826 15.6754 16.0739 15.9542C15.5787 16.2919 15.5495 16.3554 14.6479 19.051C14.2078 20.3667 13.8478 21.5016 13.8478 21.5729C13.8478 21.8527 14.1352 22.0537 14.4225 21.9746C14.5086 21.9509 14.6087 21.8864 14.645 21.8313C14.6813 21.7761 15.057 20.6967 15.48 19.4326C15.903 18.1684 16.2966 17.0532 16.3548 16.9543C16.4174 16.8478 16.5369 16.7308 16.6474 16.6678C16.83 16.5636 16.8596 16.5607 17.94 16.5398L19.0458 16.5183L19.1862 16.3784L19.3266 16.2385L19.3481 15.2864L19.3696 14.3342L20.0191 13.4731C20.4454 12.9079 20.6755 12.5657 20.6885 12.4773C20.726 12.2228 20.5045 11.9574 20.2546 11.9574C20.0556 11.9574 19.9221 12.0923 19.2945 12.9282L18.6407 13.7989H16.6954H14.7502V13.5483C14.7502 13.2307 14.8118 13.0545 14.9575 12.9559C15.0611 12.8859 15.2001 12.8769 16.3616 12.865C17.4027 12.8544 17.6692 12.8398 17.747 12.7894C17.8 12.755 18.3357 12.1128 18.9375 11.3625C20.0176 10.0157 20.2493 9.77542 20.5374 9.70335C20.5899 9.69025 20.8255 9.68618 21.0611 9.69431C21.4572 9.70798 21.5036 9.71894 21.6757 9.83945C21.7781 9.91118 21.9102 10.0557 21.9693 10.1606L22.0768 10.3515V13.5857V16.82L21.9362 17.1044C21.7752 17.4303 21.5809 17.6184 21.2408 17.7774L21.0025 17.8888L19.1402 17.9102L17.2779 17.9316L17.1817 18.0431C17.0236 18.2265 15.6865 21.3728 15.685 21.5651C15.6822 21.9442 16.1602 22.1388 16.426 21.8666C16.5057 21.7851 16.7592 21.2474 17.1707 20.287L17.7947 18.8309L19.4845 18.8069C20.6861 18.7899 21.224 18.7671 21.3462 18.7278C21.8883 18.554 22.4724 18.0719 22.731 17.585C23.0008 17.077 22.9993 17.0989 23 13.6227C23.0004 11.6695 22.9841 10.3825 22.9571 10.2395C22.7646 9.22049 21.7781 8.6179 20.5668 8.77943C19.8854 8.87031 19.5054 9.16319 18.6386 10.2658C18.3794 10.5956 17.9677 11.1111 17.7239 11.4114L17.2804 11.9574H16.7028H16.1252L16.1245 10.4478C16.1237 8.72119 16.1032 8.55768 15.8158 7.9774C15.4641 7.26722 14.7359 6.70557 13.9524 6.54018C13.5361 6.45225 10.4361 6.45371 10.0278 6.54197ZM11.5273 8.76693V9.2166H12H12.4727V8.76693V8.31726H12H11.5273V8.76693ZM11.5476 15.6496C11.5361 15.6799 11.5316 17.1211 11.5377 18.8523L11.5488 22H12H12.4512V18.8095V15.619L12.01 15.6068C11.681 15.5977 11.5634 15.6086 11.5476 15.6496Z"/>
</mask>
<path fill-rule="evenodd" clip-rule="evenodd" d="M11.4746 1.0607C10.4486 1.30857 9.72467 2.21981 9.72304 3.26557C9.72179 4.05805 10.1342 4.79692 10.8197 5.2304C11.4889 5.65356 12.5111 5.65356 13.1803 5.2304C14.5359 4.37321 14.6575 2.47124 13.4187 1.50035C12.8604 1.06271 12.1403 0.899889 11.4746 1.0607ZM12.4297 1.98864C13.2739 2.24915 13.6275 3.26587 13.1364 4.02028C12.8798 4.41445 12.4729 4.63427 12 4.63427C11.5271 4.63427 11.1202 4.41445 10.8636 4.02028C10.5078 3.47379 10.5754 2.76644 11.0249 2.33176C11.4254 1.94449 11.9061 1.8271 12.4297 1.98864ZM2.91158 3.30891C2.52566 3.36706 2.00141 3.64248 1.69459 3.94825C1.26222 4.37916 1.05591 4.82737 1.01414 5.42654C0.968208 6.08545 1.1954 6.67114 1.6869 7.16097C2.17841 7.65081 2.76608 7.87723 3.42724 7.83145C4.02845 7.78982 4.47818 7.58422 4.91056 7.15331C5.66552 6.40091 5.79134 5.20034 5.20723 4.32156C5.03393 4.06075 4.60791 3.6719 4.35636 3.54488C3.92502 3.32702 3.38091 3.23816 2.91158 3.30891ZM20.4438 3.29375C20.2222 3.32304 19.8543 3.43845 19.6436 3.54488C19.3921 3.6719 18.9661 4.06075 18.7928 4.32156C18.2087 5.20034 18.3345 6.40091 19.0894 7.15331C19.5218 7.58422 19.9716 7.78982 20.5728 7.83145C21.2339 7.87723 21.8216 7.65081 22.3131 7.16097C22.8046 6.67114 23.0318 6.08545 22.9859 5.42654C22.9271 4.58404 22.4612 3.89476 21.6981 3.52154C21.2709 3.31259 20.8624 3.23842 20.4438 3.29375ZM3.89992 4.3449C4.15616 4.47689 4.39065 4.71268 4.52846 4.97687C4.67332 5.25468 4.67465 5.85094 4.53104 6.14151C4.4139 6.3786 4.13854 6.66514 3.92227 6.77512C3.55937 6.95961 3.04015 6.96106 2.6813 6.77863C1.9015 6.38215 1.68273 5.35948 2.23629 4.69851C2.38007 4.52686 2.63059 4.34674 2.8326 4.26978C3.09524 4.16979 3.63346 4.20764 3.89992 4.3449ZM21.2902 4.32713C21.5277 4.44293 21.8153 4.71718 21.9259 4.93319C22.111 5.29485 22.1125 5.81231 21.9295 6.16995C21.5868 6.83923 20.745 7.11434 20.0777 6.77512C19.8615 6.66514 19.5861 6.3786 19.469 6.14151C19.3253 5.85094 19.3267 5.25468 19.4715 4.97687C19.6517 4.63144 19.9684 4.3631 20.3364 4.24396C20.5464 4.176 21.0747 4.22208 21.2902 4.32713ZM10.0278 6.54197C9.87662 6.57469 9.58656 6.68326 9.38322 6.7833C8.66883 7.13472 8.10556 7.85954 7.93939 8.64119C7.86303 9.00033 7.84954 10.545 7.92095 10.7491C8.02477 11.0459 8.41886 11.122 8.65155 10.8901L8.77716 10.7649L8.77802 10.0015C8.77849 9.58155 8.79654 9.11647 8.81807 8.96795C8.93383 8.1702 9.57496 7.53124 10.3754 7.41587C10.5245 7.39441 11.2555 7.37681 12 7.37681C12.7445 7.37681 13.4755 7.39441 13.6246 7.41587C14.425 7.53124 15.0662 8.1702 15.1819 8.96795C15.2035 9.11647 15.2215 9.846 15.222 10.5892L15.2228 11.9403L14.9543 11.9944C14.6489 12.0559 14.3 12.2629 14.1321 12.4823C13.9429 12.7296 13.8754 12.9422 13.8502 13.3707L13.8263 13.7775H12H10.1737L10.1498 13.3707C10.1155 12.7879 9.96132 12.4813 9.56654 12.2105C9.23897 11.9859 9.04959 11.9585 7.82358 11.9579L6.71961 11.9574L6.27614 11.4114C6.03228 11.1111 5.62062 10.5956 5.36142 10.2658C4.4946 9.16319 4.11465 8.87031 3.43321 8.77943C2.22185 8.6179 1.2354 9.22049 1.04293 10.2395C1.01595 10.3825 0.99962 11.6695 1.00001 13.6227C1.00069 17.0989 0.99919 17.077 1.26901 17.585C1.52756 18.0719 2.11172 18.554 2.65375 18.7278C2.77597 18.7671 3.31392 18.7899 4.51548 18.8069L6.20533 18.8309L6.82927 20.287C7.24085 21.2474 7.49434 21.7851 7.57401 21.8666C7.83983 22.1388 8.31784 21.9442 8.31496 21.5651C8.3135 21.3728 6.97645 18.2265 6.81827 18.0431L6.7221 17.9316L4.85878 17.9102L2.99546 17.8888L2.71013 17.7487C2.38321 17.5882 2.19452 17.3945 2.03501 17.0556L1.92324 16.8181V13.5848V10.3515L2.03067 10.1606C2.08976 10.0557 2.22189 9.91118 2.32429 9.83945C2.49644 9.71894 2.5428 9.70798 2.93887 9.69431C3.17448 9.68618 3.41013 9.69025 3.46256 9.70335C3.7506 9.77538 3.98341 10.0164 5.05628 11.3531C5.65418 12.098 6.17813 12.7362 6.22058 12.7714C6.28401 12.824 6.53234 12.8392 7.61268 12.8568C8.79056 12.8759 8.93955 12.8863 9.0425 12.9559C9.18818 13.0545 9.24984 13.2307 9.24984 13.5483V13.7989H7.30458H5.35931L4.7055 12.9282C4.07786 12.0923 3.94444 11.9574 3.74535 11.9574C3.49548 11.9574 3.27404 12.2228 3.31152 12.4773C3.32454 12.5657 3.55456 12.9079 3.98088 13.4731L4.63043 14.3342L4.65192 15.2864L4.6734 16.2385L4.81379 16.3784L4.95422 16.5183L6.05996 16.5398C7.14038 16.5607 7.17003 16.5636 7.35257 16.6678C7.46314 16.7308 7.5826 16.8478 7.64521 16.9543C7.70339 17.0532 8.09705 18.1684 8.52002 19.4326C8.94303 20.6967 9.31872 21.7761 9.35499 21.8313C9.39126 21.8864 9.49138 21.9509 9.57754 21.9746C9.86476 22.0537 10.1522 21.8527 10.1522 21.5729C10.1522 21.5016 9.79218 20.3667 9.35207 19.051C8.45053 16.3554 8.42127 16.2919 7.92611 15.9542C7.51737 15.6754 7.33087 15.6331 6.403 15.6086L5.59728 15.5873V15.1428V14.6983H12H18.4027V15.1428V15.5873L17.597 15.6086C16.6691 15.6331 16.4826 15.6754 16.0739 15.9542C15.5787 16.2919 15.5495 16.3554 14.6479 19.051C14.2078 20.3667 13.8478 21.5016 13.8478 21.5729C13.8478 21.8527 14.1352 22.0537 14.4225 21.9746C14.5086 21.9509 14.6087 21.8864 14.645 21.8313C14.6813 21.7761 15.057 20.6967 15.48 19.4326C15.903 18.1684 16.2966 17.0532 16.3548 16.9543C16.4174 16.8478 16.5369 16.7308 16.6474 16.6678C16.83 16.5636 16.8596 16.5607 17.94 16.5398L19.0458 16.5183L19.1862 16.3784L19.3266 16.2385L19.3481 15.2864L19.3696 14.3342L20.0191 13.4731C20.4454 12.9079 20.6755 12.5657 20.6885 12.4773C20.726 12.2228 20.5045 11.9574 20.2546 11.9574C20.0556 11.9574 19.9221 12.0923 19.2945 12.9282L18.6407 13.7989H16.6954H14.7502V13.5483C14.7502 13.2307 14.8118 13.0545 14.9575 12.9559C15.0611 12.8859 15.2001 12.8769 16.3616 12.865C17.4027 12.8544 17.6692 12.8398 17.747 12.7894C17.8 12.755 18.3357 12.1128 18.9375 11.3625C20.0176 10.0157 20.2493 9.77542 20.5374 9.70335C20.5899 9.69025 20.8255 9.68618 21.0611 9.69431C21.4572 9.70798 21.5036 9.71894 21.6757 9.83945C21.7781 9.91118 21.9102 10.0557 21.9693 10.1606L22.0768 10.3515V13.5857V16.82L21.9362 17.1044C21.7752 17.4303 21.5809 17.6184 21.2408 17.7774L21.0025 17.8888L19.1402 17.9102L17.2779 17.9316L17.1817 18.0431C17.0236 18.2265 15.6865 21.3728 15.685 21.5651C15.6822 21.9442 16.1602 22.1388 16.426 21.8666C16.5057 21.7851 16.7592 21.2474 17.1707 20.287L17.7947 18.8309L19.4845 18.8069C20.6861 18.7899 21.224 18.7671 21.3462 18.7278C21.8883 18.554 22.4724 18.0719 22.731 17.585C23.0008 17.077 22.9993 17.0989 23 13.6227C23.0004 11.6695 22.9841 10.3825 22.9571 10.2395C22.7646 9.22049 21.7781 8.6179 20.5668 8.77943C19.8854 8.87031 19.5054 9.16319 18.6386 10.2658C18.3794 10.5956 17.9677 11.1111 17.7239 11.4114L17.2804 11.9574H16.7028H16.1252L16.1245 10.4478C16.1237 8.72119 16.1032 8.55768 15.8158 7.9774C15.4641 7.26722 14.7359 6.70557 13.9524 6.54018C13.5361 6.45225 10.4361 6.45371 10.0278 6.54197ZM11.5273 8.76693V9.2166H12H12.4727V8.76693V8.31726H12H11.5273V8.76693ZM11.5476 15.6496C11.5361 15.6799 11.5316 17.1211 11.5377 18.8523L11.5488 22H12H12.4512V18.8095V15.619L12.01 15.6068C11.681 15.5977 11.5634 15.6086 11.5476 15.6496Z" fill="#2E5BA6"/>
<path fill-rule="evenodd" clip-rule="evenodd" d="M11.4746 1.0607C10.4486 1.30857 9.72467 2.21981 9.72304 3.26557C9.72179 4.05805 10.1342 4.79692 10.8197 5.2304C11.4889 5.65356 12.5111 5.65356 13.1803 5.2304C14.5359 4.37321 14.6575 2.47124 13.4187 1.50035C12.8604 1.06271 12.1403 0.899889 11.4746 1.0607ZM12.4297 1.98864C13.2739 2.24915 13.6275 3.26587 13.1364 4.02028C12.8798 4.41445 12.4729 4.63427 12 4.63427C11.5271 4.63427 11.1202 4.41445 10.8636 4.02028C10.5078 3.47379 10.5754 2.76644 11.0249 2.33176C11.4254 1.94449 11.9061 1.8271 12.4297 1.98864ZM2.91158 3.30891C2.52566 3.36706 2.00141 3.64248 1.69459 3.94825C1.26222 4.37916 1.05591 4.82737 1.01414 5.42654C0.968208 6.08545 1.1954 6.67114 1.6869 7.16097C2.17841 7.65081 2.76608 7.87723 3.42724 7.83145C4.02845 7.78982 4.47818 7.58422 4.91056 7.15331C5.66552 6.40091 5.79134 5.20034 5.20723 4.32156C5.03393 4.06075 4.60791 3.6719 4.35636 3.54488C3.92502 3.32702 3.38091 3.23816 2.91158 3.30891ZM20.4438 3.29375C20.2222 3.32304 19.8543 3.43845 19.6436 3.54488C19.3921 3.6719 18.9661 4.06075 18.7928 4.32156C18.2087 5.20034 18.3345 6.40091 19.0894 7.15331C19.5218 7.58422 19.9716 7.78982 20.5728 7.83145C21.2339 7.87723 21.8216 7.65081 22.3131 7.16097C22.8046 6.67114 23.0318 6.08545 22.9859 5.42654C22.9271 4.58404 22.4612 3.89476 21.6981 3.52154C21.2709 3.31259 20.8624 3.23842 20.4438 3.29375ZM3.89992 4.3449C4.15616 4.47689 4.39065 4.71268 4.52846 4.97687C4.67332 5.25468 4.67465 5.85094 4.53104 6.14151C4.4139 6.3786 4.13854 6.66514 3.92227 6.77512C3.55937 6.95961 3.04015 6.96106 2.6813 6.77863C1.9015 6.38215 1.68273 5.35948 2.23629 4.69851C2.38007 4.52686 2.63059 4.34674 2.8326 4.26978C3.09524 4.16979 3.63346 4.20764 3.89992 4.3449ZM21.2902 4.32713C21.5277 4.44293 21.8153 4.71718 21.9259 4.93319C22.111 5.29485 22.1125 5.81231 21.9295 6.16995C21.5868 6.83923 20.745 7.11434 20.0777 6.77512C19.8615 6.66514 19.5861 6.3786 19.469 6.14151C19.3253 5.85094 19.3267 5.25468 19.4715 4.97687C19.6517 4.63144 19.9684 4.3631 20.3364 4.24396C20.5464 4.176 21.0747 4.22208 21.2902 4.32713ZM10.0278 6.54197C9.87662 6.57469 9.58656 6.68326 9.38322 6.7833C8.66883 7.13472 8.10556 7.85954 7.93939 8.64119C7.86303 9.00033 7.84954 10.545 7.92095 10.7491C8.02477 11.0459 8.41886 11.122 8.65155 10.8901L8.77716 10.7649L8.77802 10.0015C8.77849 9.58155 8.79654 9.11647 8.81807 8.96795C8.93383 8.1702 9.57496 7.53124 10.3754 7.41587C10.5245 7.39441 11.2555 7.37681 12 7.37681C12.7445 7.37681 13.4755 7.39441 13.6246 7.41587C14.425 7.53124 15.0662 8.1702 15.1819 8.96795C15.2035 9.11647 15.2215 9.846 15.222 10.5892L15.2228 11.9403L14.9543 11.9944C14.6489 12.0559 14.3 12.2629 14.1321 12.4823C13.9429 12.7296 13.8754 12.9422 13.8502 13.3707L13.8263 13.7775H12H10.1737L10.1498 13.3707C10.1155 12.7879 9.96132 12.4813 9.56654 12.2105C9.23897 11.9859 9.04959 11.9585 7.82358 11.9579L6.71961 11.9574L6.27614 11.4114C6.03228 11.1111 5.62062 10.5956 5.36142 10.2658C4.4946 9.16319 4.11465 8.87031 3.43321 8.77943C2.22185 8.6179 1.2354 9.22049 1.04293 10.2395C1.01595 10.3825 0.99962 11.6695 1.00001 13.6227C1.00069 17.0989 0.99919 17.077 1.26901 17.585C1.52756 18.0719 2.11172 18.554 2.65375 18.7278C2.77597 18.7671 3.31392 18.7899 4.51548 18.8069L6.20533 18.8309L6.82927 20.287C7.24085 21.2474 7.49434 21.7851 7.57401 21.8666C7.83983 22.1388 8.31784 21.9442 8.31496 21.5651C8.3135 21.3728 6.97645 18.2265 6.81827 18.0431L6.7221 17.9316L4.85878 17.9102L2.99546 17.8888L2.71013 17.7487C2.38321 17.5882 2.19452 17.3945 2.03501 17.0556L1.92324 16.8181V13.5848V10.3515L2.03067 10.1606C2.08976 10.0557 2.22189 9.91118 2.32429 9.83945C2.49644 9.71894 2.5428 9.70798 2.93887 9.69431C3.17448 9.68618 3.41013 9.69025 3.46256 9.70335C3.7506 9.77538 3.98341 10.0164 5.05628 11.3531C5.65418 12.098 6.17813 12.7362 6.22058 12.7714C6.28401 12.824 6.53234 12.8392 7.61268 12.8568C8.79056 12.8759 8.93955 12.8863 9.0425 12.9559C9.18818 13.0545 9.24984 13.2307 9.24984 13.5483V13.7989H7.30458H5.35931L4.7055 12.9282C4.07786 12.0923 3.94444 11.9574 3.74535 11.9574C3.49548 11.9574 3.27404 12.2228 3.31152 12.4773C3.32454 12.5657 3.55456 12.9079 3.98088 13.4731L4.63043 14.3342L4.65192 15.2864L4.6734 16.2385L4.81379 16.3784L4.95422 16.5183L6.05996 16.5398C7.14038 16.5607 7.17003 16.5636 7.35257 16.6678C7.46314 16.7308 7.5826 16.8478 7.64521 16.9543C7.70339 17.0532 8.09705 18.1684 8.52002 19.4326C8.94303 20.6967 9.31872 21.7761 9.35499 21.8313C9.39126 21.8864 9.49138 21.9509 9.57754 21.9746C9.86476 22.0537 10.1522 21.8527 10.1522 21.5729C10.1522 21.5016 9.79218 20.3667 9.35207 19.051C8.45053 16.3554 8.42127 16.2919 7.92611 15.9542C7.51737 15.6754 7.33087 15.6331 6.403 15.6086L5.59728 15.5873V15.1428V14.6983H12H18.4027V15.1428V15.5873L17.597 15.6086C16.6691 15.6331 16.4826 15.6754 16.0739 15.9542C15.5787 16.2919 15.5495 16.3554 14.6479 19.051C14.2078 20.3667 13.8478 21.5016 13.8478 21.5729C13.8478 21.8527 14.1352 22.0537 14.4225 21.9746C14.5086 21.9509 14.6087 21.8864 14.645 21.8313C14.6813 21.7761 15.057 20.6967 15.48 19.4326C15.903 18.1684 16.2966 17.0532 16.3548 16.9543C16.4174 16.8478 16.5369 16.7308 16.6474 16.6678C16.83 16.5636 16.8596 16.5607 17.94 16.5398L19.0458 16.5183L19.1862 16.3784L19.3266 16.2385L19.3481 15.2864L19.3696 14.3342L20.0191 13.4731C20.4454 12.9079 20.6755 12.5657 20.6885 12.4773C20.726 12.2228 20.5045 11.9574 20.2546 11.9574C20.0556 11.9574 19.9221 12.0923 19.2945 12.9282L18.6407 13.7989H16.6954H14.7502V13.5483C14.7502 13.2307 14.8118 13.0545 14.9575 12.9559C15.0611 12.8859 15.2001 12.8769 16.3616 12.865C17.4027 12.8544 17.6692 12.8398 17.747 12.7894C17.8 12.755 18.3357 12.1128 18.9375 11.3625C20.0176 10.0157 20.2493 9.77542 20.5374 9.70335C20.5899 9.69025 20.8255 9.68618 21.0611 9.69431C21.4572 9.70798 21.5036 9.71894 21.6757 9.83945C21.7781 9.91118 21.9102 10.0557 21.9693 10.1606L22.0768 10.3515V13.5857V16.82L21.9362 17.1044C21.7752 17.4303 21.5809 17.6184 21.2408 17.7774L21.0025 17.8888L19.1402 17.9102L17.2779 17.9316L17.1817 18.0431C17.0236 18.2265 15.6865 21.3728 15.685 21.5651C15.6822 21.9442 16.1602 22.1388 16.426 21.8666C16.5057 21.7851 16.7592 21.2474 17.1707 20.287L17.7947 18.8309L19.4845 18.8069C20.6861 18.7899 21.224 18.7671 21.3462 18.7278C21.8883 18.554 22.4724 18.0719 22.731 17.585C23.0008 17.077 22.9993 17.0989 23 13.6227C23.0004 11.6695 22.9841 10.3825 22.9571 10.2395C22.7646 9.22049 21.7781 8.6179 20.5668 8.77943C19.8854 8.87031 19.5054 9.16319 18.6386 10.2658C18.3794 10.5956 17.9677 11.1111 17.7239 11.4114L17.2804 11.9574H16.7028H16.1252L16.1245 10.4478C16.1237 8.72119 16.1032 8.55768 15.8158 7.9774C15.4641 7.26722 14.7359 6.70557 13.9524 6.54018C13.5361 6.45225 10.4361 6.45371 10.0278 6.54197ZM11.5273 8.76693V9.2166H12H12.4727V8.76693V8.31726H12H11.5273V8.76693ZM11.5476 15.6496C11.5361 15.6799 11.5316 17.1211 11.5377 18.8523L11.5488 22H12H12.4512V18.8095V15.619L12.01 15.6068C11.681 15.5977 11.5634 15.6086 11.5476 15.6496Z" stroke="#2E5BA6" stroke-width="0.3" mask="url(#path-1-outside-1_715_426)"/>
</svg>
