<svg width="31" height="31" viewBox="0 0 31 31" fill="none" xmlns="http://www.w3.org/2000/svg">
  <path d="M25.401 2.69043C25.6646 2.74856 25.9323 2.7929 26.191 2.86661C27.816 3.32924 28.9586 4.77704 29.0322 6.45616C29.0364 6.55564 29.0388 6.65572 29.0388 6.75579C29.0388 11.0207 29.0424 15.285 29.0376 19.5499C29.0358 21.4454 27.895 22.9753 26.124 23.4457C25.7598 23.5422 25.3715 23.5907 24.994 23.5913C18.7526 23.6003 12.5117 23.6009 6.27027 23.5955C3.95241 23.5937 2.2315 21.8834 2.22728 19.5799C2.22004 15.3054 2.22246 11.0303 2.22668 6.75579C2.22849 4.61944 3.58881 3.06257 5.72095 2.73597C5.76979 2.72818 5.81562 2.70601 5.86326 2.69043C12.3761 2.69043 18.8889 2.69043 25.4017 2.69043H25.401ZM15.6237 21.8667C18.7285 21.8667 21.8326 21.8679 24.9374 21.8661C26.3634 21.8649 27.3077 20.9414 27.3089 19.5284C27.3137 15.2754 27.3137 11.0219 27.3089 6.76898C27.3071 5.35533 26.3634 4.43127 24.938 4.43067C18.7393 4.42947 12.5401 4.42947 6.34142 4.43067C4.88341 4.43067 3.95482 5.35533 3.95422 6.81272C3.95181 11.0357 3.95241 15.2593 3.95663 19.4822C3.95663 19.7201 3.97412 19.9646 4.0314 20.1935C4.28706 21.2177 5.15897 21.8637 6.28052 21.8649C9.39492 21.8679 12.5093 21.8661 15.6243 21.8661L15.6237 21.8667Z" fill="white"/>
  <path d="M2.04812 28.1449C1.62931 28.0327 1.32167 27.8458 1.31265 27.4651C1.30424 27.1079 1.64013 26.8173 2.09498 26.7864C2.21456 26.7784 2.33533 26.7821 2.4555 26.7821C11.2378 26.7821 20.02 26.7821 28.8029 26.7821C28.893 26.7821 28.9832 26.7807 29.0733 26.7831C29.5306 26.7948 29.8767 27.0215 29.9374 27.3487C30.001 27.69 29.7793 27.9707 29.3455 28.0984C29.2992 28.112 29.2548 28.1294 29.2097 28.1449H2.04812Z" fill="white"/>
  <path d="M11.8068 12.9121C11.8068 11.9705 11.7287 11.0203 11.8231 10.0897C12.023 8.12311 14.194 7.04037 15.7905 8.11277C17.0374 8.95037 18.2506 9.85002 19.4247 10.7947C20.7496 11.861 20.7193 14.0198 19.3809 15.0733C18.2273 15.9809 17.0421 16.8471 15.8401 17.6841C14.9998 18.2692 14.0798 18.2875 13.1866 17.7923C12.2695 17.2838 11.8068 16.4505 11.7771 15.3738C11.7544 14.5538 11.7724 13.7327 11.7724 12.9121C11.7841 12.9121 11.7952 12.9121 11.8068 12.9121Z" fill="white"/>
  </svg>
  