<svg width="26" height="26" viewBox="0 0 26 26" fill="none" xmlns="http://www.w3.org/2000/svg">
<path d="M11.8032 25.6534C11.4577 25.5037 11.0798 25.4023 10.7736 25.195C10.175 24.7893 9.89563 24.1803 9.8658 23.4589C9.86431 23.4256 9.86132 23.3923 9.8653 23.3595C9.92198 22.8643 9.84889 22.5039 9.31595 22.2195C8.65871 21.869 8.38826 21.1889 8.37434 20.4368C8.35645 19.4852 8.38876 18.5302 8.32065 17.5821C8.21575 16.1185 7.68629 14.7961 6.77948 13.6417C5.89406 12.5142 5.29598 11.2668 5.02404 9.85439C4.36184 6.4146 6.14512 2.75706 9.28413 1.14182C10.2441 0.647649 11.2548 0.333947 12.3322 0.238991C12.3883 0.234019 12.4435 0.212642 12.4992 0.199219C12.8969 0.199219 13.2946 0.199219 13.6924 0.199219C14.2273 0.299643 14.7717 0.36477 15.2962 0.505961C18.5471 1.37946 20.9776 4.30519 21.2595 7.6535C21.4415 9.81313 20.8707 11.755 19.5414 13.4592C18.3755 14.9537 17.7998 16.6335 17.8182 18.5242C17.8242 19.1372 17.8232 19.7497 17.8182 20.3627C17.8098 21.3426 17.3658 22.0525 16.4799 22.4761C16.3665 22.5303 16.3243 22.5879 16.3238 22.7142C16.3223 23.0697 16.3392 23.4301 16.285 23.7786C16.1374 24.7302 15.4528 25.4152 14.5027 25.6116C14.4635 25.6196 14.4262 25.6394 14.3884 25.6539H11.8032V25.6534ZM13.0938 17.6274C14.1045 17.6274 15.1147 17.6239 16.1254 17.6308C16.3009 17.6318 16.371 17.5901 16.3835 17.4007C16.4023 17.1128 16.4521 16.8259 16.5072 16.5421C16.8035 15.0168 17.4836 13.679 18.4307 12.4505C19.6497 10.8691 20.0658 9.06293 19.6731 7.10813C18.8796 3.15926 14.9432 0.827618 11.0923 1.99493C7.95226 2.94648 5.93035 6.21475 6.46528 9.45021C6.67061 10.6921 7.20405 11.7669 7.97463 12.7513C9.03655 14.1075 9.62567 15.6636 9.80664 17.3728C9.82801 17.5756 9.88568 17.6343 10.087 17.6323C11.0893 17.6229 12.0915 17.6278 13.0938 17.6278V17.6274ZM9.87027 19.0765C9.87027 19.5772 9.84889 20.0569 9.87723 20.5337C9.89911 20.9016 10.2287 21.1755 10.6105 21.1765C12.2665 21.1815 13.923 21.181 15.5791 21.1765C15.938 21.1755 16.2616 20.9523 16.2925 20.6068C16.3372 20.1027 16.3039 19.5916 16.3039 19.0765H9.87027ZM11.3563 22.6819C11.3563 22.9508 11.3493 23.1905 11.3577 23.4301C11.3727 23.8378 11.6794 24.1525 12.0881 24.1584C12.7577 24.1684 13.4279 24.1664 14.0975 24.1589C14.4451 24.1549 14.7438 23.9417 14.7965 23.6041C14.8438 23.3028 14.8065 22.9881 14.8065 22.6819H11.3563Z" fill="white"/>
<path d="M0.367188 8.20329C0.565054 7.77425 0.904111 7.62163 1.36696 7.65096C1.76219 7.67631 2.16041 7.65344 2.55764 7.65692C3.0175 7.6609 3.3496 7.9761 3.3491 8.40166C3.3491 8.82772 3.0175 9.14241 2.55764 9.14689C2.16091 9.15086 1.76219 9.1275 1.36696 9.15285C0.904111 9.18268 0.565551 9.02906 0.367188 8.60052V8.2028L0.367188 8.20329Z" fill="white"/>
<path d="M25.8198 8.60104C25.6224 9.03108 25.2824 9.18221 24.82 9.15288C24.4248 9.12802 24.0261 9.15089 23.6294 9.14691C23.17 9.14244 22.8379 8.82675 22.8379 8.40168C22.8379 7.97712 23.171 7.66093 23.6294 7.65695C24.0266 7.65347 24.4248 7.67584 24.82 7.65099C25.2824 7.62165 25.6224 7.77279 25.8198 8.20282V8.60054V8.60104Z" fill="white"/>
<path d="M22.9621 5.57098C22.6151 5.57297 22.3163 5.34379 22.2353 5.01268C22.1502 4.66667 22.3009 4.30225 22.632 4.16703C23.143 3.95872 23.6631 3.76831 24.1886 3.59879C24.5082 3.49538 24.8677 3.68479 25.0208 3.98656C25.1714 4.28336 25.1222 4.7313 24.8279 4.87547C24.2328 5.1668 23.6014 5.38356 22.985 5.63164C22.9775 5.61125 22.9695 5.59137 22.9621 5.57098Z" fill="white"/>
<path d="M23.0278 11.2334C23.069 11.2438 23.1754 11.2612 23.2753 11.2965C23.6954 11.4447 24.114 11.5958 24.5316 11.7509C24.9935 11.922 25.2068 12.3366 25.0507 12.7492C24.8995 13.1499 24.477 13.3189 24.0226 13.1564C23.5801 12.9978 23.1366 12.8407 22.6981 12.6712C22.3352 12.531 22.1513 12.18 22.2298 11.8156C22.3044 11.47 22.6047 11.2309 23.0273 11.2339L23.0278 11.2334Z" fill="white"/>
<path d="M3.217 11.2331C3.56948 11.2341 3.86529 11.4588 3.94782 11.7755C4.03532 12.1106 3.90456 12.4845 3.58937 12.6167C3.05792 12.8399 2.51453 13.0393 1.96369 13.2088C1.63308 13.3107 1.27314 13.0845 1.14239 12.7624C1.00766 12.4313 1.11654 12.0022 1.44267 11.8595C1.98506 11.6219 2.55231 11.4414 3.11012 11.2396C3.1474 11.2262 3.19215 11.2336 3.217 11.2326V11.2331Z" fill="white"/>
<path d="M3.17343 5.57189C3.13067 5.56195 3.02379 5.54704 2.92436 5.51174C2.48935 5.35613 2.05533 5.19804 1.62331 5.03447C1.18979 4.87041 0.988448 4.46822 1.13163 4.06702C1.27282 3.67178 1.69689 3.48485 2.12941 3.63648C2.58828 3.79756 3.04765 3.95963 3.50006 4.13761C3.85403 4.27731 4.03002 4.61985 3.95942 4.97631C3.89082 5.32332 3.59302 5.56841 3.17343 5.5714V5.57189Z" fill="white"/>
<path d="M12.3485 9.15731C12.3156 8.19085 12.7193 7.52964 13.473 7.05138C13.8772 6.79485 13.9557 6.30913 13.6749 5.95367C13.4064 5.61362 12.9033 5.55843 12.603 5.87164C12.4762 6.00388 12.3837 6.20771 12.3574 6.39067C12.2888 6.87042 11.9806 7.1876 11.5525 7.15777C11.121 7.12744 10.8386 6.77397 10.8595 6.29074C10.9042 5.27754 11.6688 4.41101 12.6875 4.21861C13.7101 4.02572 14.7219 4.56363 15.1429 5.52463C15.5546 6.46424 15.2623 7.57935 14.441 8.19682C14.342 8.27139 14.2341 8.33403 14.1337 8.40711C13.9413 8.54731 13.8324 8.73175 13.8384 8.97734C13.8419 9.12649 13.8449 9.27613 13.8364 9.42478C13.8136 9.83145 13.4864 10.1432 13.0907 10.1417C12.6945 10.1402 12.3708 9.82648 12.3494 9.41931C12.344 9.31193 12.3485 9.20404 12.3485 9.15681V9.15731Z" fill="white"/>
<path d="M13.8403 12.3856C13.8363 12.7883 13.4977 13.1244 13.0951 13.1239C12.6829 13.1239 12.3404 12.7719 12.3508 12.3597C12.3608 11.958 12.7063 11.6269 13.1085 11.6339C13.5117 11.6409 13.8443 11.9824 13.8403 12.3851V12.3856Z" fill="white"/>
</svg>
