<svg width="42" height="42" viewBox="0 0 42 42" fill="none" xmlns="http://www.w3.org/2000/svg">
<path d="M12 38V13.5L7 13L4.5 14.5V24L5.5 38H12Z" fill="white"/>
<path d="M12 7C12 8.65685 10.6569 10 9 10C7.34315 10 6 8.65685 6 7C6 5.34315 7.34315 4 9 4C10.6569 4 12 5.34315 12 7Z" fill="white"/>
<path fill-rule="evenodd" clip-rule="evenodd" d="M32.75 13C32.75 13.4142 32.4142 13.75 32 13.75H30C29.5858 13.75 29.25 13.4142 29.25 13C29.25 12.5858 29.5858 12.25 30 12.25H32C32.4142 12.25 32.75 12.5858 32.75 13Z" fill="#FDB515"/>
<path fill-rule="evenodd" clip-rule="evenodd" d="M32.75 16C32.75 16.4142 32.4142 16.75 32 16.75H26C25.5858 16.75 25.25 16.4142 25.25 16C25.25 15.5858 25.5858 15.25 26 15.25H32C32.4142 15.25 32.75 15.5858 32.75 16Z" fill="#FDB515"/>
<path fill-rule="evenodd" clip-rule="evenodd" d="M28.75 20C28.75 20.4142 28.4142 20.75 28 20.75H20C19.5858 20.75 19.25 20.4142 19.25 20C19.25 19.5858 19.5858 19.25 20 19.25H28C28.4142 19.25 28.75 19.5858 28.75 20Z" fill="#FDB515"/>
<path fill-rule="evenodd" clip-rule="evenodd" d="M32.75 20C32.75 20.4142 32.4142 20.75 32 20.75L31 20.75C30.5858 20.75 30.25 20.4142 30.25 20C30.25 19.5858 30.5858 19.25 31 19.25L32 19.25C32.4142 19.25 32.75 19.5858 32.75 20Z" fill="#FDB515"/>
<path fill-rule="evenodd" clip-rule="evenodd" d="M7.84682 4.10689C6.93244 4.3534 6.01587 5.03179 5.61087 5.76191C4.99493 6.87224 4.95494 8.13718 5.50024 9.2626C5.87031 10.0264 6.78076 10.7841 7.69064 11.0856C8.31045 11.291 9.3782 11.3061 9.95857 11.1175C11.1746 10.7226 12.0865 9.80339 12.4495 8.60659C12.6142 8.0634 12.6019 7.10866 12.4229 6.54283C12.1744 5.75766 11.4604 4.87497 10.7119 4.42793C10.0562 4.03628 8.68073 3.88214 7.84682 4.10689ZM14.8704 4.1117C14.589 4.26103 14.4347 4.63361 14.5227 4.95142C14.562 5.09334 14.6465 5.28228 14.7105 5.37122C14.9751 5.73892 14.5631 5.72424 24.6341 5.72424C34.8772 5.72424 34.3142 5.70186 34.8471 6.13065C34.9815 6.23887 35.1853 6.4928 35.3 6.6949L35.5085 7.06247L35.5436 15.8125C35.572 22.8641 35.5967 24.5932 35.6711 24.7206C35.8931 25.1006 36.5225 25.2584 36.9517 25.0417C37.4015 24.8146 37.3756 25.4181 37.3548 15.659C37.3375 7.47712 37.3266 6.7612 37.2151 6.44345C36.8236 5.32826 35.8122 4.41791 34.6207 4.10827C34.0568 3.96168 15.1469 3.96504 14.8704 4.1117ZM9.73393 5.93424C10.6007 6.35712 10.9974 7.26499 10.7285 8.21027C10.529 8.91164 9.6841 9.49875 8.87416 9.49875C8.06563 9.49875 7.41645 9.06351 7.06367 8.28493C6.89104 7.90378 6.91114 7.20131 7.10528 6.83477C7.63476 5.83507 8.74856 5.4535 9.73393 5.93424ZM5.38981 12.4698C5.13853 12.5531 4.78934 12.7037 4.61383 12.8045C4.11541 13.0906 3.5155 13.7267 3.24341 14.2578L3 14.7329V19.7914C3 24.7279 3.0033 24.853 3.1377 24.9717C3.21347 25.0387 3.41386 25.1086 3.58297 25.1273C3.96394 25.1692 4.28776 25.0197 4.47887 24.7135C4.61123 24.5017 4.61615 24.3368 4.61636 20.097C4.61671 15.0211 4.59703 15.2051 5.20292 14.6134C5.84971 13.982 5.10943 14.0282 14.5772 14.0282C23.4997 14.0282 23.1662 14.0409 23.4891 13.6873C23.5921 13.5745 23.6297 13.4363 23.6297 13.1703C23.6297 12.9043 23.5921 12.7661 23.4891 12.6533C23.1636 12.2968 23.5222 12.3101 14.369 12.3143L5.84669 12.3182L5.38981 12.4698ZM11.7132 16.6875C11.5842 16.8003 11.4714 16.9866 11.4326 17.1507C11.3946 17.3116 11.367 21.539 11.366 27.359L11.3643 37.2929H10.556H9.74771V31.7649C9.74771 25.6338 9.7695 25.92 9.28844 25.7237C8.97615 25.5963 8.73492 25.6005 8.43732 25.7384C7.9687 25.9555 7.99049 25.6612 7.99049 31.7671V37.2972L7.1646 37.2779L6.33871 37.2586L6.30357 31.278C6.26969 25.5106 6.26364 25.2923 6.13396 25.1524C6.06002 25.0727 5.87572 24.9712 5.72446 24.9269C5.49405 24.8595 5.38932 24.8664 5.07956 24.9692C4.7764 25.0698 4.69501 25.1317 4.62803 25.3124C4.56835 25.4735 4.54635 27.1169 4.54635 31.4059V37.2788L3.96324 37.303C3.55676 37.3198 3.32262 37.364 3.19006 37.4489C3.00843 37.5651 3 37.5962 3 38.1473C3 38.6887 3.01139 38.7328 3.18521 38.8663L3.37042 39.0086H20.8182H38.2659L38.4538 38.8643C38.6346 38.7255 38.6408 38.6981 38.6214 38.1345L38.6012 37.5489L38.3563 37.4209C38.1199 37.2973 37.6779 37.2929 25.6516 37.2929H13.1919L13.1914 27.3247C13.1912 20.7373 13.1667 17.2708 13.1191 17.1036C12.9517 16.5154 12.1732 16.285 11.7132 16.6875ZM26.9115 24.3897C26.4206 24.6881 26.364 25.3243 26.7912 25.7414L27.0247 25.9693L28.0684 25.9698C29.6603 25.9703 29.8358 26.0606 29.9029 26.913C29.9229 27.1678 29.9847 27.4636 30.04 27.5704C30.2403 27.9564 30.2757 27.9595 34.3641 27.9594C37.7888 27.9593 38.1302 27.949 38.3552 27.8393L38.6012 27.7193L38.6213 27.0915C38.6531 26.0992 38.959 26.1752 34.9367 26.1752C32.3202 26.1752 31.6075 26.1568 31.6074 26.0894C31.6074 26.0423 31.5174 25.8184 31.4075 25.5919C31.1718 25.1061 30.7613 24.7211 30.2101 24.4688C29.8332 24.2962 29.7541 24.2871 28.4796 24.2681C27.2336 24.2497 27.1285 24.2578 26.9115 24.3897ZM16.1791 26.2715C15.5588 26.5388 15.4312 27.4012 15.9558 27.7814C16.1522 27.9238 16.2039 27.9254 21.0517 27.9429C25.8659 27.9603 25.9532 27.9582 26.1819 27.8213C26.6041 27.5686 26.6906 27.1467 26.4304 26.6094C26.2143 26.1631 26.3593 26.1749 21.1239 26.1779C17.353 26.18 16.3471 26.1991 16.1791 26.2715Z" fill="black"/>
</svg>
