<svg width="24" height="24" viewBox="0 0 24 24" fill="none" xmlns="http://www.w3.org/2000/svg">
<path fill-rule="evenodd" clip-rule="evenodd" d="M3.65758 2.1425C3.30717 2.32556 3.11681 2.59316 3.05105 2.9949C2.98298 3.41102 2.98298 20.589 3.05105 21.0051C3.11681 21.4068 3.30717 21.6744 3.65758 21.8575L3.93038 22H11.5685H19.2066L19.4832 21.8597C19.8357 21.681 20.0255 21.4147 20.0926 21.0051C20.1606 20.589 20.1606 3.41102 20.0926 2.9949C20.0255 2.58525 19.8357 2.31903 19.4832 2.14031L19.2066 2H11.5685H3.93038L3.65758 2.1425ZM19.2152 2.86934L19.3269 2.97337V6.16015V9.34694L16.8907 9.34673L14.4545 9.34653L14.2456 9.07607C14.1307 8.9273 13.9348 8.72209 13.8103 8.62005C13.596 8.44444 13.0555 8.09832 12.9306 8.05668C12.8979 8.04576 12.9479 7.95189 13.046 7.84015C13.3563 7.48679 13.4341 7.24689 13.4341 6.64286C13.4341 6.19903 13.4149 6.06556 13.3221 5.86474C13.1658 5.52643 12.7355 5.08898 12.3937 4.92117C12.1366 4.79485 12.0532 4.78061 11.5718 4.78061C10.9261 4.78061 10.697 4.86673 10.271 5.26964C9.86661 5.65209 9.71834 5.98444 9.6939 6.56347C9.67069 7.1125 9.77804 7.4652 10.0732 7.81005C10.1745 7.92842 10.249 8.03133 10.2386 8.03867C10.2282 8.04602 10.0573 8.14689 9.85865 8.26286C9.43768 8.50867 9.04885 8.84464 8.84498 9.13883L8.70079 9.34694H6.25875H3.81671V6.16015V2.97337L3.92839 2.86934C4.03972 2.76561 4.06258 2.76531 11.5718 2.76531C19.081 2.76531 19.1039 2.76561 19.2152 2.86934ZM12.0713 5.61775C12.4781 5.82704 12.6943 6.18265 12.6943 6.64286C12.6943 7.30383 12.2328 7.76531 11.5718 7.76531C10.9111 7.76531 10.4494 7.30377 10.4494 6.64337C10.4494 6.18143 10.6679 5.82566 11.0871 5.60505C11.3079 5.48883 11.8338 5.49561 12.0713 5.61775ZM12.2896 8.66301C12.9499 8.85699 13.5452 9.3101 13.8592 9.85765C14.1304 10.3306 14.0379 10.7093 13.6231 10.8245C13.3701 10.8947 9.77355 10.8947 9.52054 10.8245C9.10666 10.7095 9.01324 10.3305 9.28299 9.86015C9.58666 9.33056 10.1073 8.91954 10.7555 8.69775C11.167 8.55694 11.8739 8.54092 12.2896 8.66301ZM8.35865 10.3801C8.36008 10.7277 8.49038 11.0048 8.77503 11.2662C9.15936 11.6191 9.14574 11.6173 11.5718 11.6173C13.9979 11.6173 13.9843 11.6191 14.3686 11.2662C14.6532 11.0048 14.7835 10.7277 14.785 10.3801L14.7861 10.1122H17.0565H19.3269V15.5694V21.0266L19.2152 21.1307C19.1039 21.2344 19.081 21.2347 11.5718 21.2347C4.06258 21.2347 4.03972 21.2344 3.92839 21.1307L3.81671 21.0266V15.5694V10.1122H6.08712H8.35753L8.35865 10.3801ZM5.85952 13.5403C5.66926 13.7444 5.75212 14.0349 6.03084 14.1409C6.22446 14.2145 16.9192 14.2145 17.1128 14.1409C17.3915 14.0349 17.4744 13.7444 17.2841 13.5403L17.1801 13.4286H11.5718H5.96355L5.85952 13.5403ZM6.87992 16.0913C6.68967 16.2955 6.77253 16.5859 7.05125 16.6919C7.24436 16.7653 15.8993 16.7653 16.0924 16.6919C16.3711 16.5859 16.454 16.2955 16.2637 16.0913L16.1597 15.9796H11.5718H6.98396L6.87992 16.0913ZM6.87992 18.6423C6.68967 18.8465 6.77253 19.1369 7.05125 19.2429C7.24436 19.3163 15.8993 19.3163 16.0924 19.2429C16.3711 19.1369 16.454 18.8465 16.2637 18.6423L16.1597 18.5306H11.5718H6.98396L6.87992 18.6423Z" fill="black"/>
</svg>
