<svg width="54" height="68" viewBox="0 0 54 68" fill="none" xmlns="http://www.w3.org/2000/svg">
<path fill-rule="evenodd" clip-rule="evenodd" d="M0 6.10256V61.8974C0.038166 62.0675 0.0714447 62.2391 0.104702 62.4105C0.176567 62.7809 0.248333 63.1508 0.369096 63.5044C1.1633 65.838 2.77755 67.2706 5.14436 67.8474C5.24776 67.8726 5.3486 67.9094 5.44944 67.9462C5.49988 67.9646 5.55031 67.983 5.60106 68H37.0878C36.4795 66.9955 35.9898 65.9112 35.6379 64.7665C26.0475 64.767 16.4576 64.7667 6.86777 64.7656C4.49809 64.7656 3.24862 63.4957 3.24862 61.0823C3.24718 43.0216 3.24718 24.9624 3.24862 6.90171C3.24862 4.49265 4.49809 3.23291 6.87926 3.23291H32.5077H33.3206L33.322 3.23145V4.34009C33.322 5.45214 33.3213 6.56433 33.3206 7.67657C33.3191 10.1233 33.3175 12.5703 33.3235 15.0167C33.3321 18.4501 35.7018 20.8766 39.0969 20.8984C41.6092 20.9146 44.1222 20.911 46.635 20.9073C47.7118 20.9058 48.7886 20.9042 49.8653 20.9042H50.7212C50.7262 21.0095 50.7324 21.1089 50.7384 21.2046C50.7496 21.3836 50.76 21.5493 50.76 21.715C50.7609 29.8283 50.7618 37.9412 50.7616 46.0541C51.8824 46.1507 52.9667 46.3748 54 46.7118V19.1795C53.8981 19.0228 53.8035 18.8587 53.7089 18.6945C53.506 18.3423 53.3029 17.9899 53.0277 17.7105C47.5746 12.1601 42.1028 6.63 36.6266 1.10282C36.3546 0.828553 36.0525 0.585997 35.7504 0.343428C35.6092 0.230035 35.468 0.116639 35.3298 0H5.60106C5.36537 0.0867526 5.12504 0.164844 4.88473 0.24293C4.3563 0.41464 3.82795 0.58632 3.34915 0.85C1.54245 1.8453 0.478245 3.41744 0.136436 5.47923C0.112952 5.62179 0.0794669 5.763 0.045975 5.90423C0.0303107 5.97029 0.0146449 6.03635 0 6.10256ZM37.0574 6.43582C40.7327 10.1487 44.4533 13.9072 48.1648 17.6553C48.1501 17.6561 48.1304 17.6575 48.1067 17.6591C48.0085 17.6658 47.8418 17.6771 47.6751 17.6771C47.2091 17.6773 46.743 17.6776 46.2769 17.6779C43.9435 17.6793 41.6095 17.6807 39.2764 17.6771C37.4266 17.6742 36.4931 16.7297 36.4916 14.8641C36.4907 12.821 36.491 10.7785 36.4913 8.77908C36.4915 7.79536 36.4916 6.82207 36.4916 5.86427L37.0574 6.43582Z" fill="#E5E5E5"/>
</svg>
