<svg width="61" height="70" viewBox="0 0 61 70" fill="none" xmlns="http://www.w3.org/2000/svg">
<path d="M25.5264 57.556C20.6922 57.556 15.8567 57.556 11.0225 57.556C10.7597 57.556 10.494 57.5662 10.2341 57.5386C9.42549 57.4558 8.82086 56.7903 8.79932 55.9853C8.77921 55.2036 9.3781 54.4844 10.168 54.3653C10.4035 54.3304 10.6462 54.3435 10.8846 54.3435C20.6262 54.3435 30.3677 54.3435 40.1093 54.3435C40.3491 54.3435 40.5904 54.3304 40.8259 54.3624C41.6302 54.4713 42.2204 55.1557 42.219 55.9548C42.2176 56.7889 41.5971 57.4994 40.7498 57.5357C39.6985 57.5807 38.6444 57.5575 37.5917 57.5575C33.5704 57.5575 29.5491 57.5575 25.5293 57.5575L25.5264 57.556Z" fill="#E5E5E5"/>
<path d="M20.758 25.548C22.5891 25.4811 24.5092 25.5088 26.3246 26.4038C29.8101 28.1212 31.8955 31.8278 31.5149 35.732C31.4258 36.6517 30.7767 37.2998 29.9408 37.3041C29.1107 37.3085 28.4343 36.6605 28.3467 35.7465C28.2691 34.93 28.318 34.0901 28.1428 33.2982C27.5611 30.6741 25.2747 28.8245 22.6121 28.7649C21.2965 28.7358 19.981 28.7358 18.6655 28.762C15.5131 28.8259 13.0429 31.2699 12.8964 34.4461C12.8748 34.9053 12.9007 35.3688 12.849 35.8235C12.7484 36.6997 12.072 37.3129 11.2663 37.3056C10.4563 37.2983 9.78132 36.6808 9.70807 35.8003C9.20254 29.6788 13.8098 25.7107 18.2777 25.5553C19.0662 25.5276 19.8561 25.5509 20.7594 25.5509L20.758 25.548Z" fill="#E5E5E5"/>
<path d="M27.0339 18.2688C27.0454 21.8708 24.1845 24.8131 20.6558 24.8276C17.0812 24.8407 14.1902 21.926 14.1758 18.2921C14.1615 14.7104 17.0496 11.7783 20.5941 11.7754C24.1457 11.7725 27.0224 14.6727 27.0339 18.2688ZM23.8513 18.3022C23.8513 16.4671 22.3821 14.9836 20.5725 14.9938C18.8075 15.0039 17.3555 16.4962 17.3613 18.295C17.367 20.1141 18.7859 21.5773 20.5668 21.5991C22.3749 21.6223 23.8513 20.1403 23.8513 18.3022Z" fill="#E5E5E5"/>
<path d="M20.0476 45.8798C23.2287 45.8798 26.4113 45.8681 29.5924 45.8856C30.9467 45.8928 31.7151 47.1744 31.0645 48.283C30.6753 48.947 30.0534 49.0981 29.3411 49.0967C25.0828 49.0894 20.826 49.0923 16.5678 49.0923C14.583 49.0923 12.5968 49.0996 10.612 49.0894C9.57793 49.0836 8.89287 48.5024 8.8067 47.6001C8.71335 46.6266 9.45872 45.8856 10.5761 45.8827C13.7342 45.874 16.8909 45.8798 20.049 45.8798H20.0476Z" fill="#E5E5E5"/>
<path d="M60.3886 54.9996L58.3886 52.9995L52.5 58.9999L46.1114 52.6113L44 54.6109L50.3886 60.9995L44 67.3881L46 69.3882L52.3886 62.9996L58.3886 68.9995L60.5 66.9999L54.5 61L60.3886 54.9996Z" fill="#E5E5E5"/>
<path fill-rule="evenodd" clip-rule="evenodd" d="M0 6.10256V61.8974C0.038166 62.0675 0.0714447 62.2391 0.104702 62.4105C0.176567 62.7809 0.248333 63.1508 0.369096 63.5044C1.1633 65.838 2.77755 67.2706 5.14436 67.8474C5.24776 67.8726 5.3486 67.9094 5.44944 67.9462C5.49988 67.9646 5.55031 67.983 5.60106 68H37.0878C36.4795 66.9955 35.9898 65.9112 35.6379 64.7665C26.0475 64.767 16.4576 64.7667 6.86777 64.7656C4.49809 64.7656 3.24862 63.4957 3.24862 61.0823C3.24718 43.0216 3.24718 24.9624 3.24862 6.90171C3.24862 4.49265 4.49809 3.23291 6.87926 3.23291H32.5077H33.3206L33.322 3.23145V4.34009C33.322 5.45214 33.3213 6.56433 33.3206 7.67657C33.3191 10.1233 33.3175 12.5703 33.3235 15.0167C33.3321 18.4501 35.7018 20.8766 39.0969 20.8984C41.6092 20.9146 44.1222 20.911 46.635 20.9073C47.7118 20.9058 48.7886 20.9042 49.8653 20.9042H50.7212C50.7262 21.0095 50.7324 21.1089 50.7384 21.2046C50.7496 21.3836 50.76 21.5493 50.76 21.715C50.7609 29.8283 50.7618 37.9412 50.7616 46.0541C51.8824 46.1507 52.9667 46.3748 54 46.7118V19.1795C53.8981 19.0228 53.8035 18.8587 53.7089 18.6945C53.506 18.3423 53.3029 17.9899 53.0277 17.7105C47.5746 12.1601 42.1028 6.63 36.6266 1.10282C36.3546 0.828553 36.0525 0.585997 35.7504 0.343428C35.6092 0.230035 35.468 0.116639 35.3298 0H5.60106C5.36537 0.0867526 5.12504 0.164844 4.88473 0.24293C4.3563 0.41464 3.82795 0.58632 3.34915 0.85C1.54245 1.8453 0.478245 3.41744 0.136436 5.47923C0.112952 5.62179 0.0794669 5.763 0.045975 5.90423C0.0303107 5.97029 0.0146449 6.03635 0 6.10256ZM37.0574 6.43582C40.7327 10.1487 44.4533 13.9072 48.1648 17.6553C48.1501 17.6561 48.1304 17.6575 48.1067 17.6591C48.0085 17.6658 47.8418 17.6771 47.6751 17.6771C47.2091 17.6773 46.743 17.6776 46.2769 17.6779C43.9435 17.6793 41.6095 17.6807 39.2764 17.6771C37.4266 17.6742 36.4931 16.7297 36.4916 14.8641C36.4907 12.821 36.491 10.7785 36.4913 8.77908C36.4915 7.79536 36.4916 6.82207 36.4916 5.86427L37.0574 6.43582Z" fill="#E5E5E5"/>
</svg>
