<svg width="16" height="19" viewBox="0 0 16 19" fill="none" xmlns="http://www.w3.org/2000/svg">
<path d="M6.72013 18.7232C7.72394 19.0397 8.80423 18.4774 9.12078 17.4736L5.47056 16.3225C5.15401 17.3264 5.71632 18.4066 6.72013 18.7232ZM13.9221 14.9745L15.3609 10.4117C16.2444 7.61019 15.4965 4.79586 13.0732 3.34942L13.2689 2.72888C13.5077 1.97146 13.0891 1.16725 12.3317 0.928396C11.5743 0.689545 10.77 1.10815 10.5312 1.86557L10.3355 2.4861C7.52992 2.28361 5.29663 4.14781 4.4103 6.95847L2.97144 11.5212L0.570785 12.7708L0.283014 13.6834L14.8839 18.2877L15.1716 17.3752L13.9221 14.9745ZM11.8092 15.3115L4.50877 13.0093L6.2354 7.53401C6.94908 5.27088 8.90833 3.86206 11.1806 4.57861C13.4529 5.29516 14.2495 7.57306 13.5358 9.83619L11.8092 15.3115Z" fill="#EB5757"/>
</svg>
