<svg width="18" height="26" viewBox="0 0 18 26" fill="none" xmlns="http://www.w3.org/2000/svg">
<circle cx="8.63249" cy="7.78203" r="1.74152" stroke="#DDD2CC" stroke-width="1.4736"/>
<g style="mix-blend-mode:overlay" opacity="0.3">
<mask id="path-2-inside-1_528_1156" fill="white">
<path d="M8.63249 10.2604C8.95794 10.2604 9.28022 10.1963 9.5809 10.0717C9.88158 9.94716 10.1548 9.76461 10.3849 9.53447C10.6151 9.30434 10.7976 9.03113 10.9222 8.73045C11.0467 8.42976 11.1108 8.10749 11.1108 7.78203C11.1108 7.45658 11.0467 7.1343 10.9222 6.83362C10.7976 6.53294 10.6151 6.25973 10.3849 6.02959C10.1548 5.79946 9.88158 5.61691 9.5809 5.49236C9.28022 5.36781 8.95794 5.30371 8.63249 5.30371V6.77638C8.76455 6.77638 8.89532 6.80239 9.01733 6.85293C9.13935 6.90347 9.25021 6.97754 9.34359 7.07093C9.43698 7.16431 9.51105 7.27517 9.56159 7.39719C9.61213 7.5192 9.63814 7.64997 9.63814 7.78203C9.63814 7.9141 9.61213 8.04487 9.56159 8.16688C9.51105 8.28889 9.43698 8.39976 9.34359 8.49314C9.25021 8.58652 9.13935 8.6606 9.01733 8.71114C8.89532 8.76168 8.76455 8.78769 8.63249 8.78769V10.2604Z"/>
</mask>
<path d="M8.63249 10.2604C8.95794 10.2604 9.28022 10.1963 9.5809 10.0717C9.88158 9.94716 10.1548 9.76461 10.3849 9.53447C10.6151 9.30434 10.7976 9.03113 10.9222 8.73045C11.0467 8.42976 11.1108 8.10749 11.1108 7.78203C11.1108 7.45658 11.0467 7.1343 10.9222 6.83362C10.7976 6.53294 10.6151 6.25973 10.3849 6.02959C10.1548 5.79946 9.88158 5.61691 9.5809 5.49236C9.28022 5.36781 8.95794 5.30371 8.63249 5.30371V6.77638C8.76455 6.77638 8.89532 6.80239 9.01733 6.85293C9.13935 6.90347 9.25021 6.97754 9.34359 7.07093C9.43698 7.16431 9.51105 7.27517 9.56159 7.39719C9.61213 7.5192 9.63814 7.64997 9.63814 7.78203C9.63814 7.9141 9.61213 8.04487 9.56159 8.16688C9.51105 8.28889 9.43698 8.39976 9.34359 8.49314C9.25021 8.58652 9.13935 8.6606 9.01733 8.71114C8.89532 8.76168 8.76455 8.78769 8.63249 8.78769V10.2604Z" stroke="white" stroke-width="2.9472" mask="url(#path-2-inside-1_528_1156)"/>
</g>
<rect x="1.86737" y="0.481445" width="13.5303" height="6.16232" rx="0.669817" fill="#EEE6E2"/>
<g style="mix-blend-mode:overlay" opacity="0.3">
<path d="M8.5655 0.481445H14.7278C15.0977 0.481445 15.3976 0.781333 15.3976 1.15126V5.97395C15.3976 6.34388 15.0977 6.64376 14.7278 6.64376H8.5655V0.481445Z" fill="white"/>
</g>
<rect x="4.41262" y="0.481445" width="1.74152" height="6.16232" fill="#F0F7FF"/>
<rect x="11.2448" y="0.481445" width="1.74152" height="6.16232" fill="#F0F7FF"/>
<path d="M8.27251 9.08265C8.48693 8.79986 8.91205 8.79986 9.12648 9.08265L10.7709 11.2513C10.8879 11.4056 11.079 11.4848 11.2709 11.4584L13.9671 11.0877C14.3187 11.0394 14.6193 11.34 14.571 11.6916L14.2003 14.3878C14.1739 14.5797 14.2531 14.7708 14.4074 14.8878L16.5761 16.5322C16.8589 16.7467 16.8589 17.1718 16.5761 17.3862L14.4074 19.0306C14.2531 19.1476 14.1739 19.3388 14.2003 19.5306L14.571 22.2269C14.6193 22.5785 14.3187 22.8791 13.9671 22.8307L11.2709 22.46C11.079 22.4336 10.8879 22.5128 10.7709 22.6671L9.12648 24.8358C8.91205 25.1186 8.48693 25.1186 8.27251 24.8358L6.62809 22.6671C6.51109 22.5128 6.31995 22.4336 6.12811 22.46L3.43184 22.8307C3.08025 22.8791 2.77965 22.5785 2.82799 22.2269L3.19871 19.5306C3.22508 19.3388 3.14591 19.1476 2.99161 19.0306L0.822915 17.3862C0.540127 17.1718 0.540127 16.7467 0.822915 16.5322L2.99161 14.8878C3.14591 14.7708 3.22508 14.5797 3.19871 14.3878L2.82799 11.6916C2.77965 11.34 3.08025 11.0394 3.43184 11.0877L6.12811 11.4584C6.31995 11.4848 6.51109 11.4056 6.62809 11.2513L8.27251 9.08265Z" fill="#EEE6E2"/>
<path d="M8.30345 14.1378C8.51014 13.7829 9.02282 13.7829 9.22952 14.1378L9.83861 15.1835C9.91432 15.3135 10.0412 15.4057 10.1882 15.4375L11.371 15.6936C11.7724 15.7806 11.9308 16.2681 11.6572 16.5744L10.8508 17.4768C10.7506 17.589 10.7021 17.7382 10.7173 17.8878L10.8392 19.0919C10.8806 19.5005 10.4658 19.8018 10.09 19.6362L8.98257 19.1482C8.8449 19.0875 8.68807 19.0875 8.5504 19.1482L7.44297 19.6362C7.06716 19.8018 6.65239 19.5005 6.69376 19.0919L6.81567 17.8878C6.83082 17.7382 6.78236 17.589 6.68212 17.4768L5.87579 16.5744C5.60215 16.2681 5.76058 15.7806 6.16196 15.6936L7.34473 15.4375C7.49176 15.4057 7.61864 15.3135 7.69436 15.1835L8.30345 14.1378Z" fill="#FFA852"/>
<g style="mix-blend-mode:overlay" opacity="0.3">
<path d="M10.7709 11.2509L9.12647 9.08221C9.01926 8.94081 8.85937 8.87012 8.69949 8.87012V25.0474C8.85937 25.0474 9.01926 24.9768 9.12647 24.8354L10.7709 22.6667C10.8879 22.5124 11.079 22.4332 11.2709 22.4596L13.9671 22.8303C14.3187 22.8786 14.6193 22.578 14.571 22.2264L14.2003 19.5302C14.1739 19.3383 14.2531 19.1472 14.4074 19.0302L16.5761 17.3858C16.8589 17.1713 16.8589 16.7462 16.5761 16.5318L14.4074 14.8874C14.2531 14.7704 14.1739 14.5792 14.2003 14.3874L14.571 11.6911C14.6193 11.3395 14.3187 11.0389 13.9671 11.0873L11.2709 11.458C11.079 11.4844 10.8879 11.4052 10.7709 11.2509Z" fill="white"/>
</g>
</svg>
