<svg width="16" height="16" viewBox="0 0 16 16" fill="none" xmlns="http://www.w3.org/2000/svg">
<path d="M8.00002 7.3335C8.88669 7.3335 10.6667 7.78016 10.6667 8.66683V8.7735C10.02 9.52016 9.06669 10.0002 8.00002 10.0002C6.93335 10.0002 5.98002 9.52016 5.33335 8.7735V8.66683C5.33335 7.78016 7.11335 7.3335 8.00002 7.3335ZM8.00002 6.66683C7.26669 6.66683 6.66669 6.06683 6.66669 5.3335C6.66669 4.60016 7.26669 4.00016 8.00002 4.00016C8.73335 4.00016 9.33335 4.60016 9.33335 5.3335C9.33335 6.06683 8.73335 6.66683 8.00002 6.66683ZM12 6.80016C12 4.38016 10.2334 2.66683 8.00002 2.66683C5.76669 2.66683 4.00002 4.38016 4.00002 6.80016C4.00002 8.36016 5.30002 10.4268 8.00002 12.8935C10.7 10.4268 12 8.36016 12 6.80016ZM8.00002 1.3335C10.8 1.3335 13.3334 3.48016 13.3334 6.80016C13.3334 9.0135 11.5534 11.6335 8.00002 14.6668C4.44669 11.6335 2.66669 9.0135 2.66669 6.80016C2.66669 3.48016 5.20002 1.3335 8.00002 1.3335Z" fill="white"/>
</svg>
