<svg width="28" height="28" viewBox="0 0 28 28" fill="none" xmlns="http://www.w3.org/2000/svg">
<defs>
<linearGradient id="paint0_linear_349_1648" x1="25.6663" y1="13.9352" x2="2.33301" y2="13.9352" gradientUnits="userSpaceOnUse">
<stop stop-color="#FF2252"/>
<stop offset="1" stop-color="#FC7B04"/>
</linearGradient>
</defs>
<path d="M10.5463 25.1297C11.6663 25.468 12.798 25.6663 13.9997 25.6663C17.0939 25.6663 20.0613 24.4372 22.2493 22.2493C24.4372 20.0613 25.6663 17.0939 25.6663 13.9997C25.6663 12.4676 25.3646 10.9505 24.7783 9.53503C24.192 8.11957 23.3326 6.83345 22.2493 5.7501C21.1659 4.66675 19.8798 3.80738 18.4643 3.22108C17.0489 2.63478 15.5318 2.33301 13.9997 2.33301C12.4676 2.33301 10.9505 2.63478 9.53503 3.22108C8.11957 3.80738 6.83345 4.66675 5.7501 5.7501C3.56217 7.93802 2.33301 10.9055 2.33301 13.9997C2.33301 18.958 5.44801 23.2163 9.84634 24.8963C9.74134 23.9863 9.63634 22.4813 9.84634 21.443L11.188 15.6797C11.188 15.6797 10.8497 15.003 10.8497 13.9297C10.8497 12.3197 11.853 11.118 12.9963 11.118C13.9997 11.118 14.4663 11.853 14.4663 12.798C14.4663 13.8013 13.8013 15.2363 13.463 16.613C13.2647 17.7563 14.0697 18.7597 15.2363 18.7597C17.313 18.7597 18.923 16.543 18.923 13.4163C18.923 10.6163 16.9163 8.70301 14.0347 8.70301C10.7447 8.70301 8.80801 11.153 8.80801 13.7313C8.80801 14.7347 9.13468 15.7497 9.67134 16.4147C9.77634 16.4847 9.77634 16.578 9.74134 16.753L9.40301 18.0247C9.40301 18.223 9.27468 18.293 9.07634 18.153C7.58301 17.4997 6.71968 15.3763 6.71968 13.6613C6.71968 9.97468 9.33301 6.62634 14.373 6.62634C18.3863 6.62634 21.513 9.50801 21.513 13.3347C21.513 17.348 19.028 20.568 15.4697 20.568C14.338 20.568 13.2297 19.9613 12.833 19.2497L12.0513 22.0147C11.783 23.018 11.048 24.3597 10.5463 25.1647V25.1297Z" fill="url(#paint0_linear_349_1648)"/>
</svg>
