<svg width="34" height="34" viewBox="0 0 34 34" fill="none" xmlns="http://www.w3.org/2000/svg">
<path d="M34 17C34 21.5087 32.2089 25.8327 29.0208 29.0208C25.8327 32.2089 21.5087 34 17 34C12.4913 34 8.1673 32.2089 4.97919 29.0208C1.79107 25.8327 0 21.5087 0 17C0 12.4913 1.79107 8.1673 4.97919 4.97919C8.1673 1.79107 12.4913 0 17 0C21.5087 0 25.8327 1.79107 29.0208 4.97919C32.2089 8.1673 34 12.4913 34 17ZM14.4288 10.8226C14.2699 10.7095 14.0829 10.6423 13.8884 10.6284C13.6939 10.6144 13.4993 10.6543 13.3259 10.7436C13.1525 10.833 13.0071 10.9683 12.9055 11.1348C12.8039 11.3012 12.7501 11.4925 12.75 11.6875V22.3125C12.7501 22.5075 12.8039 22.6988 12.9055 22.8652C13.0071 23.0317 13.1525 23.167 13.3259 23.2564C13.4993 23.3457 13.6939 23.3856 13.8884 23.3716C14.0829 23.3577 14.2699 23.2905 14.4288 23.1774L21.8662 17.8649C22.004 17.7666 22.1162 17.6368 22.1937 17.4864C22.2712 17.336 22.3116 17.1692 22.3116 17C22.3116 16.8308 22.2712 16.664 22.1937 16.5136C22.1162 16.3632 22.004 16.2334 21.8662 16.1351L14.4288 10.8226Z" fill="white"/>
</svg>
