<svg width="24" height="24" viewBox="0 0 24 24" fill="none" xmlns="http://www.w3.org/2000/svg">
<path d="M6 16H14V15.45C14 14.7167 13.6333 14.125 12.9 13.675C12.1667 13.225 11.2 13 10 13C8.8 13 7.83333 13.225 7.1 13.675C6.36667 14.125 6 14.7167 6 15.45V16ZM10 12C10.55 12 11.021 11.804 11.413 11.412C11.8043 11.0207 12 10.55 12 10C12 9.45 11.8043 8.979 11.413 8.587C11.021 8.19567 10.55 8 10 8C9.45 8 8.97933 8.19567 8.588 8.587C8.196 8.979 8 9.45 8 10C8 10.55 8.196 11.0207 8.588 11.412C8.97933 11.804 9.45 12 10 12ZM4 20C3.45 20 2.97933 19.8043 2.588 19.413C2.196 19.021 2 18.55 2 18V6C2 5.45 2.196 4.97933 2.588 4.588C2.97933 4.196 3.45 4 4 4H16C16.55 4 17.021 4.196 17.413 4.588C17.8043 4.97933 18 5.45 18 6V10.5L22 6.5V17.5L18 13.5V18C18 18.55 17.8043 19.021 17.413 19.413C17.021 19.8043 16.55 20 16 20H4ZM4 18H16V6H4V18Z" fill="#5A5F73"/>
</svg>
