<svg width="24" height="24" viewBox="0 0 24 24" fill="none" xmlns="http://www.w3.org/2000/svg">
<path d="M7.50001 18.3C7.28253 18.3 7.0724 18.2212 6.90849 18.0783C6.74459 17.9353 6.63799 17.7379 6.60841 17.5224L6.60001 17.4L6.60001 6.59999C6.60008 6.37196 6.68671 6.15246 6.84238 5.98584C6.99805 5.81922 7.21117 5.7179 7.43867 5.70236C7.66617 5.68682 7.89108 5.75821 8.06797 5.90211C8.24486 6.04601 8.36053 6.25169 8.39161 6.47759L8.40001 6.59999L8.40001 17.4C8.40001 17.6387 8.30519 17.8676 8.13641 18.0364C7.96762 18.2052 7.73871 18.3 7.50001 18.3ZM17.436 18.036C17.2836 18.1884 17.0816 18.2811 16.8667 18.2972C16.6517 18.3132 16.4382 18.2516 16.2648 18.1236L16.164 18.036L10.764 12.636C10.6116 12.4836 10.5189 12.2816 10.5028 12.0666C10.4868 11.8517 10.5484 11.6382 10.6764 11.4648L10.764 11.364L16.164 5.96399C16.3248 5.80444 16.5399 5.7114 16.7662 5.70342C16.9926 5.69545 17.2137 5.77314 17.3853 5.92098C17.5569 6.06882 17.6665 6.27595 17.6921 6.50101C17.7178 6.72608 17.6576 6.95254 17.5236 7.13519L17.436 7.23599L12.672 12L17.436 16.764C17.6046 16.9327 17.6992 17.1615 17.6992 17.4C17.6992 17.6385 17.6046 17.8672 17.436 18.036Z" fill="black"/>
</svg>
