<svg width="36" height="36" viewBox="0 0 36 36" fill="none" xmlns="http://www.w3.org/2000/svg">
<path d="M31.4363 29.1624C33.2314 27.0025 34.48 24.4421 35.0763 21.6976C35.6726 18.9532 35.5991 16.1055 34.8621 13.3954C34.1251 10.6854 32.7462 8.19268 30.8421 6.12824C28.9379 4.0638 26.5646 2.48833 23.9228 1.53512C21.2811 0.581909 18.4486 0.278991 15.665 0.65199C12.8813 1.02499 10.2285 2.06294 7.9309 3.67802C5.63327 5.29311 3.75844 7.43782 2.46499 9.93073C1.17155 12.4236 0.497547 15.1914 0.500007 17.9999C0.500951 22.0826 1.93969 26.0346 4.56376 29.1624L4.53876 29.1836C4.62626 29.2886 4.72626 29.3786 4.81626 29.4824C4.92876 29.6111 5.05001 29.7324 5.16626 29.8574C5.51626 30.2374 5.87626 30.6024 6.25376 30.9449C6.36876 31.0499 6.48751 31.1474 6.60376 31.2474C7.00376 31.5924 7.41501 31.9199 7.84126 32.2249C7.89626 32.2624 7.94626 32.3111 8.00126 32.3499V32.3349C10.9289 34.3951 14.4214 35.5008 18.0013 35.5008C21.5811 35.5008 25.0736 34.3951 28.0013 32.3349V32.3499C28.0563 32.3111 28.105 32.2624 28.1613 32.2249C28.5863 31.9186 28.9988 31.5924 29.3988 31.2474C29.515 31.1474 29.6338 31.0486 29.7488 30.9449C30.1263 30.6011 30.4863 30.2374 30.8363 29.8574C30.9525 29.7324 31.0725 29.6111 31.1863 29.4824C31.275 29.3786 31.3763 29.2886 31.4638 29.1824L31.4363 29.1624ZM18 7.99989C19.1125 7.99989 20.2001 8.32979 21.1251 8.94787C22.0501 9.56596 22.7711 10.4445 23.1968 11.4723C23.6226 12.5001 23.734 13.6311 23.5169 14.7223C23.2999 15.8134 22.7642 16.8157 21.9775 17.6024C21.1908 18.389 20.1885 18.9248 19.0974 19.1418C18.0062 19.3589 16.8752 19.2475 15.8474 18.8217C14.8196 18.396 13.9411 17.675 13.323 16.75C12.7049 15.8249 12.375 14.7374 12.375 13.6249C12.375 12.133 12.9676 10.7023 14.0225 9.64742C15.0774 8.59252 16.5082 7.99989 18 7.99989ZM8.00876 29.1624C8.03044 27.5211 8.69744 25.9543 9.86545 24.8011C11.0335 23.6478 12.6086 23.0007 14.25 22.9999H21.75C23.3914 23.0007 24.9665 23.6478 26.1346 24.8011C27.3026 25.9543 27.9696 27.5211 27.9913 29.1624C25.2498 31.6328 21.6903 33 18 33C14.3097 33 10.7502 31.6328 8.00876 29.1624Z" fill="#E0E0E0"/>
</svg>
