<svg width="42" height="42" viewBox="0 0 42 42" fill="none" xmlns="http://www.w3.org/2000/svg">
<path fill-rule="evenodd" clip-rule="evenodd" d="M28.5 11C29.0523 11 29.5 11.4477 29.5 12V19.5416L29.4966 19.583C29.3985 20.7598 28.8839 22.4824 27.6629 23.9815C26.4171 25.5111 24.4598 26.7753 21.5767 26.9971C21.0261 27.0394 20.5454 26.6274 20.503 26.0767C20.4606 25.526 20.8727 25.0453 21.4234 25.0029C23.7403 24.8247 25.1996 23.8389 26.1122 22.7185C27.0348 21.5857 27.4227 20.2817 27.5 19.456V12C27.5 11.4477 27.9478 11 28.5 11Z" fill="#FDB515"/>
<path fill-rule="evenodd" clip-rule="evenodd" d="M14.041 14.5C13.7649 14.5018 13.5396 14.2793 13.5379 14.0032L13.4998 8.00318C13.498 7.72705 13.7205 7.50177 13.9966 7.50002C14.2727 7.49827 14.498 7.7207 14.4998 7.99684L14.5378 13.9968C14.5396 14.273 14.3172 14.4982 14.041 14.5Z" fill="white"/>
<path fill-rule="evenodd" clip-rule="evenodd" d="M14 18.5C13.7239 18.5 13.5 18.2761 13.5 18L13.5 16C13.5 15.7239 13.7239 15.5 14 15.5C14.2761 15.5 14.5 15.7239 14.5 16L14.5 18C14.5 18.2761 14.2761 18.5 14 18.5Z" fill="white"/>
<path fill-rule="evenodd" clip-rule="evenodd" d="M12.0863 3.14329C11.6802 3.46282 11.701 3.06259 11.701 10.5503V17.421L11.5466 17.3731C10.7757 17.134 9.82176 16.3226 9.45323 15.5923C9.02451 14.7428 9.02451 14.7429 9.02451 11.2667V8.09744L9.64909 8.06182C10.3507 8.02188 10.5539 7.92326 10.7572 7.52454C11.0197 7.0099 10.8291 6.39521 10.3271 6.13689C10.1187 6.0297 9.93067 6.01659 8.85295 6.03395C7.7033 6.05255 7.60283 6.06449 7.40367 6.20655C6.99438 6.49849 7 6.43535 7 10.7549C7 14.6225 7.00309 14.7126 7.15373 15.2843C7.47799 16.5149 8.13243 17.4903 9.26471 18.4307C9.85909 18.9243 10.9201 19.402 11.4224 19.402H11.6712L11.7557 20.1134C12.1084 23.0822 13.8048 25.7042 16.402 27.2948C17.5137 27.9757 18.6416 28.3694 20.2279 28.6305L20.4853 28.6729V30.4884V32.3039L17.8946 32.3041C15.0053 32.3041 14.9845 32.3072 14.6705 32.7773C14.5201 33.0023 14.5147 33.0639 14.5147 34.5445V36.0784H11.7674C8.72798 36.0784 8.66257 36.0867 8.40865 36.5032C8.31525 36.6563 8.27002 36.8504 8.26989 37.0988C8.26961 37.4353 8.2926 37.4902 8.53602 37.7336L8.8025 38H12.3781H15.9537L16.1643 37.8113C16.4589 37.5473 16.5014 37.2804 16.5033 35.6838L16.5049 34.2941H21.4461H26.3873V35.1863V36.0784H23.0063C19.8629 36.0784 19.6089 36.0872 19.3915 36.2038C19.0499 36.3871 18.8921 36.715 18.9264 37.1706C18.9507 37.4933 18.9872 37.5724 19.2041 37.7711L19.4539 38H26.7718H34.0897L34.3561 37.7336C34.5996 37.4902 34.6226 37.4353 34.6223 37.0988C34.6221 36.8504 34.5769 36.6563 34.4835 36.5032C34.2296 36.0867 34.1642 36.0784 31.1248 36.0784H28.3775V34.5445C28.3775 33.0639 28.372 33.0023 28.2217 32.7773C27.9076 32.3072 27.8868 32.3041 24.9976 32.3041L22.4069 32.3039V30.4884V28.6729L22.6642 28.6305C23.9722 28.4152 24.7953 28.1628 25.7798 27.6749C28.5607 26.2969 30.5643 23.5995 31.0322 20.6036C31.1863 19.6166 31.1567 19.6597 31.783 19.5137C32.4836 19.3504 32.7667 19.2302 33.3523 18.8472C34.532 18.0755 35.3367 16.9384 35.7358 15.479C35.8904 14.9131 35.8922 14.8621 35.8922 10.7863C35.8922 6.12063 35.9268 6.40701 35.3331 6.15254C35.051 6.03162 34.8496 6.01961 33.1071 6.01961H31.1912V4.84951C31.1912 3.58155 31.1541 3.41725 30.8058 3.14329L30.6236 3H21.4461H12.2685L12.0863 3.14329ZM29.2007 12.2819C29.2005 18.4182 29.1837 19.7449 29.0999 20.2598C28.7993 22.1067 27.7686 23.8452 26.2663 25.0393C24.4037 26.5197 21.8891 27.0552 19.5697 26.4651C18.177 26.1108 16.9347 25.4036 15.9467 24.4026C14.9761 23.4191 14.2836 22.2146 13.9113 20.8621L13.7266 20.1912L13.7069 12.5564L13.6872 4.92157H21.4441H29.201L29.2007 12.2819ZM33.8677 11.3699C33.8677 14.6514 33.8672 14.663 33.7035 15.1784C33.4939 15.8383 33.2131 16.2728 32.6639 16.7864C32.2787 17.1469 31.4875 17.6176 31.2672 17.6176C31.2123 17.6176 31.1912 16.2894 31.1912 12.848V8.07843H32.5294H33.8677V11.3699Z" fill="black"/>
</svg>
