<svg width="24" height="24" viewBox="0 0 24 24" fill="none" xmlns="http://www.w3.org/2000/svg">
<defs>
<linearGradient id="paint0_linear_541_1318" x1="22" y1="11.9447" x2="2" y2="11.9447" gradientUnits="userSpaceOnUse">
<stop stop-color="#FF2252"/>
<stop offset="1" stop-color="#FC7B04"/>
</linearGradient>
</defs>
<path fill-rule="evenodd" clip-rule="evenodd" d="M7 4C6.73478 4 6.48043 4.10536 6.29289 4.29289C6.10536 4.48043 6 4.73478 6 5V13C6 13.5523 5.55228 14 5 14C4.44772 14 4 13.5523 4 13V5C4 4.20435 4.31607 3.44129 4.87868 2.87868C5.44129 2.31607 6.20435 2 7 2H19C19.7957 2 20.5587 2.31607 21.1213 2.87868C21.6839 3.44129 22 4.20435 22 5V18C22 18.66 21.8102 19.6278 21.2115 20.4593C20.5761 21.3418 19.5259 22 18 22H6C5.33998 22 4.3722 21.8102 3.5407 21.2115C2.6582 20.5761 2 19.5259 2 18V16C2 15.4477 2.44772 15 3 15H15C15.5523 15 16 15.4477 16 16V18C16 18.8741 16.3418 19.3239 16.7093 19.5885C17.1278 19.8898 17.66 20 18 20C18.8741 20 19.3239 19.6582 19.5885 19.2907C19.8898 18.8722 20 18.34 20 18V5C20 4.73478 19.8946 4.48043 19.7071 4.29289C19.5196 4.10536 19.2652 4 19 4H7ZM14.4712 20C14.1773 19.4558 14 18.792 14 18V17H4V18C4 18.8741 4.3418 19.3239 4.7093 19.5885C5.1278 19.8898 5.66002 20 6 20H14.4712ZM8 7C8 6.44772 8.44772 6 9 6H17C17.5523 6 18 6.44772 18 7C18 7.55228 17.5523 8 17 8H9C8.44772 8 8 7.55228 8 7ZM8 11C8 10.4477 8.44772 10 9 10H13C13.5523 10 14 10.4477 14 11C14 11.5523 13.5523 12 13 12H9C8.44772 12 8 11.5523 8 11Z" fill="url(#paint0_linear_541_1318)"/>
</svg>
