<svg width="32" height="32" viewBox="0 0 32 32" fill="none" xmlns="http://www.w3.org/2000/svg">
<path d="M4 18C4 20.3734 4.70379 22.6935 6.02236 24.6668C7.34094 26.6402 9.21509 28.1783 11.4078 29.0866C13.6005 29.9948 16.0133 30.2324 18.3411 29.7694C20.6689 29.3064 22.8071 28.1635 24.4853 26.4853C26.1635 24.8071 27.3064 22.6689 27.7694 20.3411C28.2324 18.0133 27.9948 15.6005 27.0866 13.4078C26.1783 11.2151 24.6402 9.34094 22.6668 8.02236C20.6935 6.70379 18.3734 6 16 6H12V1L6 7L12 13V8H16C17.9778 8 19.9112 8.58649 21.5557 9.6853C23.2002 10.7841 24.4819 12.3459 25.2388 14.1732C25.9957 16.0004 26.1937 18.0111 25.8079 19.9509C25.422 21.8907 24.4696 23.6725 23.0711 25.0711C21.6725 26.4696 19.8907 27.422 17.9509 27.8079C16.0111 28.1937 14.0004 27.9957 12.1732 27.2388C10.3459 26.4819 8.78412 25.2002 7.6853 23.5557C6.58649 21.9112 6 19.9778 6 18H4Z" fill="white"/>
<path d="M19.6302 22.1301C19.1883 22.141 18.7501 22.0485 18.3502 21.8601C17.9952 21.6799 17.6896 21.4156 17.4602 21.0901C17.2087 20.7105 17.0322 20.2862 16.9402 19.8401C16.8221 19.2881 16.765 18.7247 16.7702 18.1601C16.7662 17.5956 16.8232 17.0324 16.9402 16.4801C17.0341 16.0347 17.2104 15.6107 17.4602 15.2301C17.6896 14.9047 17.9952 14.6403 18.3502 14.4601C18.7501 14.2718 19.1883 14.1793 19.6302 14.1901C20.0457 14.1585 20.4623 14.2338 20.8404 14.4089C21.2185 14.5839 21.5455 14.8529 21.7902 15.1901C22.3059 16.077 22.5493 17.096 22.4902 18.1201C22.5493 19.1443 22.3059 20.1633 21.7902 21.0501C21.5548 21.4021 21.2319 21.6867 20.8532 21.8761C20.4745 22.0655 20.053 22.153 19.6302 22.1301ZM19.6302 20.9101C19.8318 20.9222 20.0327 20.8769 20.2097 20.7796C20.3866 20.6823 20.5324 20.5368 20.6302 20.3601C20.8692 19.8924 20.9959 19.3754 21.0002 18.8501V17.4701C21.0218 16.9544 20.9225 16.4407 20.7102 15.9701C20.5984 15.7989 20.4457 15.6582 20.2659 15.5608C20.086 15.4634 19.8847 15.4124 19.6802 15.4124C19.4757 15.4124 19.2744 15.4634 19.0946 15.5608C18.9147 15.6582 18.762 15.7989 18.6502 15.9701C18.4379 16.4407 18.3386 16.9544 18.3602 17.4701V18.8501C18.3396 19.3691 18.4388 19.8858 18.6502 20.3601C18.7456 20.5345 18.8881 20.6784 19.0613 20.7757C19.2346 20.8729 19.4317 20.9195 19.6302 20.9101ZM10.6302 22.0001V20.8201H12.6302V15.6301L10.7702 16.6301L10.2202 15.5701L12.5402 14.2701H14.0002V20.7701H15.7802V22.0001H10.6302Z" fill="white"/>
</svg>
