<svg width="24" height="24" viewBox="0 0 24 24" fill="none" xmlns="http://www.w3.org/2000/svg">
<path fill-rule="evenodd" clip-rule="evenodd" d="M21.7913 12.7506V19.3209C21.7913 20.0315 21.509 20.7129 21.0066 21.2154C20.5041 21.7178 19.8227 22.0001 19.1121 22.0001H5.67913C4.96858 22.0001 4.28713 21.7178 3.7847 21.2154C3.28226 20.7129 3 20.0315 3 19.3209V12.7506C2.99995 12.1574 3.121 11.5703 3.35574 11.0255C3.59047 10.4808 3.93394 9.98966 4.36511 9.58227M4.36511 9.58227L10.5551 3.73232C11.0525 3.26212 11.7112 3 12.3956 3C13.0801 3 13.7386 3.26199 14.2361 3.73219L20.426 9.58216C20.8573 9.98957 21.2008 10.4807 21.4355 11.0255C21.6703 11.5703 21.7913 12.1574 21.7913 12.7506" fill="url(#paint0_linear_1035_2698)"/>
<path d="M12 17.5C11.0717 17.5 10.1815 17.1313 9.52513 16.4749C8.86875 15.8185 8.5 14.9283 8.5 14C8.5 13.0717 8.86875 12.1815 9.52513 11.5251C10.1815 10.8687 11.0717 10.5 12 10.5C12.9283 10.5 13.8185 10.8687 14.4749 11.5251C15.1313 12.1815 15.5 13.0717 15.5 14C15.5 14.9283 15.1313 15.8185 14.4749 16.4749C13.8185 17.1313 12.9283 17.5 12 17.5ZM12 18C13.0609 18 14.0783 17.5786 14.8284 16.8284C15.5786 16.0783 16 15.0609 16 14C16 12.9391 15.5786 11.9217 14.8284 11.1716C14.0783 10.4214 13.0609 10 12 10C10.9391 10 9.92172 10.4214 9.17157 11.1716C8.42143 11.9217 8 12.9391 8 14C8 15.0609 8.42143 16.0783 9.17157 16.8284C9.92172 17.5786 10.9391 18 12 18Z" fill="white"/>
<defs>
<linearGradient id="paint0_linear_1035_2698" x1="21.7913" y1="12.4475" x2="3" y2="12.4475" gradientUnits="userSpaceOnUse">
<stop stop-color="#FF2252"/>
<stop offset="1" stop-color="#FC7B04"/>
</linearGradient>
</defs>
</svg>
