<svg width="24" height="24" viewBox="0 0 24 24" fill="none" xmlns="http://www.w3.org/2000/svg">
<defs>
<linearGradient id="paint0_linear_349_898" x1="11.1708" y1="16.1305" x2="2" y2="16.1305" gradientUnits="userSpaceOnUse">
<stop stop-color="#FF2252"/>
<stop offset="1" stop-color="#FC7B04"/>
</linearGradient>
<linearGradient id="paint1_linear_349_898" x1="22.0003" y1="11.9447" x2="2" y2="11.9447" gradientUnits="userSpaceOnUse">
<stop stop-color="#FF2252"/>
<stop offset="1" stop-color="#FC7B04"/>
</linearGradient>
<clipPath id="clip0_349_898">
<rect width="20" height="20" fill="white" transform="translate(2 2)"/>
</clipPath>
</defs>
<g clip-path="url(#clip0_349_898)">
<path d="M2.08867 11.293C2.05547 11.384 2.0293 11.4777 2 11.5703V20.7883C2.05898 20.9371 2.10547 21.0926 2.17969 21.2336C2.40742 21.6649 2.78906 21.8895 3.25 21.9992H9.92969C10.9059 21.65 11.1699 21.2699 11.1699 20.2145V16.8559C11.1699 15.1961 11.1723 13.5363 11.1691 11.8766C11.1676 10.9856 10.5699 10.3395 9.70273 10.3344C7.61992 10.3223 5.53672 10.325 3.45391 10.3344C2.81758 10.3375 2.2957 10.7231 2.08867 11.293Z" fill="url(#paint0_linear_349_898)"/>
<path fill-rule="evenodd" clip-rule="evenodd" d="M9.9293 2C10.0047 2.03666 10.0825 2.07004 10.1604 2.10342C10.333 2.17745 10.5056 2.25148 10.6516 2.36133C11.016 2.63555 11.1672 3.03945 11.1684 3.4918L11.1698 4.01882C11.1728 5.07322 11.1758 6.12763 11.1668 7.18203C11.1594 8.03906 10.5402 8.66289 9.68242 8.6668C7.61914 8.67617 5.55625 8.67383 3.49297 8.66758C2.75859 8.66523 2.21719 8.22617 2.03555 7.51953C2.03021 7.49847 2.02124 7.47831 2.01223 7.45807C2.00804 7.44866 2.00384 7.43923 2 7.42969V3.21094C2.00794 3.18906 2.0161 3.16723 2.02426 3.1454C2.04058 3.10174 2.0569 3.05807 2.07148 3.01406C2.20391 2.61758 2.45547 2.32422 2.83398 2.14609C2.91831 2.10651 3.0064 2.07464 3.09446 2.04278C3.13327 2.02874 3.17207 2.0147 3.21055 2H9.9293ZM21.9934 12.4397C21.9922 12.4417 21.9909 12.4436 21.9897 12.4456C21.9824 12.4569 21.9751 12.4682 21.9717 12.4805C21.7623 13.2656 21.2416 13.6691 20.4287 13.6695C19.1659 13.6703 17.9032 13.6701 16.6404 13.6698L14.7463 13.6695L14.6161 13.6698C14.5293 13.6701 14.4424 13.6703 14.3557 13.6695C13.456 13.6594 12.8365 13.0414 12.8303 12.1426C12.8273 11.7073 12.8281 11.2719 12.8288 10.8366V10.8363V10.8362C12.8291 10.6403 12.8295 10.4443 12.8295 10.2484V3.76523C12.8295 2.73047 13.1017 2.34297 14.0697 2H20.7885C21.126 2.10586 21.4607 2.23437 21.6615 2.53984C21.76 2.68958 21.8309 2.85777 21.9017 3.02588C21.9335 3.10116 21.9652 3.17642 21.9994 3.25V12.4297C21.9975 12.4331 21.9955 12.4364 21.9934 12.4397ZM13.9362 21.9543C13.8396 21.9227 13.7429 21.891 13.6534 21.8457C13.1237 21.5773 12.8417 21.1347 12.8354 20.5469C12.8225 19.2906 12.8182 18.0344 12.8362 16.7781C12.8483 15.9351 13.4835 15.3355 14.3378 15.3316C15.3966 15.3269 16.4555 15.3279 17.5144 15.3289C17.9526 15.3293 18.3907 15.3297 18.8288 15.3297C19.0066 15.3297 19.1845 15.3295 19.3624 15.3294C19.7183 15.3291 20.0742 15.3289 20.43 15.3297C21.2432 15.3316 21.7632 15.7336 21.9725 16.5187C21.9757 16.531 21.9831 16.5423 21.9904 16.5536C21.9939 16.5589 21.9973 16.5642 22.0003 16.5695V20.7492C21.9689 20.8193 21.9399 20.8909 21.9109 20.9626C21.8459 21.1234 21.7809 21.2842 21.6882 21.4269C21.4725 21.7582 21.1233 21.9066 20.7503 21.9992L14.0706 22C14.0263 21.9838 13.9812 21.9691 13.9362 21.9543Z" fill="url(#paint1_linear_349_898)"/>
</g>
</svg>
