<svg width="24" height="24" viewBox="0 0 24 24" fill="none" xmlns="http://www.w3.org/2000/svg">
<defs>
<linearGradient id="paint0_linear_349_1862" x1="20.3661" y1="11.9448" x2="3" y2="11.9448" gradientUnits="userSpaceOnUse">
<stop stop-color="#FF2252"/>
<stop offset="1" stop-color="#FC7B04"/>
</linearGradient>
<linearGradient id="paint1_linear_349_1862" x1="21.709" y1="17.1092" x2="11.9678" y2="17.1092" gradientUnits="userSpaceOnUse">
<stop stop-color="#FF2252"/>
<stop offset="1" stop-color="#FC7B04"/>
</linearGradient>
<linearGradient id="paint2_linear_349_1862" x1="17.1146" y1="7.03142" x2="9.92236" y2="7.03142" gradientUnits="userSpaceOnUse">
<stop stop-color="#FF2252"/>
<stop offset="1" stop-color="#FC7B04"/>
</linearGradient>
<linearGradient id="paint3_linear_349_1862" x1="15.5759" y1="9.54556" x2="11.4685" y2="9.54556" gradientUnits="userSpaceOnUse">
<stop stop-color="#FF2252"/>
<stop offset="1" stop-color="#FC7B04"/>
</linearGradient>
<clipPath id="clip0_349_1862">
<rect width="18.7081" height="20" fill="white" transform="translate(3 2)"/>
</clipPath>
</defs>
<g clip-path="url(#clip0_349_1862)">
<path d="M3 18.8779C3.00755 18.7672 3.02139 18.6565 3.02139 18.5457C3.02265 13.9388 3.02391 9.33179 3.02139 4.72483C3.02097 3.70554 3.43624 2.91736 4.2995 2.37374C4.7047 2.11829 5.15394 2.00168 5.63381 2.00168C9.83515 2.00168 14.0369 1.99622 18.2383 2.00545C19.4715 2.00839 20.3612 2.92198 20.3637 4.15101C20.3679 6.15017 20.3658 8.14975 20.3637 10.1493C20.3637 10.5264 20.1141 10.7949 19.7701 10.802C19.4203 10.8091 19.1628 10.5373 19.1535 10.1493C19.1518 10.0864 19.1535 10.0235 19.1535 9.96057C19.1535 8.02391 19.1544 6.08767 19.1527 4.15101C19.1527 3.70847 18.9224 3.36745 18.5357 3.25461C18.3976 3.21434 18.2462 3.20637 18.1011 3.20595C16.06 3.20302 14.0185 3.20386 11.9769 3.20386C10.6976 3.20386 9.4182 3.20386 8.13884 3.20386C8.05705 3.20386 7.97567 3.20386 7.88591 3.20386V16.7567C7.97945 16.7567 8.06082 16.7567 8.14262 16.7567C8.96057 16.7567 9.77852 16.7538 10.5965 16.758C11.0143 16.7601 11.2747 17.0017 11.2714 17.3674C11.2685 17.677 11.039 17.9291 10.7299 17.9572C10.6464 17.9648 10.5621 17.9622 10.4782 17.9622C8.89136 17.9622 7.30411 17.9765 5.7177 17.9581C4.39933 17.9425 4.00545 19.2227 4.4245 20.0579C4.69421 20.5956 5.15604 20.7945 5.73238 20.7936C7.06753 20.7915 8.40268 20.7928 9.73825 20.7936C9.82215 20.7936 9.90646 20.7932 9.98951 20.8012C10.2999 20.8318 10.5294 21.0847 10.5302 21.3926C10.531 21.6997 10.3016 21.9547 9.99329 21.9895C9.9656 21.9924 9.9375 21.995 9.90981 21.995C8.44882 21.9933 6.98742 22.0134 5.52685 21.9832C4.24077 21.9568 3.18414 20.9446 3.03565 19.6653C3.03104 19.6258 3.01216 19.5877 3 19.5491C3 19.3255 3 19.1015 3 18.8779Z" fill="url(#paint0_linear_349_1862)"/>
<path d="M21.7081 14.5575C21.6779 14.7139 21.6557 14.8725 21.6159 15.026C21.5127 15.4203 21.3038 15.7542 21.0164 16.0415C19.2518 17.805 17.4854 19.5659 15.7266 21.3352C15.4195 21.6439 15.032 21.6972 14.6398 21.763C14.227 21.8322 13.8143 21.9031 13.4011 21.9719C12.5135 22.1204 11.8386 21.4488 11.9888 20.5654C12.081 20.0218 12.1771 19.479 12.2673 18.935C12.3109 18.6711 12.4208 18.4451 12.6104 18.2559C14.3893 16.4774 16.162 14.6925 17.9502 12.9232C18.5945 12.2857 19.3864 12.1317 20.2358 12.4169C21.0823 12.7009 21.5471 13.3263 21.6742 14.2064C21.6809 14.2542 21.6972 14.3003 21.709 14.3473L21.7081 14.5575ZM19.5366 15.7748C19.7732 15.5487 20.0261 15.3364 20.2438 15.0923C20.581 14.7148 20.5609 14.1607 20.2232 13.7949C19.8885 13.4325 19.3306 13.3465 18.9531 13.6573C18.6725 13.8884 18.4523 14.1925 18.2153 14.4534C18.6372 14.875 19.0898 15.3284 19.5366 15.7748Z" fill="url(#paint1_linear_349_1862)"/>
<path d="M13.5189 7.63926C12.5336 7.63926 11.5487 7.64052 10.5633 7.63842C10.2554 7.63759 10.0424 7.48784 9.95344 7.22232C9.84563 6.90143 10.0277 6.54824 10.3549 6.46309C10.4614 6.4354 10.5759 6.43121 10.6867 6.43121C12.573 6.42953 14.4597 6.42953 16.3461 6.43079C16.4367 6.43079 16.5285 6.43205 16.617 6.44799C16.9274 6.50504 17.1359 6.77349 17.1128 7.07718C17.0893 7.38633 16.8515 7.61829 16.5369 7.63675C16.4744 7.64052 16.4111 7.63884 16.3482 7.63884C15.4048 7.63884 14.4618 7.63884 13.5185 7.63884L13.5189 7.63926Z" fill="url(#paint2_linear_349_1862)"/>
<path d="M13.5084 10.1544C13.0478 10.1544 12.5872 10.1565 12.1266 10.1539C11.7344 10.1518 11.4685 9.90604 11.4685 9.55118C11.4685 9.19631 11.7311 8.94715 12.1262 8.94547C13.0545 8.9417 13.9828 8.9417 14.911 8.94547C15.2999 8.94715 15.5759 9.20512 15.5759 9.55076C15.5759 9.89891 15.3003 10.1518 14.9115 10.1539C14.4438 10.1565 13.9761 10.1544 13.5088 10.1544H13.5084Z" fill="url(#paint3_linear_349_1862)"/>
</g>
</svg>
