<svg width="20" height="20" viewBox="0 0 20 20" fill="none" xmlns="http://www.w3.org/2000/svg">
<defs>
<linearGradient id="paint0_linear_1035_2738" x1="19" y1="9.95579" x2="1" y2="9.95579" gradientUnits="userSpaceOnUse">
<stop stop-color="#FF2252"/>
<stop offset="1" stop-color="#FC7B04"/>
</linearGradient>
</defs>
<path d="M17.5427 5.08939L12.0124 2.5372C10.795 1.83281 9.2798 1.82032 8.05021 2.50451L2.45763 5.08939C2.43664 5.09957 2.41488 5.11047 2.39463 5.12208C1.06744 5.85719 0.606696 7.49531 1.36556 8.78094C1.62279 9.21678 2.00117 9.57387 2.45763 9.81164L4.00035 10.5236V14.0835C4.00126 15.6753 5.07051 17.0816 6.63953 17.5547C7.73142 17.8607 8.8636 18.0105 10.0002 17.9993C11.1366 18.0116 12.2688 17.8631 13.3609 17.5583C14.9299 17.0853 15.9991 15.6789 16.0001 14.0871V10.5222L17.5 9.82761V15.8198C17.5 16.221 17.8358 16.5462 18.25 16.5462C18.6642 16.5462 19 16.221 19 15.8198V7.10178C19.005 6.24868 18.3096 5.46059 17.5427 5.08939ZM14.5001 14.0871C14.5004 15.0392 13.8627 15.8814 12.9251 16.1671C11.9743 16.4302 10.989 16.558 10.0002 16.5463C9.01136 16.558 8.02606 16.4302 7.07525 16.1671C6.13762 15.8814 5.4999 15.0392 5.50029 14.0871V11.216L7.98798 12.3639C8.6018 12.7169 9.30283 12.9025 10.0167 12.9007C10.6962 12.9054 11.3642 12.7311 11.9494 12.3966L14.5001 11.216V14.0871ZM16.9 8.5003L11.2437 11.1157C10.455 11.5605 9.47741 11.5479 8.70122 11.083L3.1671 8.53299C2.55022 8.21077 2.31982 7.46514 2.65246 6.86762C2.76495 6.66554 2.93363 6.49803 3.13936 6.38401L8.76045 3.78316C9.54937 3.33929 10.5264 3.35186 11.3029 3.81585L16.8332 6.36804C17.24 6.58681 17.4944 6.99992 17.5 7.45053C17.5007 7.87737 17.2738 8.27431 16.9 8.5003Z" fill="url(#paint0_linear_1035_2738)"/>
</svg>
