<svg width="24" height="24" viewBox="0 0 24 24" fill="none" xmlns="http://www.w3.org/2000/svg">
<defs>
<linearGradient id="paint0_linear_1035_2722" x1="22.0008" y1="11.9724" x2="1.99976" y2="11.9724" gradientUnits="userSpaceOnUse">
<stop stop-color="#FF2252"/>
<stop offset="1" stop-color="#FC7B04"/>
</linearGradient>
<clipPath id="clip0_1035_2722">
<rect width="20" height="20" fill="white" transform="translate(2 2)"/>
</clipPath>
</defs>
<g clip-path="url(#clip0_1035_2722)">
<path d="M19.5 7H14.5C14.0391 7 13.6666 7.3725 13.6666 7.83333C13.6666 8.29417 14.0391 8.66667 14.5 8.66667H19.155L13.6866 14.135C13.2166 14.605 12.4516 14.605 11.9808 14.135L9.86496 12.0192C8.74496 10.8992 6.92246 10.8992 5.80246 12.0192L2.24413 15.5775C1.9183 15.9033 1.9183 16.43 2.24413 16.7558C2.40663 16.9183 2.61996 17 2.8333 17C3.04663 17 3.25996 16.9183 3.42246 16.7558L6.9808 13.1975C7.43663 12.7417 8.2308 12.7417 8.68663 13.1975L10.8025 15.3133C11.9225 16.4333 13.745 16.4333 14.865 15.3133L20.3341 9.845V14.5C20.3341 14.9608 20.7066 15.3333 21.1675 15.3333C21.6283 15.3333 22.0008 14.9608 22.0008 14.5V9.5C22.0008 8.12167 20.8791 7 19.5008 7H19.5Z" fill="url(#paint0_linear_1035_2722)"/>
</g>
</svg>
