<svg width="21" height="19" viewBox="0 0 21 19" fill="none" xmlns="http://www.w3.org/2000/svg">
<path d="M10.5 19C10.355 18.9995 10.2142 18.9509 10.0996 18.8618C6.45029 16.018 3.93644 13.5692 2.17741 11.1534C-0.0673251 8.06604 -0.579283 5.21571 0.654666 2.68135C1.53418 0.871094 4.06115 -0.610025 7.01475 0.252316C8.42299 0.660274 9.65165 1.53515 10.5 2.73401C11.3483 1.53515 12.577 0.660274 13.9852 0.252316C16.9323 -0.59686 19.4658 0.871094 20.3453 2.68135C21.5793 5.21571 21.0673 8.06604 18.8226 11.1534C17.0636 13.5692 14.5497 16.018 10.9004 18.8618C10.7858 18.9509 10.645 18.9995 10.5 19Z" fill="#FDB515"/>
</svg>
