<svg width="19" height="19" viewBox="0 0 19 19" fill="none" xmlns="http://www.w3.org/2000/svg">
<path fill-rule="evenodd" clip-rule="evenodd" d="M18.7913 9.75061V16.3209C18.7913 17.0315 18.509 17.7129 18.0066 18.2154C17.5041 18.7178 16.8227 19.0001 16.1121 19.0001H2.67913C1.96858 19.0001 1.28713 18.7178 0.784698 18.2154C0.282264 17.7129 1.46507e-08 17.0315 1.46507e-08 16.3209V9.75061C-4.86227e-05 9.15741 0.121003 8.57033 0.35574 8.02555C0.590471 7.48078 0.933939 6.98966 1.36511 6.58227M1.36511 6.58227L7.55508 0.73232C8.05249 0.262117 8.71115 0 9.39564 0C10.0801 0 10.7386 0.261988 11.2361 0.732191L17.426 6.58216C17.8573 6.98957 18.2008 7.48073 18.4355 8.02555C18.6703 8.57033 18.7913 9.15741 18.7913 9.75061" fill="#FDB515"/>
</svg>
