<svg width="19" height="19" viewBox="0 0 19 19" fill="none" xmlns="http://www.w3.org/2000/svg">
<path fill-rule="evenodd" clip-rule="evenodd" d="M0 3.70324C0 1.70617 1.57543 0.0872192 3.51882 0.0872192H13.4812C15.4246 0.0872192 17 1.70617 17 3.70324C17 3.70324 17 9.71076 17 9.99606H16.5873H15.9946V3.70324C15.9946 2.27676 14.8693 1.12037 13.4812 1.12037H3.51882C2.13068 1.12037 1.00538 2.27676 1.00538 3.70324V13.4712C1.00538 14.8977 2.13068 16.0541 3.51882 16.0541H11V16.9999V17.0872H3.51882C1.57543 17.0872 0 15.4683 0 13.4712V3.70324Z" fill="#FDB515"/>
<path fill-rule="evenodd" clip-rule="evenodd" d="M14.5497 17.7562L17.4702 15.9474C18.1501 15.5264 18.1501 14.4736 17.4702 14.0526L14.5497 12.2438C13.8698 11.8228 13.0199 12.3491 13.0199 13.1913L13.0199 16.8087C13.0199 17.6509 13.8698 18.1772 14.5497 17.7562ZM17.9801 16.8949C19.34 16.0527 19.34 13.9473 17.9801 13.1051L15.0596 11.2964C13.6998 10.4542 12 11.5069 12 13.1913L12 16.8087C12 18.4931 13.6998 19.5458 15.0596 18.7036L17.9801 16.8949Z" fill="#FDB515"/>
<path fill-rule="evenodd" clip-rule="evenodd" d="M14.6189 1H2C1.44772 1 1 1.44772 1 2V14.95C1 15.806 1.69396 16.5 2.55 16.5H11V12.92C11 12.0632 11 11.6347 11.1291 11.2931C11.332 10.756 11.756 10.332 12.2931 10.1291C12.6347 10 13.0632 10 13.92 10H16.5L16.0766 2.37901C16.054 1.97218 16.0427 1.76876 15.9735 1.60688C15.8648 1.35253 15.6555 1.15459 15.3955 1.06012C15.2301 1 15.0263 1 14.6189 1ZM3.5 2.75C3.5 3.16421 3.16421 3.5 2.75 3.5C2.33579 3.5 2 3.16421 2 2.75C2 2.33579 2.33579 2 2.75 2C3.16421 2 3.5 2.33579 3.5 2.75ZM2.75 14.5C3.16421 14.5 3.5 14.1642 3.5 13.75C3.5 13.3358 3.16421 13 2.75 13C2.33579 13 2 13.3358 2 13.75C2 14.1642 2.33579 14.5 2.75 14.5ZM6.5 2.75C6.5 3.16421 6.16421 3.5 5.75 3.5C5.33579 3.5 5 3.16421 5 2.75C5 2.33579 5.33579 2 5.75 2C6.16421 2 6.5 2.33579 6.5 2.75ZM5.75 14.5C6.16421 14.5 6.5 14.1642 6.5 13.75C6.5 13.3358 6.16421 13 5.75 13C5.33579 13 5 13.3358 5 13.75C5 14.1642 5.33579 14.5 5.75 14.5ZM9.5 2.75C9.5 3.16421 9.16421 3.5 8.75 3.5C8.33579 3.5 8 3.16421 8 2.75C8 2.33579 8.33579 2 8.75 2C9.16421 2 9.5 2.33579 9.5 2.75ZM8.75 14.5C9.16421 14.5 9.5 14.1642 9.5 13.75C9.5 13.3358 9.16421 13 8.75 13C8.33579 13 8 13.3358 8 13.75C8 14.1642 8.33579 14.5 8.75 14.5ZM12.5 2.75C12.5 3.16421 12.1642 3.5 11.75 3.5C11.3358 3.5 11 3.16421 11 2.75C11 2.33579 11.3358 2 11.75 2C12.1642 2 12.5 2.33579 12.5 2.75ZM14.75 3.5C15.1642 3.5 15.5 3.16421 15.5 2.75C15.5 2.33579 15.1642 2 14.75 2C14.3358 2 14 2.33579 14 2.75C14 3.16421 14.3358 3.5 14.75 3.5Z" fill="#FDB515"/>
</svg>
