<svg width="24" height="24" viewBox="0 0 24 24" fill="none" xmlns="http://www.w3.org/2000/svg">
<path d="M19.5 2.5H18.5V3.5H19.5V2.5Z" fill="#FDB515"/>
<path d="M16 7.5L15 8V9H16V7.5Z" fill="#FDB515"/>
<path d="M12.5 6H11.5V7H12.5V6Z" fill="#FDB515"/>
<path d="M9 10H8V11.5L9 11V10Z" fill="#FDB515"/>
<path d="M5.5 8.5H4.5V9.5H5.5V8.5Z" fill="#FDB515"/>
<path d="M2.5 22V20.5H3.5V13.5L5 13L7 13.5V15H10.5V11H13.5V12.5H17V7H20.5V20.5H21.5V22H2.5Z" fill="#FDB515"/>
<path fill-rule="evenodd" clip-rule="evenodd" d="M18.6488 2.03651C18.3792 2.11842 18.1366 2.32366 17.9996 2.5859C17.891 2.79368 17.8996 3.21719 18.0172 3.45571C18.0677 3.5582 18.1001 3.66365 18.089 3.69006C18.078 3.7165 17.5419 4.5464 16.8978 5.53428L15.7266 7.3305L15.4568 7.33418C15.1964 7.33773 15.0447 7.3894 14.8043 7.55637C14.7445 7.59789 14.6094 7.54075 13.8564 7.15564L12.9781 6.70648L12.977 6.51119C12.974 5.97759 12.5328 5.55713 11.9738 5.55514C11.5391 5.55358 11.1281 5.86026 11.0174 6.26872C10.964 6.46596 10.9902 6.82607 11.0694 6.98332L11.1268 7.09706L10.0128 8.44454C9.40007 9.18566 8.88768 9.79117 8.87415 9.79012C8.86061 9.78903 8.76571 9.77383 8.66321 9.7563C8.43546 9.71736 8.16534 9.7775 7.95738 9.9135L7.80845 10.0109L6.94026 9.54578L6.07204 9.08068L6.04583 8.8202C5.98981 8.2632 5.5931 7.89719 5.0464 7.89813C4.48335 7.89907 4.05976 8.326 4.05863 8.89371C4.05691 9.73579 4.96742 10.1763 5.68084 9.67849C5.7522 9.62869 5.83603 9.66564 6.63353 10.0985L7.50797 10.5732L7.52002 10.793C7.53993 11.1565 7.72735 11.4499 8.05267 11.6269C8.59827 11.9238 9.30051 11.6374 9.47636 11.0463C9.55143 10.7939 9.54771 10.6589 9.45867 10.4015L9.38579 10.1907L10.4869 8.85414L11.5879 7.51763L11.8651 7.53708C12.1715 7.55856 12.3472 7.51614 12.5665 7.36757L12.7078 7.27184L13.5855 7.72452L14.4632 8.17723L14.4641 8.37924C14.4676 9.1939 15.4995 9.63073 16.114 9.07767C16.4555 8.77032 16.548 8.32183 16.3574 7.89774L16.2564 7.67312L17.4484 5.84233L18.6404 4.0115L18.8897 4.00771C19.6532 3.99603 20.1228 3.28464 19.823 2.59394C19.6329 2.15583 19.0957 1.90083 18.6488 2.03651ZM19.0801 2.68393C19.2205 2.75642 19.2749 2.85231 19.2749 3.02717C19.2749 3.28667 18.9655 3.45532 18.7251 3.32682C18.526 3.22043 18.4908 2.90629 18.6608 2.75201C18.8122 2.61464 18.9139 2.59812 19.0801 2.68393ZM12.2364 6.29337C12.3211 6.37789 12.3508 6.4446 12.3508 6.55025C12.3508 6.83474 12.0061 7.02374 11.778 6.86427C11.6682 6.78745 11.5928 6.59419 11.6242 6.46952C11.6971 6.17947 12.0272 6.08449 12.2364 6.29337ZM17.5687 6.86626C17.337 6.94981 17.0878 7.17935 16.9815 7.40733L16.8894 7.60481L16.889 9.90366L16.8886 12.2026L16.7811 12.169C16.6408 12.1253 14.2807 12.1253 14.1405 12.169L14.0329 12.2026V11.7171C14.0329 11.3777 14.0144 11.1772 13.9713 11.051C13.8861 10.8014 13.6482 10.5446 13.3987 10.4329C13.2011 10.3445 13.1455 10.3397 12.164 10.3265C10.9825 10.3105 10.6859 10.3431 10.4213 10.5181C10.2463 10.6338 10.0887 10.8283 9.99653 11.0419C9.95847 11.1302 9.94294 11.5855 9.93343 12.8893L9.92087 14.6195L9.83508 14.5883C9.72696 14.5489 7.36013 14.5469 7.22056 14.586L7.11724 14.615L7.1014 14.0392C7.08782 13.5444 7.0737 13.4408 7.00121 13.3027C6.86637 13.0457 6.7296 12.9088 6.49078 12.7917L6.26764 12.6823H5.05493C3.90665 12.6823 3.83287 12.6866 3.66618 12.764C3.41296 12.8815 3.24709 13.035 3.12637 13.2635L3.0207 13.4635L3.0101 16.8659L2.9995 20.2683L2.80738 20.291C2.25059 20.3569 1.90114 20.8257 2.02491 21.3408C2.08598 21.595 2.35891 21.8912 2.59039 21.9544C2.81306 22.0152 16 22 16 22L16.8902 21.978V21.3531C16.8902 21.3531 16.2106 21.3726 9.51743 21.3726H2.7721L2.69104 21.2697C2.58796 21.1389 2.58921 21.1164 2.70598 20.9998L2.80198 20.9039H12.009C21.972 20.9039 21.3581 20.8903 21.3581 21.1119C21.3581 21.3392 21.4453 21.33 19.1896 21.342L16.8902 21.3531V21.4627V21.978H17.1166H19.2227H21.3287L21.5181 21.8849C21.8467 21.7234 22.0445 21.3533 21.9914 20.9995C21.9334 20.6135 21.5515 20.279 21.1688 20.279H21.0046L20.9907 15.771L21 11H20.8818H20.3674C20.3674 11 20.3261 12.5435 20.3365 15.8264L20.3507 20.2595L18.9326 20.2697L17.5146 20.28V13.9999C17.5146 8.37225 17.5209 7.71081 17.5756 7.63281C17.7104 7.44072 17.7876 7.42905 18.9229 7.42905C19.7869 7.42905 20.0039 7.43983 20.096 7.4874C20.3329 7.60973 20.3312 9.00198 20.3312 9.00198L20.3674 11H21C21 11 20.9569 9.73388 20.9567 8.97838C20.9563 7.62199 20.9552 7.60234 20.8651 7.40924C20.771 7.20755 20.5812 7.01343 20.36 6.89275C20.2473 6.83123 20.0958 6.82279 18.9815 6.81596C17.958 6.80963 17.7004 6.81881 17.5687 6.86626ZM15.7248 8.0974C15.7924 8.16899 15.8324 8.25457 15.8324 8.32737C15.8324 8.46193 15.6589 8.67127 15.539 8.68131C15.3552 8.69674 15.2754 8.67292 15.1851 8.57554C15.0106 8.38764 15.0842 8.07256 15.3239 7.98101C15.4649 7.92715 15.6017 7.96687 15.7248 8.0974ZM5.256 8.57968C5.36585 8.65651 5.4412 8.84977 5.40986 8.9744C5.37062 9.1304 5.20237 9.26476 5.0462 9.26476C4.85651 9.26476 4.68329 9.08767 4.68329 8.89371C4.68329 8.60921 5.02797 8.42021 5.256 8.57968ZM8.77713 10.4837C8.964 10.6529 8.89715 10.982 8.65535 11.0829C8.46155 11.1637 8.26411 11.082 8.18259 10.8871C8.02998 10.5225 8.4815 10.2162 8.77713 10.4837ZM13.2597 11.0973L13.3874 11.2112L13.3977 15.7451L13.408 20.279H12.003H10.5981L10.5842 15.8557C10.5766 13.4229 10.577 11.3834 10.585 11.3234C10.5931 11.2634 10.6518 11.1623 10.7154 11.0988L10.8311 10.9833H11.9815H13.1319L13.2597 11.0973ZM16.6288 12.7995C16.884 12.9204 16.868 12.6746 16.8796 16.6564L16.8902 20.279H15.4608H14.0313L14.0419 16.6564C14.0535 12.6853 14.0384 12.9231 14.2865 12.8008C14.4607 12.715 16.4481 12.7138 16.6288 12.7995ZM6.30015 13.4066C6.35609 13.4506 6.41997 13.5516 6.44211 13.6312C6.46821 13.725 6.48245 14.9194 6.48256 17.0275L6.4828 20.279H5.05493H3.62706V16.9969C3.62706 13.4655 3.6233 13.5331 3.82723 13.3905C3.90637 13.3351 4.06766 13.3268 5.05837 13.3268C6.14762 13.3268 6.20294 13.3303 6.30015 13.4066ZM9.68686 15.2119C9.73858 15.2384 9.81192 15.304 9.84987 15.3577C9.91324 15.4474 9.92103 15.6519 9.94564 17.8672L9.97243 20.279H8.54057H7.10871V17.8945C7.10871 15.2594 7.10222 15.3297 7.35575 15.2196C7.52565 15.1459 9.54509 15.1391 9.68686 15.2119Z" fill="black"/>
</svg>
