<svg width="24" height="24" viewBox="0 0 24 24" fill="none" xmlns="http://www.w3.org/2000/svg">
<defs>
<linearGradient id="paint0_linear_744_3067" x1="22.5" y1="16.9694" x2="1.5" y2="16.9694" gradientUnits="userSpaceOnUse">
<stop stop-color="#FF2252"/>
<stop offset="1" stop-color="#FC7B04"/>
</linearGradient>
<linearGradient id="paint1_linear_744_3067" x1="16.3874" y1="5.86734" x2="7.61328" y2="5.86734" gradientUnits="userSpaceOnUse">
<stop stop-color="#FF2252"/>
<stop offset="1" stop-color="#FC7B04"/>
</linearGradient>
</defs>
<path fill-rule="evenodd" clip-rule="evenodd" d="M15.8333 17.6229V12.6662C15.8333 12.3568 15.7104 12.06 15.4916 11.8412C15.2728 11.6224 14.9761 11.4995 14.6667 11.4995H9.33333C9.02391 11.4995 8.72716 11.6224 8.50837 11.8412C8.28957 12.06 8.16667 12.3568 8.16667 12.6662V15.4006C8.11179 15.3926 8.0561 15.3886 8 15.3886H2.66667C2.35724 15.3886 2.06049 15.5115 1.8417 15.7303C1.62291 15.9491 1.5 16.2459 1.5 16.5553V21.3333C1.5 21.6428 1.62291 21.9395 1.8417 22.1583C2.06049 22.3771 2.35724 22.5 2.66667 22.5H21.3333C21.6428 22.5 21.9395 22.3771 22.1583 22.1583C22.3771 21.9395 22.5 21.6428 22.5 21.3333V18.7777C22.5 18.4682 22.3771 18.1715 22.1583 17.9527C21.9395 17.7339 21.6428 17.6109 21.3333 17.6109H16C15.9439 17.6109 15.8882 17.615 15.8333 17.6229ZM8.16667 16.5553C8.16667 16.5111 8.1491 16.4687 8.11784 16.4374C8.08659 16.4062 8.0442 16.3886 8 16.3886H2.66667C2.62247 16.3886 2.58008 16.4062 2.54883 16.4374C2.51757 16.4687 2.5 16.5111 2.5 16.5553V21.3333C2.5 21.3776 2.51757 21.42 2.54883 21.4512C2.58008 21.4825 2.62247 21.5 2.66667 21.5H8.16667V16.5553ZM15.8333 21.5H21.3333C21.3775 21.5 21.4199 21.4825 21.4512 21.4512C21.4824 21.42 21.5 21.3776 21.5 21.3333V18.7777C21.5 18.7334 21.4824 18.691 21.4512 18.6598C21.4199 18.6285 21.3775 18.6109 21.3333 18.6109H16C15.9558 18.6109 15.9134 18.6285 15.8822 18.6598C15.8509 18.691 15.8333 18.7334 15.8333 18.7777V21.5Z" fill="url(#paint0_linear_744_3067)"/>
<path fill-rule="evenodd" clip-rule="evenodd" d="M11.5397 1.63655C11.6769 1.54743 11.8371 1.5 12.0007 1.5C12.1644 1.5 12.3245 1.54743 12.4618 1.63655C12.5972 1.72445 12.7045 1.84919 12.7714 1.99601L13.6671 3.89283L15.6619 4.19817C16.384 4.30883 16.6132 5.1909 16.1387 5.67378L14.6829 7.15939L15.0276 9.26393C15.1339 9.92114 14.4536 10.5433 13.7794 10.1717L12.0007 9.19328L10.2217 10.1719C9.55161 10.54 8.86697 9.92436 8.9738 9.26393L9.31857 7.15939L7.8642 5.67524L7.86314 5.67418C7.38555 5.18989 7.61914 4.30883 8.33802 4.19822L10.3349 3.89387L11.23 1.99614C11.2968 1.84926 11.4042 1.72448 11.5397 1.63655Z" fill="url(#paint1_linear_744_3067)"/>
</svg>
