<svg width="24" height="24" viewBox="0 0 24 24" fill="none" xmlns="http://www.w3.org/2000/svg">
<path d="M12.5 21C12.3688 20.9996 12.2414 20.9561 12.1378 20.8763C8.83597 18.3319 6.56154 16.1409 4.97004 13.9793C2.93909 11.217 2.47589 8.66669 3.59232 6.3991C4.38807 4.7794 6.67438 3.45419 9.34668 4.22576C10.6208 4.59077 11.7324 5.37356 12.5 6.44622C13.2676 5.37356 14.3792 4.59077 15.6533 4.22576C18.3197 3.46597 20.6119 4.7794 21.4077 6.3991C22.5241 8.66669 22.0609 11.217 20.03 13.9793C18.4385 16.1409 16.164 18.3319 12.8622 20.8763C12.7586 20.9561 12.6312 20.9996 12.5 21Z" fill="#FDB515"/>
<path d="M12.5 22C12.355 21.9995 12.2142 21.9509 12.0996 21.8618C8.45029 19.018 5.93644 16.5692 4.17741 14.1534C1.93267 11.066 1.42072 8.21571 2.65467 5.68135C3.53418 3.87109 6.06115 2.38997 9.01475 3.25232C10.423 3.66027 11.6517 4.53515 12.5 5.73401C13.3483 4.53515 14.577 3.66027 15.9852 3.25232C18.9323 2.40314 21.4658 3.87109 22.3453 5.68135C23.5793 8.21571 23.0673 11.066 20.8226 14.1534C19.0636 16.5692 16.5497 19.018 12.9004 21.8618C12.7858 21.9509 12.645 21.9995 12.5 22V22ZM7.33448 4.3253C6.63169 4.29787 5.93472 4.46292 5.31838 4.80272C4.70205 5.14252 4.18962 5.64425 3.83611 6.25405C2.81876 8.34737 3.2782 10.6777 5.24071 13.37C7.32632 16.068 9.76852 18.4686 12.5 20.5057C15.231 18.4706 17.6732 16.0723 19.7593 13.3766C21.7284 10.6777 22.1812 8.34737 21.1639 6.26063C20.5075 4.94408 18.5385 3.89743 16.3462 4.5162C15.6433 4.72455 14.9917 5.07819 14.4332 5.55435C13.8748 6.03052 13.422 6.61868 13.1038 7.28096C13.0544 7.4017 12.9703 7.50496 12.8622 7.57764C12.7541 7.65031 12.6269 7.68911 12.4967 7.68911C12.3666 7.68911 12.2394 7.65031 12.1313 7.57764C12.0232 7.50496 11.939 7.4017 11.8896 7.28096C11.5739 6.61702 11.1218 6.02749 10.563 5.55103C10.0042 5.07456 9.35137 4.72191 8.64719 4.5162C8.22055 4.39192 7.77875 4.32768 7.33448 4.3253V4.3253Z" fill="black"/>
</svg>
