<svg width="24" height="24" viewBox="0 0 24 24" fill="none" xmlns="http://www.w3.org/2000/svg">
<g clip-path="url(#clip0_2042_3725)">
<path d="M21.5 7.5H19.5H1.5V19.5H21.5V7.5Z" fill="#FDB515"/>
<path fill-rule="evenodd" clip-rule="evenodd" d="M5.18372 5.03945C4.66452 5.09288 4.20154 5.18701 3.69177 5.34273C2.71139 5.64222 2.68219 5.67409 2.68198 6.44594L2.68182 6.97161L1.97431 6.97251C1.21521 6.9735 1.15681 6.98818 1.04603 7.20595C1.01289 7.2711 1.00021 9.00255 1.00021 13.4645C1.00021 20.2416 0.983561 19.8016 1.24495 19.9375C1.35155 19.9929 2.52133 20 11.5 20C20.4787 20 21.6485 19.9929 21.7551 19.9375C22.0164 19.8016 21.9998 20.2418 21.9998 13.4633C21.9998 7.78093 21.9944 7.28437 21.9315 7.17734C21.8237 6.99387 21.7221 6.97161 20.993 6.97161H20.3182L20.318 6.44594C20.3178 5.68378 20.3145 5.67982 19.4364 5.38317C17.6031 4.76395 15.3739 4.91555 13.3656 5.79604C12.8423 6.02548 12.1713 6.39353 11.7379 6.68886L11.5041 6.84817L11.1022 6.58776C9.27314 5.40292 7.12142 4.84002 5.18372 5.03945ZM2.69162 13.0975L2.70233 18.3576L2.84046 18.4817C3.014 18.6375 3.14927 18.6276 3.72134 18.417C4.22574 18.2313 4.77759 18.1168 5.44478 18.0595C6.69963 17.9517 8.27246 18.2638 9.51078 18.8662L9.96195 19.0857L5.91173 19.0893L1.86152 19.093V13.4652V7.83742H2.27122H2.68088L2.69162 13.0975ZM21.1385 13.4652V19.093L17.0883 19.0909L13.0381 19.0889L13.3047 18.9518C13.7482 18.7238 14.4871 18.444 14.9877 18.3144C15.7452 18.1183 16.2771 18.051 17.0575 18.0523C17.9079 18.0538 18.5123 18.1504 19.2074 18.3958C19.865 18.628 19.9846 18.6388 20.1595 18.4817L20.2977 18.3576L20.3084 13.0975L20.3191 7.83742H20.7288H21.1385V13.4652Z" fill="#FDB515"/>
<path fill-rule="evenodd" clip-rule="evenodd" d="M5.18372 5.03945C4.66452 5.09288 4.20154 5.18701 3.69177 5.34273C2.71139 5.64222 2.68219 5.67409 2.68198 6.44594L2.68182 6.97161L1.97431 6.97251C1.21521 6.9735 1.15681 6.98818 1.04603 7.20595C1.01289 7.2711 1.00021 9.00255 1.00021 13.4645C1.00021 20.2416 0.983561 19.8016 1.24495 19.9375C1.35155 19.9929 2.52133 20 11.5 20C20.4787 20 21.6485 19.9929 21.7551 19.9375C22.0164 19.8016 21.9998 20.2418 21.9998 13.4633C21.9998 7.78093 21.9944 7.28437 21.9315 7.17734C21.8237 6.99387 21.7221 6.97161 20.993 6.97161H20.3182L20.318 6.44594C20.3178 5.68378 20.3145 5.67982 19.4364 5.38317C17.6031 4.76395 15.3739 4.91555 13.3656 5.79604C12.8423 6.02548 12.1713 6.39353 11.7379 6.68886L11.5041 6.84817L11.1022 6.58776C9.27314 5.40292 7.12142 4.84002 5.18372 5.03945ZM7.06507 5.96195C8.31442 6.14043 9.51952 6.60525 10.6695 7.35211L11.0488 7.59854V13.1396C11.0488 16.1872 11.0432 18.6807 11.0364 18.6807C11.0295 18.6807 10.8169 18.5619 10.5638 18.4168C9.5283 17.8228 8.41355 17.4379 7.13192 17.2316C6.70398 17.1627 5.26321 17.1627 4.8351 17.2316C4.55894 17.276 3.99798 17.4059 3.63541 17.5095L3.54313 17.5359V11.9295V6.32316L3.71744 6.25735C4.0093 6.14719 4.49549 6.02482 4.88017 5.96467C5.37428 5.88749 6.53368 5.886 7.06507 5.96195ZM18.0829 5.96224C18.4917 6.02416 19.166 6.19197 19.3565 6.27925L19.4569 6.32518V11.9285C19.4569 17.2461 19.4532 17.5307 19.3851 17.5091C18.4775 17.2225 17.2479 17.0971 16.2782 17.1922C14.9216 17.3253 13.4916 17.7887 12.3472 18.466C12.1477 18.5841 11.977 18.6807 11.9678 18.6807C11.9587 18.6807 11.9512 16.1872 11.9512 13.1396V7.59854L12.3511 7.33752C13.4137 6.64396 14.7258 6.13598 15.8983 5.96417C16.428 5.88658 17.5764 5.88555 18.0829 5.96224ZM2.69162 13.0975L2.70233 18.3576L2.84046 18.4817C3.014 18.6375 3.14927 18.6276 3.72134 18.417C4.22574 18.2313 4.77759 18.1168 5.44478 18.0595C6.69963 17.9517 8.27246 18.2638 9.51078 18.8662L9.96195 19.0857L5.91173 19.0893L1.86152 19.093V13.4652V7.83742H2.27122H2.68088L2.69162 13.0975ZM21.1385 13.4652V19.093L17.0883 19.0909L13.0381 19.0889L13.3047 18.9518C13.7482 18.7238 14.4871 18.444 14.9877 18.3144C15.7452 18.1183 16.2771 18.051 17.0575 18.0523C17.9079 18.0538 18.5123 18.1504 19.2074 18.3958C19.865 18.628 19.9846 18.6388 20.1595 18.4817L20.2977 18.3576L20.3084 13.0975L20.3191 7.83742H20.7288H21.1385V13.4652Z" fill="black"/>
</g>
<defs>
<clipPath id="clip0_2042_3725">
<rect width="24" height="24" fill="white"/>
</clipPath>
</defs>
</svg>
