<svg width="13" height="14" viewBox="0 0 13 14" fill="none" xmlns="http://www.w3.org/2000/svg">
<path d="M13 12.6V2.8C13 2.0279 12.3522 1.4 11.5556 1.4H10.1111V0H8.66667V1.4H4.33333V0H2.88889V1.4H1.44444C0.647833 1.4 0 2.0279 0 2.8V12.6C0 13.3721 0.647833 14 1.44444 14H11.5556C12.3522 14 13 13.3721 13 12.6ZM4.33333 11.2H2.88889V9.8H4.33333V11.2ZM4.33333 8.4H2.88889V7H4.33333V8.4ZM7.22222 11.2H5.77778V9.8H7.22222V11.2ZM7.22222 8.4H5.77778V7H7.22222V8.4ZM10.1111 11.2H8.66667V9.8H10.1111V11.2ZM10.1111 8.4H8.66667V7H10.1111V8.4ZM11.5556 4.9H1.44444V3.5H11.5556V4.9Z" fill="#333333"/>
</svg>
