<svg width="16" height="12" viewBox="0 0 16 12" fill="none" xmlns="http://www.w3.org/2000/svg">
<g clip-path="url(#clip0_223_2315)">
<path d="M4.36364 9.54545V11.1818C4.36364 11.4091 4.28409 11.6023 4.125 11.7614C3.96591 11.9205 3.77273 12 3.54545 12H0.818182C0.590909 12 0.397727 11.9205 0.238636 11.7614C0.0795455 11.6023 0 11.4091 0 11.1818V9.54545C0 9.31818 0.0795455 9.125 0.238636 8.96591C0.397727 8.80682 0.590909 8.72727 0.818182 8.72727H3.54545C3.77273 8.72727 3.96591 8.80682 4.125 8.96591C4.28409 9.125 4.36364 9.31818 4.36364 9.54545ZM4.36364 5.18182V6.81818C4.36364 7.04545 4.28409 7.23864 4.125 7.39773C3.96591 7.55682 3.77273 7.63636 3.54545 7.63636H0.818182C0.590909 7.63636 0.397727 7.55682 0.238636 7.39773C0.0795455 7.23864 0 7.04545 0 6.81818V5.18182C0 4.95455 0.0795455 4.76136 0.238636 4.60227C0.397727 4.44318 0.590909 4.36364 0.818182 4.36364H3.54545C3.77273 4.36364 3.96591 4.44318 4.125 4.60227C4.28409 4.76136 4.36364 4.95455 4.36364 5.18182ZM15.2727 9.54545V11.1818C15.2727 11.4091 15.1932 11.6023 15.0341 11.7614C14.875 11.9205 14.6818 12 14.4545 12H6.27273C6.04545 12 5.85227 11.9205 5.69318 11.7614C5.53409 11.6023 5.45455 11.4091 5.45455 11.1818V9.54545C5.45455 9.31818 5.53409 9.125 5.69318 8.96591C5.85227 8.80682 6.04545 8.72727 6.27273 8.72727H14.4545C14.6818 8.72727 14.875 8.80682 15.0341 8.96591C15.1932 9.125 15.2727 9.31818 15.2727 9.54545ZM4.36364 0.818182V2.45455C4.36364 2.68182 4.28409 2.875 4.125 3.03409C3.96591 3.19318 3.77273 3.27273 3.54545 3.27273H0.818182C0.590909 3.27273 0.397727 3.19318 0.238636 3.03409C0.0795455 2.875 0 2.68182 0 2.45455V0.818182C0 0.590909 0.0795455 0.397727 0.238636 0.238636C0.397727 0.0795455 0.590909 0 0.818182 0H3.54545C3.77273 0 3.96591 0.0795455 4.125 0.238636C4.28409 0.397727 4.36364 0.590909 4.36364 0.818182ZM15.2727 5.18182V6.81818C15.2727 7.04545 15.1932 7.23864 15.0341 7.39773C14.875 7.55682 14.6818 7.63636 14.4545 7.63636H6.27273C6.04545 7.63636 5.85227 7.55682 5.69318 7.39773C5.53409 7.23864 5.45455 7.04545 5.45455 6.81818V5.18182C5.45455 4.95455 5.53409 4.76136 5.69318 4.60227C5.85227 4.44318 6.04545 4.36364 6.27273 4.36364H14.4545C14.6818 4.36364 14.875 4.44318 15.0341 4.60227C15.1932 4.76136 15.2727 4.95455 15.2727 5.18182ZM15.2727 0.818182V2.45455C15.2727 2.68182 15.1932 2.875 15.0341 3.03409C14.875 3.19318 14.6818 3.27273 14.4545 3.27273H6.27273C6.04545 3.27273 5.85227 3.19318 5.69318 3.03409C5.53409 2.875 5.45455 2.68182 5.45455 2.45455V0.818182C5.45455 0.590909 5.53409 0.397727 5.69318 0.238636C5.85227 0.0795455 6.04545 0 6.27273 0H14.4545C14.6818 0 14.875 0.0795455 15.0341 0.238636C15.1932 0.397727 15.2727 0.590909 15.2727 0.818182Z" fill="black"/>
</g>
<defs>
<clipPath id="clip0_223_2315">
<rect width="15.2727" height="12" fill="white"/>
</clipPath>
</defs>
</svg>
