<svg width="24" height="24" viewBox="0 0 24 24" fill="none" xmlns="http://www.w3.org/2000/svg">
<path d="M8 3H3.5V20.5H2.5L2 21L2.5 21.5H21.5V20.5H17L20.5 19L16 2.5L12 4L16 20.5H12V16V7V5.5V5H11.5H8V3Z" fill="#FDB515"/>
<path fill-rule="evenodd" clip-rule="evenodd" d="M13.8256 2.73238C12.5472 3.14419 11.5379 3.49142 11.5015 3.5319C11.4184 3.62435 11.425 3.81516 11.5241 4.18092L11.6036 4.47444H10.023H8.4425V3.71828C8.4425 3.03861 8.43496 2.95172 8.3678 2.85945L8.29305 2.75678L5.91511 2.74491C3.38353 2.73225 3.34905 2.73482 3.2788 2.94033C3.25757 3.00247 3.24299 6.52072 3.24299 11.5871V20.1291L2.94001 20.1301C2.5796 20.1312 2.38143 20.2161 2.19855 20.4478C1.86163 20.8746 1.9668 21.5645 2.41329 21.8565L2.59793 21.9772L3.61532 21.9912C4.60596 22.0048 4.73927 21.9912 4.73927 21.9912L4.76766 21.3467C4.76766 21.3467 4.63736 21.3467 3.73694 21.3467C2.83246 21.3467 2.77921 21.3421 2.6814 21.2565C2.56482 21.1546 2.54985 21.02 2.63926 20.878L2.70009 20.7814H12.0001H21.3001L21.3609 20.878C21.4503 21.02 21.4353 21.1546 21.3187 21.2565L21.2157 21.3467H13.5195C5.87531 21.3467 4.76766 21.3467 4.76766 21.3467L4.73927 21.9912L5.87402 22L13.6381 21.9886L21.4022 21.9772L21.5868 21.8565C22.0298 21.5668 22.1362 20.9042 21.8102 20.4652C21.5712 20.1435 21.6302 20.1534 19.7993 20.1291L18.1574 20.1074L19.3479 19.7261C20.0027 19.5164 20.5786 19.3156 20.6276 19.2798C20.6767 19.244 20.7269 19.1702 20.7392 19.1158C20.7686 18.9854 18.1641 8.94893 18.1641 8.94893L17.6296 9.15079C17.6296 9.15079 18.0342 10.8255 18.5288 12.7376C19.0233 14.6496 19.428 16.2392 19.428 16.27C19.428 16.3464 15.5971 17.5741 15.5761 17.5045C15.5678 17.4772 15.0315 15.402 14.3842 12.893C13.5573 9.68766 13.2207 8.32201 13.2524 8.30026C13.2961 8.27022 16.999 7.0832 17.0482 7.08342C17.0617 7.08351 17.1219 7.27923 17.182 7.5184C17.242 7.75757 17.6296 9.15079 17.6296 9.15079L18.1641 8.94893C18.1641 8.94893 17.8845 7.87976 17.139 4.98839C16.5197 2.58627 16.4038 2.17764 16.3179 2.09363C16.2629 2.0398 16.1881 1.99775 16.1516 2.00009C16.1152 2.00249 15.0685 2.33202 13.8256 2.73238ZM16.0204 3.02856C16.2372 3.82917 16.4621 4.74392 16.4465 4.76131C16.4212 4.78945 12.6192 6.00416 12.6066 5.98812C12.5916 5.96894 12.0821 3.97675 12.0907 3.97058C12.1014 3.96293 15.886 2.74486 15.9155 2.7396C15.9295 2.73708 15.9767 2.86714 16.0204 3.02856ZM7.85609 4.4527V5.51809H5.84275H3.8294V4.4527V3.38731H5.84275H7.85609V4.4527ZM11.6873 6.19211V7.25749H10.0649H8.4425V6.19211V5.12672H10.0649H11.6873V6.19211ZM16.7689 5.92606C16.8367 6.18632 16.8778 6.41444 16.8602 6.43297C16.8296 6.46524 13.3644 7.58233 13.1403 7.6322C13.0321 7.65625 13.0318 7.65551 12.9041 7.14839C12.8338 6.86904 12.782 6.63505 12.7889 6.62848C12.8307 6.58869 16.5984 5.4082 16.6197 5.42829C16.634 5.44181 16.7012 5.6658 16.7689 5.92606ZM7.85609 6.71393V7.25749H5.84275H3.8294V6.71393V6.17036H5.84275H7.85609V6.71393ZM13.9561 13.5846C14.8642 17.1004 15.6157 20.0112 15.6261 20.053C15.6438 20.1246 15.5458 20.1291 13.96 20.1291H12.2751L12.2646 16.5594L12.2542 11.7949H12.1619H11.7903L11.6873 11.7839V15.2619V17.52H10.0649H8.4425V16.6551C8.4425 15.8749 8.43535 15.7804 8.36936 15.6897C8.26771 15.5501 8.03088 15.5501 7.92924 15.6897C7.86325 15.7804 7.85609 15.8749 7.85609 16.6551V17.52H5.84275H3.8294V12.7149V7.90977H5.84275H7.85609V11.2166V14.5235L7.95641 14.6351C8.03733 14.7251 8.08081 14.7415 8.1812 14.7199C8.45443 14.6612 8.4425 14.7817 8.4425 12.0795V9.64917H10.0649H11.6873V10.7165V11.7839L11.7903 11.7949H11.9414H12.2542C12.2542 11.7949 12.2737 10.9909 12.2737 9.42244C12.2737 8.1759 12.2808 7.16417 12.2893 7.17413C12.2979 7.18413 13.048 10.0688 13.9561 13.5846ZM11.6873 8.45333V8.9969H10.0649H8.4425V8.45333V7.90977H10.0649H11.6873V8.45333ZM14.7457 9.1948C14.5443 9.35169 14.5216 9.23085 15.3823 12.5765C16.0604 15.2118 16.2054 15.7311 16.2865 15.8132C16.3951 15.9233 16.4502 15.9323 16.5875 15.8628C16.8202 15.7448 16.8396 15.8511 15.9667 12.4582C15.2888 9.82325 15.1447 9.30742 15.0635 9.22519C14.9499 9.11022 14.8647 9.10204 14.7457 9.1948ZM4.96993 9.31495L4.88494 9.41562V12.7285C4.88494 15.9835 4.88631 16.043 4.96313 16.1285C5.06192 16.2383 5.23988 16.2401 5.3595 16.1323L5.4518 16.0492V12.7149V9.38057L5.3595 9.29747C5.23452 9.18488 5.07369 9.1921 4.96993 9.31495ZM16.24 9.79942C16.1872 9.85812 16.144 9.93783 16.144 9.97653C16.144 10.0152 16.392 11.0092 16.695 12.1854C17.0779 13.6715 17.2708 14.3537 17.3273 14.4217C17.4656 14.588 17.7155 14.53 17.7891 14.3147C17.8431 14.1568 16.7587 9.93987 16.6257 9.7905C16.5119 9.66274 16.3597 9.66626 16.24 9.79942ZM6.38236 10.2665C6.3351 10.2919 6.27794 10.3718 6.25531 10.444C6.2286 10.5292 6.21414 11.3383 6.21414 12.7453C6.21414 14.5646 6.22337 14.9351 6.27133 15.0382C6.3634 15.2363 6.58542 15.2806 6.72236 15.1283C6.7986 15.0435 6.80055 14.9834 6.80055 12.7181V10.3947L6.69754 10.3046C6.58428 10.2055 6.51212 10.1968 6.38236 10.2665ZM9.88355 11.0368L9.79125 11.1199L9.78054 13.5518C9.76991 15.9641 9.77049 15.9845 9.85177 16.0995C9.95427 16.2444 10.163 16.2585 10.2799 16.1285C10.3563 16.0435 10.3581 15.9835 10.3581 13.5878V11.134L10.2551 11.0439C10.1267 10.9315 10.0031 10.9292 9.88355 11.0368ZM19.6234 16.9687C19.6234 16.9764 19.7293 17.3903 19.8586 17.8884C19.988 18.3866 20.0891 18.7987 20.0834 18.8043C20.0777 18.8098 19.2286 19.0837 18.1965 19.4128C17.1644 19.7419 16.3008 20.0191 16.2774 20.0286C16.2155 20.054 15.7426 18.2004 15.8041 18.1736C15.8959 18.1336 19.5267 16.9646 19.5746 16.9597C19.6015 16.9569 19.6234 16.961 19.6234 16.9687ZM7.85609 19.1507V20.1291H5.84275H3.8294V19.1507V18.1723H5.84275H7.85609V19.1507ZM11.6873 19.1507V20.1291H10.0649H8.4425V19.1507V18.1723H10.0649H11.6873V19.1507Z" fill="black"/>
</svg>
