<svg width="38" height="38" viewBox="0 0 38 38" fill="none" xmlns="http://www.w3.org/2000/svg">
<path d="M19.0003 3.1665C21.0796 3.1665 23.1385 3.57605 25.0595 4.37174C26.9805 5.16744 28.7259 6.33372 30.1962 7.80398C31.6664 9.27424 32.8327 11.0197 33.6284 12.9407C34.4241 14.8617 34.8337 16.9206 34.8337 18.9998C34.8337 23.1991 33.1655 27.2264 30.1962 30.1957C27.2269 33.165 23.1996 34.8332 19.0003 34.8332C16.9211 34.8332 14.8622 34.4236 12.9412 33.6279C11.0202 32.8322 9.27473 31.666 7.80447 30.1957C4.83514 27.2264 3.16699 23.1991 3.16699 18.9998C3.16699 14.8006 4.83514 10.7733 7.80447 7.80398C10.7738 4.83465 14.8011 3.1665 19.0003 3.1665V3.1665ZM12.667 12.2073V17.4957L23.972 18.9998L12.667 20.504V25.7923L28.5003 18.9998L12.667 12.2073Z" fill="#FDB515"/>
</svg>
