<svg width="40" height="40" viewBox="0 0 40 40" fill="none" xmlns="http://www.w3.org/2000/svg">
<path fill-rule="evenodd" clip-rule="evenodd" d="M20 40C31.0457 40 40 31.0457 40 20C40 8.9543 31.0457 0 20 0C8.9543 0 0 8.9543 0 20C0 31.0457 8.9543 40 20 40ZM15.8634 22.0697C15.2226 22.6651 14.381 22.9971 13.5064 22.9997C12.8992 23.0008 12.3021 22.844 11.7739 22.5445C11.2457 22.2451 10.8045 21.8133 10.4936 21.2918C10.1827 20.7702 10.0128 20.1767 10.0007 19.5696C9.98857 18.9626 10.1346 18.3628 10.4244 17.8292C10.7142 17.2956 11.1378 16.8466 11.6537 16.5263C12.1695 16.206 12.7598 16.0254 13.3666 16.0023C13.9733 15.9791 14.5757 16.1142 15.1144 16.3943C15.6531 16.6744 16.1098 17.0898 16.4394 17.5997L22.1234 14.3527C22.0494 14.0747 22.0104 13.7877 22.0064 13.4997C22.0039 12.6991 22.2769 11.922 22.7794 11.2988C23.282 10.6756 23.9836 10.2442 24.7665 10.077C25.5494 9.90974 26.3661 10.0168 27.0794 10.3803C27.7927 10.7438 28.3594 11.3415 28.6842 12.0733C29.0091 12.805 29.0724 13.6262 28.8636 14.399C28.6548 15.1719 28.1865 15.8495 27.5374 16.318C26.8882 16.7866 26.0976 17.0177 25.2983 16.9724C24.499 16.9272 23.7396 16.6085 23.1474 16.0697L16.9974 19.5847C16.9914 19.8437 16.9554 20.1027 16.8894 20.3527L23.1494 23.9297C23.7718 23.3567 24.5798 23.027 25.4254 23.0011C26.271 22.9751 27.0977 23.2545 27.7541 23.7882C28.4105 24.322 28.8528 25.0742 28.9999 25.9074C29.147 26.7405 28.9891 27.5987 28.5551 28.325C28.1212 29.0512 27.4401 29.5969 26.6368 29.862C25.8334 30.1272 24.9614 30.0941 24.1803 29.7689C23.3993 29.4437 22.7616 28.8481 22.3838 28.0911C22.0061 27.3341 21.9136 26.4663 22.1234 25.6467L15.8634 22.0697Z" fill="white"/>
</svg>
