<svg width="16" height="18" viewBox="0 0 16 18" fill="none" xmlns="http://www.w3.org/2000/svg">
<path d="M12.5124 11.195C12.0726 11.1973 11.639 11.2982 11.2434 11.4904C10.8479 11.6825 10.5005 11.9611 10.227 12.3054L5.93239 9.62054C6.08891 9.11539 6.08891 8.5747 5.93239 8.06954L10.227 5.38467C10.6629 5.92441 11.2758 6.29246 11.957 6.42361C12.6383 6.55475 13.344 6.44054 13.9491 6.1012C14.5543 5.76185 15.0197 5.21928 15.2631 4.5696C15.5065 3.91991 15.5121 3.20505 15.2789 2.55164C15.0457 1.89824 14.5887 1.34846 13.989 0.999702C13.3892 0.650945 12.6854 0.525719 12.0022 0.646207C11.3189 0.766695 10.7004 1.12512 10.2561 1.65799C9.81186 2.19086 9.57053 2.86378 9.57489 3.55754C9.57767 3.82026 9.61722 4.08129 9.69239 4.33304L5.39777 7.01792C5.01862 6.54062 4.50039 6.1931 3.91489 6.02351C3.3294 5.85393 2.70565 5.87069 2.1301 6.07146C1.55456 6.27224 1.05573 6.64709 0.702756 7.14405C0.349784 7.64102 0.160156 8.23548 0.160156 8.84504C0.160156 9.4546 0.349784 10.0491 0.702756 10.546C1.05573 11.043 1.55456 11.4178 2.1301 11.6186C2.70565 11.8194 3.3294 11.8362 3.91489 11.6666C4.50039 11.497 5.01862 11.1495 5.39777 10.6722L9.69239 13.357C9.61722 13.6088 9.57767 13.8698 9.57489 14.1325C9.57489 14.7135 9.74717 15.2815 10.07 15.7645C10.3927 16.2476 10.8515 16.6241 11.3883 16.8464C11.925 17.0688 12.5157 17.1269 13.0855 17.0136C13.6553 16.9003 14.1787 16.6205 14.5895 16.2097C15.0003 15.7989 15.2801 15.2754 15.3935 14.7056C15.5068 14.1358 15.4486 13.5452 15.2263 13.0084C15.004 12.4717 14.6274 12.0129 14.1444 11.6901C13.6613 11.3673 13.0934 11.195 12.5124 11.195ZM12.5124 1.79504C12.861 1.79504 13.2017 1.89841 13.4916 2.09208C13.7814 2.28574 14.0073 2.56101 14.1407 2.88306C14.2741 3.20512 14.309 3.5595 14.241 3.90139C14.173 4.24328 14.0052 4.55733 13.7587 4.80382C13.5122 5.05031 13.1981 5.21817 12.8562 5.28618C12.5143 5.35418 12.16 5.31928 11.8379 5.18588C11.5159 5.05248 11.2406 4.82658 11.0469 4.53673C10.8533 4.24689 10.7499 3.90613 10.7499 3.55754C10.7499 3.0901 10.9356 2.6418 11.2661 2.31127C11.5967 1.98073 12.0449 1.79504 12.5124 1.79504ZM3.11239 10.6075C2.7638 10.6075 2.42304 10.5042 2.1332 10.3105C1.84336 10.1168 1.61746 9.84158 1.48406 9.51952C1.35066 9.19747 1.31575 8.84309 1.38376 8.50119C1.45177 8.1593 1.61963 7.84526 1.86612 7.59877C2.11261 7.35228 2.42666 7.18441 2.76855 7.11641C3.11044 7.0484 3.46482 7.0833 3.78687 7.2167C4.10893 7.3501 4.38419 7.57601 4.57786 7.86585C4.77153 8.15569 4.87489 8.49645 4.87489 8.84504C4.87489 9.31249 4.6892 9.76078 4.35867 10.0913C4.02814 10.4219 3.57984 10.6075 3.11239 10.6075ZM12.5124 15.895C12.1638 15.895 11.823 15.7917 11.5332 15.598C11.2434 15.4043 11.0175 15.1291 10.8841 14.807C10.7507 14.485 10.7158 14.1306 10.7838 13.7887C10.8518 13.4468 11.0196 13.1328 11.2661 12.8863C11.5126 12.6398 11.8267 12.4719 12.1685 12.4039C12.5104 12.3359 12.8648 12.3708 13.1869 12.5042C13.5089 12.6376 13.7842 12.8635 13.9779 13.1533C14.1715 13.4432 14.2749 13.784 14.2749 14.1325C14.2749 14.6 14.0892 15.0483 13.7587 15.3788C13.4281 15.7093 12.9798 15.895 12.5124 15.895Z" fill="black"/>
</svg>
