<svg width="20" height="20" viewBox="0 0 20 20" fill="none" xmlns="http://www.w3.org/2000/svg">
<defs>
<linearGradient id="paint0_linear_994_4242" x1="19.75" y1="9.94612" x2="0.25" y2="9.94612" gradientUnits="userSpaceOnUse">
<stop stop-color="#FF2252"/>
<stop offset="1" stop-color="#FC7B04"/>
</linearGradient>
</defs>
<path d="M19.75 10C19.7475 7.4149 18.7195 4.93639 16.8915 3.10845C15.0636 1.28051 12.5851 0.252482 10 0.25C7.41414 0.25 4.93419 1.27723 3.10571 3.10571C1.27723 4.93419 0.25 7.41414 0.25 10C0.25 12.5859 1.27723 15.0658 3.10571 16.8943C4.93419 18.7228 7.41414 19.75 10 19.75C12.5851 19.7475 15.0636 18.7195 16.8915 16.8915C18.7195 15.0636 19.7475 12.5851 19.75 10ZM18.2125 9.25H14.4813C14.3313 6.475 13.3563 3.90625 11.7156 1.92813C13.437 2.2979 14.9954 3.20747 16.1639 4.5244C17.3325 5.84133 18.0502 7.49687 18.2125 9.25ZM7.02813 10.75H12.9719C12.8031 13.45 11.725 15.9719 10 17.725C8.275 15.9719 7.19688 13.45 7.02813 10.75ZM7.02813 9.25C7.19688 6.55 8.275 4.02812 10 2.275C11.725 4.02812 12.8031 6.55 12.9719 9.25H7.02813ZM8.28437 1.92813C6.64375 3.90625 5.66875 6.475 5.51875 9.25H1.7875C1.94984 7.49687 2.66753 5.84133 3.83608 4.5244C5.00462 3.20747 6.56302 2.2979 8.28437 1.92813ZM1.7875 10.75H5.51875C5.66875 13.525 6.64375 16.0938 8.28437 18.0719C6.56302 17.7021 5.00462 16.7925 3.83608 15.4756C2.66753 14.1587 1.94984 12.5031 1.7875 10.75ZM11.7156 18.0719C13.3563 16.0938 14.3313 13.525 14.4813 10.75H18.2125C18.0502 12.5031 17.3325 14.1587 16.1639 15.4756C14.9954 16.7925 13.437 17.7021 11.7156 18.0719Z" fill="url(#paint0_linear_994_4242)"/>
</svg>
