<svg width="131" height="131" viewBox="0 0 131 131" fill="none" xmlns="http://www.w3.org/2000/svg">
<mask id="mask0_1058_6307" style="mask-type:luminance" maskUnits="userSpaceOnUse" x="0" y="0" width="131" height="131">
<path d="M65.3465 130.693C101.436 130.693 130.693 101.436 130.693 65.3465C130.693 29.2566 101.436 0 65.3465 0C29.2566 0 0 29.2566 0 65.3465C0 101.436 29.2566 130.693 65.3465 130.693Z" fill="white"/>
</mask>
<g mask="url(#mask0_1058_6307)">
<path d="M0.167665 -6.37939H-6.38184V137.074H0.167665V-6.37939Z" fill="#617DCA"/>
<path d="M4.00542 -6.37939H0.166992V137.074H4.00542V-6.37939Z" fill="#617DCA"/>
<path d="M7.84624 -6.37939H4.00781V137.074H7.84624V-6.37939Z" fill="#617ECA"/>
<path d="M11.6841 -6.37939H7.8457V137.074H11.6841V-6.37939Z" fill="#617FCA"/>
<path d="M15.523 -6.37939H11.6846V137.074H15.523V-6.37939Z" fill="#6180CA"/>
<path d="M19.3619 -6.37939H15.5234V137.074H19.3619V-6.37939Z" fill="#6181CA"/>
<path d="M23.2017 -6.37939H19.3633V137.074H23.2017V-6.37939Z" fill="#6182CA"/>
<path d="M27.0396 -6.37939H23.2012V137.074H27.0396V-6.37939Z" fill="#6183CA"/>
<path d="M30.8785 -6.37939H27.04V137.074H30.8785V-6.37939Z" fill="#6184CA"/>
<path d="M34.7173 -6.37939H30.8789V137.074H34.7173V-6.37939Z" fill="#6185CA"/>
<path d="M38.5552 -6.37939H34.7168V137.074H38.5552V-6.37939Z" fill="#6186CA"/>
<path d="M42.396 -6.37939H38.5576V137.074H42.396V-6.37939Z" fill="#6187CA"/>
<path d="M46.2339 -6.37939H42.3955V137.074H46.2339V-6.37939Z" fill="#6188CA"/>
<path d="M50.0748 -6.37939H46.2363V137.074H50.0748V-6.37939Z" fill="#6189CA"/>
<path d="M53.9126 -6.37939H50.0742V137.074H53.9126V-6.37939Z" fill="#618ACA"/>
<path d="M57.7515 -6.37939H53.9131V137.074H57.7515V-6.37939Z" fill="#618BCA"/>
<path d="M61.5904 -6.37939H57.752V137.074H61.5904V-6.37939Z" fill="#618CCA"/>
<path d="M65.4302 -6.37939H61.5918V137.074H65.4302V-6.37939Z" fill="#618DCA"/>
<path d="M69.2681 -6.37939H65.4297V137.074H69.2681V-6.37939Z" fill="#628FCA"/>
<path d="M73.107 -6.37939H69.2686V137.074H73.107V-6.37939Z" fill="#6290CA"/>
<path d="M76.9459 -6.37939H73.1074V137.074H76.9459V-6.37939Z" fill="#6291CA"/>
<path d="M80.7837 -6.37939H76.9453V137.074H80.7837V-6.37939Z" fill="#6292CA"/>
<path d="M84.6246 -6.37939H80.7861V137.074H84.6246V-6.37939Z" fill="#6293CA"/>
<path d="M88.4625 -6.37939H84.624V137.074H88.4625V-6.37939Z" fill="#6294CA"/>
<path d="M92.3013 -6.37939H88.4629V137.074H92.3013V-6.37939Z" fill="#6295CA"/>
<path d="M96.1402 -6.37939H92.3018V137.074H96.1402V-6.37939Z" fill="#6296CA"/>
<path d="M99.98 -6.37939H96.1416V137.074H99.98V-6.37939Z" fill="#6297CA"/>
<path d="M103.819 -6.37939H99.9805V137.074H103.819V-6.37939Z" fill="#6298CA"/>
<path d="M107.657 -6.37939H103.818V137.074H107.657V-6.37939Z" fill="#6299CA"/>
<path d="M111.496 -6.37939H107.657V137.074H111.496V-6.37939Z" fill="#629ACA"/>
<path d="M115.336 -6.37939H111.497V137.074H115.336V-6.37939Z" fill="#629BCA"/>
<path d="M119.174 -6.37939H115.336V137.074H119.174V-6.37939Z" fill="#629CCA"/>
<path d="M123.012 -6.37939H119.174V137.074H123.012V-6.37939Z" fill="#629DCA"/>
<path d="M126.851 -6.37939H123.013V137.074H126.851V-6.37939Z" fill="#629ECA"/>
<path d="M130.691 -6.37939H126.853V137.074H130.691V-6.37939Z" fill="#629FCA"/>
<path d="M137.071 -6.37939H130.691V137.074H137.071V-6.37939Z" fill="#629FCA"/>
</g>
<path d="M65.5701 112.575C91.6682 112.575 112.825 91.4187 112.825 65.3206C112.825 39.2226 91.6682 18.0659 65.5701 18.0659C39.4721 18.0659 18.3154 39.2226 18.3154 65.3206C18.3154 91.4187 39.4721 112.575 65.5701 112.575Z" fill="white"/>
<path d="M46.8635 27.0984L48.3067 30.2536C48.4512 30.5696 48.6402 30.7761 48.8725 30.8761C49.106 30.976 49.372 30.9557 49.6731 30.8194C49.9742 30.6816 50.1645 30.4913 50.2469 30.2482C50.3292 30.0052 50.2982 29.7244 50.1537 29.4098L48.7104 26.2545L49.9958 25.6672L51.435 28.8157C51.651 29.2869 51.732 29.7311 51.6807 30.1483C51.6294 30.5655 51.4728 30.9341 51.2095 31.2541C50.9463 31.5741 50.6074 31.8292 50.1915 32.0196C49.7757 32.21 49.3666 32.2991 48.9643 32.2856C48.5619 32.2734 48.1906 32.1465 47.8504 31.9049C47.5102 31.6632 47.232 31.3081 47.0174 30.8369L45.5781 27.6884L46.8635 27.1011V27.0984Z" fill="black"/>
<path d="M52.7381 24.7695L54.5676 30.2727L53.2269 30.7182L51.3975 25.2151L52.7381 24.7695Z" fill="black"/>
<path d="M59.8518 23.5391C60.3419 23.7038 60.7469 23.9806 61.0669 24.3708C61.3856 24.761 61.5921 25.2389 61.6866 25.8046C61.7798 26.3649 61.7393 26.882 61.5638 27.3573C61.3883 27.8325 61.0939 28.2281 60.6808 28.5427C60.2663 28.8573 59.7613 29.0639 59.1632 29.1638L57.0192 29.5202L56.0674 23.7997L58.21 23.4432C58.8136 23.3433 59.3604 23.3744 59.8505 23.5391H59.8518ZM60.0314 27.337C60.2771 27.0009 60.3554 26.5688 60.2677 26.0409C60.1799 25.5144 59.9652 25.1282 59.6223 24.8838C59.2807 24.6395 58.846 24.5612 58.3181 24.6489L57.6578 24.7583L58.2114 28.0837L58.8716 27.9743C59.3982 27.8865 59.7843 27.6746 60.03 27.337H60.0314Z" fill="black"/>
<path d="M64.0491 23.9676L64.0842 25.1408L65.9758 25.0841L66.0082 26.1737L64.1166 26.2304L64.1544 27.5022L66.2931 27.4388L66.3268 28.5702L62.776 28.6755L62.6045 22.878L66.1553 22.7727L66.1891 23.9041L64.0505 23.9676H64.0491Z" fill="black"/>
<path d="M68.0439 28.52C67.7226 28.3512 67.4742 28.1244 67.2986 27.8368C67.1231 27.5492 67.0475 27.2157 67.0718 26.8363L68.5691 26.9754C68.5718 27.1914 68.6299 27.3615 68.746 27.4858C68.8621 27.61 69.0214 27.6815 69.2239 27.7004C69.4318 27.7193 69.6006 27.6869 69.7302 27.6019C69.8598 27.5168 69.9327 27.3899 69.9476 27.2198C69.9611 27.0767 69.9233 26.9551 69.8369 26.8525C69.7491 26.7499 69.6384 26.6622 69.5048 26.5893C69.3711 26.5164 69.178 26.4286 68.9269 26.3287C68.5651 26.1788 68.2707 26.0357 68.0453 25.898C67.8198 25.7603 67.6335 25.5726 67.4836 25.3309C67.3351 25.0906 67.277 24.7895 67.3108 24.4277C67.3607 23.8903 67.5943 23.488 68.0115 23.2193C68.4287 22.9507 68.9512 22.8467 69.5763 22.9047C70.2122 22.9642 70.7104 23.164 71.0723 23.5042C71.4327 23.8444 71.6029 24.2873 71.5799 24.8327L70.0583 24.691C70.0651 24.5033 70.0097 24.3507 69.8936 24.2319C69.7775 24.1131 69.6209 24.0443 69.4237 24.0267C69.2536 24.0105 69.1119 24.0429 68.9998 24.1239C68.8877 24.2049 68.8229 24.3305 68.8067 24.5006C68.7892 24.6869 68.8634 24.8408 69.0295 24.961C69.1956 25.0812 69.4589 25.2202 69.8207 25.3741C70.1812 25.5348 70.4741 25.6833 70.6956 25.821C70.9183 25.9574 71.1033 26.1437 71.2532 26.3786C71.403 26.6136 71.4611 26.9038 71.43 27.2495C71.399 27.5789 71.2883 27.8692 71.0966 28.123C70.9048 28.3768 70.6416 28.5672 70.3094 28.6968C69.976 28.8264 69.5939 28.871 69.1605 28.8305C68.7379 28.7913 68.3666 28.6874 68.0439 28.52Z" fill="black"/>
<path d="M74.4722 23.7163L73.3758 29.4112L71.9893 29.1438L73.0856 23.449L74.4722 23.7163Z" fill="black"/>
<path d="M79.1034 26.8863C79.0616 26.6716 78.9616 26.4853 78.8064 26.33C78.6498 26.1747 78.4459 26.0573 78.1934 25.9776C77.7573 25.8413 77.3631 25.8737 77.0107 26.0775C76.6583 26.2814 76.4072 26.623 76.256 27.1009C76.0953 27.6113 76.1088 28.0514 76.2951 28.4254C76.4814 28.7981 76.8163 29.0613 77.2996 29.2125C77.6304 29.3165 77.9369 29.3206 78.2177 29.2233C78.4986 29.1261 78.7416 28.9371 78.9454 28.6549L77.2348 28.1176L77.5467 27.1239L80.4792 28.0447L80.085 29.2976C79.8797 29.6027 79.6124 29.862 79.2816 30.0766C78.9522 30.29 78.5742 30.429 78.1516 30.4925C77.7276 30.5559 77.2848 30.5141 76.8217 30.3696C76.2749 30.1981 75.8253 29.9254 75.4715 29.5514C75.1178 29.1774 74.8896 28.7413 74.783 28.2404C74.6777 27.7395 74.7101 27.2157 74.8815 26.6702C75.053 26.1234 75.3257 25.6738 75.6997 25.3201C76.0737 24.9664 76.5098 24.7382 77.0107 24.6315C77.5116 24.5262 78.0355 24.5586 78.5809 24.7314C79.2425 24.9394 79.7515 25.2756 80.1052 25.7386C80.4589 26.2017 80.621 26.7404 80.5899 27.3548L79.1007 26.8876L79.1034 26.8863Z" fill="black"/>
<path d="M84.6485 33.7409L83.3875 33.1037L82.8907 28.8453L81.2786 32.0384L80.0176 31.4012L82.6314 26.2234L83.8925 26.8607L84.3812 31.1338L86.0014 27.9259L87.2624 28.5632L84.6485 33.7409Z" fill="black"/>
<path d="M65.4205 129.435C56.7675 129.435 48.3737 127.741 40.4714 124.398C32.839 121.169 25.9844 116.548 20.0978 110.661C14.2112 104.775 9.58974 97.9201 6.36157 90.2878C3.01864 82.3855 1.32422 73.9917 1.32422 65.3387C1.32422 56.6857 3.01864 48.2919 6.36157 40.3896C9.58974 32.7573 14.2112 25.9026 20.0978 20.016C25.9844 14.1295 32.839 9.50795 40.4714 6.27978C48.3737 2.93685 56.7675 1.24243 65.4205 1.24243C74.0735 1.24243 82.4673 2.93685 90.3696 6.27978C98.0019 9.50795 104.857 14.1295 110.743 20.016C116.63 25.9026 121.251 32.7573 124.479 40.3896C127.822 48.2919 129.517 56.6857 129.517 65.3387C129.517 73.9917 127.822 82.3855 124.479 90.2878C121.251 97.9201 116.63 104.775 110.743 110.661C104.857 116.548 98.0019 121.169 90.3696 124.398C82.4673 127.741 74.0735 129.435 65.4205 129.435ZM65.4205 1.78114C56.8404 1.78114 48.5168 3.46205 40.682 6.77528C33.1131 9.97645 26.3166 14.5588 20.4799 20.3968C14.6433 26.2334 10.0596 33.0313 6.85842 40.5988C3.54384 48.435 1.86427 56.7572 1.86427 65.3373C1.86427 73.9174 3.54519 82.241 6.85842 90.0759C10.0596 97.6447 14.6419 104.441 20.4799 110.278C26.3166 116.115 33.1145 120.698 40.682 123.899C48.5168 127.214 56.8404 128.894 65.4205 128.894C74.0006 128.894 82.3242 127.213 90.159 123.899C97.7278 120.698 104.524 116.116 110.361 110.278C116.198 104.441 120.781 97.6434 123.983 90.0759C127.297 82.241 128.977 73.9174 128.977 65.3373C128.977 56.7572 127.296 48.4337 123.983 40.5988C120.781 33.03 116.199 26.2334 110.361 20.3968C104.524 14.5602 97.7265 9.97645 90.159 6.77528C82.3242 3.4607 74.0006 1.78114 65.4205 1.78114Z" fill="white"/>
<path d="M65.5709 114.556C58.9242 114.556 52.4773 113.254 46.4071 110.686C40.5448 108.206 35.2793 104.657 30.7577 100.135C26.2361 95.6135 22.6866 90.348 20.2064 84.4857C17.6384 78.4155 16.3369 71.9672 16.3369 65.3219C16.3369 58.6765 17.6384 52.2269 20.2064 46.1581C22.6866 40.2958 26.2361 35.0303 30.7577 30.5087C35.2793 25.9871 40.5448 22.4376 46.4071 19.9574C52.4773 17.3894 58.9255 16.0879 65.5709 16.0879C72.2163 16.0879 78.6645 17.3894 84.7347 19.9574C90.597 22.4376 95.8625 25.9871 100.384 30.5087C104.906 35.0303 108.455 40.2958 110.935 46.1581C113.503 52.2283 114.805 58.6752 114.805 65.3219C114.805 71.9686 113.503 78.4155 110.935 84.4857C108.455 90.348 104.906 95.6135 100.384 100.135C95.8625 104.657 90.597 108.206 84.7347 110.686C78.6645 113.254 72.2163 114.556 65.5709 114.556ZM65.5709 16.6279C58.9971 16.6279 52.6204 17.916 46.6164 20.4542C40.8175 22.9074 35.6101 26.4178 31.1384 30.8894C26.6668 35.3611 23.1551 40.5685 20.7032 46.3673C18.1636 52.37 16.877 58.7481 16.877 65.3219C16.877 71.8957 18.165 78.2724 20.7032 84.2751C23.1564 90.0739 26.6668 95.2814 31.1384 99.753C35.6101 104.225 40.8175 107.736 46.6164 110.188C52.6191 112.728 58.9971 114.014 65.5709 114.014C72.1447 114.014 78.5214 112.726 84.5254 110.188C90.3243 107.735 95.5317 104.225 100.003 99.753C104.475 95.2814 107.987 90.0739 110.439 84.2751C112.978 78.2724 114.265 71.8943 114.265 65.3219C114.265 58.7494 112.977 52.3714 110.439 46.3673C107.985 40.5685 104.475 35.3611 100.003 30.8894C95.5317 26.4178 90.3243 22.9061 84.5254 20.4542C78.5227 17.9146 72.1447 16.6279 65.5709 16.6279Z" fill="white"/>
<path d="M54.3737 106.359L53.4974 106.068L52.1837 101.202L50.8606 105.193L49.9844 104.903L51.7584 99.5513L52.6347 99.8415L53.9511 104.699L55.2715 100.716L56.1477 101.007L54.3737 106.359Z" fill="#000102"/>
<path d="M57.246 106.675C56.8518 106.362 56.5642 105.966 56.3819 105.489C56.1997 105.014 56.1538 104.504 56.2442 103.96C56.3333 103.416 56.5413 102.95 56.8653 102.56C57.1893 102.169 57.589 101.89 58.0629 101.719C58.5368 101.547 59.0323 101.505 59.5494 101.59C60.0719 101.677 60.5296 101.876 60.9238 102.191C61.318 102.506 61.6043 102.899 61.7838 103.371C61.9634 103.844 62.0079 104.353 61.9188 104.895C61.8297 105.439 61.6232 105.907 61.3018 106.301C60.9791 106.694 60.5822 106.976 60.107 107.146C59.6331 107.318 59.1349 107.359 58.6124 107.273C58.0953 107.188 57.6403 106.988 57.246 106.674V106.675ZM59.7681 106.393C60.084 106.273 60.3486 106.07 60.562 105.785C60.7753 105.5 60.917 105.153 60.9845 104.743C61.0521 104.332 61.0304 103.96 60.9184 103.624C60.8063 103.287 60.6214 103.013 60.3608 102.801C60.1002 102.589 59.7856 102.452 59.4184 102.392C59.0512 102.331 58.7096 102.36 58.395 102.477C58.0804 102.595 57.8158 102.796 57.6025 103.078C57.3891 103.36 57.2487 103.707 57.1812 104.118C57.1137 104.528 57.1353 104.902 57.246 105.241C57.3567 105.58 57.5431 105.857 57.8023 106.071C58.0615 106.286 58.3761 106.425 58.7447 106.484C59.1119 106.545 59.4535 106.516 59.7694 106.394L59.7681 106.393Z" fill="#000102"/>
<path d="M67.8207 102.188L65.6389 107.792L64.5696 107.78L62.5146 102.126L63.5029 102.138L65.1164 106.839L66.8486 102.177L67.8207 102.189V102.188Z" fill="#000102"/>
<path d="M69.296 101.979L69.7875 107.587L68.868 107.668L68.3779 102.06L69.2974 101.98L69.296 101.979Z" fill="#000102"/>
<path d="M70.621 103.231C70.7871 102.751 71.0625 102.349 71.4473 102.022C71.8308 101.696 72.2803 101.481 72.7934 101.38C73.3807 101.264 73.9329 101.304 74.4487 101.501C74.9644 101.7 75.3776 102.043 75.6894 102.531L74.6012 102.747C74.4001 102.484 74.1584 102.307 73.8762 102.214C73.594 102.121 73.2849 102.109 72.9514 102.175C72.5855 102.248 72.2763 102.394 72.0225 102.615C71.7686 102.837 71.5918 103.116 71.4919 103.455C71.3906 103.794 71.3812 104.168 71.4622 104.576C71.5432 104.983 71.6944 105.325 71.9172 105.6C72.1399 105.876 72.41 106.069 72.7299 106.178C73.0486 106.289 73.3915 106.306 73.7574 106.235C74.0909 106.169 74.3704 106.039 74.5972 105.845C74.8227 105.652 74.9793 105.395 75.0643 105.075L76.1525 104.859C76.0513 105.43 75.7988 105.904 75.3978 106.281C74.9968 106.657 74.5013 106.904 73.914 107.021C73.3942 107.123 72.8974 107.098 72.4194 106.941C71.9428 106.786 71.5351 106.517 71.1989 106.138C70.8627 105.758 70.6399 105.299 70.5333 104.758C70.4266 104.218 70.4563 103.707 70.6224 103.228L70.621 103.231Z" fill="#000102"/>
<path d="M77.2351 101.064L77.7725 102.627L79.6113 101.993L79.8571 102.706L78.0182 103.339L78.5798 104.97L80.6482 104.257L80.894 104.97L77.9534 105.983L76.1172 100.651L79.0591 99.6387L79.3049 100.352L77.2365 101.064H77.2351Z" fill="#000102"/>
<path d="M17.3283 98.6101C17.285 98.3697 17.3013 98.1456 17.3769 97.939C17.4525 97.7325 17.5861 97.5597 17.7778 97.4219L18.1167 97.9107C17.9615 98.043 17.8683 98.2077 17.8373 98.4062C17.8062 98.6047 17.8697 98.818 18.0276 99.0462C18.1788 99.2649 18.353 99.3985 18.5515 99.4471C18.7486 99.4958 18.9349 99.4607 19.1091 99.3405C19.2454 99.246 19.3305 99.1326 19.3643 99.0003C19.398 98.8679 19.3994 98.7302 19.367 98.5885C19.3346 98.4467 19.2778 98.2644 19.1995 98.0417C19.0996 97.7676 19.0335 97.5394 18.997 97.3585C18.9619 97.1762 18.9754 96.9913 19.0375 96.8009C19.0996 96.6105 19.2414 96.4391 19.4628 96.2865C19.6572 96.1515 19.8625 96.0813 20.0798 96.0745C20.2972 96.0678 20.5078 96.1245 20.7117 96.2446C20.9156 96.3648 21.0965 96.5376 21.2544 96.7658C21.4826 97.0952 21.5852 97.4219 21.565 97.7473C21.5447 98.0727 21.4043 98.3441 21.1478 98.5628L20.7994 98.0592C20.9237 97.9485 20.9952 97.7946 21.0128 97.5988C21.0303 97.403 20.9682 97.2019 20.8264 96.998C20.6941 96.8063 20.5348 96.6848 20.3512 96.6335C20.1676 96.5822 19.9853 96.6186 19.8044 96.7442C19.6748 96.8333 19.5951 96.9426 19.5627 97.0723C19.5317 97.2005 19.5303 97.3328 19.5627 97.4679C19.5938 97.6029 19.6478 97.7851 19.7261 98.0147C19.822 98.2914 19.8868 98.521 19.9219 98.7059C19.957 98.8909 19.9435 99.0786 19.8827 99.2703C19.822 99.462 19.6788 99.6348 19.4547 99.7914C19.2805 99.9116 19.0861 99.9791 18.8701 99.9953C18.6541 100.01 18.4367 99.9629 18.218 99.8508C17.9993 99.7388 17.8062 99.5619 17.6388 99.3202C17.4781 99.0894 17.3769 98.8531 17.3323 98.6114L17.3283 98.6101Z" fill="white"/>
<path d="M23.1674 99.455L19.7502 102.113L19.4072 101.673L22.8244 99.0149L23.1674 99.455Z" fill="white"/>
<path d="M23.0005 105.943L22.6319 105.524L23.7363 101.563L21.1508 103.842L20.7822 103.423L24.0347 100.557L24.4033 100.975L23.3043 104.933L25.8857 102.658L26.2543 103.076L23.0018 105.943H23.0005Z" fill="white"/>
<path d="M28.6705 107.201C28.7582 106.937 28.7677 106.676 28.7002 106.421C28.6327 106.166 28.4909 105.936 28.2735 105.731C28.0575 105.526 27.8145 105.392 27.5458 105.329C27.2771 105.265 27.0044 105.28 26.7263 105.375C26.4495 105.469 26.193 105.639 25.9607 105.885C25.7272 106.132 25.5719 106.395 25.4949 106.675C25.418 106.956 25.418 107.228 25.4963 107.493C25.5746 107.758 25.7218 107.993 25.9378 108.198C26.2402 108.484 26.5764 108.628 26.945 108.63C27.3149 108.631 27.6633 108.492 27.9913 108.21L26.7546 107.039L27.0706 106.706L28.738 108.286L28.4396 108.601C28.1709 108.838 27.8671 108.998 27.5269 109.085C27.1867 109.171 26.8464 109.171 26.5062 109.085C26.166 109 25.8595 108.827 25.5868 108.569C25.2992 108.296 25.1021 107.98 24.994 107.619C24.886 107.257 24.8793 106.889 24.9711 106.515C25.0629 106.142 25.256 105.801 25.5463 105.495C25.8365 105.188 26.1673 104.978 26.5373 104.863C26.9072 104.748 27.2758 104.735 27.6417 104.822C28.0075 104.91 28.3356 105.09 28.6232 105.362C28.9526 105.674 29.166 106.032 29.2618 106.439C29.359 106.844 29.3226 107.251 29.1538 107.662L28.6691 107.203L28.6705 107.201Z" fill="white"/>
<path d="M31.419 107.906L29.7205 110.054C29.4815 110.356 29.3776 110.637 29.4073 110.899C29.437 111.161 29.5828 111.393 29.842 111.599C30.0985 111.801 30.3564 111.887 30.6183 111.856C30.8803 111.825 31.13 111.659 31.369 111.357L33.0675 109.209L33.5049 109.554L31.8105 111.698C31.5864 111.981 31.3434 112.175 31.0774 112.279C30.8114 112.383 30.5481 112.407 30.2822 112.352C30.0175 112.295 29.7664 112.174 29.5288 111.986C29.2912 111.798 29.1143 111.582 28.9995 111.338C28.8834 111.094 28.847 110.83 28.8888 110.549C28.9307 110.269 29.0643 109.986 29.2871 109.704L30.9815 107.56L31.419 107.906Z" fill="white"/>
<path d="M32.9061 113.856L34.1415 114.697L33.8823 115.076L32.1865 113.92L34.6249 110.344L35.0853 110.657L32.9061 113.854V113.856Z" fill="white"/>
<path d="M37.6738 116.243L36.0644 115.306L35.284 115.965L34.7764 115.669L38.2759 112.726L38.8322 113.05L37.9964 117.543L37.4888 117.247L37.6765 116.243H37.6738ZM37.7669 115.765L38.2003 113.487L36.433 114.989L37.7669 115.765Z" fill="white"/>
<path d="M41.3137 119.172L41.1597 117.136L40.5522 116.846L39.7894 118.443L39.2871 118.203L41.153 114.297L42.3965 114.891C42.6881 115.03 42.9095 115.198 43.0621 115.395C43.2147 115.592 43.2997 115.8 43.3173 116.019C43.3348 116.237 43.2903 116.457 43.1849 116.679C43.0567 116.947 42.8663 117.149 42.6152 117.281C42.3641 117.413 42.0697 117.44 41.7322 117.361L41.9172 119.459L41.315 119.171L41.3137 119.172ZM40.7466 116.437L41.4878 116.791C41.7606 116.922 41.9982 116.95 42.1993 116.88C42.4005 116.81 42.5558 116.66 42.6651 116.432C42.7759 116.201 42.7948 115.989 42.7205 115.797C42.6462 115.605 42.4721 115.445 42.1953 115.312L41.4541 114.959L40.7466 116.438V116.437Z" fill="white"/>
<path d="M45.4748 116.247L43.837 120.254L43.3213 120.043L44.959 116.036L45.4748 116.247Z" fill="white"/>
<path d="M45.9767 120.956C45.7984 120.787 45.6796 120.598 45.6189 120.386C45.5581 120.174 45.5635 119.957 45.6364 119.733L46.1981 119.926C46.1508 120.124 46.1738 120.313 46.2656 120.491C46.3574 120.67 46.5343 120.805 46.7975 120.894C47.0487 120.98 47.2687 120.984 47.4564 120.907C47.6454 120.83 47.7737 120.691 47.8425 120.491C47.8965 120.335 47.8979 120.193 47.8466 120.066C47.7953 119.939 47.7143 119.829 47.6049 119.734C47.4956 119.639 47.3416 119.525 47.1459 119.392C46.9042 119.23 46.7138 119.086 46.5788 118.96C46.4424 118.835 46.3439 118.677 46.2818 118.486C46.2197 118.296 46.2318 118.075 46.3196 117.82C46.3965 117.597 46.5208 117.419 46.6909 117.284C46.8623 117.15 47.0649 117.07 47.2998 117.046C47.5347 117.022 47.7831 117.054 48.0464 117.144C48.4244 117.274 48.7012 117.477 48.8767 117.752C49.0523 118.027 49.1009 118.329 49.0226 118.655L48.4433 118.457C48.4771 118.293 48.4433 118.127 48.3421 117.959C48.2408 117.79 48.0721 117.666 47.8358 117.585C47.6157 117.509 47.4159 117.505 47.2377 117.572C47.0595 117.64 46.9339 117.778 46.8623 117.986C46.811 118.134 46.811 118.27 46.8623 118.392C46.9136 118.515 46.9906 118.621 47.0959 118.712C47.2012 118.802 47.3524 118.917 47.5509 119.055C47.7912 119.221 47.9802 119.368 48.118 119.496C48.2557 119.625 48.3556 119.784 48.4204 119.974C48.4839 120.165 48.4717 120.389 48.3826 120.648C48.3137 120.848 48.1976 121.018 48.0329 121.158C47.8682 121.299 47.6643 121.389 47.4226 121.428C47.1796 121.468 46.9204 121.439 46.6423 121.343C46.3763 121.252 46.1535 121.122 45.9767 120.953V120.956Z" fill="white"/>
<path d="M56.1059 119.319L53.6284 123.218L52.9993 123.084L52.3242 118.515L52.9048 118.64L53.4394 122.57L55.5281 119.199L56.1032 119.321L56.1059 119.319Z" fill="white"/>
<path d="M57.6297 119.994L57.438 121.428L58.9798 121.634L58.9177 122.096L57.3759 121.889L57.1788 123.366L58.9029 123.597L58.8408 124.059L56.5645 123.754L57.1396 119.458L59.4159 119.762L59.3538 120.223L57.6297 119.992V119.994Z" fill="white"/>
<path d="M63.7944 124.414L63.2381 124.383L61.19 120.818L60.9996 124.259L60.4434 124.228L60.6823 119.899L61.2386 119.93L63.2867 123.489L63.4771 120.053L64.0334 120.084L63.7944 124.413V124.414Z" fill="white"/>
<path d="M68.0225 120.035L68.0333 120.494L66.8695 120.521L66.9572 124.389L66.3996 124.401L66.3119 120.533L65.1426 120.56L65.1318 120.101L68.0225 120.035Z" fill="white"/>
<path d="M69.6815 119.918L69.9556 122.642C69.9947 123.026 70.1149 123.3 70.3187 123.467C70.5226 123.635 70.7886 123.701 71.118 123.668C71.4434 123.636 71.6891 123.517 71.8552 123.313C72.0213 123.109 72.0847 122.815 72.0469 122.433L71.7728 119.708L72.3277 119.653L72.6005 122.372C72.6369 122.731 72.5951 123.039 72.4776 123.298C72.3602 123.558 72.186 123.759 71.9565 123.903C71.7269 124.048 71.461 124.134 71.1612 124.164C70.8602 124.194 70.5834 124.161 70.3295 124.067C70.0757 123.971 69.8665 123.809 69.7017 123.578C69.537 123.347 69.4371 123.053 69.4007 122.694L69.1279 119.974L69.6828 119.919L69.6815 119.918Z" fill="white"/>
<path d="M76.6587 123.304L75.3382 121.747L74.6753 121.869L74.9953 123.609L74.4471 123.71L73.6641 119.453L75.0196 119.204C75.3369 119.146 75.615 119.151 75.854 119.22C76.093 119.29 76.2847 119.408 76.4264 119.575C76.5696 119.742 76.6627 119.946 76.7073 120.187C76.7613 120.48 76.7248 120.754 76.6006 121.009C76.475 121.264 76.2523 121.458 75.9323 121.592L77.3148 123.181L76.6587 123.303V123.304ZM74.5943 121.423L75.4017 121.275C75.6987 121.221 75.908 121.105 76.0295 120.929C76.151 120.754 76.1888 120.542 76.1429 120.293C76.097 120.041 75.9876 119.858 75.8148 119.748C75.6434 119.636 75.4057 119.609 75.1047 119.664L74.2973 119.813L74.5943 121.425V121.423Z" fill="white"/>
<path d="M78.3993 118.944L78.7639 120.344L80.2693 119.951L80.3867 120.402L78.8813 120.795L79.258 122.237L80.9416 121.798L81.0591 122.249L78.8368 122.829L77.7432 118.634L79.9655 118.054L80.0829 118.505L78.3993 118.944Z" fill="white"/>
<path d="M83.1192 121.502C82.8762 121.477 82.6656 121.4 82.4874 121.269C82.3092 121.139 82.1809 120.963 82.1012 120.742L82.6642 120.551C82.7493 120.738 82.8816 120.873 83.0639 120.956C83.2461 121.041 83.4676 121.039 83.7308 120.949C83.982 120.864 84.1588 120.733 84.2601 120.557C84.3614 120.38 84.3789 120.192 84.3114 119.992C84.2587 119.836 84.1723 119.722 84.0535 119.653C83.9347 119.584 83.8038 119.545 83.6593 119.539C83.5148 119.53 83.3231 119.535 83.0868 119.549C82.7966 119.57 82.5589 119.571 82.374 119.555C82.189 119.539 82.0148 119.475 81.8488 119.362C81.684 119.25 81.5571 119.066 81.4707 118.811C81.3951 118.587 81.3843 118.371 81.437 118.16C81.491 117.949 81.603 117.763 81.7745 117.6C81.946 117.436 82.162 117.311 82.4253 117.222C82.8047 117.094 83.1476 117.084 83.4541 117.193C83.7606 117.304 83.9833 117.512 84.1224 117.82L83.5418 118.017C83.4689 117.867 83.3407 117.756 83.157 117.685C82.9734 117.613 82.7642 117.619 82.5279 117.698C82.3078 117.773 82.1471 117.891 82.0472 118.055C81.9473 118.218 81.9325 118.403 82.0027 118.611C82.0526 118.76 82.1363 118.868 82.2511 118.934C82.3659 119 82.4928 119.036 82.6318 119.044C82.7709 119.053 82.9599 119.05 83.2016 119.038C83.4932 119.021 83.7336 119.023 83.9199 119.04C84.1062 119.058 84.2844 119.123 84.4518 119.233C84.6192 119.346 84.7462 119.53 84.8339 119.79C84.9014 119.99 84.9136 120.196 84.869 120.408C84.8245 120.62 84.7178 120.816 84.5504 120.995C84.383 121.175 84.1602 121.311 83.8807 121.406C83.6134 121.496 83.3582 121.53 83.1152 121.504L83.1192 121.502Z" fill="white"/>
<path d="M87.4588 116.438C87.4804 116.052 87.5952 115.702 87.8031 115.389C88.011 115.076 88.2932 114.833 88.6496 114.659C89.0682 114.455 89.4827 114.379 89.8945 114.432C90.3063 114.485 90.6748 114.664 91.0016 114.971L90.4008 115.264C90.1807 115.081 89.939 114.975 89.6771 114.946C89.4152 114.918 89.1451 114.971 88.8657 115.107C88.597 115.238 88.3877 115.418 88.2365 115.648C88.0853 115.879 88.0056 116.14 87.9975 116.432C87.9894 116.723 88.0623 117.026 88.2149 117.337C88.3661 117.647 88.5578 117.888 88.7927 118.061C89.0277 118.235 89.2815 118.333 89.5569 118.355C89.831 118.378 90.1024 118.324 90.3711 118.193C90.6505 118.057 90.8598 117.879 90.9989 117.656C91.1379 117.433 91.2041 117.18 91.196 116.893L91.7968 116.6C91.8346 117.042 91.7468 117.44 91.5335 117.795C91.3202 118.15 91.0043 118.43 90.5857 118.634C90.2293 118.808 89.8648 118.881 89.4894 118.852C89.1154 118.825 88.7698 118.702 88.4539 118.482C88.1379 118.264 87.8882 117.964 87.7032 117.585C87.5182 117.205 87.4359 116.822 87.4575 116.437L87.4588 116.438Z" fill="white"/>
<path d="M92.2462 113.33L92.9834 114.575L94.3227 113.783L94.5603 114.184L93.221 114.976L93.9798 116.259L95.4771 115.372L95.7147 115.773L93.7381 116.943L91.5293 113.213L93.5059 112.042L93.7435 112.443L92.2462 113.33Z" fill="white"/>
<path d="M98.9117 113.635L97.0674 112.76L96.5139 113.143L97.5224 114.597L97.0647 114.915L94.5967 111.358L95.7294 110.573C95.9941 110.389 96.2506 110.28 96.4963 110.245C96.7434 110.209 96.9662 110.239 97.1646 110.332C97.3631 110.425 97.5332 110.573 97.6723 110.774C97.8424 111.018 97.9221 111.283 97.9126 111.566C97.9032 111.85 97.7803 112.119 97.544 112.374L99.4585 113.253L98.9104 113.633L98.9117 113.635ZM96.2546 112.772L96.9284 112.303C97.1768 112.131 97.3199 111.94 97.3577 111.73C97.3955 111.519 97.3428 111.31 97.1984 111.103C97.0526 110.893 96.877 110.771 96.6745 110.741C96.472 110.71 96.2452 110.783 95.9927 110.957L95.319 111.426L96.2533 112.773L96.2546 112.772Z" fill="white"/>
<path d="M100.021 107.292L100.31 107.649L99.4038 108.381L101.835 111.391L101.402 111.74L98.9704 108.731L98.0604 109.467L97.7715 109.109L100.021 107.292Z" fill="white"/>
<path d="M101.296 106.145L104.191 109.363L103.777 109.736L100.882 106.517L101.296 106.145Z" fill="white"/>
<path d="M104.053 103.479L104.377 103.804L103.062 105.114L104.093 106.148L105.161 105.085L105.485 105.411L104.417 106.475L105.792 107.857L105.397 108.25L102.343 105.183L104.053 103.48V103.479Z" fill="white"/>
<path d="M105.2 102.22L108.405 105.13L108.029 105.543L104.824 102.634L105.198 102.22H105.2Z" fill="white"/>
<path d="M106.851 101.017L107.97 101.934L108.956 100.73L109.316 101.025L108.331 102.23L109.484 103.174L110.585 101.827L110.946 102.123L109.49 103.9L106.137 101.154L107.592 99.377L107.953 99.6726L106.851 101.019V101.017Z" fill="white"/>
<path d="M110.056 96.4447C110.396 96.2664 110.751 96.1962 111.124 96.234C111.496 96.2718 111.864 96.419 112.227 96.6728C112.59 96.9267 112.852 97.221 113.015 97.5558C113.177 97.8907 113.231 98.2471 113.177 98.6251C113.123 99.0032 112.963 99.3826 112.695 99.7646L111.934 100.854L108.386 98.374L109.147 97.2844C109.415 96.9024 109.717 96.6229 110.057 96.4447H110.056ZM112.671 98.2093C112.594 97.8016 112.338 97.4451 111.9 97.14C111.459 96.8321 111.031 96.7106 110.616 96.7768C110.202 96.8429 109.837 97.1008 109.524 97.5491L109.081 98.1809L111.87 100.131L112.313 99.4987C112.629 99.0464 112.749 98.617 112.672 98.2106L112.671 98.2093Z" fill="white"/>
<mask id="mask1_1058_6307" style="mask-type:luminance" maskUnits="userSpaceOnUse" x="59" y="49" width="32" height="39">
<path d="M59.8779 85.6361L87.5934 50.4206C88.0781 49.8049 88.9746 49.709 89.5781 50.2099C90.1857 50.7135 90.2694 51.6154 89.7658 52.223L62.0786 87.4615C61.575 88.069 60.6731 88.1527 60.0655 87.6492C59.458 87.1455 59.3743 86.2437 59.8779 85.6361Z" fill="white"/>
</mask>
<g mask="url(#mask1_1058_6307)">
<path d="M59.375 84.8187L75.343 65.1013L78.4781 67.6409L61.8673 88.1522H59.375V84.8187Z" fill="#62ADCA"/>
<path d="M75.7215 64.6264L75.3408 65.0964L78.476 67.6352L78.8566 67.1652L75.7215 64.6264Z" fill="#62ADCA"/>
<path d="M76.1043 64.1564L75.7236 64.6265L78.8588 67.1653L79.2394 66.6952L76.1043 64.1564Z" fill="#62ACCA"/>
<path d="M76.4842 63.6867L76.1035 64.1567L79.2387 66.6955L79.6193 66.2255L76.4842 63.6867Z" fill="#62ABCA"/>
<path d="M76.866 63.2165L76.4854 63.6865L79.6205 66.2253L80.0012 65.7553L76.866 63.2165Z" fill="#62AACA"/>
<path d="M77.2459 62.7443L76.8652 63.2144L80.0004 65.7532L80.381 65.2831L77.2459 62.7443Z" fill="#62A9CA"/>
<path d="M77.6277 62.2741L77.2471 62.7441L80.3822 65.2829L80.7629 64.8129L77.6277 62.2741Z" fill="#62A8CA"/>
<path d="M78.0076 61.8034L77.627 62.2734L80.7621 64.8122L81.1428 64.3422L78.0076 61.8034Z" fill="#62A7CA"/>
<path d="M78.3885 61.3334L78.0078 61.8035L81.143 64.3423L81.5236 63.8722L78.3885 61.3334Z" fill="#62A6CA"/>
<path d="M78.7693 60.8639L78.3887 61.334L81.5238 63.8728L81.9045 63.4027L78.7693 60.8639Z" fill="#62A5CA"/>
<path d="M79.1512 60.3932L78.7705 60.8633L81.9057 63.4021L82.2863 62.932L79.1512 60.3932Z" fill="#62A4CA"/>
<path d="M79.533 59.923L79.1523 60.3931L82.2875 62.9319L82.6682 62.4618L79.533 59.923Z" fill="#62A3CA"/>
<path d="M79.9129 59.4523L79.5322 59.9224L82.6674 62.4612L83.048 61.9911L79.9129 59.4523Z" fill="#62A2CA"/>
<path d="M80.2947 58.9821L79.9141 59.4521L83.0492 61.991L83.4299 61.5209L80.2947 58.9821Z" fill="#62A1CA"/>
<path d="M80.6746 58.5114L80.2939 58.9814L83.4291 61.5202L83.8098 61.0502L80.6746 58.5114Z" fill="#62A0CA"/>
<path d="M81.0564 58.0397L80.6758 58.5098L83.8109 61.0486L84.1916 60.5785L81.0564 58.0397Z" fill="#629FCA"/>
<path d="M81.4383 57.5702L81.0576 58.0403L84.1928 60.5791L84.5734 60.109L81.4383 57.5702Z" fill="#619DCA"/>
<path d="M81.8182 57.1002L81.4375 57.5703L84.5727 60.1091L84.9533 59.639L81.8182 57.1002Z" fill="#619CCA"/>
<path d="M82.198 56.6291L81.8174 57.0991L84.9525 59.6379L85.3332 59.1679L82.198 56.6291Z" fill="#619BCA"/>
<path d="M82.5818 56.1584L82.2012 56.6284L85.3363 59.1672L85.717 58.6972L82.5818 56.1584Z" fill="#619ACA"/>
<path d="M82.9617 55.6877L82.5811 56.1577L85.7162 58.6965L86.0969 58.2265L82.9617 55.6877Z" fill="#6199CA"/>
<path d="M83.3426 55.2174L82.9619 55.6875L86.0971 58.2263L86.4777 57.7562L83.3426 55.2174Z" fill="#6198CA"/>
<path d="M83.7224 54.7475L83.3418 55.2175L86.477 57.7563L86.8576 57.2863L83.7224 54.7475Z" fill="#6197CA"/>
<path d="M84.1033 54.277L83.7227 54.7471L86.8578 57.2859L87.2385 56.8158L84.1033 54.277Z" fill="#6196CA"/>
<path d="M84.4851 53.8058L84.1045 54.2759L87.2397 56.8147L87.6203 56.3446L84.4851 53.8058Z" fill="#6195CA"/>
<path d="M84.866 53.3356L84.4854 53.8057L87.6205 56.3445L88.0012 55.8744L84.866 53.3356Z" fill="#6194CA"/>
<path d="M85.2478 52.8649L84.8672 53.335L88.0024 55.8738L88.383 55.4037L85.2478 52.8649Z" fill="#6193CA"/>
<path d="M85.6287 52.3947L85.248 52.8647L88.3832 55.4036L88.7639 54.9335L85.6287 52.3947Z" fill="#6192CA"/>
<path d="M86.0086 51.9223L85.6279 52.3923L88.7631 54.9311L89.1437 54.4611L86.0086 51.9223Z" fill="#6191CA"/>
<path d="M86.3914 51.4542L86.0107 51.9243L89.1459 54.4631L89.5266 53.9931L86.3914 51.4542Z" fill="#6190CA"/>
<path d="M86.7713 50.9831L86.3906 51.4531L89.5258 53.9919L89.9064 53.5219L86.7713 50.9831Z" fill="#618FCA"/>
<path d="M86.7725 50.9876L87.808 49.709H90.2707V53.0803L89.9075 53.5272L86.7725 50.9876Z" fill="#618FCA"/>
</g>
<mask id="mask2_1058_6307" style="mask-type:luminance" maskUnits="userSpaceOnUse" x="46" y="49" width="45" height="25">
<path d="M88.4662 53.7586C88.5958 53.2429 88.3041 52.5867 86.2317 53.7019L48.1012 72.9764C47.3843 73.3045 46.5364 72.9886 46.2097 72.2703C45.8829 71.5521 46.2002 70.7042 46.9185 70.3774L87.999 49.746C88.7173 49.4193 89.5652 49.7366 89.8919 50.4549C90.4873 51.805 89.499 52.3842 88.4648 53.7573L88.4662 53.7586Z" fill="white"/>
</mask>
<g mask="url(#mask2_1058_6307)">
<path d="M47.5483 49.4202H46.082V73.3067H47.5483V49.4202Z" fill="#618FCA"/>
<path d="M49.0141 49.4202H47.5479V73.3067H49.0141V49.4202Z" fill="#6190CA"/>
<path d="M50.4799 49.4202H49.0137V73.3067H50.4799V49.4202Z" fill="#6191CA"/>
<path d="M51.9457 49.4202H50.4795V73.3067H51.9457V49.4202Z" fill="#6192CA"/>
<path d="M53.4125 49.4199H51.9463V73.3065H53.4125V49.4199Z" fill="#6193CA"/>
<path d="M54.8793 49.4199H53.4131V73.3065H54.8793V49.4199Z" fill="#6194CA"/>
<path d="M56.3442 49.4202H54.8779V73.3067H56.3442V49.4202Z" fill="#6195CA"/>
<path d="M57.812 49.4202H56.3457V73.3067H57.812V49.4202Z" fill="#6196CA"/>
<path d="M59.2787 49.4199H57.8125V73.3065H59.2787V49.4199Z" fill="#6197CA"/>
<path d="M60.7455 49.4199H59.2793V73.3065H60.7455V49.4199Z" fill="#6198CA"/>
<path d="M62.2104 49.4202H60.7441V73.3067H62.2104V49.4202Z" fill="#6199CA"/>
<path d="M63.6772 49.4199H62.2109V73.3065H63.6772V49.4199Z" fill="#619ACA"/>
<path d="M65.144 49.4202H63.6777V73.3067H65.144V49.4202Z" fill="#619BCA"/>
<path d="M66.6098 49.4202H65.1436V73.3067H66.6098V49.4202Z" fill="#619CCA"/>
<path d="M68.0766 49.4199H66.6104V73.3065H68.0766V49.4199Z" fill="#619DCA"/>
<path d="M69.5434 49.4199H68.0771V73.3065H69.5434V49.4199Z" fill="#629FCA"/>
<path d="M71.0082 49.4202H69.542V73.3067H71.0082V49.4202Z" fill="#62A0CA"/>
<path d="M72.475 49.4199H71.0088V73.3065H72.475V49.4199Z" fill="#62A1CA"/>
<path d="M73.9428 49.4199H72.4766V73.3065H73.9428V49.4199Z" fill="#62A2CA"/>
<path d="M75.4096 49.4199H73.9434V73.3065H75.4096V49.4199Z" fill="#62A3CA"/>
<path d="M76.8744 49.4199H75.4082V73.3065H76.8744V49.4199Z" fill="#62A4CA"/>
<path d="M78.3412 49.4199H76.875V73.3065H78.3412V49.4199Z" fill="#62A5CA"/>
<path d="M79.808 49.4202H78.3418V73.3067H79.808V49.4202Z" fill="#62A6CA"/>
<path d="M81.2739 49.4202H79.8076V73.3067H81.2739V49.4202Z" fill="#62A7CA"/>
<path d="M82.7407 49.4199H81.2744V73.3065H82.7407V49.4199Z" fill="#62A8CA"/>
<path d="M84.2065 49.4202H82.7402V73.3067H84.2065V49.4202Z" fill="#62A9CA"/>
<path d="M85.6723 49.4202H84.2061V73.3067H85.6723V49.4202Z" fill="#62AACA"/>
<path d="M87.1391 49.4199H85.6729V73.3065H87.1391V49.4199Z" fill="#62ABCA"/>
<path d="M88.6069 49.4199H87.1406V73.3065H88.6069V49.4199Z" fill="#62ACCA"/>
<path d="M90.0717 49.4202H88.6055V73.3067H90.0717V49.4202Z" fill="#62ADCA"/>
</g>
<mask id="mask3_1058_6307" style="mask-type:luminance" maskUnits="userSpaceOnUse" x="45" y="69" width="16" height="11">
<path d="M60.0864 76.866L50.5167 71.8611C48.4496 70.727 47.9163 69.952 48.829 69.5132L47.7111 69.9898C46.9563 70.3449 46.4352 70.4839 46.1935 71.0051L46.1085 71.1671C45.7426 71.8665 46.0126 72.7306 46.7133 73.0964L58.7633 79.3975C59.4626 79.7634 60.3267 79.4934 60.6926 78.7927C61.0585 78.0933 60.7885 77.2292 60.0878 76.8633L60.0864 76.866Z" fill="white"/>
</mask>
<g mask="url(#mask3_1058_6307)">
<path d="M58.8593 79.7659L57.8818 79.2758L60.0947 74.8635L61.0573 75.3455V79.7659H58.8593Z" fill="#618FCA"/>
<path d="M59.6185 74.6262L57.4053 79.0383L57.8808 79.2768L60.094 74.8648L59.6185 74.6262Z" fill="#618FCA"/>
<path d="M59.142 74.3867L56.9287 78.7988L57.4042 79.0373L59.6175 74.6253L59.142 74.3867Z" fill="#6190CA"/>
<path d="M58.6674 74.1477L56.4541 78.5598L56.9296 78.7983L59.1428 74.3862L58.6674 74.1477Z" fill="#6191CA"/>
<path d="M58.1918 73.908L55.9785 78.3201L56.454 78.5586L58.6673 74.1465L58.1918 73.908Z" fill="#6192CA"/>
<path d="M57.7152 73.6712L55.502 78.0833L55.9774 78.3218L58.1907 73.9097L57.7152 73.6712Z" fill="#6193CA"/>
<path d="M57.2387 73.4322L55.0254 77.8442L55.5009 78.0828L57.7141 73.6707L57.2387 73.4322Z" fill="#6194CA"/>
<path d="M56.7621 73.1919L54.5488 77.604L55.0243 77.8425L57.2376 73.4304L56.7621 73.1919Z" fill="#6195CA"/>
<path d="M56.2875 72.9534L54.0742 77.3655L54.5497 77.604L56.763 73.1919L56.2875 72.9534Z" fill="#6196CA"/>
<path d="M55.8109 72.7146L53.5977 77.1267L54.0731 77.3652L56.2864 72.9531L55.8109 72.7146Z" fill="#6197CA"/>
<path d="M55.3344 72.4763L53.1211 76.8884L53.5966 77.1269L55.8098 72.7149L55.3344 72.4763Z" fill="#6198CA"/>
<path d="M54.8578 72.2373L52.6445 76.6494L53.12 76.8879L55.3333 72.4759L54.8578 72.2373Z" fill="#6199CA"/>
<path d="M54.3822 71.9993L52.1689 76.4114L52.6444 76.6499L54.8577 72.2378L54.3822 71.9993Z" fill="#619ACA"/>
<path d="M53.9056 71.761L51.6924 76.1731L52.1679 76.4116L54.3811 71.9995L53.9056 71.761Z" fill="#619BCA"/>
<path d="M53.4291 71.5203L51.2158 75.9324L51.6913 76.1709L53.9046 71.7588L53.4291 71.5203Z" fill="#619CCA"/>
<path d="M52.9545 71.2823L50.7412 75.6943L51.2167 75.9329L53.43 71.5208L52.9545 71.2823Z" fill="#619DCA"/>
<path d="M52.4789 71.0432L50.2656 75.4553L50.7411 75.6938L52.9544 71.2818L52.4789 71.0432Z" fill="#629FCA"/>
<path d="M52.0013 70.8042L49.7881 75.2163L50.2636 75.4548L52.4768 71.0427L52.0013 70.8042Z" fill="#62A0CA"/>
<path d="M51.5248 70.5659L49.3115 74.978L49.787 75.2165L52.0003 70.8045L51.5248 70.5659Z" fill="#62A1CA"/>
<path d="M51.0502 70.3264L48.8369 74.7385L49.3124 74.977L51.5257 70.565L51.0502 70.3264Z" fill="#62A2CA"/>
<path d="M50.5746 70.0887L48.3613 74.5007L48.8368 74.7393L51.0501 70.3272L50.5746 70.0887Z" fill="#62A3CA"/>
<path d="M50.1 69.8489L47.8867 74.261L48.3622 74.4995L50.5755 70.0874L50.1 69.8489Z" fill="#62A4CA"/>
<path d="M49.6215 69.6101L47.4082 74.0222L47.8837 74.2607L50.0969 69.8487L49.6215 69.6101Z" fill="#62A5CA"/>
<path d="M47.4082 74.0225L46.9316 73.7835L49.0743 69.5144H49.4307L49.6211 69.6103L47.4082 74.0225Z" fill="#62A6CA"/>
<path d="M46.9323 73.7835L46.457 73.5446L48.4782 69.5144H49.0749L46.9323 73.7835Z" fill="#62A7CA"/>
<path d="M46.4571 73.5446L45.9805 73.3056L47.8828 69.5144H48.4782L46.4571 73.5446Z" fill="#62A8CA"/>
<path d="M45.9802 73.3056L45.7412 73.1854V72.5954L47.2871 69.5144H47.8825L45.9802 73.3056Z" fill="#62A9CA"/>
<path d="M45.7412 71.4073L46.6904 69.5144H47.2871L45.7412 72.5954V71.4073Z" fill="#62AACA"/>
<path d="M45.7412 70.2192L46.0949 69.5144H46.6904L45.7412 71.4073V70.2192Z" fill="#62ABCA"/>
<path d="M46.0949 69.5144L45.7412 70.2192V69.5144H46.0949Z" fill="#62ACCA"/>
</g>
<mask id="mask4_1058_6307" style="mask-type:luminance" maskUnits="userSpaceOnUse" x="50" y="47" width="11" height="33">
<path d="M56.7175 78.3119C57.2049 78.5239 57.9704 77.5558 57.2089 75.3308L50.1126 49.2273C49.906 48.4659 50.357 47.6814 51.1185 47.4762C51.8813 47.271 52.6657 47.7233 52.8709 48.4861L60.8219 77.7206C61.0271 78.4834 60.5748 79.2678 59.812 79.473C59.0802 79.816 58.1432 78.9667 56.7161 78.3119H56.7175Z" fill="white"/>
</mask>
<g mask="url(#mask4_1058_6307)">
<path d="M53.1118 47.2725L53.8099 49.9336L49.9053 50.9583V47.2725H53.1118Z" fill="#618FCA"/>
<path d="M53.8099 49.9338L54.0542 50.8627L49.9053 51.9509V50.9586L53.8099 49.9338Z" fill="#618FCA"/>
<path d="M54.0542 50.8625L54.2973 51.7901L49.9053 52.9431V51.9508L54.0542 50.8625Z" fill="#6190CA"/>
<path d="M54.2973 51.79L54.5416 52.7189L50.0295 53.903L49.9053 53.4305V52.9431L54.2973 51.79Z" fill="#6191CA"/>
<path d="M54.5411 52.7186L50.0293 53.9031L50.2731 54.8316L54.7849 53.6471L54.5411 52.7186Z" fill="#6192CA"/>
<path d="M54.7853 53.6466L50.2734 54.8311L50.5172 55.7595L55.029 54.575L54.7853 53.6466Z" fill="#6193CA"/>
<path d="M55.0284 54.5748L50.5166 55.7593L50.7604 56.6878L55.2722 55.5033L55.0284 54.5748Z" fill="#6194CA"/>
<path d="M55.2716 55.504L50.7598 56.6885L51.0035 57.617L55.5153 56.4325L55.2716 55.504Z" fill="#6195CA"/>
<path d="M55.5167 56.432L51.0049 57.6165L51.2486 58.5449L55.7605 57.3604L55.5167 56.432Z" fill="#6196CA"/>
<path d="M55.7599 57.3607L51.248 58.5452L51.4918 59.4736L56.0036 58.2892L55.7599 57.3607Z" fill="#6197CA"/>
<path d="M56.003 58.2874L51.4912 59.4719L51.735 60.4004L56.2468 59.2159L56.003 58.2874Z" fill="#6198CA"/>
<path d="M56.2481 59.2169L51.7363 60.4014L51.9801 61.3299L56.4919 60.1454L56.2481 59.2169Z" fill="#6199CA"/>
<path d="M56.4913 60.1451L51.9795 61.3296L52.2232 62.2581L56.7351 61.0736L56.4913 60.1451Z" fill="#619ACA"/>
<path d="M56.7345 61.074L52.2227 62.2585L52.4664 63.187L56.9782 62.0025L56.7345 61.074Z" fill="#619BCA"/>
<path d="M56.9786 62.002L52.4668 63.1865L52.7106 64.115L57.2224 62.9305L56.9786 62.002Z" fill="#619CCA"/>
<path d="M57.2218 62.9298L52.71 64.1143L52.9537 65.0427L57.4655 63.8582L57.2218 62.9298Z" fill="#619DCA"/>
<path d="M57.4659 63.8595L52.9541 65.0439L53.1979 65.9724L57.7097 64.7879L57.4659 63.8595Z" fill="#629FCA"/>
<path d="M57.7101 64.7867L53.1982 65.9712L53.442 66.8997L57.9538 65.7152L57.7101 64.7867Z" fill="#62A0CA"/>
<path d="M57.9532 65.7149L53.4414 66.8994L53.6852 67.8279L58.197 66.6434L57.9532 65.7149Z" fill="#62A1CA"/>
<path d="M58.1964 66.6444L53.6846 67.8289L53.9283 68.7573L58.4401 67.5728L58.1964 66.6444Z" fill="#62A2CA"/>
<path d="M58.4415 67.5714L53.9297 68.7559L54.1734 69.6843L58.6853 68.4998L58.4415 67.5714Z" fill="#62A3CA"/>
<path d="M58.6847 68.5015L54.1729 69.686L54.4166 70.6145L58.9284 69.43L58.6847 68.5015Z" fill="#62A4CA"/>
<path d="M58.9278 69.4281L54.416 70.6125L54.6598 71.541L59.1716 70.3565L58.9278 69.4281Z" fill="#62A5CA"/>
<path d="M59.172 70.357L54.6602 71.5415L54.9039 72.47L59.4157 71.2855L59.172 70.357Z" fill="#62A6CA"/>
<path d="M59.4151 71.2852L54.9033 72.4697L55.1471 73.3982L59.6589 72.2137L59.4151 71.2852Z" fill="#62A7CA"/>
<path d="M59.6593 72.2135L55.1475 73.3979L55.3912 74.3264L59.903 73.1419L59.6593 72.2135Z" fill="#62A8CA"/>
<path d="M59.9034 73.1414L55.3916 74.3259L55.6354 75.2544L60.1472 74.0699L59.9034 73.1414Z" fill="#62A9CA"/>
<path d="M60.1466 74.0704L55.6348 75.2549L55.8785 76.1834L60.3903 74.9989L60.1466 74.0704Z" fill="#62AACA"/>
<path d="M60.3897 74.9986L55.8779 76.1831L56.1217 77.1116L60.6335 75.9271L60.3897 74.9986Z" fill="#62ABCA"/>
<path d="M60.6349 75.9259L56.123 77.1104L56.3668 78.0388L60.8786 76.8543L60.6349 75.9259Z" fill="#62ACCA"/>
<path d="M60.8784 76.855L61.0269 77.4193V77.8082L56.6106 78.9679L56.3662 78.0391L60.8784 76.855Z" fill="#62ADCA"/>
<path d="M56.8322 79.8158L56.6094 78.9679L61.0257 77.8081V79.8158H56.8322Z" fill="#62ADCA"/>
</g>
<mask id="mask5_1058_6307" style="mask-type:luminance" maskUnits="userSpaceOnUse" x="49" y="47" width="17" height="9">
<path d="M63.4789 55.1859L53.5176 51.014C51.325 50.1472 50.3866 50.2309 50.6337 51.2124L50.2867 50.0473C50.0788 49.2399 49.852 48.7498 50.099 48.23L50.1693 48.0612C50.4744 47.3335 51.3115 46.9892 52.0405 47.2944L64.5833 52.5477C65.311 52.8529 65.6553 53.6899 65.3502 54.419C65.045 55.1467 64.208 55.491 63.4789 55.1859Z" fill="white"/>
</mask>
<g mask="url(#mask5_1058_6307)">
<path d="M64.3105 55.4912L65.5513 52.6641L65.6539 52.71V55.4912H64.3105Z" fill="#62ADCA"/>
<path d="M59.7102 55.4912L49.8516 51.1653V50.6212L51.4447 46.9907H52.6207L65.5523 52.664L64.3115 55.4912H59.7102Z" fill="#62ADCA"/>
<path d="M51.4447 46.9907L49.8516 50.6212V46.9907H51.4447Z" fill="#62ADCA"/>
</g>
<path d="M88.1862 98.9485C88.6709 98.9485 89.0638 98.5556 89.0638 98.0709C89.0638 97.5863 88.6709 97.1934 88.1862 97.1934C87.7015 97.1934 87.3086 97.5863 87.3086 98.0709C87.3086 98.5556 87.7015 98.9485 88.1862 98.9485Z" fill="#000102"/>
<path d="M43.903 98.9485C44.3877 98.9485 44.7806 98.5556 44.7806 98.0709C44.7806 97.5863 44.3877 97.1934 43.903 97.1934C43.4183 97.1934 43.0254 97.5863 43.0254 98.0709C43.0254 98.5556 43.4183 98.9485 43.903 98.9485Z" fill="#000102"/>
<path d="M89.7092 34.5097C90.2475 34.5097 90.684 34.0732 90.684 33.5349C90.684 32.9965 90.2475 32.5601 89.7092 32.5601C89.1708 32.5601 88.7344 32.9965 88.7344 33.5349C88.7344 34.0732 89.1708 34.5097 89.7092 34.5097Z" fill="#000102"/>
<path d="M42.381 34.5094C42.9194 34.5094 43.3558 34.073 43.3558 33.5346C43.3558 32.9962 42.9194 32.5598 42.381 32.5598C41.8427 32.5598 41.4062 32.9962 41.4062 33.5346C41.4062 34.073 41.8427 34.5094 42.381 34.5094Z" fill="#000102"/>
<path d="M40.182 12.1804C40.4776 11.6417 41.2499 11.6417 41.5456 12.1804L42.1748 13.3294C42.2936 13.5467 42.5096 13.6939 42.7553 13.7263L44.0177 13.891C44.6806 13.9774 44.9317 14.8051 44.4295 15.2466L43.6262 15.9513C43.4196 16.1336 43.3237 16.4104 43.375 16.6817L43.5789 17.751C43.6977 18.3762 43.0577 18.8717 42.4826 18.5989L41.1959 17.99C40.9853 17.8901 40.7409 17.8901 40.5303 17.99L39.2436 18.5989C38.6685 18.8703 38.0285 18.3748 38.1473 17.751L38.3512 16.6817C38.4025 16.4117 38.3066 16.1336 38.1001 15.9513L37.2967 15.2466C36.7945 14.8051 37.0456 13.9774 37.7085 13.891L38.9709 13.7263C39.2166 13.6939 39.4326 13.5467 39.5515 13.3294L40.1806 12.1804H40.182Z" fill="white"/>
<path d="M53.0723 7.21757C53.3571 6.63972 54.1821 6.63972 54.4669 7.21757L54.9395 8.17617C55.0529 8.40569 55.2716 8.56501 55.5255 8.60146L56.5826 8.75538C57.2199 8.84853 57.475 9.63161 57.0133 10.0812L56.2478 10.8265C56.0642 11.0047 55.9804 11.2626 56.0237 11.515L56.2046 12.5682C56.3139 13.2041 55.647 13.6874 55.0759 13.3877L54.1294 12.8908C53.9026 12.772 53.6326 12.772 53.4057 12.8908L52.4593 13.3877C51.8882 13.6874 51.2226 13.2027 51.3306 12.5682L51.5115 11.515C51.5547 11.2626 51.471 11.006 51.2874 10.8265L50.5219 10.0812C50.0601 9.63161 50.3153 8.84718 50.9525 8.75538L52.0097 8.60146C52.2635 8.56501 52.4822 8.40569 52.5957 8.17617L53.0682 7.21757H53.0723Z" fill="white"/>
<path d="M65.9762 4.75761C66.2611 4.17975 67.086 4.17975 67.3709 4.75761L67.8434 5.71621C67.9568 5.94573 68.1756 6.10505 68.4294 6.1415L69.4865 6.29541C70.1238 6.38857 70.379 7.17165 69.9172 7.62125L69.1517 8.36652C68.9681 8.54474 68.8844 8.80261 68.9276 9.05509L69.1085 10.1082C69.2179 10.7441 68.5509 11.2275 67.9798 10.9277L67.0333 10.4309C66.8065 10.3121 66.5365 10.3121 66.3097 10.4309L65.3646 10.9277C64.7935 11.2275 64.1279 10.7428 64.2359 10.1082L64.4168 9.05509C64.46 8.80261 64.3763 8.54609 64.1927 8.36652L63.4271 7.62125C62.9654 7.17165 63.2206 6.38722 63.8578 6.29541L64.915 6.1415C65.1688 6.10505 65.3875 5.94573 65.5009 5.71621L65.9735 4.75761H65.9762Z" fill="white"/>
<path d="M78.8958 7.04905C79.1915 6.51034 79.9638 6.51034 80.2595 7.04905L80.8886 8.19801C81.0074 8.41538 81.2235 8.56255 81.4692 8.59495L82.7316 8.75967C83.3945 8.84608 83.647 9.67371 83.1434 10.1152L82.34 10.82C82.1335 11.0022 82.0376 11.279 82.0889 11.5504L82.2928 12.6197C82.4116 13.2448 81.7716 13.7403 81.1965 13.4676L79.9098 12.8587C79.6992 12.7588 79.4548 12.7588 79.2442 12.8587L77.9575 13.4676C77.3823 13.739 76.7424 13.2435 76.8612 12.6197L77.065 11.5504C77.1164 11.2804 77.0205 11.0022 76.8139 10.82L76.0106 10.1152C75.5083 9.67371 75.7595 8.84608 76.4224 8.75967L77.6848 8.59495C77.9305 8.56255 78.1465 8.41538 78.2653 8.19801L78.8945 7.04905H78.8958Z" fill="white"/>
<path d="M91.7852 12.3506C92.07 11.7728 92.895 11.7728 93.1798 12.3506L93.6524 13.3092C93.7658 13.5387 93.9845 13.6981 94.2383 13.7345L95.2955 13.8884C95.9328 13.9816 96.1879 14.7647 95.7262 15.2143L94.9607 15.9595C94.777 16.1378 94.6933 16.3956 94.7365 16.6481L94.9175 17.7012C95.0268 18.3371 94.3599 18.8205 93.7887 18.5207L92.8423 18.0239C92.6155 17.9051 92.3455 17.9051 92.1186 18.0239L91.1722 18.5207C90.6011 18.8205 89.9355 18.3358 90.0435 17.7012L90.2244 16.6481C90.2676 16.3956 90.1839 16.1391 90.0003 15.9595L89.2347 15.2143C88.773 14.7647 89.0282 13.9802 89.6654 13.8884L90.7226 13.7345C90.9764 13.6981 91.1951 13.5387 91.3085 13.3092L91.7811 12.3506H91.7852Z" fill="white"/>
<g style="mix-blend-mode:screen" opacity="0.3">
<mask id="mask6_1058_6307" style="mask-type:luminance" maskUnits="userSpaceOnUse" x="0" y="0" width="112" height="112">
<path d="M19.4321 111.875C-6.08675 86.3558 -6.08675 44.9796 19.4321 19.4607C44.9524 -6.05819 86.3272 -6.05819 111.846 19.4607C60.1427 34.8779 30.19 66.3103 19.4321 111.875Z" fill="white"/>
</mask>
<g mask="url(#mask6_1058_6307)">
<path d="M56.2207 111.875L111.845 56.2512V111.875H56.2207Z" fill="white"/>
<path d="M19.0503 111.876L2.23438 95.061L95.0304 2.26489L111.845 19.0808V56.2514L56.2208 111.876H19.0503Z" fill="white"/>
<path d="M2.23531 95.0604L-6.08691 86.7382V-6.05786H86.7092L95.0314 2.26437L2.23531 95.0604Z" fill="white"/>
</g>
</g>
<path d="M114.109 93.9534C114.669 93.9534 115.122 93.5001 115.122 92.9408C115.122 92.3816 114.669 91.9282 114.109 91.9282C113.55 91.9282 113.097 92.3816 113.097 92.9408C113.097 93.5001 113.55 93.9534 114.109 93.9534Z" fill="white"/>
<path d="M99.0208 20.5936C98.7508 20.3911 98.4767 20.1885 98.208 19.9941L98.366 19.7754C98.636 19.9712 98.9114 20.1737 99.1828 20.3776L99.0208 20.5936Z" fill="white"/>
<path d="M116.736 88.091L116.489 87.9803C116.758 87.3808 117.019 86.7679 117.266 86.1603L117.515 86.2616C117.267 86.8732 117.005 87.4889 116.735 88.091H116.736ZM118.231 84.4052L117.977 84.312C118.203 83.695 118.419 83.0658 118.621 82.4407L118.878 82.5244C118.674 83.1522 118.456 83.7854 118.23 84.4052H118.231ZM119.458 80.6221L119.199 80.5478C119.38 79.916 119.55 79.2719 119.708 78.6347L119.97 78.6995C119.812 79.3394 119.639 79.9862 119.458 80.6221ZM120.413 76.7607L120.148 76.7053C120.283 76.0627 120.407 75.4079 120.519 74.7611L120.785 74.807C120.673 75.4578 120.548 76.1153 120.413 76.7607ZM121.089 72.8413L120.822 72.8048C120.911 72.154 120.988 71.4925 121.054 70.839L121.323 70.866C121.257 71.5235 121.178 72.1878 121.089 72.8413ZM121.486 68.8827L121.216 68.8651C121.258 68.2116 121.29 67.546 121.309 66.8872L121.579 66.8953C121.56 67.5568 121.528 68.2251 121.486 68.8827ZM121.334 64.9079C121.33 64.2503 121.315 63.5847 121.289 62.9313L121.559 62.9205C121.586 63.578 121.601 64.2463 121.605 64.9065H121.335L121.334 64.9079ZM121.174 60.9574C121.124 60.3012 121.064 59.6383 120.991 58.9875L121.259 58.9578C121.332 59.6126 121.394 60.2783 121.444 60.9371L121.176 60.9574H121.174ZM120.737 57.0244C120.641 56.375 120.533 55.7188 120.414 55.0762L120.68 55.0276C120.799 55.6743 120.908 56.3332 121.004 56.9853L120.737 57.0244ZM120.023 53.1401C119.881 52.4988 119.726 51.8534 119.562 51.2189L119.824 51.1513C119.989 51.7886 120.144 52.438 120.287 53.082L120.024 53.1401H120.023ZM119.034 49.3152C118.848 48.686 118.647 48.0528 118.438 47.4304L118.694 47.344C118.905 47.9677 119.106 48.605 119.294 49.2369L119.034 49.3138V49.3152ZM117.775 45.5685C117.544 44.9542 117.298 44.3372 117.046 43.731L117.295 43.627C117.549 44.2346 117.796 44.857 118.028 45.4727L117.776 45.5685H117.775ZM116.25 41.9205C115.976 41.3251 115.687 40.7256 115.392 40.1397L115.633 40.0181C115.93 40.6068 116.221 41.209 116.496 41.8084L116.25 41.9218V41.9205ZM114.47 38.3899C114.154 37.8161 113.823 37.2382 113.487 36.6739L113.719 36.5348C114.058 37.1018 114.39 37.6824 114.707 38.2589L114.471 38.3885L114.47 38.3899ZM112.443 34.9943C112.087 34.4434 111.717 33.8912 111.34 33.3525L111.561 33.1986C111.939 33.74 112.312 34.2949 112.67 34.8485L112.443 34.9956V34.9943ZM110.18 31.7499C109.786 31.2247 109.377 30.6995 108.964 30.1892L109.174 30.019C109.589 30.5321 109.999 31.06 110.396 31.5866L110.18 31.7486V31.7499ZM107.693 28.673C107.264 28.1788 106.818 27.6833 106.37 27.2027L106.567 27.019C107.018 27.5024 107.465 27.9992 107.897 28.4974L107.693 28.6743V28.673ZM104.996 25.7783C104.531 25.3138 104.052 24.8521 103.571 24.4038L103.755 24.2067C104.238 24.6563 104.719 25.1208 105.186 25.5879L104.996 25.7783ZM102.1 23.0807C101.604 22.6514 101.094 22.2234 100.582 21.8102L100.752 21.5996C101.267 22.0155 101.78 22.4448 102.276 22.8768L102.1 23.0807Z" fill="white"/>
<path d="M115.421 90.8246L115.181 90.7017C115.336 90.4006 115.488 90.0982 115.634 89.7998L115.876 89.9186C115.729 90.2183 115.575 90.5221 115.42 90.8246H115.421Z" fill="white"/>
<path d="M17.0644 93.2791C16.8956 92.9875 16.7268 92.6904 16.5635 92.3961L16.7998 92.2651C16.9631 92.5581 17.1305 92.8538 17.2979 93.1441L17.0644 93.2791Z" fill="white"/>
<path d="M15.6247 90.6358C15.3236 90.0445 15.0293 89.4423 14.7498 88.8428L14.9942 88.7294C15.2723 89.3248 15.564 89.9257 15.8637 90.5143L15.6234 90.6372L15.6247 90.6358ZM13.9411 87.0202C13.6832 86.4113 13.4335 85.7888 13.1972 85.1691L13.4497 85.0733C13.6846 85.6889 13.933 86.3086 14.1895 86.9148L13.9411 87.0202ZM12.5208 83.2924C12.3074 82.6673 12.1022 82.0287 11.9119 81.3928L12.1711 81.3145C12.3614 81.9464 12.5653 82.5823 12.7773 83.2047L12.5221 83.2911L12.5208 83.2924ZM11.3704 79.4729C11.203 78.8316 11.0437 78.1808 10.8993 77.5355L11.1625 77.4761C11.307 78.1187 11.465 78.7668 11.6324 79.4041L11.3718 79.4729H11.3704ZM10.4969 75.5818C10.3754 74.9324 10.2633 74.2708 10.1648 73.6147L10.4321 73.5742C10.5307 74.2263 10.6414 74.8852 10.7629 75.5319L10.4969 75.5818ZM9.9042 71.6381C9.82859 70.9806 9.76514 70.3123 9.71248 69.6534L9.98116 69.6318C10.0325 70.2879 10.0959 70.9536 10.1715 71.607L9.90285 71.6381H9.9042ZM9.59232 67.6619C9.56397 67.0017 9.54642 66.3307 9.54102 65.6678L9.81104 65.6651C9.81644 66.3253 9.83264 66.9923 9.861 67.6498L9.59097 67.6619H9.59232ZM9.82994 63.6804L9.55992 63.6736C9.57747 63.0107 9.60717 62.341 9.64903 61.6808L9.91905 61.697C9.87855 62.3532 9.84885 63.0215 9.83129 63.6804H9.82994ZM10.077 59.7177L9.80834 59.6907C9.87315 59.0319 9.95011 58.3649 10.0379 57.7087L10.3052 57.7452C10.2174 58.3973 10.1405 59.0616 10.077 59.7177ZM10.6049 55.7794L10.3389 55.7335C10.451 55.08 10.5752 54.4185 10.7102 53.7704L10.9749 53.8258C10.8412 54.4711 10.717 55.1286 10.6063 55.7794H10.6049ZM11.4123 51.8856L11.1504 51.8208C11.3083 51.1768 11.4798 50.5274 11.6607 49.8901L11.92 49.9644C11.7404 50.5989 11.5689 51.2456 11.4123 51.887V51.8856ZM12.4978 48.0607L12.2413 47.977C12.4452 47.3465 12.6625 46.7105 12.8893 46.0881L13.1432 46.1799C12.9177 46.7997 12.7017 47.4329 12.4992 48.0607H12.4978ZM13.8547 44.3249L13.6049 44.2236C13.8533 43.6093 14.1166 42.9909 14.3866 42.3861L14.6337 42.4968C14.365 43.0989 14.1031 43.7133 13.856 44.3249H13.8547ZM15.4749 40.697L15.2318 40.5782C15.5235 39.9842 15.8299 39.3861 16.1432 38.8015L16.3808 38.9284C16.0689 39.5103 15.7651 40.1043 15.4749 40.6957V40.697ZM17.3502 37.1948L17.1166 37.0584C17.4501 36.4873 17.7971 35.9122 18.1522 35.3519L18.3803 35.4963C18.028 36.0539 17.6823 36.6264 17.3502 37.1948ZM19.4699 33.8357L19.2471 33.6831C19.6198 33.1363 20.0086 32.5881 20.4001 32.0548L20.6175 32.2142C20.2273 32.7461 19.8412 33.2916 19.4699 33.8357ZM21.8218 30.6358L21.6099 30.4684C22.0217 29.9486 22.4469 29.4288 22.8763 28.9266L23.0815 29.1021C22.6549 29.603 22.2309 30.1201 21.8218 30.6372V30.6358ZM24.3952 27.6115L24.1954 27.4293C24.6423 26.9405 25.104 26.4531 25.5671 25.9806L25.7602 26.1696C25.2998 26.6395 24.8407 27.1241 24.3952 27.6115ZM27.1751 24.7763L26.9888 24.5805C27.4681 24.1241 27.9636 23.6719 28.4591 23.2331L28.6387 23.4356C28.1445 23.8717 27.6531 24.324 27.1751 24.7776V24.7763ZM30.1481 22.1462L29.9766 21.9383C30.487 21.5184 31.0122 21.1012 31.5387 20.6975L31.7035 20.9122C31.1796 21.3132 30.6571 21.729 30.1495 22.1462H30.1481Z" fill="white"/>
<path d="M33.2875 19.742L33.1309 19.522C33.4063 19.3262 33.6858 19.1304 33.9625 18.9414L34.1151 19.1642C33.8397 19.3532 33.5616 19.5476 33.2875 19.742Z" fill="white"/>
</svg>
