<svg width="25" height="37" viewBox="0 0 25 37" fill="none" xmlns="http://www.w3.org/2000/svg">
<circle cx="12.2682" cy="10.6989" r="2.90045" stroke="white" stroke-width="1.46208"/>
<g style="mix-blend-mode:overlay" opacity="0.3">
<mask id="path-2-inside-1_994_6618" fill="white">
<path d="M12.2682 14.3304C12.7451 14.3304 13.2173 14.2364 13.6579 14.0539C14.0985 13.8714 14.4988 13.6039 14.8361 13.2667C15.1733 12.9295 15.4408 12.5292 15.6233 12.0886C15.8058 11.648 15.8997 11.1758 15.8997 10.6989C15.8997 10.222 15.8058 9.74975 15.6233 9.30916C15.4408 8.86857 15.1733 8.46824 14.8361 8.13102C14.4988 7.79381 14.0985 7.52631 13.6579 7.34381C13.2173 7.16131 12.7451 7.06738 12.2682 7.06738L12.2682 9.22528C12.4617 9.22528 12.6533 9.2634 12.8321 9.33745C13.0109 9.41151 13.1734 9.52005 13.3102 9.65688C13.447 9.79372 13.5556 9.95617 13.6296 10.135C13.7037 10.3137 13.7418 10.5054 13.7418 10.6989C13.7418 10.8924 13.7037 11.084 13.6296 11.2628C13.5556 11.4416 13.447 11.604 13.3102 11.7409C13.1734 11.8777 13.0109 11.9862 12.8321 12.0603C12.6533 12.1343 12.4617 12.1725 12.2682 12.1725L12.2682 14.3304Z"/>
</mask>
<path d="M12.2682 14.3304C12.7451 14.3304 13.2173 14.2364 13.6579 14.0539C14.0985 13.8714 14.4988 13.6039 14.8361 13.2667C15.1733 12.9295 15.4408 12.5292 15.6233 12.0886C15.8058 11.648 15.8997 11.1758 15.8997 10.6989C15.8997 10.222 15.8058 9.74975 15.6233 9.30916C15.4408 8.86857 15.1733 8.46824 14.8361 8.13102C14.4988 7.79381 14.0985 7.52631 13.6579 7.34381C13.2173 7.16131 12.7451 7.06738 12.2682 7.06738L12.2682 9.22528C12.4617 9.22528 12.6533 9.2634 12.8321 9.33745C13.0109 9.41151 13.1734 9.52005 13.3102 9.65688C13.447 9.79372 13.5556 9.95617 13.6296 10.135C13.7037 10.3137 13.7418 10.5054 13.7418 10.6989C13.7418 10.8924 13.7037 11.084 13.6296 11.2628C13.5556 11.4416 13.447 11.604 13.3102 11.7409C13.1734 11.8777 13.0109 11.9862 12.8321 12.0603C12.6533 12.1343 12.4617 12.1725 12.2682 12.1725L12.2682 14.3304Z" stroke="white" stroke-width="2.92416" mask="url(#path-2-inside-1_994_6618)"/>
</g>
<rect x="2.35547" width="19.826" height="9.02964" rx="0.664582" fill="#929BA3"/>
<rect x="6.08594" width="2.55186" height="9.02964" fill="white"/>
<rect x="16.0957" width="2.55186" height="9.02964" fill="white"/>
<path d="M11.943 12.337C12.1558 12.0565 12.5776 12.0565 12.7903 12.337L15.4915 15.8994C15.6076 16.0525 15.7973 16.1311 15.9876 16.1049L20.4166 15.4959C20.7654 15.448 21.0637 15.7462 21.0157 16.0951L20.4068 20.5241C20.3806 20.7144 20.4592 20.9041 20.6123 21.0202L24.1747 23.7214C24.4552 23.9341 24.4552 24.3559 24.1747 24.5687L20.6123 27.2698C20.4592 27.3859 20.3806 27.5756 20.4068 27.7659L21.0157 32.1949C21.0637 32.5438 20.7655 32.842 20.4166 32.7941L15.9876 32.1851C15.7973 32.1589 15.6076 32.2375 15.4915 32.3906L12.7903 35.953C12.5776 36.2336 12.1558 36.2336 11.943 35.953L9.24185 32.3906C9.12576 32.2375 8.93612 32.1589 8.74578 32.1851L4.31676 32.7941C3.96792 32.842 3.66966 32.5438 3.71763 32.1949L4.32659 27.7659C4.35276 27.5756 4.2742 27.3859 4.12111 27.2698L0.558718 24.5687C0.27814 24.3559 0.27814 23.9341 0.558718 23.7214L4.12111 21.0202C4.2742 20.9041 4.35276 20.7144 4.32659 20.5241L3.71763 16.0951C3.66966 15.7462 3.96792 15.448 4.31676 15.4959L8.74578 16.1049C8.93611 16.1311 9.12576 16.0525 9.24185 15.8994L11.943 12.337Z" fill="#929BA3"/>
<path d="M12.0051 19.6325C12.2102 19.2804 12.7189 19.2804 12.924 19.6325L14.0918 21.6375C14.1669 21.7665 14.2928 21.8579 14.4387 21.8895L16.7064 22.3806C17.1046 22.4668 17.2618 22.9506 16.9903 23.2545L15.4443 24.9847C15.3449 25.096 15.2968 25.244 15.3118 25.3925L15.5456 27.7009C15.5866 28.1063 15.1751 28.4053 14.8022 28.241L12.679 27.3054C12.5424 27.2452 12.3868 27.2452 12.2502 27.3054L10.1269 28.241C9.75404 28.4053 9.34251 28.1063 9.38356 27.7009L9.61729 25.3925C9.63232 25.244 9.58424 25.096 9.48479 24.9847L7.93881 23.2545C7.66731 22.9506 7.8245 22.4668 8.22275 22.3806L10.4905 21.8895C10.6363 21.8579 10.7622 21.7665 10.8374 21.6375L12.0051 19.6325Z" fill="white"/>
</svg>
