<svg width="24" height="24" viewBox="0 0 24 24" fill="none" xmlns="http://www.w3.org/2000/svg">
<path d="M12 19.404L6.36701 23.6782C6.0879 23.9051 5.78342 24.012 5.45356 23.9989C5.1237 23.9868 4.8319 23.8925 4.57816 23.716C4.32442 23.5395 4.12803 23.2999 3.98898 22.9973C3.84892 22.6947 3.84232 22.3669 3.96919 22.0139L6.13865 15.0163L0.619846 11.1204C0.31536 10.9187 0.125057 10.6539 0.0489352 10.3261C-0.0271863 9.99829 -0.0144992 9.6957 0.086996 9.41832C0.188491 9.14093 0.366108 8.89482 0.619846 8.67998C0.873584 8.46614 1.17807 8.35923 1.5333 8.35923H8.34617L10.5537 1.09691C10.6806 0.743883 10.8775 0.472555 11.1444 0.282928C11.4103 0.0943096 11.6955 0 12 0C12.3045 0 12.5897 0.0943096 12.8556 0.282928C13.1225 0.472555 13.3194 0.743883 13.4463 1.09691L15.6538 8.35923H22.4667C22.8219 8.35923 23.1264 8.46614 23.3802 8.67998C23.6339 8.89482 23.8115 9.14093 23.913 9.41832C24.0145 9.6957 24.0272 9.99829 23.9511 10.3261C23.8749 10.6539 23.6846 10.9187 23.3802 11.1204L17.8614 15.0163L20.0308 22.0139C20.1577 22.3669 20.1516 22.6947 20.0125 22.9973C19.8725 23.2999 19.6756 23.5395 19.4218 23.716C19.1681 23.8925 18.8763 23.9868 18.5464 23.9989C18.2166 24.012 17.9121 23.9051 17.633 23.6782L12 19.404Z" fill="#FFC107"/>
</svg>
