<svg width="7" height="6" viewBox="0 0 7 6" fill="none" xmlns="http://www.w3.org/2000/svg">
<path opacity="0.3" d="M3.11012 0.440847C3.36223 -0.0188994 4.02268 -0.0188994 4.27479 0.440847L4.81259 1.42158C4.91443 1.60731 5.09877 1.73332 5.3088 1.76079L6.38692 1.90178C6.95327 1.97585 7.16815 2.68289 6.73879 3.05957L6.05258 3.66157C5.87567 3.81676 5.79411 4.05398 5.83816 4.28515L6.01221 5.19847C6.11391 5.73211 5.56681 6.15547 5.07576 5.92313L3.9765 5.40301C3.79669 5.31793 3.58821 5.31793 3.4084 5.40301L2.30914 5.92313C1.8181 6.15547 1.271 5.73211 1.37269 5.19847L1.54674 4.28515C1.5908 4.05398 1.50923 3.81676 1.33233 3.66157L0.646119 3.05957C0.216757 2.68289 0.431638 1.97585 0.997984 1.90178L2.07611 1.76079C2.28614 1.73332 2.47047 1.60731 2.57232 1.42158L3.11012 0.440847Z" fill="white"/>
</svg>
