<svg width="8" height="6" viewBox="0 0 8 6" fill="none" xmlns="http://www.w3.org/2000/svg">
<path d="M3.67879 0.440847C3.93089 -0.0188994 4.59134 -0.0188994 4.84345 0.440847L5.38125 1.42158C5.4831 1.60731 5.66743 1.73332 5.87746 1.76079L6.95559 1.90178C7.52193 1.97585 7.73681 2.68289 7.30745 3.05957L6.62124 3.66157C6.44434 3.81676 6.36277 4.05398 6.40683 4.28515L6.58088 5.19847C6.68257 5.73211 6.13547 6.15547 5.64443 5.92313L4.54517 5.40301C4.36536 5.31793 4.15688 5.31793 3.97707 5.40301L2.87781 5.92313C2.38676 6.15547 1.83966 5.73211 1.94136 5.19847L2.11541 4.28515C2.15946 4.05398 2.0779 3.81676 1.90099 3.66157L1.21478 3.05957C0.785421 2.68289 1.0003 1.97585 1.56665 1.90178L2.64477 1.76079C2.8548 1.73332 3.03914 1.60731 3.14098 1.42158L3.67879 0.440847Z" fill="white"/>
</svg>
