<svg width="7" height="6" viewBox="0 0 7 6" fill="none" xmlns="http://www.w3.org/2000/svg">
<path d="M2.95475 0.585643C3.19836 0.0920224 3.90225 0.0920217 4.14587 0.585642L4.54974 1.40398C4.64648 1.6 4.83348 1.73586 5.0498 1.76729L5.95289 1.89852C6.49763 1.97767 6.71514 2.64711 6.32096 3.03134L5.66748 3.66833C5.51095 3.82091 5.43953 4.04074 5.47648 4.25618L5.63074 5.15562C5.7238 5.69816 5.15434 6.1119 4.66711 5.85574L3.85936 5.43109C3.66588 5.32937 3.43474 5.32937 3.24126 5.43109L2.43351 5.85574C1.94628 6.1119 1.37682 5.69816 1.46987 5.15562L1.62414 4.25618C1.66109 4.04074 1.58966 3.82091 1.43313 3.66833L0.779652 3.03134C0.385472 2.64711 0.602985 1.97767 1.14773 1.89852L2.05082 1.76729C2.26713 1.73586 2.45413 1.6 2.55087 1.40398L2.95475 0.585643Z" fill="white"/>
</svg>
