<svg width="68" height="67" viewBox="0 0 68 67" fill="none" xmlns="http://www.w3.org/2000/svg">
<path d="M58.7961 47.8044L59.4512 47.8247C62.199 47.8895 64.4988 45.6893 64.5653 42.9273C64.6318 40.1652 62.4446 37.855 59.6968 37.7902L58.4871 37.7566C61.2349 37.8214 63.5348 35.6213 63.6012 32.8592C63.6677 30.0971 61.3029 27.7999 58.5551 27.7351L54.8238 27.6525L48.7485 27.5078C45.8177 26.0849 44.8975 23.7109 44.8511 21.1186C44.8127 19.1361 45.2641 17.01 45.6978 15.1366C46.2743 12.6639 46.5797 10.0962 45.8408 7.65862C45.1018 5.22107 43.114 2.95022 40.3816 2.30268C39.5127 2.08976 38.5794 2.07541 37.774 2.39996C36.4753 2.91853 35.8237 4.29451 35.7607 5.55925C35.6978 6.824 36.0888 8.09504 36.2789 9.35206C36.5576 11.1483 36.4505 13.0445 35.7025 14.7184C34.2853 18.0208 30.8511 20.1925 27.6502 22.279C25.8516 23.4481 24.1447 24.7504 22.5313 26.1608C21.8859 26.725 21.6514 27.1909 21.3168 28.0052C21.1987 28.2508 20.8575 29.5215 20.4788 29.5204C20.3532 29.5117 6.48677 29.2041 6.48677 29.2041L5.75833 60.2726C8.0018 60.3276 10.2201 60.3809 12.4636 60.4359C15.1863 60.4989 18.9489 59.7715 20.9134 62.0154C21.3573 62.5286 21.7206 63.1124 22.2721 63.5316C24.0003 64.8198 27.3216 64.2647 29.312 64.3274C37.5321 64.4948 45.7252 64.6857 53.9435 64.8784L56.842 64.9537C58.784 64.9877 60.4062 63.451 60.4414 61.4989C60.4766 59.5469 58.949 57.9174 57.0071 57.8834L58.4196 57.9058L58.6206 57.9198C61.3684 57.9846 63.6682 55.7845 63.7347 53.0224C63.7328 50.154 61.5439 47.8692 58.7961 47.8044Z" fill="#FCCD65"/>
<path d="M13.5809 64.7019L2.8661 64.4619C2.23613 64.4434 1.74192 63.9266 1.76086 63.2934L2.6328 26.5491C2.65173 25.9159 3.16618 25.4187 3.79615 25.4373L14.5109 25.6773C15.1409 25.6958 15.6351 26.2126 15.6162 26.8458L14.7425 63.6153C14.7253 64.2233 14.2109 64.7205 13.5809 64.7019Z" fill="#FDB515"/>
</svg>
