<svg width="25" height="25" viewBox="0 0 25 25" fill="none" xmlns="http://www.w3.org/2000/svg">
<path fill-rule="evenodd" clip-rule="evenodd" d="M3.66831 2.10492C2.81639 2.37718 2.23514 3.00532 2.05368 3.84973C2.00435 4.07914 1.99177 5.65435 2.0048 9.97108L2.02233 15.7836L2.14834 16.0924C2.40773 16.7283 2.90718 17.2145 3.5505 17.4576C3.87292 17.5793 3.91719 17.5808 7.82134 17.5965L11.7664 17.6123L11.7821 20.1988L11.7977 22.7854L11.9304 22.8927C12.0572 22.9953 12.1928 23 15.0344 23C17.9308 23 18.0085 22.9972 18.1181 22.8877C18.2237 22.782 18.2304 22.7005 18.2304 21.5118V20.2482H19.1498C19.9949 20.2482 20.0812 20.2388 20.2172 20.1318L20.3653 20.0154V18.8202V17.625L20.7481 17.5929C21.741 17.5097 22.4898 16.9696 22.86 16.0696C22.9764 15.7866 22.9778 15.7224 22.9952 9.97108C23.0082 5.65435 22.9956 4.07914 22.9463 3.84973C22.7605 2.98522 22.1081 2.30468 21.2445 2.07482C21.0053 2.01114 19.4859 1.99822 12.4719 2.00019C4.42107 2.00238 3.9723 2.00771 3.66831 2.10492ZM21.2179 2.89362C21.6037 3.0402 21.9655 3.40051 22.1074 3.77981C22.2164 4.07089 22.2192 4.22521 22.2192 9.76643C22.2192 16.0752 22.2349 15.801 21.849 16.2516C21.5793 16.5665 21.1822 16.7625 20.7276 16.8049L20.3653 16.8387L20.3644 15.4688C20.3638 14.4603 20.3417 14.0061 20.2808 13.7476C20.0596 12.8099 19.362 11.9471 18.5023 11.5482C18.2446 11.4286 17.8998 11.3028 17.7361 11.2686C17.5466 11.2292 16.5962 11.2066 15.1214 11.2066C11.9044 11.2066 12.1035 11.1392 10.4512 12.7863L9.32923 13.9047L8.18989 12.7667L7.05049 11.6288V9.29122C7.05049 7.01138 7.04762 6.95 6.93403 6.80567C6.79161 6.62461 6.53801 6.60838 6.37632 6.77001C6.26773 6.87856 6.26396 6.95718 6.26396 9.11229V11.3423L5.44934 12.1631C4.77821 12.8395 4.63473 13.0126 4.63473 13.1462C4.63473 13.2841 4.89849 13.5728 6.39037 15.068L8.14601 16.8275L6.03924 16.811L3.93247 16.7944L3.64381 16.6422C3.48505 16.5585 3.2633 16.3827 3.151 16.2516C2.76509 15.801 2.78077 16.0752 2.78077 9.76643C2.78077 4.22521 2.78363 4.07089 2.89257 3.77981C3.0319 3.40759 3.39392 3.04199 3.76758 2.89615C4.03685 2.79107 4.28821 2.78787 12.4853 2.78535C20.7572 2.78276 20.9317 2.7849 21.2179 2.89362ZM14.7015 5.65182C13.9692 5.77756 13.3104 6.28221 12.964 6.98285C12.7596 7.39624 12.7529 7.42915 12.7546 8.00259C12.756 8.48061 12.7804 8.65488 12.8806 8.90405C13.2738 9.88162 14.2056 10.4658 15.2819 10.4093C16.9777 10.3203 18.0275 8.50875 17.277 6.96656C16.8152 6.01781 15.7467 5.47239 14.7015 5.65182ZM15.7949 6.54526C16.1015 6.67824 16.4718 7.05417 16.6151 7.37799C16.7764 7.74246 16.7737 8.28215 16.6087 8.65134C16.3496 9.23124 15.8639 9.57718 15.2463 9.62149C14.7136 9.65968 14.3525 9.52765 13.9851 9.16042C13.6177 8.79314 13.4857 8.43226 13.5238 7.89925C13.5544 7.47267 13.6628 7.22518 13.9528 6.91967C14.4349 6.41205 15.1519 6.26632 15.7949 6.54526ZM17.7891 12.1031C18.6106 12.3569 19.2145 12.9606 19.4684 13.7818C19.5715 14.1152 19.5787 14.3135 19.5787 16.8003V19.462H18.9046H18.2304V17.1401C18.2304 14.9983 18.2228 14.8116 18.1321 14.7338C17.9005 14.535 17.6233 14.581 17.5062 14.8377C17.4626 14.9335 17.4439 16.061 17.4439 18.5941V22.2138H15H12.5562V18.3388C12.5562 14.5387 12.554 14.4616 12.4438 14.3515C12.1979 14.1057 12.1008 14.1679 10.9583 15.303C10.3694 15.8881 9.81642 16.3935 9.72946 16.4262C9.50507 16.5104 9.09406 16.4997 8.91568 16.405C8.83225 16.3607 8.0496 15.6085 7.17645 14.7335L5.5889 13.1424L6.06727 12.6668L6.54565 12.191L7.87999 13.524C8.90995 14.5529 9.24636 14.8569 9.35479 14.8569C9.46305 14.8569 9.77873 14.5729 10.7308 13.6188C11.4103 12.9379 12.0503 12.3281 12.153 12.2638C12.5545 12.0126 12.6892 12.0005 15.1205 11.9966C17.2655 11.9931 17.4578 12.0007 17.7891 12.1031ZM11.7697 16.2328V16.8225H11.1667H10.5638L11.1517 16.2328C11.475 15.9085 11.7463 15.6432 11.7546 15.6432C11.7629 15.6432 11.7697 15.9085 11.7697 16.2328Z" fill="black"/>
</svg>
