<svg width="28" height="28" viewBox="0 0 28 28" fill="none" xmlns="http://www.w3.org/2000/svg">
<defs>
<linearGradient id="paint0_linear_349_1673" x1="26.2035" y1="14.5289" x2="1.79688" y2="14.5289" gradientUnits="userSpaceOnUse">
<stop stop-color="#FF2252"/>
<stop offset="1" stop-color="#FC7B04"/>
</linearGradient>
</defs>
<path d="M26.2035 7.00033C25.3052 7.40866 24.3369 7.67699 23.3335 7.80533C24.3602 7.18699 25.1535 6.20699 25.5269 5.02866C24.5585 5.61199 23.4852 6.02033 22.3535 6.25366C21.4319 5.25033 20.1369 4.66699 18.6669 4.66699C15.9252 4.66699 13.6852 6.90699 13.6852 9.67199C13.6852 10.0687 13.7319 10.4537 13.8135 10.8153C9.66021 10.6053 5.96187 8.61033 3.50021 5.58866C3.06854 6.32366 2.82354 7.18699 2.82354 8.09699C2.82354 9.83533 3.69854 11.3753 5.05187 12.2503C4.22354 12.2503 3.45354 12.017 2.77688 11.667V11.702C2.77688 14.1287 4.50354 16.1587 6.79021 16.6137C6.05606 16.8146 5.28532 16.8425 4.53854 16.6953C4.85542 17.6899 5.476 18.5601 6.31306 19.1837C7.15012 19.8074 8.16156 20.153 9.20521 20.172C7.43611 21.5725 5.2432 22.3295 2.98687 22.3187C2.59021 22.3187 2.19354 22.2953 1.79688 22.2487C4.01354 23.672 6.65021 24.5003 9.47354 24.5003C18.6669 24.5003 23.7185 16.8703 23.7185 10.2553C23.7185 10.0337 23.7185 9.82366 23.7069 9.60199C24.6869 8.90199 25.5269 8.01533 26.2035 7.00033V7.00033Z" fill="url(#paint0_linear_349_1673)"/>
</svg>
