<svg width="24" height="24" viewBox="0 0 24 24" fill="none" xmlns="http://www.w3.org/2000/svg">
<g clip-path="url(#clip0_1035_2689)">
<path d="M12 15.3333C11.3407 15.3333 10.6963 15.1378 10.1481 14.7716C9.59994 14.4053 9.17269 13.8847 8.9204 13.2756C8.66811 12.6665 8.6021 11.9963 8.73072 11.3497C8.85933 10.7031 9.1768 10.1092 9.64298 9.64298C10.1092 9.1768 10.7031 8.85933 11.3497 8.73072C11.9963 8.6021 12.6665 8.66811 13.2756 8.9204C13.8847 9.17269 14.4053 9.59994 14.7716 10.1481C15.1378 10.6963 15.3333 11.3407 15.3333 12C15.3333 12.8841 14.9821 13.7319 14.357 14.357C13.7319 14.9821 12.8841 15.3333 12 15.3333ZM12 10.3333C11.6704 10.3333 11.3481 10.4311 11.074 10.6142C10.8 10.7974 10.5863 11.0577 10.4602 11.3622C10.3341 11.6667 10.301 12.0018 10.3654 12.3252C10.4297 12.6485 10.5884 12.9454 10.8215 13.1785C11.0546 13.4116 11.3515 13.5703 11.6748 13.6346C11.9982 13.699 12.3333 13.6659 12.6378 13.5398C12.9423 13.4137 13.2026 13.2 13.3858 12.926C13.5689 12.6519 13.6667 12.3296 13.6667 12C13.6667 11.558 13.4911 11.1341 13.1785 10.8215C12.866 10.5089 12.442 10.3333 12 10.3333ZM17 21.1667C17 19.8406 16.4732 18.5688 15.5355 17.6311C14.5979 16.6935 13.3261 16.1667 12 16.1667C10.6739 16.1667 9.40215 16.6935 8.46447 17.6311C7.52678 18.5688 7 19.8406 7 21.1667C7 21.3877 7.0878 21.5996 7.24408 21.7559C7.40036 21.9122 7.61232 22 7.83333 22C8.05435 22 8.26631 21.9122 8.42259 21.7559C8.57887 21.5996 8.66667 21.3877 8.66667 21.1667C8.66667 20.2826 9.01786 19.4348 9.64298 18.8096C10.2681 18.1845 11.1159 17.8333 12 17.8333C12.8841 17.8333 13.7319 18.1845 14.357 18.8096C14.9821 19.4348 15.3333 20.2826 15.3333 21.1667C15.3333 21.3877 15.4211 21.5996 15.5774 21.7559C15.7337 21.9122 15.9457 22 16.1667 22C16.3877 22 16.5996 21.9122 16.7559 21.7559C16.9122 21.5996 17 21.3877 17 21.1667ZM17 8.66667C16.3407 8.66667 15.6963 8.47117 15.1481 8.1049C14.5999 7.73863 14.1727 7.21803 13.9204 6.60895C13.6681 5.99986 13.6021 5.32964 13.7307 4.68303C13.8593 4.03643 14.1768 3.44249 14.643 2.97631C15.1092 2.51014 15.7031 2.19267 16.3497 2.06405C16.9963 1.93543 17.6665 2.00144 18.2756 2.25374C18.8847 2.50603 19.4053 2.93327 19.7716 3.48143C20.1378 4.0296 20.3333 4.67406 20.3333 5.33333C20.3333 6.21739 19.9821 7.06524 19.357 7.69036C18.7319 8.31548 17.8841 8.66667 17 8.66667ZM17 3.66667C16.6704 3.66667 16.3481 3.76442 16.074 3.94755C15.8 4.13069 15.5863 4.39099 15.4602 4.69553C15.3341 5.00007 15.301 5.33518 15.3654 5.65849C15.4297 5.98179 15.5884 6.27876 15.8215 6.51185C16.0546 6.74493 16.3515 6.90367 16.6748 6.96798C16.9982 7.03229 17.3333 6.99928 17.6378 6.87313C17.9423 6.74699 18.2026 6.53337 18.3858 6.25928C18.5689 5.9852 18.6667 5.66297 18.6667 5.33333C18.6667 4.89131 18.4911 4.46738 18.1785 4.15482C17.8659 3.84226 17.442 3.66667 17 3.66667ZM22 14.5C21.9987 13.1743 21.4715 11.9033 20.5341 10.9659C19.5967 10.0285 18.3257 9.50132 17 9.5C16.779 9.5 16.567 9.5878 16.4107 9.74408C16.2545 9.90036 16.1667 10.1123 16.1667 10.3333C16.1667 10.5543 16.2545 10.7663 16.4107 10.9226C16.567 11.0789 16.779 11.1667 17 11.1667C17.8841 11.1667 18.7319 11.5179 19.357 12.143C19.9821 12.7681 20.3333 13.6159 20.3333 14.5C20.3333 14.721 20.4211 14.933 20.5774 15.0893C20.7337 15.2455 20.9457 15.3333 21.1667 15.3333C21.3877 15.3333 21.5996 15.2455 21.7559 15.0893C21.9122 14.933 22 14.721 22 14.5ZM7 8.66667C6.34073 8.66667 5.69626 8.47117 5.1481 8.1049C4.59994 7.73863 4.17269 7.21803 3.9204 6.60895C3.66811 5.99986 3.6021 5.32964 3.73072 4.68303C3.85933 4.03643 4.1768 3.44249 4.64298 2.97631C5.10915 2.51014 5.7031 2.19267 6.3497 2.06405C6.9963 1.93543 7.66652 2.00144 8.27561 2.25374C8.8847 2.50603 9.40529 2.93327 9.77156 3.48143C10.1378 4.0296 10.3333 4.67406 10.3333 5.33333C10.3333 6.21739 9.98214 7.06524 9.35702 7.69036C8.7319 8.31548 7.88405 8.66667 7 8.66667V8.66667ZM7 3.66667C6.67036 3.66667 6.34813 3.76442 6.07405 3.94755C5.79997 4.13069 5.58635 4.39099 5.4602 4.69553C5.33405 5.00007 5.30105 5.33518 5.36536 5.65849C5.42967 5.98179 5.5884 6.27876 5.82149 6.51185C6.05458 6.74493 6.35155 6.90367 6.67485 6.96798C6.99815 7.03229 7.33326 6.99928 7.63781 6.87313C7.94235 6.74699 8.20265 6.53337 8.38578 6.25928C8.56892 5.9852 8.66667 5.66297 8.66667 5.33333C8.66667 4.89131 8.49107 4.46738 8.17851 4.15482C7.86595 3.84226 7.44203 3.66667 7 3.66667ZM3.66667 14.5C3.66667 13.6159 4.01786 12.7681 4.64298 12.143C5.2681 11.5179 6.11594 11.1667 7 11.1667C7.22101 11.1667 7.43298 11.0789 7.58926 10.9226C7.74554 10.7663 7.83333 10.5543 7.83333 10.3333C7.83333 10.1123 7.74554 9.90036 7.58926 9.74408C7.43298 9.5878 7.22101 9.5 7 9.5C5.67432 9.50132 4.40332 10.0285 3.46593 10.9659C2.52853 11.9033 2.00132 13.1743 2 14.5C2 14.721 2.0878 14.933 2.24408 15.0893C2.40036 15.2455 2.61232 15.3333 2.83333 15.3333C3.05435 15.3333 3.26631 15.2455 3.42259 15.0893C3.57887 14.933 3.66667 14.721 3.66667 14.5Z" fill="#0E1638"/>
</g>
<defs>
<clipPath id="clip0_1035_2689">
<rect width="24" height="24" fill="white"/>
</clipPath>
</defs>
</svg>
