<svg width="24" height="24" viewBox="0 0 24 24" fill="none" xmlns="http://www.w3.org/2000/svg">
<defs>
<clipPath id="clip0_994_2324">
<rect width="20" height="19" fill="white" transform="translate(2 2)"/>
</clipPath>
</defs>
<g clip-path="url(#clip0_994_2324)">
<path d="M2 18.7217C2 15.1397 2 11.5572 2 7.97511C2.01017 7.95706 2.02797 7.93943 2.03008 7.92052C2.1572 6.81534 3.1517 5.67964 4.68347 5.71145C5.70551 5.73294 6.72839 5.71532 7.75085 5.71532C7.83305 5.71532 7.91525 5.71532 8.01907 5.71532C8.01907 5.31984 8.01229 4.9493 8.02034 4.57919C8.03941 3.71731 8.38644 3.02308 9.06525 2.49907C9.42161 2.22396 9.83729 2.10145 10.2627 2C11.4208 2 12.5792 2 13.7373 2C13.7623 2.01161 13.786 2.02923 13.8123 2.03396C14.9924 2.25018 15.7822 3.0536 15.9483 4.2598C16.0034 4.66043 15.9725 5.0731 15.9814 5.48018C15.9831 5.55498 15.9877 5.62977 15.9911 5.71532C16.1013 5.71532 16.1856 5.71532 16.2699 5.71532C17.3064 5.71532 18.3432 5.71188 19.3797 5.71618C20.3936 5.72048 21.1797 6.15292 21.6758 7.05606C21.8297 7.33634 21.8945 7.6669 22 7.97468V18.7213C21.9869 18.7613 21.9695 18.8008 21.9619 18.8417C21.7746 19.8351 21.2068 20.5035 20.278 20.8569C20.1093 20.9209 19.9292 20.9527 19.7542 20.9996H4.24576C4.21398 20.9871 4.18305 20.9678 4.15 20.9626C3.44873 20.8491 2.89703 20.4906 2.475 19.9167C2.21314 19.5608 2.09237 19.1473 2 18.7217ZM14.8398 13.1687C14.8398 13.2689 14.8407 13.3458 14.8398 13.4228C14.8297 14.1669 14.2966 14.7459 13.5669 14.7575C12.5225 14.7743 11.4771 14.7726 10.4322 14.7575C9.78686 14.7485 9.27373 14.2752 9.175 13.6351C9.15254 13.489 9.15847 13.3385 9.15 13.1687C9.05593 13.1687 8.97331 13.1687 8.89025 13.1687C7.73941 13.1687 6.58856 13.17 5.43771 13.1683C4.56356 13.167 3.79068 12.8863 3.13178 12.2961C3.10339 12.2703 3.06949 12.251 3.025 12.2192C3.02119 12.2707 3.01695 12.2987 3.01695 12.3266C3.01695 14.3607 3.01229 16.3953 3.01907 18.4294C3.02203 19.3085 3.70254 19.9662 4.59153 19.9662C9.52712 19.9675 14.4623 19.9675 19.3979 19.9662C20.3284 19.9662 20.9814 19.3003 20.9822 18.3529C20.9839 16.376 20.9831 14.399 20.9822 12.4221C20.9822 12.3619 20.975 12.3021 20.9703 12.2291C20.9335 12.2497 20.9136 12.2561 20.8992 12.269C20.1924 12.9168 19.3551 13.1816 18.4123 13.1713C17.3038 13.1593 16.1953 13.1683 15.0869 13.1683H14.8394L14.8398 13.1687ZM14.8572 12.1048C16.1551 12.1048 17.4394 12.1194 18.7233 12.1001C19.7568 12.0846 20.6619 11.344 20.8975 10.3183C21.0703 9.56561 21.0301 8.78928 20.9449 8.03229C20.8542 7.22844 20.2021 6.74742 19.3479 6.74742C14.4487 6.74656 9.54958 6.74699 4.65042 6.74742C4.56568 6.74742 4.48093 6.75086 4.39661 6.75903C3.62076 6.83511 3.0322 7.47561 3.01992 8.26828C3.01186 8.77681 3.00975 9.28534 3.02119 9.79344C3.04915 11.037 4.02966 12.073 5.25297 12.1022C6.52288 12.1328 7.79407 12.1126 9.06483 12.1134C9.0911 12.1134 9.11737 12.1035 9.14958 12.0971C9.15381 12.0623 9.15932 12.0352 9.16017 12.0077C9.19534 10.9992 9.67669 10.5298 10.6763 10.5298C11.6153 10.5298 12.5542 10.5354 13.4928 10.5268C14.1394 10.5208 14.675 10.9317 14.8076 11.5731C14.8419 11.7386 14.8407 11.9118 14.8576 12.1048H14.8572ZM14.9534 5.70801C14.9534 5.25622 14.9898 4.82378 14.9453 4.40036C14.8631 3.61586 14.2318 3.04414 13.4725 3.0364C12.4911 3.02652 11.5093 3.02781 10.5275 3.0364C9.88602 3.04199 9.3161 3.46885 9.12076 4.08699C8.95339 4.61701 9.06653 5.16165 9.0322 5.70801H14.953H14.9534ZM12.0021 13.7031C12.4814 13.7031 12.9606 13.7039 13.4403 13.7031C13.7364 13.7022 13.822 13.6175 13.8233 13.3252C13.825 12.8605 13.825 12.3954 13.8233 11.9307C13.8225 11.6522 13.7297 11.5529 13.4581 11.552C12.4852 11.5499 11.5127 11.5499 10.5398 11.552C10.2703 11.5529 10.1792 11.653 10.1784 11.9342C10.1771 12.3988 10.1767 12.864 10.1784 13.3286C10.1792 13.6119 10.2657 13.7013 10.5432 13.7026C11.0297 13.7048 11.5161 13.7031 12.0025 13.7031H12.0021Z" fill="#5A5F73"/>
</g>
</svg>
