<svg width="24" height="24" viewBox="0 0 24 24" fill="none" xmlns="http://www.w3.org/2000/svg">
<g clip-path="url(#clip0_349_874)">
<path d="M21.9999 12.4297C21.9905 12.4465 21.9772 12.4625 21.9722 12.4805C21.7628 13.2656 21.2421 13.6691 20.4292 13.6695C18.535 13.6707 16.6409 13.6695 14.7468 13.6695C14.6167 13.6695 14.4862 13.6707 14.3561 13.6695C13.4565 13.6594 12.837 13.0414 12.8307 12.1426C12.8265 11.5113 12.83 10.8797 12.83 10.2484C12.83 8.0875 12.83 5.92656 12.83 3.76523C12.83 2.73047 13.1022 2.34297 14.0702 2H20.789C21.1265 2.10586 21.4612 2.23437 21.662 2.53984C21.8046 2.75664 21.8893 3.01211 21.9999 3.25V12.4297ZM20.7499 7.8418C20.7499 6.42305 20.7499 5.00469 20.7499 3.58594C20.7499 3.29844 20.7003 3.25 20.4069 3.25C18.4093 3.25 16.4116 3.25 14.414 3.25C14.1382 3.25 14.0807 3.30547 14.0807 3.57852C14.0804 6.41563 14.0804 9.25273 14.0807 12.0898C14.0807 12.3598 14.1417 12.4195 14.4171 12.4195C16.4147 12.4199 18.4124 12.4199 20.41 12.4195C20.6964 12.4195 20.7503 12.3648 20.7503 12.0777C20.7503 10.6656 20.7503 9.25352 20.7503 7.84141L20.7499 7.8418Z" fill="#5A5F73"/>
<path d="M2 11.5703C2.0293 11.4777 2.05547 11.384 2.08867 11.293C2.2957 10.7231 2.81758 10.3375 3.45391 10.3344C5.53672 10.325 7.61992 10.3223 9.70273 10.3344C10.5699 10.3395 11.1676 10.9856 11.1691 11.8766C11.1723 13.5363 11.1699 15.1961 11.1699 16.8559C11.1699 17.9754 11.1699 19.0949 11.1699 20.2145C11.1699 21.2699 10.9059 21.65 9.92969 21.9992H3.25C2.78906 21.8895 2.40742 21.6649 2.17969 21.2336C2.10547 21.0926 2.05898 20.9371 2 20.7883C2 17.7152 2 14.6426 2 11.5695V11.5703ZM3.25 16.1527C3.25 17.5715 3.25 18.9899 3.25 20.4086C3.25 20.7004 3.29922 20.75 3.5875 20.75C5.58516 20.75 7.58281 20.75 9.58047 20.75C9.86523 20.75 9.91953 20.6957 9.91953 20.407C9.91953 17.5828 9.91953 14.759 9.91953 11.9348C9.91953 11.6352 9.86523 11.5805 9.56875 11.5805C7.57773 11.5805 5.58633 11.5805 3.59531 11.5805C3.29922 11.5805 3.25 11.632 3.25 11.9363C3.25 13.3418 3.25 14.7473 3.25 16.1531V16.1527Z" fill="#5A5F73"/>
<path d="M9.92978 2C10.1724 2.11797 10.4403 2.20195 10.6521 2.36133C11.0165 2.63555 11.1677 3.03945 11.1688 3.4918C11.172 4.72187 11.1778 5.95195 11.1673 7.18203C11.1599 8.03906 10.5407 8.66289 9.68291 8.6668C7.61963 8.67617 5.55674 8.67383 3.49346 8.66758C2.75908 8.66523 2.21768 8.22617 2.03604 7.51953C2.02822 7.48867 2.0126 7.45977 2.00049 7.42969C2.00049 6.02344 2.00049 4.61719 2.00049 3.21094C2.02432 3.14531 2.0501 3.08008 2.07197 3.01406C2.20439 2.61758 2.45596 2.32422 2.83447 2.14609C2.95596 2.08906 3.08525 2.04805 3.21104 2C5.45049 2 7.69033 2 9.92978 2ZM6.59346 3.25C5.57861 3.25 4.56377 3.24961 3.54893 3.25C3.3126 3.25 3.25049 3.31289 3.25049 3.55156C3.24971 4.73555 3.24971 5.91953 3.25049 7.10352C3.25049 7.3543 3.31182 7.41875 3.55791 7.41875C5.57471 7.41953 7.5915 7.41953 9.60791 7.41875C9.85478 7.41875 9.91924 7.35273 9.91963 7.10391C9.9208 5.92656 9.9208 4.74883 9.91963 3.57148C9.91963 3.30937 9.85908 3.24961 9.59932 3.24961C8.59736 3.24922 7.59541 3.24961 6.59385 3.24961L6.59346 3.25Z" fill="#5A5F73"/>
<path d="M14.0703 22C13.9309 21.9492 13.7844 21.9121 13.6532 21.8457C13.1235 21.5774 12.8414 21.1348 12.8352 20.5469C12.8223 19.2906 12.818 18.0344 12.836 16.7781C12.8481 15.9352 13.4832 15.3356 14.3375 15.3317C15.8344 15.325 17.3317 15.3297 18.8286 15.3297C19.3621 15.3297 19.8961 15.3285 20.4297 15.3297C21.243 15.3317 21.7629 15.7336 21.9723 16.5188C21.977 16.5367 21.9907 16.5527 22 16.5695V20.7492C21.8981 20.9766 21.8219 21.2207 21.6879 21.427C21.4723 21.7582 21.1231 21.9067 20.75 21.9992H14.0703V22ZM17.4114 20.75C18.4133 20.75 19.4153 20.75 20.4168 20.75C20.6965 20.75 20.7496 20.6981 20.7496 20.4235C20.75 19.2524 20.7496 18.0813 20.7496 16.9106C20.7496 16.6387 20.6922 16.5809 20.4172 16.5809C18.4133 16.5805 16.4098 16.5805 14.4059 16.5809C14.1442 16.5809 14.0805 16.6434 14.0801 16.9008C14.0789 18.0781 14.0789 19.2559 14.0801 20.4332C14.0801 20.691 14.1422 20.75 14.4055 20.7504C15.4075 20.7508 16.4094 20.7504 17.411 20.7504L17.4114 20.75Z" fill="#5A5F73"/>
</g>
<defs>
<clipPath id="clip0_349_874">
<rect width="20" height="20" fill="white" transform="translate(2 2)"/>
</clipPath>
</defs>
</svg>
