<svg width="24" height="24" viewBox="0 0 24 24" fill="none" xmlns="http://www.w3.org/2000/svg">
<mask id="path-1-outside-1_1035_2716" maskUnits="userSpaceOnUse" x="2" y="2" width="21" height="21" fill="black">
<rect fill="white" x="2" y="2" width="21" height="21"/>
<path fill-rule="evenodd" clip-rule="evenodd" d="M21.7913 12.7506V19.3209C21.7913 20.0315 21.509 20.7129 21.0066 21.2154C20.5041 21.7178 19.8227 22.0001 19.1121 22.0001H5.67913C4.96858 22.0001 4.28713 21.7178 3.7847 21.2154C3.28226 20.7129 3 20.0315 3 19.3209V12.7506C2.99995 12.1574 3.121 11.5703 3.35574 11.0255C3.59047 10.4808 3.93394 9.98966 4.36511 9.58227M4.36511 9.58227L10.5551 3.73232C11.0525 3.26212 11.7112 3 12.3956 3C13.0801 3 13.7386 3.26199 14.2361 3.73219L20.426 9.58216C20.8573 9.98957 21.2008 10.4807 21.4355 11.0255C21.6703 11.5703 21.7913 12.1574 21.7913 12.7506"/>
</mask>
<path d="M10.8986 4.09565C10.6979 4.28536 10.689 4.60182 10.8787 4.80248C11.0685 5.00314 11.3849 5.01202 11.5856 4.82231L10.8986 4.09565ZM13.5492 4.45898L13.2057 4.82231L13.2058 4.82237L13.5492 4.45898ZM19.7393 10.3091L19.3959 10.6724L19.3959 10.6725L19.7393 10.3091ZM20.5172 11.4213L20.058 11.6191L20.058 11.6191L20.5172 11.4213ZM20.7913 12.7505L20.2913 12.7505V12.7505H20.7913ZM20.2995 20.5083L19.9459 20.1547L20.2995 20.5083ZM4.4918 20.5083L4.84536 20.1547H4.84536L4.4918 20.5083ZM4 12.7505H4.5V12.7505L4 12.7505ZM4.7333 11.6191C4.84258 11.3655 4.72557 11.0713 4.47197 10.9621C4.21837 10.8528 3.9242 10.9698 3.81493 11.2234L4.7333 11.6191ZM12.3956 3.5C11.8388 3.5 11.3032 3.71313 10.8986 4.09565L11.5856 4.82231C11.8045 4.61533 12.0944 4.5 12.3956 4.5V3.5ZM13.8927 4.09565C13.4881 3.71313 12.9524 3.5 12.3956 3.5V4.5C12.6969 4.5 12.9868 4.61533 13.2057 4.82231L13.8927 4.09565ZM20.0827 9.94566L13.8926 4.09558L13.2058 4.82237L19.3959 10.6724L20.0827 9.94566ZM20.9763 11.2234C20.7685 10.7411 20.4644 10.3063 20.0827 9.94561L19.3959 10.6725C19.6787 10.9397 19.904 11.2618 20.058 11.6191L20.9763 11.2234ZM21.2913 12.7506C21.2913 12.2254 21.1842 11.7057 20.9763 11.2234L20.058 11.6191C20.2119 11.9764 20.2913 12.3614 20.2913 12.7505L21.2913 12.7506ZM21.2913 19.3209V12.7505H20.2913V19.3209H21.2913ZM20.653 20.8618C21.0617 20.4531 21.2913 19.8989 21.2913 19.3209H20.2913C20.2913 19.6337 20.167 19.9336 19.9459 20.1547L20.653 20.8618ZM19.1121 21.5001C19.6901 21.5001 20.2444 21.2705 20.653 20.8618L19.9459 20.1547C19.7248 20.3758 19.4249 20.5001 19.1121 20.5001V21.5001ZM5.67913 21.5001H19.1121V20.5001H5.67913V21.5001ZM4.13825 20.8618C4.54692 21.2705 5.10119 21.5001 5.67913 21.5001V20.5001C5.3664 20.5001 5.06649 20.3758 4.84536 20.1547L4.13825 20.8618ZM3.5 19.3209C3.5 19.8989 3.72959 20.4531 4.13825 20.8618L4.84536 20.1547C4.62423 19.9336 4.5 19.6337 4.5 19.3209H3.5ZM3.5 12.7505V19.3209H4.5V12.7505H3.5ZM3.81493 11.2234C3.60711 11.7057 3.49994 12.2254 3.5 12.7506L4.5 12.7505C4.49996 12.3614 4.57935 11.9764 4.7333 11.6191L3.81493 11.2234ZM21.7913 12.7506L20.7913 12.7505V12.7506H21.7913ZM21.0066 21.2154L21.7137 21.9225H21.7137L21.0066 21.2154ZM3.7847 21.2154L4.49181 20.5083L4.4918 20.5083L3.7847 21.2154ZM3 12.7506H4V12.7505L3 12.7506ZM3.35574 11.0255L4.27412 11.4213L3.35574 11.0255ZM4.36511 9.58227L5.05189 10.3091L5.05197 10.3091L4.36511 9.58227ZM10.5551 3.73232L11.2419 4.45911L11.242 4.45902L10.5551 3.73232ZM14.2361 3.73219L13.5491 4.4589L13.5492 4.45898L14.2361 3.73219ZM20.426 9.58216L19.7392 10.3089L19.7393 10.3091L20.426 9.58216ZM21.4355 11.0255L22.3539 10.6298V10.6298L21.4355 11.0255ZM22.7913 19.3209V12.7506H20.7913V19.3209H22.7913ZM21.7137 21.9225C22.4037 21.2325 22.7913 20.2967 22.7913 19.3209H20.7913C20.7913 19.7663 20.6144 20.1934 20.2995 20.5083L21.7137 21.9225ZM19.1121 23.0001C20.0879 23.0001 21.0237 22.6124 21.7137 21.9225L20.2995 20.5083C19.9846 20.8232 19.5575 21.0001 19.1121 21.0001V23.0001ZM5.67913 23.0001H19.1121V21.0001H5.67913V23.0001ZM3.07759 21.9225C3.76756 22.6124 4.70336 23.0001 5.67913 23.0001V21.0001C5.23379 21.0001 4.8067 20.8232 4.49181 20.5083L3.07759 21.9225ZM2 19.3209C2 20.2967 2.38762 21.2325 3.07759 21.9225L4.4918 20.5083C4.17691 20.1934 4 19.7663 4 19.3209H2ZM2 12.7506V19.3209H4V12.7506H2ZM2.43736 10.6298C2.14876 11.2996 1.99994 12.0214 2 12.7507L4 12.7505C3.99996 12.2934 4.09325 11.841 4.27412 11.4213L2.43736 10.6298ZM3.67833 8.8554C3.14823 9.35626 2.72595 9.96007 2.43736 10.6298L4.27412 11.4213C4.45499 11.0015 4.71965 10.6231 5.05189 10.3091L3.67833 8.8554ZM9.86821 3.00553L3.67825 8.85548L5.05197 10.3091L11.2419 4.45911L9.86821 3.00553ZM12.3956 2C11.4556 2 10.5512 2.35996 9.86813 3.00561L11.242 4.45902C11.5538 4.16428 11.9667 4 12.3956 4V2ZM14.923 3.00549C14.2399 2.35978 13.3356 2 12.3956 2V4C12.8246 4 13.2374 4.1642 13.5491 4.4589L14.923 3.00549ZM21.1129 8.85538L14.9229 3.0054L13.5492 4.45898L19.7392 10.3089L21.1129 8.85538ZM22.3539 10.6298C22.0653 9.96001 21.643 9.35616 21.1128 8.85527L19.7393 10.3091C20.0716 10.623 20.3363 11.0014 20.5172 11.4213L22.3539 10.6298ZM22.7913 12.7507C22.7913 12.0214 22.6425 11.2996 22.3539 10.6298L20.5172 11.4213C20.698 11.841 20.7913 12.2934 20.7913 12.7505L22.7913 12.7507Z" fill="#0E1638" mask="url(#path-1-outside-1_1035_2716)"/>
<path d="M12 17.5C11.0717 17.5 10.1815 17.1313 9.52513 16.4749C8.86875 15.8185 8.5 14.9283 8.5 14C8.5 13.0717 8.86875 12.1815 9.52513 11.5251C10.1815 10.8687 11.0717 10.5 12 10.5C12.9283 10.5 13.8185 10.8687 14.4749 11.5251C15.1313 12.1815 15.5 13.0717 15.5 14C15.5 14.9283 15.1313 15.8185 14.4749 16.4749C13.8185 17.1313 12.9283 17.5 12 17.5ZM12 18C13.0609 18 14.0783 17.5786 14.8284 16.8284C15.5786 16.0783 16 15.0609 16 14C16 12.9391 15.5786 11.9217 14.8284 11.1716C14.0783 10.4214 13.0609 10 12 10C10.9391 10 9.92172 10.4214 9.17157 11.1716C8.42143 11.9217 8 12.9391 8 14C8 15.0609 8.42143 16.0783 9.17157 16.8284C9.92172 17.5786 10.9391 18 12 18V18Z" fill="#0E1638"/>
</svg>
