<svg width="24" height="24" viewBox="0 0 24 24" fill="none" xmlns="http://www.w3.org/2000/svg">
<g clip-path="url(#clip0_349_1777)">
<path d="M3 18.8779C3.00755 18.7672 3.02139 18.6565 3.02139 18.5457C3.02265 13.9388 3.02391 9.33181 3.02139 4.72485C3.02097 3.70555 3.43624 2.91738 4.2995 2.37376C4.7047 2.1183 5.15394 2.00169 5.63381 2.00169C9.83515 2.00169 14.0369 1.99624 18.2383 2.00547C19.4715 2.0084 20.3612 2.92199 20.3637 4.15102C20.3679 6.15018 20.3658 8.14976 20.3637 10.1493C20.3637 10.5264 20.1141 10.7949 19.7701 10.802C19.4203 10.8092 19.1628 10.5373 19.1535 10.1493C19.1518 10.0864 19.1535 10.0235 19.1535 9.96058C19.1535 8.02392 19.1544 6.08768 19.1527 4.15102C19.1527 3.70849 18.9224 3.36746 18.5357 3.25463C18.3976 3.21436 18.2462 3.20639 18.1011 3.20597C16.06 3.20303 14.0185 3.20387 11.9769 3.20387C10.6976 3.20387 9.4182 3.20387 8.13884 3.20387C8.05705 3.20387 7.97567 3.20387 7.88591 3.20387V16.7567C7.97945 16.7567 8.06082 16.7567 8.14262 16.7567C8.96057 16.7567 9.77852 16.7538 10.5965 16.758C11.0143 16.7601 11.2747 17.0017 11.2714 17.3675C11.2685 17.677 11.039 17.9291 10.7299 17.9572C10.6464 17.9648 10.5621 17.9623 10.4782 17.9623C8.89136 17.9623 7.30411 17.9765 5.7177 17.9581C4.39933 17.9425 4.00545 19.2227 4.4245 20.0579C4.69421 20.5956 5.15604 20.7945 5.73238 20.7936C7.06753 20.7915 8.40268 20.7928 9.73825 20.7936C9.82215 20.7936 9.90646 20.7932 9.98951 20.8012C10.2999 20.8318 10.5294 21.0847 10.5302 21.3926C10.531 21.6997 10.3016 21.9547 9.99329 21.9895C9.9656 21.9925 9.9375 21.995 9.90981 21.995C8.44882 21.9933 6.98742 22.0134 5.52685 21.9832C4.24077 21.9568 3.18414 20.9446 3.03565 19.6653C3.03104 19.6259 3.01216 19.5877 3 19.5491C3 19.3255 3 19.1015 3 18.8779H3ZM4.22651 17.1892C4.99706 16.6393 5.84396 16.7823 6.66904 16.7517V16.4686C6.66904 12.1414 6.66904 7.81419 6.66904 3.48701C6.66904 3.42409 6.67785 3.35865 6.66275 3.29951C6.65352 3.26344 6.60487 3.20891 6.57634 3.21058C6.10403 3.23324 5.61619 3.198 5.16443 3.30874C4.56166 3.45639 4.22777 4.02896 4.22735 4.71688C4.22651 8.79238 4.22693 12.8679 4.22693 16.9434C4.22693 17.0046 4.22693 17.0654 4.22693 17.1896L4.22651 17.1892Z" fill="#5A5F73"/>
<path d="M21.7081 14.5575C21.6779 14.7139 21.6557 14.8725 21.6159 15.026C21.5127 15.4203 21.3038 15.7542 21.0164 16.0415C19.2518 17.8049 17.4854 19.5658 15.7266 21.3351C15.4195 21.6439 15.032 21.6971 14.6398 21.763C14.227 21.8322 13.8143 21.9031 13.4011 21.9719C12.5135 22.1204 11.8386 21.4488 11.9888 20.5654C12.081 20.0218 12.1771 19.479 12.2673 18.935C12.3109 18.6711 12.4208 18.445 12.6104 18.2559C14.3893 16.4773 16.162 14.6925 17.9502 12.9232C18.5945 12.2856 19.3864 12.1317 20.2358 12.4169C21.0823 12.7009 21.5471 13.3263 21.6742 14.2064C21.6809 14.2542 21.6972 14.3003 21.709 14.3473V14.557L21.7081 14.5575ZM17.2438 15.2852C17.2094 15.3318 17.1708 15.4002 17.1175 15.4534C16.076 16.4975 15.0462 17.5541 13.9825 18.5751C13.6062 18.9362 13.3541 19.3112 13.3256 19.8414C13.3084 20.164 13.2312 20.4828 13.1763 20.8339C13.7081 20.7278 14.201 20.6355 14.6905 20.5273C14.7979 20.5033 14.9128 20.4429 14.9909 20.3653C16.18 19.1825 17.3642 17.9937 18.5487 16.8062C18.5911 16.7638 18.6284 16.7164 18.6498 16.6921C18.1851 16.2269 17.732 15.7731 17.2442 15.2848L17.2438 15.2852ZM19.5366 15.7747C19.7732 15.5486 20.0261 15.3364 20.2438 15.0923C20.581 14.7148 20.5609 14.1606 20.2232 13.7949C19.8885 13.4325 19.3306 13.3465 18.9531 13.6573C18.6725 13.8884 18.4523 14.1925 18.2153 14.4534C18.6372 14.875 19.0898 15.328 19.5366 15.7743V15.7747Z" fill="#5A5F73"/>
<path d="M13.5189 7.63927C12.5336 7.63927 11.5487 7.64053 10.5633 7.63843C10.2554 7.63759 10.0424 7.48785 9.95344 7.22233C9.84563 6.90144 10.0277 6.54825 10.3549 6.4631C10.4614 6.43541 10.5759 6.43122 10.6867 6.43122C12.573 6.42954 14.4597 6.42954 16.3461 6.4308C16.4367 6.4308 16.5285 6.43206 16.617 6.448C16.9274 6.50504 17.1359 6.7735 17.1128 7.07719C17.0893 7.38634 16.8515 7.6183 16.5369 7.63675C16.4744 7.64053 16.4111 7.63885 16.3482 7.63885C15.4048 7.63885 14.4618 7.63885 13.5185 7.63885L13.5189 7.63927Z" fill="#5A5F73"/>
<path d="M13.5084 10.1544C13.0478 10.1544 12.5872 10.1564 12.1266 10.1539C11.7344 10.1518 11.4685 9.90603 11.4685 9.55116C11.4685 9.1963 11.7311 8.94714 12.1262 8.94546C13.0545 8.94168 13.9828 8.94168 14.911 8.94546C15.2999 8.94714 15.5759 9.20511 15.5759 9.55074C15.5759 9.8989 15.3003 10.1518 14.9115 10.1539C14.4438 10.1564 13.9761 10.1544 13.5088 10.1544H13.5084Z" fill="#5A5F73"/>
</g>
<defs>
<clipPath id="clip0_349_1777">
<rect width="18.7081" height="20" fill="white" transform="translate(3 2)"/>
</clipPath>
</defs>
</svg>
