<svg width="19" height="19" viewBox="0 0 19 19" fill="none" xmlns="http://www.w3.org/2000/svg">
<path fill-rule="evenodd" clip-rule="evenodd" d="M18.7913 9.75061V16.3209C18.7913 17.0315 18.509 17.7129 18.0066 18.2154C17.5041 18.7178 16.8227 19.0001 16.1121 19.0001H2.67913C1.96858 19.0001 1.28713 18.7178 0.784698 18.2154C0.282264 17.7129 1.46507e-08 17.0315 1.46507e-08 16.3209V9.75061C1.46507e-08 9.75058 1.46507e-08 9.75054 1.46507e-08 9.75051C-4.86227e-05 9.1573 0.121003 8.57033 0.35574 8.02555C0.590471 7.48078 0.933939 6.98966 1.36511 6.58227M2.05197 7.30906L8.24208 1.45898C8.55384 1.16423 8.9666 1 9.39564 1C9.82467 1 10.2374 1.16423 10.5492 1.45898L16.7393 7.30906C17.0716 7.62298 17.3363 8.00145 17.5172 8.42126C17.698 8.84106 17.7913 9.29338 17.7913 9.75051V16.3209C17.7913 16.7663 17.6144 17.1934 17.2995 17.5083C16.9846 17.8232 16.5575 18.0001 16.1121 18.0001H2.67913C2.2338 18.0001 1.8067 17.8232 1.4918 17.5083C1.17691 17.1934 1 16.7663 1 16.3209V9.75051C0.999951 9.29338 1.09323 8.84106 1.27412 8.42126C1.455 8.00145 1.71969 7.62298 2.05197 7.30906ZM1.36522 6.58216L7.55508 0.73232C7.55512 0.732277 7.55517 0.732234 7.55521 0.732191C8.05263 0.261988 8.71115 0 9.39564 0C10.0801 0 10.7386 0.261988 11.2361 0.732191C11.2361 0.732234 11.2361 0.732277 11.2362 0.73232L17.426 6.58216C17.8573 6.98957 18.2008 7.48073 18.4355 8.02555C18.6703 8.57033 18.7913 9.1573 18.7913 9.75051C18.7913 9.75054 18.7913 9.75058 18.7913 9.75061" fill="black"/>
</svg>
