<svg width="24" height="24" viewBox="0 0 24 24" fill="none" xmlns="http://www.w3.org/2000/svg">
<path fill-rule="evenodd" clip-rule="evenodd" d="M2 6.61602C2 4.61895 3.57543 3 5.51882 3H15.4812C17.4246 3 19 4.61895 19 6.61602V12.9088C19 13.1941 18.7749 13.4254 18.4973 13.4254C18.2197 13.4254 17.9946 13.1941 17.9946 12.9088V6.61602C17.9946 5.18954 16.8693 4.03315 15.4812 4.03315H5.51882C4.13068 4.03315 3.00538 5.18954 3.00538 6.61602V16.384C3.00538 17.8105 4.13068 18.9669 5.51882 18.9669H12.5565C12.8341 18.9669 13.0591 19.1981 13.0591 19.4834C13.0591 19.7687 12.8341 20 12.5565 20H5.51882C3.57543 20 2 18.3811 2 16.384V6.61602Z" fill="#FDB515"/>
<path fill-rule="evenodd" clip-rule="evenodd" d="M6.5 5.75C6.5 6.16421 6.16421 6.5 5.75 6.5C5.33579 6.5 5 6.16421 5 5.75C5 5.33579 5.33579 5 5.75 5C6.16421 5 6.5 5.33579 6.5 5.75Z" fill="#FDB515"/>
<path fill-rule="evenodd" clip-rule="evenodd" d="M2 6.61602C2 4.61895 3.57543 3 5.51882 3H15.4812C17.4246 3 19 4.61895 19 6.61602V12.9088C19 13.1941 18.7749 13.4254 18.4973 13.4254C18.2197 13.4254 17.9946 13.1941 17.9946 12.9088V6.61602C17.9946 5.18954 16.8693 4.03315 15.4812 4.03315H5.51882C4.13068 4.03315 3.00538 5.18954 3.00538 6.61602V16.384C3.00538 17.8105 4.13068 18.9669 5.51882 18.9669H12.5565C12.8341 18.9669 13.0591 19.1981 13.0591 19.4834C13.0591 19.7687 12.8341 20 12.5565 20H5.51882C3.57543 20 2 18.3811 2 16.384V6.61602Z" fill="black"/>
<path fill-rule="evenodd" clip-rule="evenodd" d="M16.5497 20.7562L19.4702 18.9474C20.1501 18.5264 20.1501 17.4736 19.4702 17.0526L16.5497 15.2438C15.8698 14.8228 15.0199 15.3491 15.0199 16.1913L15.0199 19.8087C15.0199 20.6509 15.8698 21.1772 16.5497 20.7562ZM19.9801 19.8949C21.34 19.0527 21.34 16.9473 19.9801 16.1051L17.0596 14.2964C15.6998 13.4542 14 14.5069 14 16.1913L14 19.8087C14 21.4931 15.6998 22.5458 17.0596 21.7036L19.9801 19.8949Z" fill="black"/>
<path d="M6.5 5.75C6.5 6.16421 6.16421 6.5 5.75 6.5C5.33579 6.5 5 6.16421 5 5.75C5 5.33579 5.33579 5 5.75 5C6.16421 5 6.5 5.33579 6.5 5.75Z" fill="black"/>
<path d="M6.5 16.75C6.5 17.1642 6.16421 17.5 5.75 17.5C5.33579 17.5 5 17.1642 5 16.75C5 16.3358 5.33579 16 5.75 16C6.16421 16 6.5 16.3358 6.5 16.75Z" fill="black"/>
<path d="M11.5 5.75C11.5 6.16421 11.1642 6.5 10.75 6.5C10.3358 6.5 10 6.16421 10 5.75C10 5.33579 10.3358 5 10.75 5C11.1642 5 11.5 5.33579 11.5 5.75Z" fill="black"/>
<path d="M11.5 16.75C11.5 17.1642 11.1642 17.5 10.75 17.5C10.3358 17.5 10 17.1642 10 16.75C10 16.3358 10.3358 16 10.75 16C11.1642 16 11.5 16.3358 11.5 16.75Z" fill="black"/>
<path d="M16.5 5.75C16.5 6.16421 16.1642 6.5 15.75 6.5C15.3358 6.5 15 6.16421 15 5.75C15 5.33579 15.3358 5 15.75 5C16.1642 5 16.5 5.33579 16.5 5.75Z" fill="black"/>
</svg>
