<svg width="24" height="24" viewBox="0 0 24 24" fill="none" xmlns="http://www.w3.org/2000/svg">
<path d="M15.3333 22H8.66667V12.6662C8.66667 12.4893 8.7369 12.3198 8.86193 12.1947C8.98695 12.0697 9.15652 11.9995 9.33333 11.9995H14.6667C14.8435 11.9995 15.013 12.0697 15.1381 12.1947C15.2631 12.3198 15.3333 12.4893 15.3333 12.6662V22V22ZM21.3333 22H15.3333V18.7776C15.3333 18.6008 15.4036 18.4312 15.5286 18.3062C15.6536 18.1811 15.8232 18.1109 16 18.1109H21.3333C21.5101 18.1109 21.6797 18.1811 21.8047 18.3062C21.9298 18.4312 22 18.6008 22 18.7776V21.3333C22 21.5101 21.9298 21.6797 21.8047 21.8047C21.6797 21.9298 21.5101 22 21.3333 22V22ZM8.66667 22V16.5553C8.66667 16.3784 8.59643 16.2089 8.47141 16.0838C8.34638 15.9588 8.17681 15.8886 8 15.8886H2.66667C2.48986 15.8886 2.32029 15.9588 2.19526 16.0838C2.07024 16.2089 2 16.3784 2 16.5553V21.3333C2 21.5101 2.07024 21.6797 2.19526 21.8047C2.32029 21.9298 2.48986 22 2.66667 22H8.66667V22ZM10.6733 4.34684L11.6833 2.20561C11.7106 2.1444 11.755 2.0924 11.8112 2.05591C11.8674 2.01942 11.933 2 12 2C12.067 2 12.1326 2.01942 12.1888 2.05591C12.245 2.0924 12.2894 2.1444 12.3167 2.20561L13.3278 4.34684L15.5856 4.69241C15.8756 4.73686 15.9911 5.11021 15.7811 5.32355L14.1478 6.99031L14.5333 9.34377C14.5822 9.64601 14.28 9.87713 14.02 9.73379L12 8.62262L9.98 9.73379C9.72111 9.87602 9.41778 9.64601 9.46667 9.34377L9.85222 6.99031L8.21889 5.32355C8.00778 5.11021 8.12445 4.73686 8.41333 4.69241L10.6733 4.34795V4.34684Z" stroke="#5A5F73" stroke-linecap="round" stroke-linejoin="round"/>
</svg>
