
<svg width="263" height="9" viewBox="0 0 263 9" fill="none" xmlns="http://www.w3.org/2000/svg">
<path d="M3.5 0H7.5L4 9H0L3.5 0Z" fill="white"/>
<path d="M11.5004 0H15.5004L12.0004 9H8.00043L11.5004 0Z" fill="white"/>
<path d="M19.5 0H23.5L20 9H16L19.5 0Z" fill="white"/>
<path d="M27.5004 0H31.5004L28.0004 9H24.0004L27.5004 0Z" fill="white"/>
<path d="M35.5 0H39.5L36 9H32L35.5 0Z" fill="white"/>
<path d="M43.5005 0H47.5005L44.0005 9H40.0005L43.5005 0Z" fill="white"/>
<path d="M51.5 0H55.5L52 9H48L51.5 0Z" fill="white"/>
<path d="M59.5005 0H63.5005L60.0005 9H56.0005L59.5005 0Z" fill="white"/>
<path d="M67.5 0H71.5L68 9H64L67.5 0Z" fill="white"/>
<path d="M75.5005 0H79.5005L76.0005 9H72.0005L75.5005 0Z" fill="white"/>
<path d="M83.5001 0H87.5001L84.0001 9H80.0001L83.5001 0Z" fill="white"/>
<path d="M91.5 0H95.5L92 9H88L91.5 0Z" fill="white"/>
<path d="M99.5005 0H103.5L100 9H96.0005L99.5005 0Z" fill="white"/>
<path d="M107.5 0H111.5L108 9H104L107.5 0Z" fill="white"/>
<path d="M115.5 0H119.5L116 9H112L115.5 0Z" fill="white"/>
<path d="M123.5 0H127.5L124 9H120L123.5 0Z" fill="white"/>
<path d="M131.5 0H135.5L132 9H128L131.5 0Z" fill="white"/>
<path d="M139.5 0H143.5L140 9H136L139.5 0Z" fill="white"/>
<path d="M147.5 0H151.5L148 9H144L147.5 0Z" fill="white"/>
<path d="M155.5 0H159.5L156 9H152L155.5 0Z" fill="white"/>
<path d="M163.5 0H167.5L164 9H160L163.5 0Z" fill="white"/>
<path d="M171.5 0H175.5L172 9H168L171.5 0Z" fill="white"/>
<path d="M178.5 0H182.5L179 9H175L178.5 0Z" fill="white"/>
<path d="M186.5 0H190.5L187 9H183L186.5 0Z" fill="white"/>
<path d="M194.5 0H198.5L195 9H191L194.5 0Z" fill="white"/>
<path d="M202.5 0H206.5L203 9H199L202.5 0Z" fill="white"/>
<path d="M210.5 0H214.5L211 9H207L210.5 0Z" fill="white"/>
<path d="M218.5 0H222.5L219 9H215L218.5 0Z" fill="white"/>
<path d="M226.5 0H230.5L227 9H223L226.5 0Z" fill="white"/>
<path d="M234.5 0H238.5L235 9H231L234.5 0Z" fill="white"/>
<path d="M242.5 0H246.5L243 9H239L242.5 0Z" fill="white"/>
<path d="M250.5 0H254.5L251 9H247L250.5 0Z" fill="white"/>
<path d="M258.5 0H262.5L259 9H255L258.5 0Z" fill="white"/>
</svg>
