<svg width="65" height="74" viewBox="0 0 65 74" fill="none" xmlns="http://www.w3.org/2000/svg">
<path fill-rule="evenodd" clip-rule="evenodd" d="M31.8902 0.320583C30.1205 0.907212 29.1515 1.85971 27.691 4.4479L26.5897 6.3995L15.174 6.44324L3.75851 6.48714L2.88587 6.9309C1.8395 7.4631 1.01573 8.36467 0.465104 9.58071L0.0589208 10.4778L0.0157592 22.7466C-0.0309481 36.0491 -0.0266321 36.1299 0.807316 37.498C1.2972 38.3016 2.1905 39.0993 3.05697 39.5071C3.60914 39.767 4.19136 39.8556 5.79174 39.9231L7.82497 40.0088L5.35303 44.4784C3.99358 46.9366 2.68501 49.348 2.44531 49.8369C1.1913 52.3949 1.6852 55.3231 3.69083 57.2211C4.33441 57.8302 7.88046 60.0254 17.2127 65.5919C24.1697 69.7419 30.2663 73.3318 30.7607 73.5696C31.5296 73.9395 31.8601 74.0017 33.0469 74C34.9449 73.9971 35.9387 73.5844 37.214 72.2699C38.0729 71.3845 39.3461 69.1658 51.1918 47.9104C58.3599 35.0484 64.328 24.3095 64.4541 24.0461C65.192 22.5044 65.181 20.4207 64.4262 18.7503C63.5225 16.7505 65.1325 17.798 39.6496 2.62959C35.143 -0.052785 34.0227 -0.386246 31.8902 0.320583ZM35.0508 2.87861C35.39 3.04095 41.3902 6.5968 48.3848 10.7806C57.4353 16.1941 61.2479 18.5565 61.6078 18.9743C62.3242 19.8056 62.6588 21.0759 62.431 22.098C62.3091 22.6447 58.3558 29.8894 49.3601 46.0512C42.2672 58.7944 36.299 69.4935 36.0974 69.8271C35.3513 71.0622 33.6086 71.7783 32.2592 71.4046C31.7554 71.2651 21.9145 65.4666 6.02574 55.9476C4.68726 55.1456 3.93593 53.4062 4.29248 51.9347C4.4881 51.1276 10.5357 40.1113 10.8523 39.9855C10.9545 39.945 11.4214 39.9336 11.89 39.9603L12.742 40.0088L11.7442 41.7909C10.569 43.8901 10.4218 44.5521 10.9248 45.4788C11.3348 46.2341 10.144 45.4826 25.0011 54.3633C35.353 60.5512 36.7625 61.3494 37.3544 61.3586C38.7816 61.381 38.0899 62.4841 49.742 41.5989L60.4254 22.4498L60.3648 21.6003C60.2802 20.414 59.9187 20.1005 55.7839 17.6264C53.8763 16.4849 48.5351 13.2887 43.9144 10.5235C39.2938 7.75841 35.2212 5.34181 34.8643 5.15345C33.6734 4.525 32.3571 4.85527 31.7662 5.93084C31.5176 6.38322 31.457 6.40541 30.4675 6.40636L29.4296 6.40732L30.1341 5.17021C31.0255 3.60491 31.1479 3.46811 32.0959 2.97885C33.0426 2.49039 34.1609 2.4524 35.0508 2.87861ZM33.1674 9.18116C33.8004 9.46163 34.4205 10.1667 34.6445 10.8608C34.7674 11.2418 34.8196 14.2495 34.8196 20.9549V30.5065L36.5314 34.4519C38.3933 38.7433 38.4612 39.052 37.766 40.0629C37.4425 40.5335 36.4659 41.0464 35.8933 41.0464C35.6105 41.0464 34.1845 40.3127 30.3493 38.194L28.8849 37.385L16.6509 37.3801L4.41703 37.375L3.81045 37.0219C3.47672 36.8278 3.05112 36.4147 2.86459 36.104L2.52531 35.5393L2.4786 23.5672C2.44485 14.9207 2.48092 11.4179 2.60855 10.9567C2.81388 10.2136 3.4092 9.49164 4.06681 9.18755C4.76171 8.86638 32.4432 8.86031 33.1674 9.18116ZM47.3298 15.546C53.0794 18.992 57.7846 21.8683 57.7857 21.9381C57.7885 22.1046 37.6079 58.312 37.3823 58.5452C37.2539 58.678 34.9651 57.3794 28.5766 53.5495C23.8288 50.7032 18.4875 47.5083 16.7071 46.4496C14.9266 45.391 13.4191 44.476 13.3568 44.4164C13.2947 44.3567 13.7802 43.3407 14.4358 42.1584L15.628 40.0088H22.1023H28.5766L30.9657 41.4089C33.9177 43.1389 34.733 43.4675 36.0769 43.4683C38.3983 43.4698 40.248 41.7602 40.5968 39.2905C40.7517 38.1945 40.5074 37.4018 38.8716 33.6924L37.3631 30.2716L37.286 20.3747C37.2169 11.512 37.1815 10.4152 36.947 9.87921C36.8031 9.55006 36.728 9.28061 36.7805 9.28061C36.833 9.28061 41.5801 12.0999 47.3298 15.546ZM13.8553 12.4532C12.9706 12.7549 12.1595 13.3024 11.5702 13.9957C9.86421 16.0025 10.1747 19.1713 12.2367 20.7996C13.9362 22.1418 16.3974 22.0929 17.9851 20.6855C19.8756 19.0097 20.0894 15.9211 18.4486 13.9909C17.5956 12.9873 16.5099 12.4396 15.2426 12.3739C14.6916 12.3453 14.0672 12.381 13.8553 12.4532ZM15.9491 15.1239C17.6327 15.9513 17.3759 18.6574 15.5645 19.1753C14.4942 19.4813 13.256 18.7433 12.9887 17.6401C12.8504 17.0701 13.027 16.1567 13.3477 15.7827C14.1073 14.8968 15.0177 14.6663 15.9491 15.1239ZM27.939 19.3643C27.4878 19.5904 27.2663 20.1621 27.2663 21.1005V21.8911H26.4066C25.6619 21.8911 25.4866 21.9536 25.0963 22.3577C24.5403 22.9335 24.515 23.5262 25.0242 24.0533C25.3408 24.3813 25.5515 24.4452 26.3164 24.4452H27.2304L27.2954 25.5041C27.3702 26.7186 27.7084 27.1588 28.5667 27.1588C29.3698 27.1588 29.7327 26.6215 29.7327 25.4326V24.4452H30.6368C31.831 24.4452 32.3532 24.0565 32.3532 23.1682C32.3532 22.2798 31.831 21.8911 30.6368 21.8911H29.7327V20.9262C29.7327 20.1143 29.6726 19.8988 29.3542 19.5694C28.9561 19.1571 28.4876 19.0891 27.939 19.3643ZM13.547 23.6561C12.2138 23.8916 10.3169 24.9423 9.27243 26.0239C7.59528 27.7606 6.47524 30.7915 7.07888 31.9596C7.30302 32.3932 9.42273 33.4627 11.0371 33.9566C12.88 34.5205 15.8446 34.6631 17.6874 34.2765C19.3697 33.9234 21.3132 33.1849 22.2626 32.5381L23.0272 32.0173L23.0189 30.8999C22.9987 28.161 20.6237 25.0725 17.7423 24.0377C16.5375 23.6049 14.7549 23.4427 13.547 23.6561ZM17.3878 26.607C18.8107 27.2683 20.4663 29.2851 20.4803 30.3744C20.484 30.6631 19.1633 31.2691 17.709 31.646C16.5113 31.9563 13.405 31.9288 12.2367 31.5976C10.6437 31.146 9.53911 30.6615 9.53911 30.4144C9.53911 30.0091 10.2988 28.6092 10.8804 27.9424C12.4803 26.1087 15.1407 25.5627 17.3878 26.607ZM20.4828 55.2427C18.5838 55.8409 17.4399 57.5371 17.5857 59.5389C17.6978 61.0781 18.5035 62.3365 19.805 63.0052C20.6764 63.4529 22.4923 63.4275 23.3575 62.9555C24.7743 62.1824 25.706 60.3645 25.4959 58.7826C25.1712 56.3382 22.652 54.5595 20.4828 55.2427ZM22.5438 58.228C23.6623 59.3864 22.3966 61.3026 20.9287 60.673C20.121 60.3266 19.8141 59.3235 20.2493 58.4523C20.5196 57.9107 20.6668 57.8364 21.5033 57.8198C21.9927 57.8101 22.2299 57.9032 22.5438 58.228Z" fill="#C8D0E3"/>
</svg>
