<svg width="58" height="35" viewBox="0 0 58 35" fill="none" xmlns="http://www.w3.org/2000/svg">
<defs>
<linearGradient id="paint0_linear_1894_698" x1="41.521" y1="18.6304" x2="9.47949" y2="18.6305" gradientUnits="userSpaceOnUse">
<stop stop-color="#FF2252"/>
<stop offset="1" stop-color="#FC7B04"/>
</linearGradient>
<linearGradient id="paint1_linear_1894_698" x1="31.0357" y1="15.3346" x2="28.3516" y2="15.3346" gradientUnits="userSpaceOnUse">
<stop stop-color="#FF2252"/>
<stop offset="1" stop-color="#FC7B04"/>
</linearGradient>
<linearGradient id="paint2_linear_1894_698" x1="41" y1="27.4317" x2="10" y2="27.4317" gradientUnits="userSpaceOnUse">
<stop stop-color="#FF2252"/>
<stop offset="1" stop-color="#FC7B04"/>
</linearGradient>
</defs>
<path fill-rule="evenodd" clip-rule="evenodd" d="M50 15.0004C49.1643 15.6281 48.1256 16 47 16C44.2386 16 42 13.7614 42 11C42 9.87439 42.3719 8.83566 42.9996 8H7C3.13401 8 0 11.134 0 15V28C0 31.866 3.13401 35 7 35H43C46.866 35 50 31.866 50 28V15.0004Z" fill="white"/>
<path fill-rule="evenodd" clip-rule="evenodd" d="M27.5973 14.773C27.4546 14.6929 27.3062 14.6205 27.1523 14.5557C26.6315 14.3249 26.0694 14.2095 25.466 14.2095C24.879 14.2095 24.3252 14.3249 23.8044 14.5557C23.2919 14.7865 22.8414 15.1081 22.4528 15.5203C22.0643 15.9325 21.7585 16.4106 21.5353 16.9547C21.3203 17.4988 21.2129 18.0841 21.2129 18.7107C21.2129 19.3125 21.3245 19.8813 21.5477 20.4172C21.7791 20.9448 22.0932 21.4106 22.49 21.8145C22.8868 22.2185 23.3456 22.5359 23.8664 22.7667C24.3954 22.9893 24.9617 23.1006 25.5652 23.1006C26.1521 23.1006 26.6977 22.9851 27.2019 22.7543C27.7144 22.5235 28.1649 22.2061 28.5535 21.8021C28.9503 21.3899 29.2561 20.9159 29.471 20.3801C29.6942 19.8442 29.8058 19.2713 29.8058 18.6612C29.8058 18.2428 29.7561 17.8447 29.6566 17.4668C29.5975 17.4712 29.5376 17.4735 29.4769 17.4735C28.2194 17.4735 27.5774 16.2129 27.5774 15.0321C27.5774 14.9441 27.5842 14.8576 27.5973 14.773ZM30.727 17.1017L32.5053 22.1855C32.5218 22.2267 32.5631 22.3133 32.6293 22.4452C32.6954 22.5688 32.8029 22.6842 32.9517 22.7914C33.1005 22.8986 33.3071 22.9522 33.5717 22.9522C33.861 22.9522 34.08 22.8903 34.2288 22.7667C34.3859 22.643 34.4975 22.5152 34.5636 22.3833C34.6298 22.2432 34.667 22.1525 34.6752 22.1113L35.8408 18.315L37.0064 22.1237C37.0146 22.1484 37.0518 22.2308 37.118 22.371C37.1841 22.5029 37.2957 22.6348 37.4528 22.7667C37.6098 22.8903 37.8289 22.9522 38.1099 22.9522C38.391 22.9522 38.6059 22.8986 38.7547 22.7914C38.9035 22.6842 39.0068 22.5688 39.0647 22.4452C39.1308 22.3215 39.1722 22.2349 39.1887 22.1855L41.4082 15.8047C41.4909 15.5326 41.5281 15.31 41.5198 15.1369C41.5198 14.9638 41.4578 14.8195 41.3338 14.7041C41.2098 14.5805 40.9991 14.465 40.7015 14.3579C40.4204 14.2589 40.1889 14.2177 40.0071 14.2342C39.8252 14.2507 39.6764 14.329 39.5607 14.4692C39.4532 14.6011 39.354 14.803 39.2631 15.0751L37.9735 18.8591L36.9568 15.1493C36.932 15.0833 36.8906 14.9844 36.8328 14.8525C36.7749 14.7206 36.6674 14.5969 36.5104 14.4815C36.3616 14.3661 36.1301 14.3084 35.816 14.3084C35.5349 14.3084 35.32 14.362 35.1712 14.4692C35.0224 14.5681 34.915 14.6835 34.8488 14.8154C34.791 14.9473 34.7496 15.0545 34.7248 15.1369L33.708 18.8343L32.4185 15.0751C32.3276 14.7948 32.2242 14.5887 32.1085 14.4568C31.9928 14.3249 31.8481 14.2548 31.6745 14.2466C31.6479 14.2453 31.6201 14.2452 31.591 14.2463C31.7334 14.475 31.8154 14.7386 31.8154 15.0321C31.8154 15.8717 31.3983 16.6585 30.727 17.1017ZM12.2694 22.7914C12.4182 22.8986 12.6249 22.9522 12.8894 22.9522C13.1787 22.9522 13.3978 22.8903 13.5466 22.7667C13.7036 22.643 13.8152 22.5152 13.8814 22.3833C13.9475 22.2432 13.9847 22.1525 13.993 22.1113L15.1585 18.315L16.3241 22.1237C16.3324 22.1484 16.3696 22.2308 16.4357 22.371C16.5018 22.5029 16.6134 22.6348 16.7705 22.7667C16.9276 22.8903 17.1466 22.9522 17.4277 22.9522C17.7087 22.9522 17.9237 22.8986 18.0725 22.7914C18.2213 22.6842 18.3246 22.5688 18.3825 22.4452C18.4486 22.3215 18.4899 22.2349 18.5064 22.1855L20.726 15.8047C20.8087 15.5326 20.8459 15.31 20.8376 15.1369C20.8376 14.9638 20.7756 14.8195 20.6516 14.7041C20.5276 14.5805 20.3168 14.465 20.0192 14.3579C19.7381 14.2589 19.5067 14.2177 19.3248 14.2342C19.143 14.2507 18.9942 14.329 18.8784 14.4692C18.771 14.6011 18.6718 14.803 18.5808 15.0751L17.2913 18.8591L16.2745 15.1493C16.2497 15.0833 16.2084 14.9844 16.1505 14.8525C16.0926 14.7206 15.9852 14.5969 15.8281 14.4815C15.6793 14.3661 15.4479 14.3084 15.1337 14.3084C14.8527 14.3084 14.6378 14.362 14.489 14.4692C14.3402 14.5681 14.2327 14.6835 14.1666 14.8154C14.1087 14.9473 14.0674 15.0545 14.0426 15.1369L13.0258 18.8343L11.7362 15.0751C11.6453 14.7948 11.542 14.5887 11.4262 14.4568C11.3105 14.3249 11.1658 14.2548 10.9923 14.2466C10.8187 14.2383 10.5913 14.2795 10.3103 14.3702C9.88041 14.5104 9.62002 14.6835 9.52909 14.8896C9.44643 15.0875 9.46709 15.3925 9.59109 15.8047L11.823 22.1855C11.8396 22.2267 11.8809 22.3133 11.947 22.4452C12.0132 22.5688 12.1206 22.6842 12.2694 22.7914ZM26.2967 20.6768C26.0487 20.784 25.7842 20.8376 25.5032 20.8376C25.2304 20.8376 24.97 20.784 24.722 20.6768C24.4822 20.5614 24.2673 20.4048 24.0772 20.2069C23.8953 20.0008 23.7507 19.7659 23.6432 19.5021C23.5357 19.2383 23.482 18.958 23.482 18.6612C23.482 18.3562 23.5357 18.0718 23.6432 17.808C23.7507 17.5441 23.8953 17.3133 24.0772 17.1155C24.2673 16.9094 24.4822 16.7527 24.722 16.6456C24.97 16.5301 25.2345 16.4724 25.5156 16.4724C25.7883 16.4724 26.0446 16.5301 26.2843 16.6456C26.5323 16.7527 26.7473 16.9094 26.9291 17.1155C27.1192 17.3133 27.268 17.5441 27.3755 17.808C27.483 18.0718 27.5367 18.3562 27.5367 18.6612C27.5367 18.9662 27.483 19.2548 27.3755 19.5268C27.2763 19.7906 27.1316 20.0215 26.9415 20.2193C26.7597 20.4089 26.5447 20.5614 26.2967 20.6768Z" fill="url(#paint0_linear_1894_698)"/>
<path fill-rule="evenodd" clip-rule="evenodd" d="M29.5546 14C30.3 14 31.0357 14.4318 31.0357 15.1336C31.0357 15.948 30.4196 16.6841 29.5546 16.6841C28.7582 16.6841 28.3516 15.8835 28.3516 15.1336C28.3516 14.5078 28.8899 14 29.5546 14Z" fill="url(#paint1_linear_1894_698)"/>
<path d="M50 11C50 12.6569 48.6569 14 47 14C45.3431 14 44 12.6569 44 11C44 9.34315 45.3431 8 47 8C48.6569 8 50 9.34315 50 11Z" fill="white"/>
<mask id="path-5-inside-1_1894_698" fill="white">
<path d="M52.0507 10.1009C52.4817 9.99047 52.7462 9.54891 52.5834 9.13478C52.3697 8.59114 52.0835 8.07754 51.7315 7.60832C51.2179 6.92373 50.5746 6.347 49.8382 5.91105C49.1018 5.47509 48.2867 5.18845 47.4395 5.0675C46.8588 4.98459 46.2709 4.98064 45.6914 5.05477C45.2501 5.11124 44.9902 5.55552 45.1006 5.98656V5.98656C45.2111 6.4176 45.6507 6.67036 46.094 6.63185C46.4657 6.59957 46.8407 6.60972 47.2118 6.6627C47.8495 6.75375 48.463 6.96951 49.0173 7.29767C49.5716 7.62582 50.0559 8.05995 50.4425 8.57525C50.6674 8.87509 50.8566 9.199 51.0071 9.54038C51.1866 9.94756 51.6196 10.2114 52.0507 10.1009V10.1009Z"/>
</mask>
<path d="M52.0507 10.1009C52.4817 9.99047 52.7462 9.54891 52.5834 9.13478C52.3697 8.59114 52.0835 8.07754 51.7315 7.60832C51.2179 6.92373 50.5746 6.347 49.8382 5.91105C49.1018 5.47509 48.2867 5.18845 47.4395 5.0675C46.8588 4.98459 46.2709 4.98064 45.6914 5.05477C45.2501 5.11124 44.9902 5.55552 45.1006 5.98656V5.98656C45.2111 6.4176 45.6507 6.67036 46.094 6.63185C46.4657 6.59957 46.8407 6.60972 47.2118 6.6627C47.8495 6.75375 48.463 6.96951 49.0173 7.29767C49.5716 7.62582 50.0559 8.05995 50.4425 8.57525C50.6674 8.87509 50.8566 9.199 51.0071 9.54038C51.1866 9.94756 51.6196 10.2114 52.0507 10.1009V10.1009Z" stroke="white" stroke-width="2" mask="url(#path-5-inside-1_1894_698)"/>
<mask id="path-6-inside-2_1894_698" fill="white">
<path d="M54.8951 9.37186C55.3577 9.2533 55.6404 8.78042 55.4803 8.33051C55.1595 7.42883 54.7039 6.57913 54.1277 5.81091C53.3781 4.81169 52.4391 3.96988 51.3642 3.33356C50.2894 2.69724 49.0997 2.27886 47.8631 2.10232C46.9124 1.96658 45.9483 1.97584 45.0035 2.12829C44.5321 2.20436 44.2534 2.67961 44.372 3.1422V3.1422C44.4905 3.60478 44.9615 3.87857 45.4344 3.81204C46.1576 3.71029 46.8929 3.71064 47.6187 3.81426C48.6304 3.95871 49.6038 4.30102 50.4833 4.82166C51.3627 5.34229 52.131 6.03105 52.7443 6.8486C53.1843 7.43509 53.5382 8.07961 53.7969 8.76256C53.966 9.20915 54.4325 9.49041 54.8951 9.37186V9.37186Z"/>
</mask>
<path d="M54.8951 9.37186C55.3577 9.2533 55.6404 8.78042 55.4803 8.33051C55.1595 7.42883 54.7039 6.57913 54.1277 5.81091C53.3781 4.81169 52.4391 3.96988 51.3642 3.33356C50.2894 2.69724 49.0997 2.27886 47.8631 2.10232C46.9124 1.96658 45.9483 1.97584 45.0035 2.12829C44.5321 2.20436 44.2534 2.67961 44.372 3.1422V3.1422C44.4905 3.60478 44.9615 3.87857 45.4344 3.81204C46.1576 3.71029 46.8929 3.71064 47.6187 3.81426C48.6304 3.95871 49.6038 4.30102 50.4833 4.82166C51.3627 5.34229 52.131 6.03105 52.7443 6.8486C53.1843 7.43509 53.5382 8.07961 53.7969 8.76256C53.966 9.20915 54.4325 9.49041 54.8951 9.37186V9.37186Z" stroke="white" stroke-width="2" mask="url(#path-6-inside-2_1894_698)"/>
<path d="M11.8503 29.9983C11.5599 29.9983 11.2972 29.9486 11.0625 29.8491C10.8317 29.7496 10.6486 29.6064 10.5133 29.4193C10.378 29.2323 10.3084 29.0115 10.3044 28.7568H11.1997C11.2117 28.9279 11.2714 29.0632 11.3788 29.1627C11.4902 29.2622 11.6414 29.3119 11.8324 29.3119C12.0274 29.3119 12.1806 29.2661 12.292 29.1746C12.4035 29.0791 12.4592 28.9558 12.4592 28.8046C12.4592 28.6812 12.4214 28.5797 12.3458 28.5001C12.2701 28.4206 12.1746 28.3589 12.0592 28.3151C11.9478 28.2674 11.7926 28.2156 11.5937 28.1599C11.3231 28.0803 11.1022 28.0027 10.9311 27.9271C10.764 27.8476 10.6188 27.7302 10.4954 27.575C10.376 27.4158 10.3163 27.2049 10.3163 26.9423C10.3163 26.6956 10.378 26.4807 10.5014 26.2976C10.6247 26.1146 10.7978 25.9753 11.0207 25.8798C11.2435 25.7803 11.4982 25.7306 11.7847 25.7306C12.2144 25.7306 12.5626 25.8361 12.8292 26.047C13.0998 26.2539 13.249 26.5444 13.2769 26.9184H12.3577C12.3497 26.7752 12.2881 26.6578 12.1727 26.5662C12.0612 26.4707 11.912 26.423 11.725 26.423C11.5618 26.423 11.4305 26.4648 11.3311 26.5483C11.2355 26.6319 11.1878 26.7533 11.1878 26.9124C11.1878 27.0239 11.2236 27.1174 11.2952 27.193C11.3708 27.2646 11.4624 27.3243 11.5698 27.372C11.6812 27.4158 11.8364 27.4675 12.0354 27.5272C12.306 27.6068 12.5268 27.6864 12.6979 27.766C12.869 27.8456 13.0163 27.9649 13.1396 28.1241C13.263 28.2833 13.3246 28.4922 13.3246 28.7508C13.3246 28.9737 13.2669 29.1806 13.1515 29.3716C13.0361 29.5626 12.867 29.7158 12.6442 29.8312C12.4214 29.9426 12.1567 29.9983 11.8503 29.9983ZM17.2603 27.3362V28.9359C17.2603 29.0473 17.2862 29.1289 17.3379 29.1806C17.3937 29.2283 17.4852 29.2522 17.6125 29.2522H18.0005V29.9565H17.4752C16.7709 29.9565 16.4187 29.6143 16.4187 28.9299V27.3362H16.0248V26.6498H16.4187V25.8321H17.2603V26.6498H18.0005V27.3362H17.2603ZM23.9615 26.6498V29.9565H23.1199V29.5387C23.0125 29.682 22.8712 29.7954 22.6961 29.8789C22.525 29.9585 22.338 29.9983 22.1351 29.9983C21.8764 29.9983 21.6476 29.9446 21.4487 29.8372C21.2497 29.7257 21.0925 29.5646 20.9771 29.3537C20.8657 29.1388 20.81 28.8841 20.81 28.5897V26.6498H21.6456V28.4703C21.6456 28.7329 21.7113 28.9359 21.8426 29.0791C21.9739 29.2184 22.153 29.288 22.3798 29.288C22.6106 29.288 22.7916 29.2184 22.923 29.0791C23.0543 28.9359 23.1199 28.7329 23.1199 28.4703V26.6498H23.9615ZM26.8095 28.2912C26.8095 27.957 26.8751 27.6605 27.0064 27.4019C27.1417 27.1432 27.3248 26.9443 27.5556 26.805C27.7864 26.6657 28.043 26.5961 28.3255 26.5961C28.5404 26.5961 28.7454 26.6438 28.9403 26.7393C29.1353 26.8309 29.2905 26.9542 29.4059 27.1094V25.5396H30.2535V29.9565H29.4059V29.4671C29.3024 29.6302 29.1572 29.7616 28.9702 29.861C28.7832 29.9605 28.5663 30.0103 28.3196 30.0103C28.041 30.0103 27.7864 29.9386 27.5556 29.7954C27.3248 29.6521 27.1417 29.4512 27.0064 29.1925C26.8751 28.9299 26.8095 28.6295 26.8095 28.2912ZM29.4119 28.3032C29.4119 28.1002 29.3721 27.9271 29.2925 27.7839C29.2129 27.6367 29.1055 27.5252 28.9702 27.4496C28.8349 27.37 28.6896 27.3303 28.5345 27.3303C28.3793 27.3303 28.236 27.3681 28.1047 27.4437C27.9734 27.5193 27.8659 27.6307 27.7824 27.7779C27.7028 27.9212 27.663 28.0923 27.663 28.2912C27.663 28.4902 27.7028 28.6653 27.7824 28.8165C27.8659 28.9637 27.9734 29.0771 28.1047 29.1567C28.24 29.2363 28.3832 29.2761 28.5345 29.2761C28.6896 29.2761 28.8349 29.2383 28.9702 29.1627C29.1055 29.0831 29.2129 28.9717 29.2925 28.8284C29.3721 28.6812 29.4119 28.5061 29.4119 28.3032ZM33.7317 26.2559C33.5845 26.2559 33.4611 26.2101 33.3617 26.1186C33.2662 26.0231 33.2184 25.9057 33.2184 25.7664C33.2184 25.6271 33.2662 25.5117 33.3617 25.4202C33.4611 25.3247 33.5845 25.277 33.7317 25.277C33.879 25.277 34.0003 25.3247 34.0958 25.4202C34.1953 25.5117 34.2451 25.6271 34.2451 25.7664C34.2451 25.9057 34.1953 26.0231 34.0958 26.1186C34.0003 26.2101 33.879 26.2559 33.7317 26.2559ZM34.1436 26.6498V29.9565H33.3079V26.6498H34.1436ZM38.6758 30.0103C38.3575 30.0103 38.071 29.9406 37.8163 29.8014C37.5617 29.6581 37.3607 29.4572 37.2135 29.1985C37.0702 28.9399 36.9986 28.6414 36.9986 28.3032C36.9986 27.9649 37.0722 27.6665 37.2194 27.4078C37.3707 27.1492 37.5756 26.9502 37.8342 26.811C38.0929 26.6677 38.3814 26.5961 38.6997 26.5961C39.0181 26.5961 39.3065 26.6677 39.5652 26.811C39.8238 26.9502 40.0268 27.1492 40.174 27.4078C40.3252 27.6665 40.4008 27.9649 40.4008 28.3032C40.4008 28.6414 40.3232 28.9399 40.1681 29.1985C40.0168 29.4572 39.8099 29.6581 39.5473 29.8014C39.2886 29.9406 38.9982 30.0103 38.6758 30.0103ZM38.6758 29.2821C38.8271 29.2821 38.9683 29.2463 39.0996 29.1746C39.2349 29.099 39.3424 28.9876 39.4219 28.8404C39.5015 28.6931 39.5413 28.5141 39.5413 28.3032C39.5413 27.9888 39.4578 27.7481 39.2906 27.5809C39.1275 27.4098 38.9265 27.3243 38.6878 27.3243C38.449 27.3243 38.2481 27.4098 38.0849 27.5809C37.9258 27.7481 37.8462 27.9888 37.8462 28.3032C37.8462 28.6175 37.9238 28.8603 38.079 29.0314C38.2381 29.1985 38.4371 29.2821 38.6758 29.2821Z" fill="url(#paint2_linear_1894_698)"/>
</svg>
