<svg width="45" height="27" viewBox="0 0 45 27" fill="none" xmlns="http://www.w3.org/2000/svg">
<defs>
<linearGradient id="paint0_linear_1968_639" x1="38.523" y1="16.0742" x2="4.71762e-07" y2="16.0742" gradientUnits="userSpaceOnUse">
<stop stop-color="#FF2252"/>
<stop offset="1" stop-color="#4ABEEE"/>
</linearGradient>
<linearGradient id="paint1_linear_1968_639" x1="38.5232" y1="8.02956" x2="33.9004" y2="8.02956" gradientUnits="userSpaceOnUse">
<stop stop-color="#FF2252"/>
<stop offset="1" stop-color="#4ABEEE"/>
</linearGradient>
<linearGradient id="paint2_linear_1968_639" x1="40.797" y1="9.24642" x2="30.8942" y2="7.58225" gradientUnits="userSpaceOnUse">
<stop stop-color="#FF2252"/>
<stop offset="1" stop-color="#4ABEEE"/>
</linearGradient>
<linearGradient id="paint3_linear_1968_639" x1="43.0755" y1="9.61619" x2="28.6213" y2="7.18716" gradientUnits="userSpaceOnUse">
<stop stop-color="#FF2252"/>
<stop offset="1" stop-color="#4ABEEE"/>
</linearGradient>
</defs>
<path fill-rule="evenodd" clip-rule="evenodd" d="M38.523 11.1236C37.8792 11.6072 37.0788 11.8938 36.2116 11.8938C34.084 11.8938 32.3593 10.1691 32.3593 8.04152C32.3593 7.17443 32.6457 6.37425 33.1292 5.73047H5.39322C2.41463 5.73047 0 8.1451 0 11.1237V21.1397C0 24.1183 2.41463 26.5329 5.39323 26.5329H33.1298C36.1084 26.5329 38.523 24.1183 38.523 21.1397V11.1237C38.523 11.1237 38.523 11.1236 38.523 11.1236Z" fill="url(#paint0_linear_1968_639)"/>
<path fill-rule="evenodd" clip-rule="evenodd" d="M21.2628 10.9484C21.1528 10.8866 21.0385 10.8308 20.9199 10.7809C20.5187 10.6031 20.0856 10.5142 19.6206 10.5142C19.1684 10.5142 18.7417 10.6031 18.3405 10.7809C17.9456 10.9588 17.5985 11.2065 17.2992 11.5241C16.9998 11.8417 16.7642 12.21 16.5922 12.6293C16.4266 13.0485 16.3438 13.4994 16.3438 13.9821C16.3438 14.4458 16.4298 14.8841 16.6018 15.2969C16.7801 15.7034 17.0221 16.0623 17.3278 16.3735C17.6335 16.6848 17.987 16.9293 18.3882 17.1072C18.7959 17.2786 19.2321 17.3644 19.6971 17.3644C20.1493 17.3644 20.5696 17.2755 20.9581 17.0976C21.353 16.9198 21.7001 16.6752 21.9995 16.364C22.3052 16.0464 22.5408 15.6812 22.7064 15.2684C22.8784 14.8555 22.9643 14.4141 22.9643 13.944C22.9643 13.6217 22.926 13.3149 22.8493 13.0238C22.8038 13.0272 22.7577 13.029 22.7109 13.029C21.7421 13.029 21.2474 12.0577 21.2474 11.148C21.2474 11.0802 21.2527 11.0135 21.2628 10.9484ZM23.6741 12.7425L25.0442 16.6594C25.0569 16.6911 25.0887 16.7578 25.1397 16.8594C25.1907 16.9547 25.2734 17.0436 25.3881 17.1262C25.5027 17.2088 25.662 17.2501 25.8658 17.2501C26.0887 17.2501 26.2575 17.2024 26.3721 17.1072C26.4931 17.0119 26.5791 16.9134 26.63 16.8118C26.681 16.7038 26.7097 16.634 26.716 16.6022L27.614 13.6773L28.5121 16.6117C28.5184 16.6308 28.5471 16.6943 28.598 16.8023C28.649 16.9039 28.735 17.0055 28.856 17.1072C28.977 17.2024 29.1458 17.2501 29.3623 17.2501C29.5789 17.2501 29.7445 17.2088 29.8591 17.1262C29.9737 17.0436 30.0534 16.9547 30.0979 16.8594C30.1489 16.7642 30.1807 16.6975 30.1935 16.6594L31.9035 11.7432C31.9672 11.5336 31.9959 11.3621 31.9895 11.2287C31.9895 11.0953 31.9418 10.9842 31.8462 10.8953C31.7507 10.8 31.5883 10.7111 31.359 10.6285C31.1425 10.5523 30.9641 10.5205 30.824 10.5332C30.6839 10.5459 30.5692 10.6063 30.4801 10.7142C30.3973 10.8159 30.3209 10.9715 30.2508 11.1811L29.2572 14.0965L28.4739 11.2382C28.4547 11.1874 28.4229 11.1112 28.3783 11.0096C28.3337 10.908 28.2509 10.8127 28.1299 10.7238C28.0153 10.6348 27.837 10.5904 27.5949 10.5904C27.3784 10.5904 27.2128 10.6317 27.0982 10.7142C26.9835 10.7905 26.9007 10.8794 26.8498 10.981C26.8052 11.0826 26.7733 11.1652 26.7542 11.2287L25.9708 14.0774L24.9773 11.1811C24.9072 10.9651 24.8276 10.8063 24.7385 10.7047C24.6493 10.6031 24.5378 10.5491 24.4041 10.5427C24.3836 10.5418 24.3622 10.5417 24.3398 10.5425C24.4495 10.7188 24.5126 10.9218 24.5126 11.148C24.5126 11.7948 24.1913 12.401 23.6741 12.7425ZM9.45324 17.1262C9.56788 17.2088 9.7271 17.2501 9.93091 17.2501C10.1538 17.2501 10.3226 17.2024 10.4372 17.1072C10.5583 17.0119 10.6442 16.9134 10.6952 16.8118C10.7461 16.7038 10.7748 16.634 10.7812 16.6022L11.6792 13.6773L12.5772 16.6117C12.5836 16.6308 12.6122 16.6943 12.6632 16.8023C12.7141 16.9039 12.8001 17.0055 12.9211 17.1072C13.0421 17.2024 13.2109 17.2501 13.4275 17.2501C13.644 17.2501 13.8096 17.2088 13.9243 17.1262C14.0389 17.0436 14.1185 16.9547 14.1631 16.8594C14.214 16.7642 14.2459 16.6975 14.2586 16.6594L15.9687 11.7432C16.0324 11.5336 16.061 11.3621 16.0547 11.2287C16.0547 11.0953 16.0069 10.9842 15.9114 10.8953C15.8158 10.8 15.6534 10.7111 15.4241 10.6285C15.2076 10.5523 15.0293 10.5205 14.8891 10.5332C14.749 10.5459 14.6344 10.6063 14.5452 10.7142C14.4624 10.8159 14.386 10.9715 14.3159 11.1811L13.3224 14.0965L12.539 11.2382C12.5199 11.1874 12.488 11.1112 12.4435 11.0096C12.3989 10.908 12.3161 10.8127 12.1951 10.7238C12.0804 10.6348 11.9021 10.5904 11.6601 10.5904C11.4435 10.5904 11.2779 10.6317 11.1633 10.7142C11.0487 10.7905 10.9659 10.8794 10.9149 10.981C10.8703 11.0826 10.8385 11.1652 10.8194 11.2287L10.036 14.0774L9.04244 11.1811C8.97238 10.9651 8.89277 10.8063 8.8036 10.7047C8.71444 10.6031 8.60298 10.5491 8.46923 10.5427C8.33548 10.5364 8.16034 10.5681 7.94379 10.638C7.61261 10.746 7.41198 10.8794 7.34192 11.0382C7.27824 11.1906 7.29416 11.4256 7.38969 11.7432L9.10931 16.6594C9.12205 16.6911 9.1539 16.7578 9.20485 16.8594C9.2558 16.9547 9.3386 17.0436 9.45324 17.1262ZM20.2607 15.497C20.0697 15.5796 19.8658 15.6209 19.6493 15.6209C19.4391 15.6209 19.2385 15.5796 19.0474 15.497C18.8627 15.4081 18.6971 15.2874 18.5507 15.135C18.4105 14.9762 18.2991 14.7952 18.2163 14.5919C18.1335 14.3887 18.0921 14.1727 18.0921 13.944C18.0921 13.709 18.1335 13.4899 18.2163 13.2866C18.2991 13.0834 18.4105 12.9055 18.5507 12.7531C18.6971 12.5943 18.8627 12.4736 19.0474 12.3911C19.2385 12.3021 19.4423 12.2577 19.6589 12.2577C19.869 12.2577 20.0665 12.3021 20.2512 12.3911C20.4422 12.4736 20.6078 12.5943 20.748 12.7531C20.8944 12.9055 21.0091 13.0834 21.0919 13.2866C21.1747 13.4899 21.2161 13.709 21.2161 13.944C21.2161 14.179 21.1747 14.4014 21.0919 14.611C21.0154 14.8142 20.904 14.9921 20.7575 15.1445C20.6174 15.2906 20.4518 15.4081 20.2607 15.497Z" fill="white"/>
<path fill-rule="evenodd" clip-rule="evenodd" d="M22.7707 10.3535C23.345 10.3535 23.9117 10.6862 23.9117 11.2269C23.9117 11.8544 23.4371 12.4215 22.7707 12.4215C22.157 12.4215 21.8438 11.8047 21.8438 11.2269C21.8438 10.7447 22.2585 10.3535 22.7707 10.3535Z" fill="white"/>
<path d="M38.5232 8.04234C38.5232 9.31888 37.4883 10.3537 36.2118 10.3537C34.9352 10.3537 33.9004 9.31888 33.9004 8.04234C33.9004 6.7658 34.9352 5.73096 36.2118 5.73096C37.4883 5.73096 38.5232 6.7658 38.5232 8.04234Z" fill="url(#paint1_linear_1968_639)"/>
<mask id="path-5-inside-1_1968_639" fill="white">
<path d="M40.1033 7.34933C40.4354 7.26422 40.6392 6.92401 40.5138 6.60494C40.3492 6.18609 40.1286 5.79038 39.8574 5.42886C39.4618 4.90142 38.9661 4.45707 38.3987 4.12118C37.8314 3.7853 37.2034 3.56445 36.5506 3.47126C36.1033 3.40739 35.6502 3.40434 35.2038 3.46145C34.8638 3.50496 34.6635 3.84727 34.7486 4.17936C34.8337 4.51146 35.1724 4.7062 35.514 4.67654C35.8004 4.65167 36.0893 4.65949 36.3752 4.7003C36.8665 4.77045 37.3392 4.93669 37.7663 5.18952C38.1934 5.44235 38.5665 5.77683 38.8643 6.17385C39.0376 6.40486 39.1834 6.65442 39.2993 6.91744C39.4376 7.23116 39.7712 7.43444 40.1033 7.34933Z"/>
</mask>
<path d="M40.1033 7.34933C40.4354 7.26422 40.6392 6.92401 40.5138 6.60494C40.3492 6.18609 40.1286 5.79038 39.8574 5.42886C39.4618 4.90142 38.9661 4.45707 38.3987 4.12118C37.8314 3.7853 37.2034 3.56445 36.5506 3.47126C36.1033 3.40739 35.6502 3.40434 35.2038 3.46145C34.8638 3.50496 34.6635 3.84727 34.7486 4.17936C34.8337 4.51146 35.1724 4.7062 35.514 4.67654C35.8004 4.65167 36.0893 4.65949 36.3752 4.7003C36.8665 4.77045 37.3392 4.93669 37.7663 5.18952C38.1934 5.44235 38.5665 5.77683 38.8643 6.17385C39.0376 6.40486 39.1834 6.65442 39.2993 6.91744C39.4376 7.23116 39.7712 7.43444 40.1033 7.34933Z" stroke="url(#paint2_linear_1968_639)" stroke-width="1.54092" mask="url(#path-5-inside-1_1968_639)"/>
<mask id="path-6-inside-2_1968_639" fill="white">
<path d="M42.2954 6.78763C42.6518 6.69629 42.8695 6.33196 42.7462 5.98532C42.4991 5.29061 42.1481 4.63595 41.7041 4.04407C41.1266 3.27421 40.4031 2.62563 39.575 2.13537C38.7468 1.64511 37.8302 1.32277 36.8775 1.18674C36.145 1.08217 35.4022 1.0893 34.6743 1.20676C34.3111 1.26537 34.0964 1.63153 34.1877 1.98793C34.279 2.34433 34.6419 2.55528 35.0063 2.50402C35.5634 2.42563 36.13 2.42589 36.6892 2.50573C37.4687 2.61702 38.2186 2.88076 38.8962 3.28189C39.5738 3.68302 40.1657 4.21368 40.6383 4.84357C40.9772 5.29543 41.2499 5.79201 41.4492 6.3182C41.5795 6.66227 41.939 6.87897 42.2954 6.78763Z"/>
</mask>
<path d="M42.2954 6.78763C42.6518 6.69629 42.8695 6.33196 42.7462 5.98532C42.4991 5.29061 42.1481 4.63595 41.7041 4.04407C41.1266 3.27421 40.4031 2.62563 39.575 2.13537C38.7468 1.64511 37.8302 1.32277 36.8775 1.18674C36.145 1.08217 35.4022 1.0893 34.6743 1.20676C34.3111 1.26537 34.0964 1.63153 34.1877 1.98793C34.279 2.34433 34.6419 2.55528 35.0063 2.50402C35.5634 2.42563 36.13 2.42589 36.6892 2.50573C37.4687 2.61702 38.2186 2.88076 38.8962 3.28189C39.5738 3.68302 40.1657 4.21368 40.6383 4.84357C40.9772 5.29543 41.2499 5.79201 41.4492 6.3182C41.5795 6.66227 41.939 6.87897 42.2954 6.78763Z" stroke="url(#paint3_linear_1968_639)" stroke-width="1.54092" mask="url(#path-6-inside-2_1968_639)"/>
<path d="M9.13069 22.2861C8.90689 22.2861 8.70454 22.2478 8.52366 22.1711C8.34584 22.0945 8.20481 21.9841 8.10057 21.84C7.99633 21.6959 7.94268 21.5258 7.93961 21.3296H8.62943C8.63863 21.4614 8.68461 21.5656 8.76739 21.6423C8.85323 21.7189 8.96974 21.7572 9.1169 21.7572C9.26712 21.7572 9.38516 21.722 9.471 21.6515C9.55684 21.5779 9.59976 21.4828 9.59976 21.3663C9.59976 21.2713 9.57064 21.1931 9.51239 21.1318C9.45414 21.0705 9.38056 21.023 9.29165 20.9892C9.2058 20.9525 9.08624 20.9126 8.93295 20.8697C8.72447 20.8084 8.55431 20.7486 8.42248 20.6903C8.29372 20.629 8.18182 20.5386 8.08677 20.419C7.9948 20.2964 7.94881 20.1339 7.94881 19.9315C7.94881 19.7415 7.99633 19.5759 8.09137 19.4349C8.18641 19.2938 8.31978 19.1865 8.49146 19.113C8.66315 19.0363 8.85937 18.998 9.08011 18.998C9.41122 18.998 9.67948 19.0792 9.88489 19.2417C10.0934 19.4011 10.2083 19.625 10.2298 19.9131H9.52159C9.51545 19.8028 9.46793 19.7123 9.37902 19.6418C9.29318 19.5682 9.17821 19.5314 9.03412 19.5314C8.90842 19.5314 8.80725 19.5636 8.7306 19.628C8.65702 19.6924 8.62023 19.7859 8.62023 19.9085C8.62023 19.9944 8.64782 20.0664 8.70301 20.1247C8.76126 20.1799 8.83177 20.2259 8.91455 20.2626C9.00039 20.2964 9.11996 20.3362 9.27325 20.3822C9.48173 20.4435 9.65188 20.5048 9.78371 20.5662C9.91555 20.6275 10.029 20.7195 10.124 20.8421C10.2191 20.9647 10.2666 21.1257 10.2666 21.325C10.2666 21.4966 10.2221 21.6561 10.1332 21.8032C10.0443 21.9504 9.91401 22.0684 9.74233 22.1573C9.57064 22.2432 9.36676 22.2861 9.13069 22.2861ZM13.2989 20.2351V21.4675C13.2989 21.5534 13.3188 21.6162 13.3587 21.6561C13.4016 21.6929 13.4721 21.7113 13.5702 21.7113H13.8691V22.2539H13.4644C12.9218 22.2539 12.6505 21.9902 12.6505 21.4629V20.2351H12.3469V19.7062H12.6505V19.0762H13.2989V19.7062H13.8691V20.2351H13.2989ZM18.4619 19.7062V22.2539H17.8135V21.932C17.7307 22.0424 17.6218 22.1297 17.4869 22.1941C17.3551 22.2554 17.211 22.2861 17.0547 22.2861C16.8554 22.2861 16.6791 22.2447 16.5258 22.1619C16.3725 22.0761 16.2514 21.9519 16.1625 21.7894C16.0767 21.6239 16.0337 21.4277 16.0337 21.2008V19.7062H16.6776V21.1088C16.6776 21.3112 16.7282 21.4675 16.8293 21.5779C16.9305 21.6852 17.0685 21.7388 17.2432 21.7388C17.421 21.7388 17.5605 21.6852 17.6617 21.5779C17.7629 21.4675 17.8135 21.3112 17.8135 21.1088V19.7062H18.4619ZM20.6561 20.9709C20.6561 20.7133 20.7067 20.4849 20.8079 20.2856C20.9121 20.0864 21.0531 19.9331 21.2309 19.8258C21.4088 19.7185 21.6065 19.6648 21.8242 19.6648C21.9897 19.6648 22.1476 19.7016 22.2979 19.7752C22.4481 19.8457 22.5676 19.9407 22.6566 20.0603V18.8508H23.3096V22.2539H22.6566V21.8768C22.5768 22.0025 22.4649 22.1037 22.3208 22.1803C22.1768 22.257 22.0097 22.2953 21.8196 22.2953C21.605 22.2953 21.4088 22.2401 21.2309 22.1297C21.0531 22.0194 20.9121 21.8645 20.8079 21.6653C20.7067 21.4629 20.6561 21.2315 20.6561 20.9709ZM22.6612 20.9801C22.6612 20.8237 22.6305 20.6903 22.5692 20.58C22.5079 20.4665 22.4251 20.3807 22.3208 20.3224C22.2166 20.2611 22.1047 20.2305 21.9851 20.2305C21.8656 20.2305 21.7552 20.2596 21.654 20.3178C21.5529 20.3761 21.4701 20.4619 21.4057 20.5754C21.3444 20.6857 21.3137 20.8176 21.3137 20.9709C21.3137 21.1241 21.3444 21.259 21.4057 21.3755C21.4701 21.489 21.5529 21.5764 21.654 21.6377C21.7583 21.699 21.8686 21.7296 21.9851 21.7296C22.1047 21.7296 22.2166 21.7005 22.3208 21.6423C22.4251 21.581 22.5079 21.4951 22.5692 21.3847C22.6305 21.2713 22.6612 21.1364 22.6612 20.9801ZM25.9894 19.4027C25.876 19.4027 25.781 19.3674 25.7043 19.2969C25.6307 19.2233 25.5939 19.1329 25.5939 19.0256C25.5939 18.9183 25.6307 18.8294 25.7043 18.7589C25.781 18.6853 25.876 18.6485 25.9894 18.6485C26.1029 18.6485 26.1964 18.6853 26.27 18.7589C26.3466 18.8294 26.3849 18.9183 26.3849 19.0256C26.3849 19.1329 26.3466 19.2233 26.27 19.2969C26.1964 19.3674 26.1029 19.4027 25.9894 19.4027ZM26.3067 19.7062V22.2539H25.6629V19.7062H26.3067ZM29.7987 22.2953C29.5534 22.2953 29.3327 22.2416 29.1365 22.1343C28.9402 22.024 28.7854 21.8691 28.672 21.6699C28.5616 21.4706 28.5064 21.2406 28.5064 20.9801C28.5064 20.7195 28.5631 20.4895 28.6766 20.2902C28.7931 20.091 28.951 19.9377 29.1502 19.8304C29.3495 19.72 29.5718 19.6648 29.8171 19.6648C30.0623 19.6648 30.2846 19.72 30.4839 19.8304C30.6832 19.9377 30.8395 20.091 30.953 20.2902C31.0695 20.4895 31.1277 20.7195 31.1277 20.9801C31.1277 21.2406 31.0679 21.4706 30.9484 21.6699C30.8319 21.8691 30.6724 22.024 30.4701 22.1343C30.2708 22.2416 30.047 22.2953 29.7987 22.2953ZM29.7987 21.7342C29.9152 21.7342 30.024 21.7067 30.1252 21.6515C30.2294 21.5932 30.3122 21.5074 30.3735 21.3939C30.4348 21.2805 30.4655 21.1425 30.4655 20.9801C30.4655 20.7379 30.4011 20.5524 30.2723 20.4236C30.1466 20.2918 29.9918 20.2259 29.8079 20.2259C29.6239 20.2259 29.4691 20.2918 29.3434 20.4236C29.2208 20.5524 29.1594 20.7379 29.1594 20.9801C29.1594 21.2223 29.2192 21.4093 29.3388 21.5411C29.4614 21.6699 29.6147 21.7342 29.7987 21.7342Z" fill="white"/>

</svg>
